<?xml version="1.0" encoding="utf-8" standalone="no"?>
<!DOCTYPE svg PUBLIC "-//W3C//DTD SVG 1.1//EN"
  "http://www.w3.org/Graphics/SVG/1.1/DTD/svg11.dtd">
<!-- Created with matplotlib (https://matplotlib.org/) -->
<svg height="720pt" version="1.1" viewBox="0 0 1296 720" width="1296pt" xmlns="http://www.w3.org/2000/svg" xmlns:xlink="http://www.w3.org/1999/xlink">
 <metadata>
  <rdf:RDF xmlns:cc="http://creativecommons.org/ns#" xmlns:dc="http://purl.org/dc/elements/1.1/" xmlns:rdf="http://www.w3.org/1999/02/22-rdf-syntax-ns#">
   <cc:Work>
    <dc:type rdf:resource="http://purl.org/dc/dcmitype/StillImage"/>
    <dc:date>2024-12-10T19:34:03.023250</dc:date>
    <dc:format>image/svg+xml</dc:format>
    <dc:creator>
     <cc:Agent>
      <dc:title>Matplotlib v3.3.3, https://matplotlib.org/</dc:title>
     </cc:Agent>
    </dc:creator>
   </cc:Work>
  </rdf:RDF>
 </metadata>
 <defs>
  <style type="text/css">*{stroke-linecap:butt;stroke-linejoin:round;}</style>
 </defs>
 <g id="figure_1">
  <g id="patch_1">
   <path d="M 0 720 
L 1296 720 
L 1296 0 
L 0 0 
z
" style="fill:none;"/>
  </g>
  <g id="axes_1">
   <g id="patch_2">
    <path d="M 162 630 
L 1166.4 630 
L 1166.4 86.4 
L 162 86.4 
z
" style="fill:#ffffff;"/>
   </g>
   <g id="PathCollection_1">
    <defs>
     <path d="M 0 0.790569 
C 0.209661 0.790569 0.410764 0.70727 0.559017 0.559017 
C 0.70727 0.410764 0.790569 0.209661 0.790569 0 
C 0.790569 -0.209661 0.70727 -0.410764 0.559017 -0.559017 
C 0.410764 -0.70727 0.209661 -0.790569 0 -0.790569 
C -0.209661 -0.790569 -0.410764 -0.70727 -0.559017 -0.559017 
C -0.70727 -0.410764 -0.790569 -0.209661 -0.790569 0 
C -0.790569 0.209661 -0.70727 0.410764 -0.559017 0.559017 
C -0.410764 0.70727 -0.209661 0.790569 0 0.790569 
z
" id="m5649174971" style="stroke:#87ceeb;"/>
    </defs>
    <g clip-path="url(#pdec905fb45)">
     <use style="fill:#87ceeb;stroke:#87ceeb;" x="416.215681" xlink:href="#m5649174971" y="360.21316"/>
     <use style="fill:#87ceeb;stroke:#87ceeb;" x="613.213595" xlink:href="#m5649174971" y="158.177824"/>
     <use style="fill:#87ceeb;stroke:#87ceeb;" x="1076.813314" xlink:href="#m5649174971" y="343.088214"/>
     <use style="fill:#87ceeb;stroke:#87ceeb;" x="922.994682" xlink:href="#m5649174971" y="454.689623"/>
     <use style="fill:#87ceeb;stroke:#87ceeb;" x="395.269249" xlink:href="#m5649174971" y="231.648329"/>
     <use style="fill:#87ceeb;stroke:#87ceeb;" x="312.02172" xlink:href="#m5649174971" y="170.698786"/>
     <use style="fill:#87ceeb;stroke:#87ceeb;" x="1120.745455" xlink:href="#m5649174971" y="601.574901"/>
     <use style="fill:#87ceeb;stroke:#87ceeb;" x="458.461776" xlink:href="#m5649174971" y="385.453025"/>
     <use style="fill:#87ceeb;stroke:#87ceeb;" x="912.66313" xlink:href="#m5649174971" y="452.012823"/>
     <use style="fill:#87ceeb;stroke:#87ceeb;" x="532.988637" xlink:href="#m5649174971" y="425.047345"/>
     <use style="fill:#87ceeb;stroke:#87ceeb;" x="232.909657" xlink:href="#m5649174971" y="209.269974"/>
     <use style="fill:#87ceeb;stroke:#87ceeb;" x="636.695745" xlink:href="#m5649174971" y="116.852233"/>
     <use style="fill:#87ceeb;stroke:#87ceeb;" x="961.165007" xlink:href="#m5649174971" y="605.290909"/>
     <use style="fill:#87ceeb;stroke:#87ceeb;" x="207.654545" xlink:href="#m5649174971" y="392.739767"/>
     <use style="fill:#87ceeb;stroke:#87ceeb;" x="824.258485" xlink:href="#m5649174971" y="381.763822"/>
     <use style="fill:#87ceeb;stroke:#87ceeb;" x="964.167164" xlink:href="#m5649174971" y="602.837633"/>
     <use style="fill:#87ceeb;stroke:#87ceeb;" x="298.342203" xlink:href="#m5649174971" y="378.006926"/>
     <use style="fill:#87ceeb;stroke:#87ceeb;" x="810.307394" xlink:href="#m5649174971" y="542.531845"/>
     <use style="fill:#87ceeb;stroke:#87ceeb;" x="1058.619117" xlink:href="#m5649174971" y="517.925928"/>
     <use style="fill:#87ceeb;stroke:#87ceeb;" x="1027.554866" xlink:href="#m5649174971" y="451.642481"/>
     <use style="fill:#87ceeb;stroke:#87ceeb;" x="228.219908" xlink:href="#m5649174971" y="318.333957"/>
     <use style="fill:#87ceeb;stroke:#87ceeb;" x="644.224336" xlink:href="#m5649174971" y="561.769827"/>
     <use style="fill:#87ceeb;stroke:#87ceeb;" x="250.517404" xlink:href="#m5649174971" y="471.386606"/>
     <use style="fill:#87ceeb;stroke:#87ceeb;" x="689.806642" xlink:href="#m5649174971" y="315.947245"/>
     <use style="fill:#87ceeb;stroke:#87ceeb;" x="230.072053" xlink:href="#m5649174971" y="296.721594"/>
     <use style="fill:#87ceeb;stroke:#87ceeb;" x="675.771419" xlink:href="#m5649174971" y="450.461663"/>
     <use style="fill:#87ceeb;stroke:#87ceeb;" x="771.649907" xlink:href="#m5649174971" y="350.475562"/>
     <use style="fill:#87ceeb;stroke:#87ceeb;" x="608.340116" xlink:href="#m5649174971" y="159.691208"/>
     <use style="fill:#87ceeb;stroke:#87ceeb;" x="586.249239" xlink:href="#m5649174971" y="330.450039"/>
     <use style="fill:#87ceeb;stroke:#87ceeb;" x="846.050878" xlink:href="#m5649174971" y="438.191687"/>
     <use style="fill:#87ceeb;stroke:#87ceeb;" x="885.398435" xlink:href="#m5649174971" y="450.903917"/>
     <use style="fill:#87ceeb;stroke:#87ceeb;" x="357.462981" xlink:href="#m5649174971" y="174.842608"/>
     <use style="fill:#87ceeb;stroke:#87ceeb;" x="380.025245" xlink:href="#m5649174971" y="344.496566"/>
     <use style="fill:#87ceeb;stroke:#87ceeb;" x="590.002399" xlink:href="#m5649174971" y="484.558514"/>
     <use style="fill:#87ceeb;stroke:#87ceeb;" x="614.759523" xlink:href="#m5649174971" y="111.109091"/>
     <use style="fill:#87ceeb;stroke:#87ceeb;" x="637.465307" xlink:href="#m5649174971" y="296.010596"/>
     <use style="fill:#87ceeb;stroke:#87ceeb;" x="386.92037" xlink:href="#m5649174971" y="351.76268"/>
     <use style="fill:#87ceeb;stroke:#87ceeb;" x="456.894815" xlink:href="#m5649174971" y="451.252455"/>
     <use style="fill:#87ceeb;stroke:#87ceeb;" x="295.927734" xlink:href="#m5649174971" y="329.097902"/>
     <use style="fill:#87ceeb;stroke:#87ceeb;" x="658.395655" xlink:href="#m5649174971" y="176.352638"/>
     <use style="fill:#87ceeb;stroke:#87ceeb;" x="666.937543" xlink:href="#m5649174971" y="263.393501"/>
     <use style="fill:#87ceeb;stroke:#87ceeb;" x="688.756227" xlink:href="#m5649174971" y="390.360338"/>
     <use style="fill:#87ceeb;stroke:#87ceeb;" x="983.457863" xlink:href="#m5649174971" y="540.387418"/>
     <use style="fill:#87ceeb;stroke:#87ceeb;" x="787.30158" xlink:href="#m5649174971" y="339.47325"/>
     <use style="fill:#87ceeb;stroke:#87ceeb;" x="400.862182" xlink:href="#m5649174971" y="188.603208"/>
     <use style="fill:#87ceeb;stroke:#87ceeb;" x="505.397002" xlink:href="#m5649174971" y="277.918076"/>
     <use style="fill:#87ceeb;stroke:#87ceeb;" x="214.382643" xlink:href="#m5649174971" y="134.636341"/>
     <use style="fill:#87ceeb;stroke:#87ceeb;" x="677.576549" xlink:href="#m5649174971" y="466.343837"/>
     <use style="fill:#87ceeb;stroke:#87ceeb;" x="806.746006" xlink:href="#m5649174971" y="270.042838"/>
     <use style="fill:#87ceeb;stroke:#87ceeb;" x="748.608831" xlink:href="#m5649174971" y="224.911384"/>
     <use style="fill:#87ceeb;stroke:#87ceeb;" x="543.464327" xlink:href="#m5649174971" y="281.854266"/>
     <use style="fill:#87ceeb;stroke:#87ceeb;" x="719.254752" xlink:href="#m5649174971" y="330.51144"/>
    </g>
   </g>
   <g id="PathCollection_2">
    <defs>
     <path d="M 0 -2.236068 
L -0.502029 -0.690983 
L -2.126627 -0.690983 
L -0.812299 0.263932 
L -1.314328 1.809017 
L -0 0.854102 
L 1.314328 1.809017 
L 0.812299 0.263932 
L 2.126627 -0.690983 
L 0.502029 -0.690983 
z
" id="mb069267170" style="stroke:#ff0000;"/>
    </defs>
    <g clip-path="url(#pdec905fb45)">
     <use style="fill:#ff0000;stroke:#ff0000;" x="586.470086" xlink:href="#mb069267170" y="330.466956"/>
    </g>
   </g>
   <g id="matplotlib.axis_1">
    <g id="xtick_1">
     <g id="line2d_1">
      <defs>
       <path d="M 0 0 
L 0 3.5 
" id="m81072b9d75" style="stroke:#000000;stroke-width:0.8;"/>
      </defs>
      <g>
       <use style="stroke:#000000;stroke-width:0.8;" x="194.025755" xlink:href="#m81072b9d75" y="630"/>
      </g>
     </g>
     <g id="text_1">
      <!-- −36 -->
      <g transform="translate(183.473411 644.598438)scale(0.1 -0.1)">
       <defs>
        <path d="M 10.59375 35.5 
L 73.1875 35.5 
L 73.1875 27.203125 
L 10.59375 27.203125 
z
" id="DejaVuSans-8722"/>
        <path d="M 40.578125 39.3125 
Q 47.65625 37.796875 51.625 33 
Q 55.609375 28.21875 55.609375 21.1875 
Q 55.609375 10.40625 48.1875 4.484375 
Q 40.765625 -1.421875 27.09375 -1.421875 
Q 22.515625 -1.421875 17.65625 -0.515625 
Q 12.796875 0.390625 7.625 2.203125 
L 7.625 11.71875 
Q 11.71875 9.328125 16.59375 8.109375 
Q 21.484375 6.890625 26.8125 6.890625 
Q 36.078125 6.890625 40.9375 10.546875 
Q 45.796875 14.203125 45.796875 21.1875 
Q 45.796875 27.640625 41.28125 31.265625 
Q 36.765625 34.90625 28.71875 34.90625 
L 20.21875 34.90625 
L 20.21875 43.015625 
L 29.109375 43.015625 
Q 36.375 43.015625 40.234375 45.921875 
Q 44.09375 48.828125 44.09375 54.296875 
Q 44.09375 59.90625 40.109375 62.90625 
Q 36.140625 65.921875 28.71875 65.921875 
Q 24.65625 65.921875 20.015625 65.03125 
Q 15.375 64.15625 9.8125 62.3125 
L 9.8125 71.09375 
Q 15.4375 72.65625 20.34375 73.4375 
Q 25.25 74.21875 29.59375 74.21875 
Q 40.828125 74.21875 47.359375 69.109375 
Q 53.90625 64.015625 53.90625 55.328125 
Q 53.90625 49.265625 50.4375 45.09375 
Q 46.96875 40.921875 40.578125 39.3125 
z
" id="DejaVuSans-51"/>
        <path d="M 33.015625 40.375 
Q 26.375 40.375 22.484375 35.828125 
Q 18.609375 31.296875 18.609375 23.390625 
Q 18.609375 15.53125 22.484375 10.953125 
Q 26.375 6.390625 33.015625 6.390625 
Q 39.65625 6.390625 43.53125 10.953125 
Q 47.40625 15.53125 47.40625 23.390625 
Q 47.40625 31.296875 43.53125 35.828125 
Q 39.65625 40.375 33.015625 40.375 
z
M 52.59375 71.296875 
L 52.59375 62.3125 
Q 48.875 64.0625 45.09375 64.984375 
Q 41.3125 65.921875 37.59375 65.921875 
Q 27.828125 65.921875 22.671875 59.328125 
Q 17.53125 52.734375 16.796875 39.40625 
Q 19.671875 43.65625 24.015625 45.921875 
Q 28.375 48.1875 33.59375 48.1875 
Q 44.578125 48.1875 50.953125 41.515625 
Q 57.328125 34.859375 57.328125 23.390625 
Q 57.328125 12.15625 50.6875 5.359375 
Q 44.046875 -1.421875 33.015625 -1.421875 
Q 20.359375 -1.421875 13.671875 8.265625 
Q 6.984375 17.96875 6.984375 36.375 
Q 6.984375 53.65625 15.1875 63.9375 
Q 23.390625 74.21875 37.203125 74.21875 
Q 40.921875 74.21875 44.703125 73.484375 
Q 48.484375 72.75 52.59375 71.296875 
z
" id="DejaVuSans-54"/>
       </defs>
       <use xlink:href="#DejaVuSans-8722"/>
       <use x="83.789062" xlink:href="#DejaVuSans-51"/>
       <use x="147.412109" xlink:href="#DejaVuSans-54"/>
      </g>
     </g>
    </g>
    <g id="xtick_2">
     <g id="line2d_2">
      <g>
       <use style="stroke:#000000;stroke-width:0.8;" x="356.192957" xlink:href="#m81072b9d75" y="630"/>
      </g>
     </g>
     <g id="text_2">
      <!-- −35 -->
      <g transform="translate(345.640613 644.598438)scale(0.1 -0.1)">
       <defs>
        <path d="M 10.796875 72.90625 
L 49.515625 72.90625 
L 49.515625 64.59375 
L 19.828125 64.59375 
L 19.828125 46.734375 
Q 21.96875 47.46875 24.109375 47.828125 
Q 26.265625 48.1875 28.421875 48.1875 
Q 40.625 48.1875 47.75 41.5 
Q 54.890625 34.8125 54.890625 23.390625 
Q 54.890625 11.625 47.5625 5.09375 
Q 40.234375 -1.421875 26.90625 -1.421875 
Q 22.3125 -1.421875 17.546875 -0.640625 
Q 12.796875 0.140625 7.71875 1.703125 
L 7.71875 11.625 
Q 12.109375 9.234375 16.796875 8.0625 
Q 21.484375 6.890625 26.703125 6.890625 
Q 35.15625 6.890625 40.078125 11.328125 
Q 45.015625 15.765625 45.015625 23.390625 
Q 45.015625 31 40.078125 35.4375 
Q 35.15625 39.890625 26.703125 39.890625 
Q 22.75 39.890625 18.8125 39.015625 
Q 14.890625 38.140625 10.796875 36.28125 
z
" id="DejaVuSans-53"/>
       </defs>
       <use xlink:href="#DejaVuSans-8722"/>
       <use x="83.789062" xlink:href="#DejaVuSans-51"/>
       <use x="147.412109" xlink:href="#DejaVuSans-53"/>
      </g>
     </g>
    </g>
    <g id="xtick_3">
     <g id="line2d_3">
      <g>
       <use style="stroke:#000000;stroke-width:0.8;" x="518.360158" xlink:href="#m81072b9d75" y="630"/>
      </g>
     </g>
     <g id="text_3">
      <!-- −34 -->
      <g transform="translate(507.807815 644.598438)scale(0.1 -0.1)">
       <defs>
        <path d="M 37.796875 64.3125 
L 12.890625 25.390625 
L 37.796875 25.390625 
z
M 35.203125 72.90625 
L 47.609375 72.90625 
L 47.609375 25.390625 
L 58.015625 25.390625 
L 58.015625 17.1875 
L 47.609375 17.1875 
L 47.609375 0 
L 37.796875 0 
L 37.796875 17.1875 
L 4.890625 17.1875 
L 4.890625 26.703125 
z
" id="DejaVuSans-52"/>
       </defs>
       <use xlink:href="#DejaVuSans-8722"/>
       <use x="83.789062" xlink:href="#DejaVuSans-51"/>
       <use x="147.412109" xlink:href="#DejaVuSans-52"/>
      </g>
     </g>
    </g>
    <g id="xtick_4">
     <g id="line2d_4">
      <g>
       <use style="stroke:#000000;stroke-width:0.8;" x="680.52736" xlink:href="#m81072b9d75" y="630"/>
      </g>
     </g>
     <g id="text_4">
      <!-- −33 -->
      <g transform="translate(669.975016 644.598438)scale(0.1 -0.1)">
       <use xlink:href="#DejaVuSans-8722"/>
       <use x="83.789062" xlink:href="#DejaVuSans-51"/>
       <use x="147.412109" xlink:href="#DejaVuSans-51"/>
      </g>
     </g>
    </g>
    <g id="xtick_5">
     <g id="line2d_5">
      <g>
       <use style="stroke:#000000;stroke-width:0.8;" x="842.694562" xlink:href="#m81072b9d75" y="630"/>
      </g>
     </g>
     <g id="text_5">
      <!-- −32 -->
      <g transform="translate(832.142218 644.598438)scale(0.1 -0.1)">
       <defs>
        <path d="M 19.1875 8.296875 
L 53.609375 8.296875 
L 53.609375 0 
L 7.328125 0 
L 7.328125 8.296875 
Q 12.9375 14.109375 22.625 23.890625 
Q 32.328125 33.6875 34.8125 36.53125 
Q 39.546875 41.84375 41.421875 45.53125 
Q 43.3125 49.21875 43.3125 52.78125 
Q 43.3125 58.59375 39.234375 62.25 
Q 35.15625 65.921875 28.609375 65.921875 
Q 23.96875 65.921875 18.8125 64.3125 
Q 13.671875 62.703125 7.8125 59.421875 
L 7.8125 69.390625 
Q 13.765625 71.78125 18.9375 73 
Q 24.125 74.21875 28.421875 74.21875 
Q 39.75 74.21875 46.484375 68.546875 
Q 53.21875 62.890625 53.21875 53.421875 
Q 53.21875 48.921875 51.53125 44.890625 
Q 49.859375 40.875 45.40625 35.40625 
Q 44.1875 33.984375 37.640625 27.21875 
Q 31.109375 20.453125 19.1875 8.296875 
z
" id="DejaVuSans-50"/>
       </defs>
       <use xlink:href="#DejaVuSans-8722"/>
       <use x="83.789062" xlink:href="#DejaVuSans-51"/>
       <use x="147.412109" xlink:href="#DejaVuSans-50"/>
      </g>
     </g>
    </g>
    <g id="xtick_6">
     <g id="line2d_6">
      <g>
       <use style="stroke:#000000;stroke-width:0.8;" x="1004.861763" xlink:href="#m81072b9d75" y="630"/>
      </g>
     </g>
     <g id="text_6">
      <!-- −31 -->
      <g transform="translate(994.30942 644.598438)scale(0.1 -0.1)">
       <defs>
        <path d="M 12.40625 8.296875 
L 28.515625 8.296875 
L 28.515625 63.921875 
L 10.984375 60.40625 
L 10.984375 69.390625 
L 28.421875 72.90625 
L 38.28125 72.90625 
L 38.28125 8.296875 
L 54.390625 8.296875 
L 54.390625 0 
L 12.40625 0 
z
" id="DejaVuSans-49"/>
       </defs>
       <use xlink:href="#DejaVuSans-8722"/>
       <use x="83.789062" xlink:href="#DejaVuSans-51"/>
       <use x="147.412109" xlink:href="#DejaVuSans-49"/>
      </g>
     </g>
    </g>
    <g id="text_7">
     <!-- x -->
     <g transform="translate(661.240625 658.276562)scale(0.1 -0.1)">
      <defs>
       <path d="M 54.890625 54.6875 
L 35.109375 28.078125 
L 55.90625 0 
L 45.3125 0 
L 29.390625 21.484375 
L 13.484375 0 
L 2.875 0 
L 24.125 28.609375 
L 4.6875 54.6875 
L 15.28125 54.6875 
L 29.78125 35.203125 
L 44.28125 54.6875 
z
" id="DejaVuSans-120"/>
      </defs>
      <use xlink:href="#DejaVuSans-120"/>
     </g>
    </g>
   </g>
   <g id="matplotlib.axis_2">
    <g id="ytick_1">
     <g id="line2d_7">
      <defs>
       <path d="M 0 0 
L -3.5 0 
" id="med45d883cf" style="stroke:#000000;stroke-width:0.8;"/>
      </defs>
      <g>
       <use style="stroke:#000000;stroke-width:0.8;" x="162" xlink:href="#med45d883cf" y="590.515106"/>
      </g>
     </g>
     <g id="text_8">
      <!-- −6 -->
      <g transform="translate(140.257812 594.314325)scale(0.1 -0.1)">
       <use xlink:href="#DejaVuSans-8722"/>
       <use x="83.789062" xlink:href="#DejaVuSans-54"/>
      </g>
     </g>
    </g>
    <g id="ytick_2">
     <g id="line2d_8">
      <g>
       <use style="stroke:#000000;stroke-width:0.8;" x="162" xlink:href="#med45d883cf" y="493.842934"/>
      </g>
     </g>
     <g id="text_9">
      <!-- −5 -->
      <g transform="translate(140.257812 497.642152)scale(0.1 -0.1)">
       <use xlink:href="#DejaVuSans-8722"/>
       <use x="83.789062" xlink:href="#DejaVuSans-53"/>
      </g>
     </g>
    </g>
    <g id="ytick_3">
     <g id="line2d_9">
      <g>
       <use style="stroke:#000000;stroke-width:0.8;" x="162" xlink:href="#med45d883cf" y="397.170761"/>
      </g>
     </g>
     <g id="text_10">
      <!-- −4 -->
      <g transform="translate(140.257812 400.96998)scale(0.1 -0.1)">
       <use xlink:href="#DejaVuSans-8722"/>
       <use x="83.789062" xlink:href="#DejaVuSans-52"/>
      </g>
     </g>
    </g>
    <g id="ytick_4">
     <g id="line2d_10">
      <g>
       <use style="stroke:#000000;stroke-width:0.8;" x="162" xlink:href="#med45d883cf" y="300.498588"/>
      </g>
     </g>
     <g id="text_11">
      <!-- −3 -->
      <g transform="translate(140.257812 304.297807)scale(0.1 -0.1)">
       <use xlink:href="#DejaVuSans-8722"/>
       <use x="83.789062" xlink:href="#DejaVuSans-51"/>
      </g>
     </g>
    </g>
    <g id="ytick_5">
     <g id="line2d_11">
      <g>
       <use style="stroke:#000000;stroke-width:0.8;" x="162" xlink:href="#med45d883cf" y="203.826416"/>
      </g>
     </g>
     <g id="text_12">
      <!-- −2 -->
      <g transform="translate(140.257812 207.625635)scale(0.1 -0.1)">
       <use xlink:href="#DejaVuSans-8722"/>
       <use x="83.789062" xlink:href="#DejaVuSans-50"/>
      </g>
     </g>
    </g>
    <g id="ytick_6">
     <g id="line2d_12">
      <g>
       <use style="stroke:#000000;stroke-width:0.8;" x="162" xlink:href="#med45d883cf" y="107.154243"/>
      </g>
     </g>
     <g id="text_13">
      <!-- −1 -->
      <g transform="translate(140.257812 110.953462)scale(0.1 -0.1)">
       <use xlink:href="#DejaVuSans-8722"/>
       <use x="83.789062" xlink:href="#DejaVuSans-49"/>
      </g>
     </g>
    </g>
    <g id="text_14">
     <!-- y -->
     <g transform="translate(134.178125 361.159375)rotate(-90)scale(0.1 -0.1)">
      <defs>
       <path d="M 32.171875 -5.078125 
Q 28.375 -14.84375 24.75 -17.8125 
Q 21.140625 -20.796875 15.09375 -20.796875 
L 7.90625 -20.796875 
L 7.90625 -13.28125 
L 13.1875 -13.28125 
Q 16.890625 -13.28125 18.9375 -11.515625 
Q 21 -9.765625 23.484375 -3.21875 
L 25.09375 0.875 
L 2.984375 54.6875 
L 12.5 54.6875 
L 29.59375 11.921875 
L 46.6875 54.6875 
L 56.203125 54.6875 
z
" id="DejaVuSans-121"/>
      </defs>
      <use xlink:href="#DejaVuSans-121"/>
     </g>
    </g>
   </g>
   <g id="patch_3">
    <path d="M 162 630 
L 162 86.4 
" style="fill:none;stroke:#000000;stroke-linecap:square;stroke-linejoin:miter;stroke-width:0.8;"/>
   </g>
   <g id="patch_4">
    <path d="M 1166.4 630 
L 1166.4 86.4 
" style="fill:none;stroke:#000000;stroke-linecap:square;stroke-linejoin:miter;stroke-width:0.8;"/>
   </g>
   <g id="patch_5">
    <path d="M 162 630 
L 1166.4 630 
" style="fill:none;stroke:#000000;stroke-linecap:square;stroke-linejoin:miter;stroke-width:0.8;"/>
   </g>
   <g id="patch_6">
    <path d="M 162 86.4 
L 1166.4 86.4 
" style="fill:none;stroke:#000000;stroke-linecap:square;stroke-linejoin:miter;stroke-width:0.8;"/>
   </g>
   <g id="text_15">
    <!-- efficient -->
    <g transform="translate(417.026517 359.7298)scale(0.11 -0.11)">
     <defs>
      <path d="M 56.203125 29.59375 
L 56.203125 25.203125 
L 14.890625 25.203125 
Q 15.484375 15.921875 20.484375 11.0625 
Q 25.484375 6.203125 34.421875 6.203125 
Q 39.59375 6.203125 44.453125 7.46875 
Q 49.3125 8.734375 54.109375 11.28125 
L 54.109375 2.78125 
Q 49.265625 0.734375 44.1875 -0.34375 
Q 39.109375 -1.421875 33.890625 -1.421875 
Q 20.796875 -1.421875 13.15625 6.1875 
Q 5.515625 13.8125 5.515625 26.8125 
Q 5.515625 40.234375 12.765625 48.109375 
Q 20.015625 56 32.328125 56 
Q 43.359375 56 49.78125 48.890625 
Q 56.203125 41.796875 56.203125 29.59375 
z
M 47.21875 32.234375 
Q 47.125 39.59375 43.09375 43.984375 
Q 39.0625 48.390625 32.421875 48.390625 
Q 24.90625 48.390625 20.390625 44.140625 
Q 15.875 39.890625 15.1875 32.171875 
z
" id="DejaVuSans-101"/>
      <path d="M 37.109375 75.984375 
L 37.109375 68.5 
L 28.515625 68.5 
Q 23.6875 68.5 21.796875 66.546875 
Q 19.921875 64.59375 19.921875 59.515625 
L 19.921875 54.6875 
L 34.71875 54.6875 
L 34.71875 47.703125 
L 19.921875 47.703125 
L 19.921875 0 
L 10.890625 0 
L 10.890625 47.703125 
L 2.296875 47.703125 
L 2.296875 54.6875 
L 10.890625 54.6875 
L 10.890625 58.5 
Q 10.890625 67.625 15.140625 71.796875 
Q 19.390625 75.984375 28.609375 75.984375 
z
" id="DejaVuSans-102"/>
      <path d="M 9.421875 54.6875 
L 18.40625 54.6875 
L 18.40625 0 
L 9.421875 0 
z
M 9.421875 75.984375 
L 18.40625 75.984375 
L 18.40625 64.59375 
L 9.421875 64.59375 
z
" id="DejaVuSans-105"/>
      <path d="M 48.78125 52.59375 
L 48.78125 44.1875 
Q 44.96875 46.296875 41.140625 47.34375 
Q 37.3125 48.390625 33.40625 48.390625 
Q 24.65625 48.390625 19.8125 42.84375 
Q 14.984375 37.3125 14.984375 27.296875 
Q 14.984375 17.28125 19.8125 11.734375 
Q 24.65625 6.203125 33.40625 6.203125 
Q 37.3125 6.203125 41.140625 7.25 
Q 44.96875 8.296875 48.78125 10.40625 
L 48.78125 2.09375 
Q 45.015625 0.34375 40.984375 -0.53125 
Q 36.96875 -1.421875 32.421875 -1.421875 
Q 20.0625 -1.421875 12.78125 6.34375 
Q 5.515625 14.109375 5.515625 27.296875 
Q 5.515625 40.671875 12.859375 48.328125 
Q 20.21875 56 33.015625 56 
Q 37.15625 56 41.109375 55.140625 
Q 45.0625 54.296875 48.78125 52.59375 
z
" id="DejaVuSans-99"/>
      <path d="M 54.890625 33.015625 
L 54.890625 0 
L 45.90625 0 
L 45.90625 32.71875 
Q 45.90625 40.484375 42.875 44.328125 
Q 39.84375 48.1875 33.796875 48.1875 
Q 26.515625 48.1875 22.3125 43.546875 
Q 18.109375 38.921875 18.109375 30.90625 
L 18.109375 0 
L 9.078125 0 
L 9.078125 54.6875 
L 18.109375 54.6875 
L 18.109375 46.1875 
Q 21.34375 51.125 25.703125 53.5625 
Q 30.078125 56 35.796875 56 
Q 45.21875 56 50.046875 50.171875 
Q 54.890625 44.34375 54.890625 33.015625 
z
" id="DejaVuSans-110"/>
      <path d="M 18.3125 70.21875 
L 18.3125 54.6875 
L 36.8125 54.6875 
L 36.8125 47.703125 
L 18.3125 47.703125 
L 18.3125 18.015625 
Q 18.3125 11.328125 20.140625 9.421875 
Q 21.96875 7.515625 27.59375 7.515625 
L 36.8125 7.515625 
L 36.8125 0 
L 27.59375 0 
Q 17.1875 0 13.234375 3.875 
Q 9.28125 7.765625 9.28125 18.015625 
L 9.28125 47.703125 
L 2.6875 47.703125 
L 2.6875 54.6875 
L 9.28125 54.6875 
L 9.28125 70.21875 
z
" id="DejaVuSans-116"/>
     </defs>
     <use xlink:href="#DejaVuSans-101"/>
     <use x="61.523438" xlink:href="#DejaVuSans-102"/>
     <use x="96.728516" xlink:href="#DejaVuSans-102"/>
     <use x="131.933594" xlink:href="#DejaVuSans-105"/>
     <use x="159.716797" xlink:href="#DejaVuSans-99"/>
     <use x="214.697266" xlink:href="#DejaVuSans-105"/>
     <use x="242.480469" xlink:href="#DejaVuSans-101"/>
     <use x="304.003906" xlink:href="#DejaVuSans-110"/>
     <use x="367.382812" xlink:href="#DejaVuSans-116"/>
    </g>
   </g>
   <g id="text_16">
    <!-- sensing -->
    <g transform="translate(614.024431 157.694463)scale(0.11 -0.11)">
     <defs>
      <path d="M 44.28125 53.078125 
L 44.28125 44.578125 
Q 40.484375 46.53125 36.375 47.5 
Q 32.28125 48.484375 27.875 48.484375 
Q 21.1875 48.484375 17.84375 46.4375 
Q 14.5 44.390625 14.5 40.28125 
Q 14.5 37.15625 16.890625 35.375 
Q 19.28125 33.59375 26.515625 31.984375 
L 29.59375 31.296875 
Q 39.15625 29.25 43.1875 25.515625 
Q 47.21875 21.78125 47.21875 15.09375 
Q 47.21875 7.46875 41.1875 3.015625 
Q 35.15625 -1.421875 24.609375 -1.421875 
Q 20.21875 -1.421875 15.453125 -0.5625 
Q 10.6875 0.296875 5.421875 2 
L 5.421875 11.28125 
Q 10.40625 8.6875 15.234375 7.390625 
Q 20.0625 6.109375 24.8125 6.109375 
Q 31.15625 6.109375 34.5625 8.28125 
Q 37.984375 10.453125 37.984375 14.40625 
Q 37.984375 18.0625 35.515625 20.015625 
Q 33.0625 21.96875 24.703125 23.78125 
L 21.578125 24.515625 
Q 13.234375 26.265625 9.515625 29.90625 
Q 5.8125 33.546875 5.8125 39.890625 
Q 5.8125 47.609375 11.28125 51.796875 
Q 16.75 56 26.8125 56 
Q 31.78125 56 36.171875 55.265625 
Q 40.578125 54.546875 44.28125 53.078125 
z
" id="DejaVuSans-115"/>
      <path d="M 45.40625 27.984375 
Q 45.40625 37.75 41.375 43.109375 
Q 37.359375 48.484375 30.078125 48.484375 
Q 22.859375 48.484375 18.828125 43.109375 
Q 14.796875 37.75 14.796875 27.984375 
Q 14.796875 18.265625 18.828125 12.890625 
Q 22.859375 7.515625 30.078125 7.515625 
Q 37.359375 7.515625 41.375 12.890625 
Q 45.40625 18.265625 45.40625 27.984375 
z
M 54.390625 6.78125 
Q 54.390625 -7.171875 48.1875 -13.984375 
Q 42 -20.796875 29.203125 -20.796875 
Q 24.46875 -20.796875 20.265625 -20.09375 
Q 16.0625 -19.390625 12.109375 -17.921875 
L 12.109375 -9.1875 
Q 16.0625 -11.328125 19.921875 -12.34375 
Q 23.78125 -13.375 27.78125 -13.375 
Q 36.625 -13.375 41.015625 -8.765625 
Q 45.40625 -4.15625 45.40625 5.171875 
L 45.40625 9.625 
Q 42.625 4.78125 38.28125 2.390625 
Q 33.9375 0 27.875 0 
Q 17.828125 0 11.671875 7.65625 
Q 5.515625 15.328125 5.515625 27.984375 
Q 5.515625 40.671875 11.671875 48.328125 
Q 17.828125 56 27.875 56 
Q 33.9375 56 38.28125 53.609375 
Q 42.625 51.21875 45.40625 46.390625 
L 45.40625 54.6875 
L 54.390625 54.6875 
z
" id="DejaVuSans-103"/>
     </defs>
     <use xlink:href="#DejaVuSans-115"/>
     <use x="52.099609" xlink:href="#DejaVuSans-101"/>
     <use x="113.623047" xlink:href="#DejaVuSans-110"/>
     <use x="177.001953" xlink:href="#DejaVuSans-115"/>
     <use x="229.101562" xlink:href="#DejaVuSans-105"/>
     <use x="256.884766" xlink:href="#DejaVuSans-110"/>
     <use x="320.263672" xlink:href="#DejaVuSans-103"/>
    </g>
   </g>
   <g id="text_17">
    <!-- components -->
    <g transform="translate(1077.62415 342.604853)scale(0.11 -0.11)">
     <defs>
      <path d="M 30.609375 48.390625 
Q 23.390625 48.390625 19.1875 42.75 
Q 14.984375 37.109375 14.984375 27.296875 
Q 14.984375 17.484375 19.15625 11.84375 
Q 23.34375 6.203125 30.609375 6.203125 
Q 37.796875 6.203125 41.984375 11.859375 
Q 46.1875 17.53125 46.1875 27.296875 
Q 46.1875 37.015625 41.984375 42.703125 
Q 37.796875 48.390625 30.609375 48.390625 
z
M 30.609375 56 
Q 42.328125 56 49.015625 48.375 
Q 55.71875 40.765625 55.71875 27.296875 
Q 55.71875 13.875 49.015625 6.21875 
Q 42.328125 -1.421875 30.609375 -1.421875 
Q 18.84375 -1.421875 12.171875 6.21875 
Q 5.515625 13.875 5.515625 27.296875 
Q 5.515625 40.765625 12.171875 48.375 
Q 18.84375 56 30.609375 56 
z
" id="DejaVuSans-111"/>
      <path d="M 52 44.1875 
Q 55.375 50.25 60.0625 53.125 
Q 64.75 56 71.09375 56 
Q 79.640625 56 84.28125 50.015625 
Q 88.921875 44.046875 88.921875 33.015625 
L 88.921875 0 
L 79.890625 0 
L 79.890625 32.71875 
Q 79.890625 40.578125 77.09375 44.375 
Q 74.3125 48.1875 68.609375 48.1875 
Q 61.625 48.1875 57.5625 43.546875 
Q 53.515625 38.921875 53.515625 30.90625 
L 53.515625 0 
L 44.484375 0 
L 44.484375 32.71875 
Q 44.484375 40.625 41.703125 44.40625 
Q 38.921875 48.1875 33.109375 48.1875 
Q 26.21875 48.1875 22.15625 43.53125 
Q 18.109375 38.875 18.109375 30.90625 
L 18.109375 0 
L 9.078125 0 
L 9.078125 54.6875 
L 18.109375 54.6875 
L 18.109375 46.1875 
Q 21.1875 51.21875 25.484375 53.609375 
Q 29.78125 56 35.6875 56 
Q 41.65625 56 45.828125 52.96875 
Q 50 49.953125 52 44.1875 
z
" id="DejaVuSans-109"/>
      <path d="M 18.109375 8.203125 
L 18.109375 -20.796875 
L 9.078125 -20.796875 
L 9.078125 54.6875 
L 18.109375 54.6875 
L 18.109375 46.390625 
Q 20.953125 51.265625 25.265625 53.625 
Q 29.59375 56 35.59375 56 
Q 45.5625 56 51.78125 48.09375 
Q 58.015625 40.1875 58.015625 27.296875 
Q 58.015625 14.40625 51.78125 6.484375 
Q 45.5625 -1.421875 35.59375 -1.421875 
Q 29.59375 -1.421875 25.265625 0.953125 
Q 20.953125 3.328125 18.109375 8.203125 
z
M 48.6875 27.296875 
Q 48.6875 37.203125 44.609375 42.84375 
Q 40.53125 48.484375 33.40625 48.484375 
Q 26.265625 48.484375 22.1875 42.84375 
Q 18.109375 37.203125 18.109375 27.296875 
Q 18.109375 17.390625 22.1875 11.75 
Q 26.265625 6.109375 33.40625 6.109375 
Q 40.53125 6.109375 44.609375 11.75 
Q 48.6875 17.390625 48.6875 27.296875 
z
" id="DejaVuSans-112"/>
     </defs>
     <use xlink:href="#DejaVuSans-99"/>
     <use x="54.980469" xlink:href="#DejaVuSans-111"/>
     <use x="116.162109" xlink:href="#DejaVuSans-109"/>
     <use x="213.574219" xlink:href="#DejaVuSans-112"/>
     <use x="277.050781" xlink:href="#DejaVuSans-111"/>
     <use x="338.232422" xlink:href="#DejaVuSans-110"/>
     <use x="401.611328" xlink:href="#DejaVuSans-101"/>
     <use x="463.134766" xlink:href="#DejaVuSans-110"/>
     <use x="526.513672" xlink:href="#DejaVuSans-116"/>
     <use x="565.722656" xlink:href="#DejaVuSans-115"/>
    </g>
   </g>
   <g id="text_18">
    <!-- similar -->
    <g transform="translate(923.805518 454.206262)scale(0.11 -0.11)">
     <defs>
      <path d="M 9.421875 75.984375 
L 18.40625 75.984375 
L 18.40625 0 
L 9.421875 0 
z
" id="DejaVuSans-108"/>
      <path d="M 34.28125 27.484375 
Q 23.390625 27.484375 19.1875 25 
Q 14.984375 22.515625 14.984375 16.5 
Q 14.984375 11.71875 18.140625 8.90625 
Q 21.296875 6.109375 26.703125 6.109375 
Q 34.1875 6.109375 38.703125 11.40625 
Q 43.21875 16.703125 43.21875 25.484375 
L 43.21875 27.484375 
z
M 52.203125 31.203125 
L 52.203125 0 
L 43.21875 0 
L 43.21875 8.296875 
Q 40.140625 3.328125 35.546875 0.953125 
Q 30.953125 -1.421875 24.3125 -1.421875 
Q 15.921875 -1.421875 10.953125 3.296875 
Q 6 8.015625 6 15.921875 
Q 6 25.140625 12.171875 29.828125 
Q 18.359375 34.515625 30.609375 34.515625 
L 43.21875 34.515625 
L 43.21875 35.40625 
Q 43.21875 41.609375 39.140625 45 
Q 35.0625 48.390625 27.6875 48.390625 
Q 23 48.390625 18.546875 47.265625 
Q 14.109375 46.140625 10.015625 43.890625 
L 10.015625 52.203125 
Q 14.9375 54.109375 19.578125 55.046875 
Q 24.21875 56 28.609375 56 
Q 40.484375 56 46.34375 49.84375 
Q 52.203125 43.703125 52.203125 31.203125 
z
" id="DejaVuSans-97"/>
      <path d="M 41.109375 46.296875 
Q 39.59375 47.171875 37.8125 47.578125 
Q 36.03125 48 33.890625 48 
Q 26.265625 48 22.1875 43.046875 
Q 18.109375 38.09375 18.109375 28.8125 
L 18.109375 0 
L 9.078125 0 
L 9.078125 54.6875 
L 18.109375 54.6875 
L 18.109375 46.1875 
Q 20.953125 51.171875 25.484375 53.578125 
Q 30.03125 56 36.53125 56 
Q 37.453125 56 38.578125 55.875 
Q 39.703125 55.765625 41.0625 55.515625 
z
" id="DejaVuSans-114"/>
     </defs>
     <use xlink:href="#DejaVuSans-115"/>
     <use x="52.099609" xlink:href="#DejaVuSans-105"/>
     <use x="79.882812" xlink:href="#DejaVuSans-109"/>
     <use x="177.294922" xlink:href="#DejaVuSans-105"/>
     <use x="205.078125" xlink:href="#DejaVuSans-108"/>
     <use x="232.861328" xlink:href="#DejaVuSans-97"/>
     <use x="294.140625" xlink:href="#DejaVuSans-114"/>
    </g>
   </g>
   <g id="text_19">
    <!-- module -->
    <g transform="translate(396.080085 231.164968)scale(0.11 -0.11)">
     <defs>
      <path d="M 45.40625 46.390625 
L 45.40625 75.984375 
L 54.390625 75.984375 
L 54.390625 0 
L 45.40625 0 
L 45.40625 8.203125 
Q 42.578125 3.328125 38.25 0.953125 
Q 33.9375 -1.421875 27.875 -1.421875 
Q 17.96875 -1.421875 11.734375 6.484375 
Q 5.515625 14.40625 5.515625 27.296875 
Q 5.515625 40.1875 11.734375 48.09375 
Q 17.96875 56 27.875 56 
Q 33.9375 56 38.25 53.625 
Q 42.578125 51.265625 45.40625 46.390625 
z
M 14.796875 27.296875 
Q 14.796875 17.390625 18.875 11.75 
Q 22.953125 6.109375 30.078125 6.109375 
Q 37.203125 6.109375 41.296875 11.75 
Q 45.40625 17.390625 45.40625 27.296875 
Q 45.40625 37.203125 41.296875 42.84375 
Q 37.203125 48.484375 30.078125 48.484375 
Q 22.953125 48.484375 18.875 42.84375 
Q 14.796875 37.203125 14.796875 27.296875 
z
" id="DejaVuSans-100"/>
      <path d="M 8.5 21.578125 
L 8.5 54.6875 
L 17.484375 54.6875 
L 17.484375 21.921875 
Q 17.484375 14.15625 20.5 10.265625 
Q 23.53125 6.390625 29.59375 6.390625 
Q 36.859375 6.390625 41.078125 11.03125 
Q 45.3125 15.671875 45.3125 23.6875 
L 45.3125 54.6875 
L 54.296875 54.6875 
L 54.296875 0 
L 45.3125 0 
L 45.3125 8.40625 
Q 42.046875 3.421875 37.71875 1 
Q 33.40625 -1.421875 27.6875 -1.421875 
Q 18.265625 -1.421875 13.375 4.4375 
Q 8.5 10.296875 8.5 21.578125 
z
M 31.109375 56 
z
" id="DejaVuSans-117"/>
     </defs>
     <use xlink:href="#DejaVuSans-109"/>
     <use x="97.412109" xlink:href="#DejaVuSans-111"/>
     <use x="158.59375" xlink:href="#DejaVuSans-100"/>
     <use x="222.070312" xlink:href="#DejaVuSans-117"/>
     <use x="285.449219" xlink:href="#DejaVuSans-108"/>
     <use x="313.232422" xlink:href="#DejaVuSans-101"/>
    </g>
   </g>
   <g id="text_20">
    <!-- step -->
    <g transform="translate(312.832556 170.215426)scale(0.11 -0.11)">
     <use xlink:href="#DejaVuSans-115"/>
     <use x="52.099609" xlink:href="#DejaVuSans-116"/>
     <use x="91.308594" xlink:href="#DejaVuSans-101"/>
     <use x="152.832031" xlink:href="#DejaVuSans-112"/>
    </g>
   </g>
   <g id="text_21">
    <!-- particular -->
    <g transform="translate(1121.556291 601.09154)scale(0.11 -0.11)">
     <use xlink:href="#DejaVuSans-112"/>
     <use x="63.476562" xlink:href="#DejaVuSans-97"/>
     <use x="124.755859" xlink:href="#DejaVuSans-114"/>
     <use x="165.869141" xlink:href="#DejaVuSans-116"/>
     <use x="205.078125" xlink:href="#DejaVuSans-105"/>
     <use x="232.861328" xlink:href="#DejaVuSans-99"/>
     <use x="287.841797" xlink:href="#DejaVuSans-117"/>
     <use x="351.220703" xlink:href="#DejaVuSans-108"/>
     <use x="379.003906" xlink:href="#DejaVuSans-97"/>
     <use x="440.283203" xlink:href="#DejaVuSans-114"/>
    </g>
   </g>
   <g id="text_22">
    <!-- describe -->
    <g transform="translate(459.272612 384.969664)scale(0.11 -0.11)">
     <defs>
      <path d="M 48.6875 27.296875 
Q 48.6875 37.203125 44.609375 42.84375 
Q 40.53125 48.484375 33.40625 48.484375 
Q 26.265625 48.484375 22.1875 42.84375 
Q 18.109375 37.203125 18.109375 27.296875 
Q 18.109375 17.390625 22.1875 11.75 
Q 26.265625 6.109375 33.40625 6.109375 
Q 40.53125 6.109375 44.609375 11.75 
Q 48.6875 17.390625 48.6875 27.296875 
z
M 18.109375 46.390625 
Q 20.953125 51.265625 25.265625 53.625 
Q 29.59375 56 35.59375 56 
Q 45.5625 56 51.78125 48.09375 
Q 58.015625 40.1875 58.015625 27.296875 
Q 58.015625 14.40625 51.78125 6.484375 
Q 45.5625 -1.421875 35.59375 -1.421875 
Q 29.59375 -1.421875 25.265625 0.953125 
Q 20.953125 3.328125 18.109375 8.203125 
L 18.109375 0 
L 9.078125 0 
L 9.078125 75.984375 
L 18.109375 75.984375 
z
" id="DejaVuSans-98"/>
     </defs>
     <use xlink:href="#DejaVuSans-100"/>
     <use x="63.476562" xlink:href="#DejaVuSans-101"/>
     <use x="125" xlink:href="#DejaVuSans-115"/>
     <use x="177.099609" xlink:href="#DejaVuSans-99"/>
     <use x="232.080078" xlink:href="#DejaVuSans-114"/>
     <use x="273.193359" xlink:href="#DejaVuSans-105"/>
     <use x="300.976562" xlink:href="#DejaVuSans-98"/>
     <use x="364.453125" xlink:href="#DejaVuSans-101"/>
    </g>
   </g>
   <g id="text_23">
    <!-- structures -->
    <g transform="translate(913.473966 451.529462)scale(0.11 -0.11)">
     <use xlink:href="#DejaVuSans-115"/>
     <use x="52.099609" xlink:href="#DejaVuSans-116"/>
     <use x="91.308594" xlink:href="#DejaVuSans-114"/>
     <use x="132.421875" xlink:href="#DejaVuSans-117"/>
     <use x="195.800781" xlink:href="#DejaVuSans-99"/>
     <use x="250.78125" xlink:href="#DejaVuSans-116"/>
     <use x="289.990234" xlink:href="#DejaVuSans-117"/>
     <use x="353.369141" xlink:href="#DejaVuSans-114"/>
     <use x="392.232422" xlink:href="#DejaVuSans-101"/>
     <use x="453.755859" xlink:href="#DejaVuSans-115"/>
    </g>
   </g>
   <g id="text_24">
    <!-- line -->
    <g transform="translate(533.799473 424.563984)scale(0.11 -0.11)">
     <use xlink:href="#DejaVuSans-108"/>
     <use x="27.783203" xlink:href="#DejaVuSans-105"/>
     <use x="55.566406" xlink:href="#DejaVuSans-110"/>
     <use x="118.945312" xlink:href="#DejaVuSans-101"/>
    </g>
   </g>
   <g id="text_25">
    <!-- flexible -->
    <g transform="translate(233.720493 208.786613)scale(0.11 -0.11)">
     <use xlink:href="#DejaVuSans-102"/>
     <use x="35.205078" xlink:href="#DejaVuSans-108"/>
     <use x="62.988281" xlink:href="#DejaVuSans-101"/>
     <use x="122.761719" xlink:href="#DejaVuSans-120"/>
     <use x="181.941406" xlink:href="#DejaVuSans-105"/>
     <use x="209.724609" xlink:href="#DejaVuSans-98"/>
     <use x="273.201172" xlink:href="#DejaVuSans-108"/>
     <use x="300.984375" xlink:href="#DejaVuSans-101"/>
    </g>
   </g>
   <g id="text_26">
    <!-- global -->
    <g transform="translate(637.506581 116.368872)scale(0.11 -0.11)">
     <use xlink:href="#DejaVuSans-103"/>
     <use x="63.476562" xlink:href="#DejaVuSans-108"/>
     <use x="91.259766" xlink:href="#DejaVuSans-111"/>
     <use x="152.441406" xlink:href="#DejaVuSans-98"/>
     <use x="215.917969" xlink:href="#DejaVuSans-97"/>
     <use x="277.197266" xlink:href="#DejaVuSans-108"/>
    </g>
   </g>
   <g id="text_27">
    <!-- illustrate -->
    <g transform="translate(961.975843 604.807548)scale(0.11 -0.11)">
     <use xlink:href="#DejaVuSans-105"/>
     <use x="27.783203" xlink:href="#DejaVuSans-108"/>
     <use x="55.566406" xlink:href="#DejaVuSans-108"/>
     <use x="83.349609" xlink:href="#DejaVuSans-117"/>
     <use x="146.728516" xlink:href="#DejaVuSans-115"/>
     <use x="198.828125" xlink:href="#DejaVuSans-116"/>
     <use x="238.037109" xlink:href="#DejaVuSans-114"/>
     <use x="279.150391" xlink:href="#DejaVuSans-97"/>
     <use x="340.429688" xlink:href="#DejaVuSans-116"/>
     <use x="379.638672" xlink:href="#DejaVuSans-101"/>
    </g>
   </g>
   <g id="text_28">
    <!-- algorithm -->
    <g transform="translate(208.465381 392.256406)scale(0.11 -0.11)">
     <defs>
      <path d="M 54.890625 33.015625 
L 54.890625 0 
L 45.90625 0 
L 45.90625 32.71875 
Q 45.90625 40.484375 42.875 44.328125 
Q 39.84375 48.1875 33.796875 48.1875 
Q 26.515625 48.1875 22.3125 43.546875 
Q 18.109375 38.921875 18.109375 30.90625 
L 18.109375 0 
L 9.078125 0 
L 9.078125 75.984375 
L 18.109375 75.984375 
L 18.109375 46.1875 
Q 21.34375 51.125 25.703125 53.5625 
Q 30.078125 56 35.796875 56 
Q 45.21875 56 50.046875 50.171875 
Q 54.890625 44.34375 54.890625 33.015625 
z
" id="DejaVuSans-104"/>
     </defs>
     <use xlink:href="#DejaVuSans-97"/>
     <use x="61.279297" xlink:href="#DejaVuSans-108"/>
     <use x="89.0625" xlink:href="#DejaVuSans-103"/>
     <use x="152.539062" xlink:href="#DejaVuSans-111"/>
     <use x="213.720703" xlink:href="#DejaVuSans-114"/>
     <use x="254.833984" xlink:href="#DejaVuSans-105"/>
     <use x="282.617188" xlink:href="#DejaVuSans-116"/>
     <use x="321.826172" xlink:href="#DejaVuSans-104"/>
     <use x="385.205078" xlink:href="#DejaVuSans-109"/>
    </g>
   </g>
   <g id="text_29">
    <!-- power -->
    <g transform="translate(825.069321 381.280462)scale(0.11 -0.11)">
     <defs>
      <path d="M 4.203125 54.6875 
L 13.1875 54.6875 
L 24.421875 12.015625 
L 35.59375 54.6875 
L 46.1875 54.6875 
L 57.421875 12.015625 
L 68.609375 54.6875 
L 77.59375 54.6875 
L 63.28125 0 
L 52.6875 0 
L 40.921875 44.828125 
L 29.109375 0 
L 18.5 0 
z
" id="DejaVuSans-119"/>
     </defs>
     <use xlink:href="#DejaVuSans-112"/>
     <use x="63.476562" xlink:href="#DejaVuSans-111"/>
     <use x="124.658203" xlink:href="#DejaVuSans-119"/>
     <use x="206.445312" xlink:href="#DejaVuSans-101"/>
     <use x="267.96875" xlink:href="#DejaVuSans-114"/>
    </g>
   </g>
   <g id="text_30">
    <!-- called -->
    <g transform="translate(964.978 602.354272)scale(0.11 -0.11)">
     <use xlink:href="#DejaVuSans-99"/>
     <use x="54.980469" xlink:href="#DejaVuSans-97"/>
     <use x="116.259766" xlink:href="#DejaVuSans-108"/>
     <use x="144.042969" xlink:href="#DejaVuSans-108"/>
     <use x="171.826172" xlink:href="#DejaVuSans-101"/>
     <use x="233.349609" xlink:href="#DejaVuSans-100"/>
    </g>
   </g>
   <g id="text_31">
    <!-- techniques -->
    <g transform="translate(299.153039 377.523566)scale(0.11 -0.11)">
     <defs>
      <path d="M 14.796875 27.296875 
Q 14.796875 17.390625 18.875 11.75 
Q 22.953125 6.109375 30.078125 6.109375 
Q 37.203125 6.109375 41.296875 11.75 
Q 45.40625 17.390625 45.40625 27.296875 
Q 45.40625 37.203125 41.296875 42.84375 
Q 37.203125 48.484375 30.078125 48.484375 
Q 22.953125 48.484375 18.875 42.84375 
Q 14.796875 37.203125 14.796875 27.296875 
z
M 45.40625 8.203125 
Q 42.578125 3.328125 38.25 0.953125 
Q 33.9375 -1.421875 27.875 -1.421875 
Q 17.96875 -1.421875 11.734375 6.484375 
Q 5.515625 14.40625 5.515625 27.296875 
Q 5.515625 40.1875 11.734375 48.09375 
Q 17.96875 56 27.875 56 
Q 33.9375 56 38.25 53.625 
Q 42.578125 51.265625 45.40625 46.390625 
L 45.40625 54.6875 
L 54.390625 54.6875 
L 54.390625 -20.796875 
L 45.40625 -20.796875 
z
" id="DejaVuSans-113"/>
     </defs>
     <use xlink:href="#DejaVuSans-116"/>
     <use x="39.208984" xlink:href="#DejaVuSans-101"/>
     <use x="100.732422" xlink:href="#DejaVuSans-99"/>
     <use x="155.712891" xlink:href="#DejaVuSans-104"/>
     <use x="219.091797" xlink:href="#DejaVuSans-110"/>
     <use x="282.470703" xlink:href="#DejaVuSans-105"/>
     <use x="310.253906" xlink:href="#DejaVuSans-113"/>
     <use x="373.730469" xlink:href="#DejaVuSans-117"/>
     <use x="437.109375" xlink:href="#DejaVuSans-101"/>
     <use x="498.632812" xlink:href="#DejaVuSans-115"/>
    </g>
   </g>
   <g id="text_32">
    <!-- action -->
    <g transform="translate(811.11823 542.048484)scale(0.11 -0.11)">
     <use xlink:href="#DejaVuSans-97"/>
     <use x="61.279297" xlink:href="#DejaVuSans-99"/>
     <use x="116.259766" xlink:href="#DejaVuSans-116"/>
     <use x="155.46875" xlink:href="#DejaVuSans-105"/>
     <use x="183.251953" xlink:href="#DejaVuSans-111"/>
     <use x="244.433594" xlink:href="#DejaVuSans-110"/>
    </g>
   </g>
   <g id="text_33">
    <!-- region -->
    <g transform="translate(1059.429953 517.442567)scale(0.11 -0.11)">
     <use xlink:href="#DejaVuSans-114"/>
     <use x="38.863281" xlink:href="#DejaVuSans-101"/>
     <use x="100.386719" xlink:href="#DejaVuSans-103"/>
     <use x="163.863281" xlink:href="#DejaVuSans-105"/>
     <use x="191.646484" xlink:href="#DejaVuSans-111"/>
     <use x="252.828125" xlink:href="#DejaVuSans-110"/>
    </g>
   </g>
   <g id="text_34">
    <!-- purpose -->
    <g transform="translate(1028.365702 451.15912)scale(0.11 -0.11)">
     <use xlink:href="#DejaVuSans-112"/>
     <use x="63.476562" xlink:href="#DejaVuSans-117"/>
     <use x="126.855469" xlink:href="#DejaVuSans-114"/>
     <use x="167.96875" xlink:href="#DejaVuSans-112"/>
     <use x="231.445312" xlink:href="#DejaVuSans-111"/>
     <use x="292.626953" xlink:href="#DejaVuSans-115"/>
     <use x="344.726562" xlink:href="#DejaVuSans-101"/>
    </g>
   </g>
   <g id="text_35">
    <!-- general -->
    <g transform="translate(229.030744 317.850596)scale(0.11 -0.11)">
     <use xlink:href="#DejaVuSans-103"/>
     <use x="63.476562" xlink:href="#DejaVuSans-101"/>
     <use x="125" xlink:href="#DejaVuSans-110"/>
     <use x="188.378906" xlink:href="#DejaVuSans-101"/>
     <use x="249.902344" xlink:href="#DejaVuSans-114"/>
     <use x="291.015625" xlink:href="#DejaVuSans-97"/>
     <use x="352.294922" xlink:href="#DejaVuSans-108"/>
    </g>
   </g>
   <g id="text_36">
    <!-- combines -->
    <g transform="translate(645.035172 561.286466)scale(0.11 -0.11)">
     <use xlink:href="#DejaVuSans-99"/>
     <use x="54.980469" xlink:href="#DejaVuSans-111"/>
     <use x="116.162109" xlink:href="#DejaVuSans-109"/>
     <use x="213.574219" xlink:href="#DejaVuSans-98"/>
     <use x="277.050781" xlink:href="#DejaVuSans-105"/>
     <use x="304.833984" xlink:href="#DejaVuSans-110"/>
     <use x="368.212891" xlink:href="#DejaVuSans-101"/>
     <use x="429.736328" xlink:href="#DejaVuSans-115"/>
    </g>
   </g>
   <g id="text_37">
    <!-- inverse -->
    <g transform="translate(251.32824 470.903245)scale(0.11 -0.11)">
     <defs>
      <path d="M 2.984375 54.6875 
L 12.5 54.6875 
L 29.59375 8.796875 
L 46.6875 54.6875 
L 56.203125 54.6875 
L 35.6875 0 
L 23.484375 0 
z
" id="DejaVuSans-118"/>
     </defs>
     <use xlink:href="#DejaVuSans-105"/>
     <use x="27.783203" xlink:href="#DejaVuSans-110"/>
     <use x="91.162109" xlink:href="#DejaVuSans-118"/>
     <use x="150.341797" xlink:href="#DejaVuSans-101"/>
     <use x="211.865234" xlink:href="#DejaVuSans-114"/>
     <use x="252.978516" xlink:href="#DejaVuSans-115"/>
     <use x="305.078125" xlink:href="#DejaVuSans-101"/>
    </g>
   </g>
   <g id="text_38">
    <!-- solve -->
    <g transform="translate(690.617478 315.463884)scale(0.11 -0.11)">
     <use xlink:href="#DejaVuSans-115"/>
     <use x="52.099609" xlink:href="#DejaVuSans-111"/>
     <use x="113.28125" xlink:href="#DejaVuSans-108"/>
     <use x="141.064453" xlink:href="#DejaVuSans-118"/>
     <use x="200.244141" xlink:href="#DejaVuSans-101"/>
    </g>
   </g>
   <g id="text_39">
    <!-- framework -->
    <g transform="translate(230.882889 296.238233)scale(0.11 -0.11)">
     <defs>
      <path d="M 9.078125 75.984375 
L 18.109375 75.984375 
L 18.109375 31.109375 
L 44.921875 54.6875 
L 56.390625 54.6875 
L 27.390625 29.109375 
L 57.625 0 
L 45.90625 0 
L 18.109375 26.703125 
L 18.109375 0 
L 9.078125 0 
z
" id="DejaVuSans-107"/>
     </defs>
     <use xlink:href="#DejaVuSans-102"/>
     <use x="35.205078" xlink:href="#DejaVuSans-114"/>
     <use x="76.318359" xlink:href="#DejaVuSans-97"/>
     <use x="137.597656" xlink:href="#DejaVuSans-109"/>
     <use x="235.009766" xlink:href="#DejaVuSans-101"/>
     <use x="296.533203" xlink:href="#DejaVuSans-119"/>
     <use x="378.320312" xlink:href="#DejaVuSans-111"/>
     <use x="439.501953" xlink:href="#DejaVuSans-114"/>
     <use x="480.615234" xlink:href="#DejaVuSans-107"/>
    </g>
   </g>
   <g id="text_40">
    <!-- experiment -->
    <g transform="translate(676.582255 449.978302)scale(0.11 -0.11)">
     <use xlink:href="#DejaVuSans-101"/>
     <use x="59.773438" xlink:href="#DejaVuSans-120"/>
     <use x="118.953125" xlink:href="#DejaVuSans-112"/>
     <use x="182.429688" xlink:href="#DejaVuSans-101"/>
     <use x="243.953125" xlink:href="#DejaVuSans-114"/>
     <use x="285.066406" xlink:href="#DejaVuSans-105"/>
     <use x="312.849609" xlink:href="#DejaVuSans-109"/>
     <use x="410.261719" xlink:href="#DejaVuSans-101"/>
     <use x="471.785156" xlink:href="#DejaVuSans-110"/>
     <use x="535.164062" xlink:href="#DejaVuSans-116"/>
    </g>
   </g>
   <g id="text_41">
    <!-- corresponding -->
    <g transform="translate(772.460743 349.992202)scale(0.11 -0.11)">
     <use xlink:href="#DejaVuSans-99"/>
     <use x="54.980469" xlink:href="#DejaVuSans-111"/>
     <use x="116.162109" xlink:href="#DejaVuSans-114"/>
     <use x="155.525391" xlink:href="#DejaVuSans-114"/>
     <use x="194.388672" xlink:href="#DejaVuSans-101"/>
     <use x="255.912109" xlink:href="#DejaVuSans-115"/>
     <use x="308.011719" xlink:href="#DejaVuSans-112"/>
     <use x="371.488281" xlink:href="#DejaVuSans-111"/>
     <use x="432.669922" xlink:href="#DejaVuSans-110"/>
     <use x="496.048828" xlink:href="#DejaVuSans-100"/>
     <use x="559.525391" xlink:href="#DejaVuSans-105"/>
     <use x="587.308594" xlink:href="#DejaVuSans-110"/>
     <use x="650.6875" xlink:href="#DejaVuSans-103"/>
    </g>
   </g>
   <g id="text_42">
    <!-- local -->
    <g transform="translate(609.150952 159.207847)scale(0.11 -0.11)">
     <use xlink:href="#DejaVuSans-108"/>
     <use x="27.783203" xlink:href="#DejaVuSans-111"/>
     <use x="88.964844" xlink:href="#DejaVuSans-99"/>
     <use x="143.945312" xlink:href="#DejaVuSans-97"/>
     <use x="205.224609" xlink:href="#DejaVuSans-108"/>
    </g>
   </g>
   <g id="text_43">
    <!-- computation -->
    <g transform="translate(587.060075 329.966678)scale(0.11 -0.11)">
     <use xlink:href="#DejaVuSans-99"/>
     <use x="54.980469" xlink:href="#DejaVuSans-111"/>
     <use x="116.162109" xlink:href="#DejaVuSans-109"/>
     <use x="213.574219" xlink:href="#DejaVuSans-112"/>
     <use x="277.050781" xlink:href="#DejaVuSans-117"/>
     <use x="340.429688" xlink:href="#DejaVuSans-116"/>
     <use x="379.638672" xlink:href="#DejaVuSans-97"/>
     <use x="440.917969" xlink:href="#DejaVuSans-116"/>
     <use x="480.126953" xlink:href="#DejaVuSans-105"/>
     <use x="507.910156" xlink:href="#DejaVuSans-111"/>
     <use x="569.091797" xlink:href="#DejaVuSans-110"/>
    </g>
   </g>
   <g id="text_44">
    <!-- operation -->
    <g transform="translate(846.861714 437.708326)scale(0.11 -0.11)">
     <use xlink:href="#DejaVuSans-111"/>
     <use x="61.181641" xlink:href="#DejaVuSans-112"/>
     <use x="124.658203" xlink:href="#DejaVuSans-101"/>
     <use x="186.181641" xlink:href="#DejaVuSans-114"/>
     <use x="227.294922" xlink:href="#DejaVuSans-97"/>
     <use x="288.574219" xlink:href="#DejaVuSans-116"/>
     <use x="327.783203" xlink:href="#DejaVuSans-105"/>
     <use x="355.566406" xlink:href="#DejaVuSans-111"/>
     <use x="416.748047" xlink:href="#DejaVuSans-110"/>
    </g>
   </g>
   <g id="text_45">
    <!-- combined -->
    <g transform="translate(886.209271 450.420556)scale(0.11 -0.11)">
     <use xlink:href="#DejaVuSans-99"/>
     <use x="54.980469" xlink:href="#DejaVuSans-111"/>
     <use x="116.162109" xlink:href="#DejaVuSans-109"/>
     <use x="213.574219" xlink:href="#DejaVuSans-98"/>
     <use x="277.050781" xlink:href="#DejaVuSans-105"/>
     <use x="304.833984" xlink:href="#DejaVuSans-110"/>
     <use x="368.212891" xlink:href="#DejaVuSans-101"/>
     <use x="429.736328" xlink:href="#DejaVuSans-100"/>
    </g>
   </g>
   <g id="text_46">
    <!-- services -->
    <g transform="translate(358.273817 174.359247)scale(0.11 -0.11)">
     <use xlink:href="#DejaVuSans-115"/>
     <use x="52.099609" xlink:href="#DejaVuSans-101"/>
     <use x="113.623047" xlink:href="#DejaVuSans-114"/>
     <use x="154.736328" xlink:href="#DejaVuSans-118"/>
     <use x="213.916016" xlink:href="#DejaVuSans-105"/>
     <use x="241.699219" xlink:href="#DejaVuSans-99"/>
     <use x="296.679688" xlink:href="#DejaVuSans-101"/>
     <use x="358.203125" xlink:href="#DejaVuSans-115"/>
    </g>
   </g>
   <g id="text_47">
    <!-- advantages -->
    <g transform="translate(380.836081 344.013205)scale(0.11 -0.11)">
     <use xlink:href="#DejaVuSans-97"/>
     <use x="61.279297" xlink:href="#DejaVuSans-100"/>
     <use x="124.755859" xlink:href="#DejaVuSans-118"/>
     <use x="183.935547" xlink:href="#DejaVuSans-97"/>
     <use x="245.214844" xlink:href="#DejaVuSans-110"/>
     <use x="308.59375" xlink:href="#DejaVuSans-116"/>
     <use x="347.802734" xlink:href="#DejaVuSans-97"/>
     <use x="409.082031" xlink:href="#DejaVuSans-103"/>
     <use x="472.558594" xlink:href="#DejaVuSans-101"/>
     <use x="534.082031" xlink:href="#DejaVuSans-115"/>
    </g>
   </g>
   <g id="text_48">
    <!-- technical -->
    <g transform="translate(590.813235 484.075153)scale(0.11 -0.11)">
     <use xlink:href="#DejaVuSans-116"/>
     <use x="39.208984" xlink:href="#DejaVuSans-101"/>
     <use x="100.732422" xlink:href="#DejaVuSans-99"/>
     <use x="155.712891" xlink:href="#DejaVuSans-104"/>
     <use x="219.091797" xlink:href="#DejaVuSans-110"/>
     <use x="282.470703" xlink:href="#DejaVuSans-105"/>
     <use x="310.253906" xlink:href="#DejaVuSans-99"/>
     <use x="365.234375" xlink:href="#DejaVuSans-97"/>
     <use x="426.513672" xlink:href="#DejaVuSans-108"/>
    </g>
   </g>
   <g id="text_49">
    <!-- view -->
    <g transform="translate(615.570359 110.62573)scale(0.11 -0.11)">
     <use xlink:href="#DejaVuSans-118"/>
     <use x="59.179688" xlink:href="#DejaVuSans-105"/>
     <use x="86.962891" xlink:href="#DejaVuSans-101"/>
     <use x="148.486328" xlink:href="#DejaVuSans-119"/>
    </g>
   </g>
   <g id="text_50">
    <!-- methods -->
    <g transform="translate(638.276143 295.527235)scale(0.11 -0.11)">
     <use xlink:href="#DejaVuSans-109"/>
     <use x="97.412109" xlink:href="#DejaVuSans-101"/>
     <use x="158.935547" xlink:href="#DejaVuSans-116"/>
     <use x="198.144531" xlink:href="#DejaVuSans-104"/>
     <use x="261.523438" xlink:href="#DejaVuSans-111"/>
     <use x="322.705078" xlink:href="#DejaVuSans-100"/>
     <use x="386.181641" xlink:href="#DejaVuSans-115"/>
    </g>
   </g>
   <g id="text_51">
    <!-- learn -->
    <g transform="translate(387.731206 351.279319)scale(0.11 -0.11)">
     <use xlink:href="#DejaVuSans-108"/>
     <use x="27.783203" xlink:href="#DejaVuSans-101"/>
     <use x="89.306641" xlink:href="#DejaVuSans-97"/>
     <use x="150.585938" xlink:href="#DejaVuSans-114"/>
     <use x="189.949219" xlink:href="#DejaVuSans-110"/>
    </g>
   </g>
   <g id="text_52">
    <!-- goal -->
    <g transform="translate(457.705651 450.769094)scale(0.11 -0.11)">
     <use xlink:href="#DejaVuSans-103"/>
     <use x="63.476562" xlink:href="#DejaVuSans-111"/>
     <use x="124.658203" xlink:href="#DejaVuSans-97"/>
     <use x="185.9375" xlink:href="#DejaVuSans-108"/>
    </g>
   </g>
   <g id="text_53">
    <!-- reviewing -->
    <g transform="translate(296.73857 328.614541)scale(0.11 -0.11)">
     <use xlink:href="#DejaVuSans-114"/>
     <use x="38.863281" xlink:href="#DejaVuSans-101"/>
     <use x="100.386719" xlink:href="#DejaVuSans-118"/>
     <use x="159.566406" xlink:href="#DejaVuSans-105"/>
     <use x="187.349609" xlink:href="#DejaVuSans-101"/>
     <use x="248.873047" xlink:href="#DejaVuSans-119"/>
     <use x="330.660156" xlink:href="#DejaVuSans-105"/>
     <use x="358.443359" xlink:href="#DejaVuSans-110"/>
     <use x="421.822266" xlink:href="#DejaVuSans-103"/>
    </g>
   </g>
   <g id="text_54">
    <!-- field -->
    <g transform="translate(659.206491 175.869278)scale(0.11 -0.11)">
     <use xlink:href="#DejaVuSans-102"/>
     <use x="35.205078" xlink:href="#DejaVuSans-105"/>
     <use x="62.988281" xlink:href="#DejaVuSans-101"/>
     <use x="124.511719" xlink:href="#DejaVuSans-108"/>
     <use x="152.294922" xlink:href="#DejaVuSans-100"/>
    </g>
   </g>
   <g id="text_55">
    <!-- manufacturing -->
    <g transform="translate(667.748379 262.91014)scale(0.11 -0.11)">
     <use xlink:href="#DejaVuSans-109"/>
     <use x="97.412109" xlink:href="#DejaVuSans-97"/>
     <use x="158.691406" xlink:href="#DejaVuSans-110"/>
     <use x="222.070312" xlink:href="#DejaVuSans-117"/>
     <use x="285.449219" xlink:href="#DejaVuSans-102"/>
     <use x="320.654297" xlink:href="#DejaVuSans-97"/>
     <use x="381.933594" xlink:href="#DejaVuSans-99"/>
     <use x="436.914062" xlink:href="#DejaVuSans-116"/>
     <use x="476.123047" xlink:href="#DejaVuSans-117"/>
     <use x="539.501953" xlink:href="#DejaVuSans-114"/>
     <use x="580.615234" xlink:href="#DejaVuSans-105"/>
     <use x="608.398438" xlink:href="#DejaVuSans-110"/>
     <use x="671.777344" xlink:href="#DejaVuSans-103"/>
    </g>
   </g>
   <g id="text_56">
    <!-- gravitational -->
    <g transform="translate(689.567063 389.876977)scale(0.11 -0.11)">
     <use xlink:href="#DejaVuSans-103"/>
     <use x="63.476562" xlink:href="#DejaVuSans-114"/>
     <use x="104.589844" xlink:href="#DejaVuSans-97"/>
     <use x="165.869141" xlink:href="#DejaVuSans-118"/>
     <use x="225.048828" xlink:href="#DejaVuSans-105"/>
     <use x="252.832031" xlink:href="#DejaVuSans-116"/>
     <use x="292.041016" xlink:href="#DejaVuSans-97"/>
     <use x="353.320312" xlink:href="#DejaVuSans-116"/>
     <use x="392.529297" xlink:href="#DejaVuSans-105"/>
     <use x="420.3125" xlink:href="#DejaVuSans-111"/>
     <use x="481.494141" xlink:href="#DejaVuSans-110"/>
     <use x="544.873047" xlink:href="#DejaVuSans-97"/>
     <use x="606.152344" xlink:href="#DejaVuSans-108"/>
    </g>
   </g>
   <g id="text_57">
    <!-- predictions -->
    <g transform="translate(984.268699 539.904057)scale(0.11 -0.11)">
     <use xlink:href="#DejaVuSans-112"/>
     <use x="63.476562" xlink:href="#DejaVuSans-114"/>
     <use x="102.339844" xlink:href="#DejaVuSans-101"/>
     <use x="163.863281" xlink:href="#DejaVuSans-100"/>
     <use x="227.339844" xlink:href="#DejaVuSans-105"/>
     <use x="255.123047" xlink:href="#DejaVuSans-99"/>
     <use x="310.103516" xlink:href="#DejaVuSans-116"/>
     <use x="349.3125" xlink:href="#DejaVuSans-105"/>
     <use x="377.095703" xlink:href="#DejaVuSans-111"/>
     <use x="438.277344" xlink:href="#DejaVuSans-110"/>
     <use x="501.65625" xlink:href="#DejaVuSans-115"/>
    </g>
   </g>
   <g id="text_58">
    <!-- research -->
    <g transform="translate(788.112416 338.989889)scale(0.11 -0.11)">
     <use xlink:href="#DejaVuSans-114"/>
     <use x="38.863281" xlink:href="#DejaVuSans-101"/>
     <use x="100.386719" xlink:href="#DejaVuSans-115"/>
     <use x="152.486328" xlink:href="#DejaVuSans-101"/>
     <use x="214.009766" xlink:href="#DejaVuSans-97"/>
     <use x="275.289062" xlink:href="#DejaVuSans-114"/>
     <use x="314.152344" xlink:href="#DejaVuSans-99"/>
     <use x="369.132812" xlink:href="#DejaVuSans-104"/>
    </g>
   </g>
   <g id="text_59">
    <!-- cost -->
    <g transform="translate(401.673018 188.119847)scale(0.11 -0.11)">
     <use xlink:href="#DejaVuSans-99"/>
     <use x="54.980469" xlink:href="#DejaVuSans-111"/>
     <use x="116.162109" xlink:href="#DejaVuSans-115"/>
     <use x="168.261719" xlink:href="#DejaVuSans-116"/>
    </g>
   </g>
   <g id="text_60">
    <!-- goals -->
    <g transform="translate(506.207838 277.434715)scale(0.11 -0.11)">
     <use xlink:href="#DejaVuSans-103"/>
     <use x="63.476562" xlink:href="#DejaVuSans-111"/>
     <use x="124.658203" xlink:href="#DejaVuSans-97"/>
     <use x="185.9375" xlink:href="#DejaVuSans-108"/>
     <use x="213.720703" xlink:href="#DejaVuSans-115"/>
    </g>
   </g>
   <g id="text_61">
    <!-- fabrication -->
    <g transform="translate(215.193479 134.15298)scale(0.11 -0.11)">
     <use xlink:href="#DejaVuSans-102"/>
     <use x="35.205078" xlink:href="#DejaVuSans-97"/>
     <use x="96.484375" xlink:href="#DejaVuSans-98"/>
     <use x="159.960938" xlink:href="#DejaVuSans-114"/>
     <use x="201.074219" xlink:href="#DejaVuSans-105"/>
     <use x="228.857422" xlink:href="#DejaVuSans-99"/>
     <use x="283.837891" xlink:href="#DejaVuSans-97"/>
     <use x="345.117188" xlink:href="#DejaVuSans-116"/>
     <use x="384.326172" xlink:href="#DejaVuSans-105"/>
     <use x="412.109375" xlink:href="#DejaVuSans-111"/>
     <use x="473.291016" xlink:href="#DejaVuSans-110"/>
    </g>
   </g>
   <g id="text_62">
    <!-- integration -->
    <g transform="translate(678.387385 465.860476)scale(0.11 -0.11)">
     <use xlink:href="#DejaVuSans-105"/>
     <use x="27.783203" xlink:href="#DejaVuSans-110"/>
     <use x="91.162109" xlink:href="#DejaVuSans-116"/>
     <use x="130.371094" xlink:href="#DejaVuSans-101"/>
     <use x="191.894531" xlink:href="#DejaVuSans-103"/>
     <use x="255.371094" xlink:href="#DejaVuSans-114"/>
     <use x="296.484375" xlink:href="#DejaVuSans-97"/>
     <use x="357.763672" xlink:href="#DejaVuSans-116"/>
     <use x="396.972656" xlink:href="#DejaVuSans-105"/>
     <use x="424.755859" xlink:href="#DejaVuSans-111"/>
     <use x="485.9375" xlink:href="#DejaVuSans-110"/>
    </g>
   </g>
   <g id="text_63">
    <!-- live -->
    <g transform="translate(807.556842 269.559477)scale(0.11 -0.11)">
     <use xlink:href="#DejaVuSans-108"/>
     <use x="27.783203" xlink:href="#DejaVuSans-105"/>
     <use x="55.566406" xlink:href="#DejaVuSans-118"/>
     <use x="114.746094" xlink:href="#DejaVuSans-101"/>
    </g>
   </g>
   <g id="text_64">
    <!-- agv -->
    <g transform="translate(749.419667 224.428023)scale(0.11 -0.11)">
     <use xlink:href="#DejaVuSans-97"/>
     <use x="61.279297" xlink:href="#DejaVuSans-103"/>
     <use x="124.755859" xlink:href="#DejaVuSans-118"/>
    </g>
   </g>
   <g id="text_65">
    <!-- distribution -->
    <g transform="translate(544.275163 281.370905)scale(0.11 -0.11)">
     <use xlink:href="#DejaVuSans-100"/>
     <use x="63.476562" xlink:href="#DejaVuSans-105"/>
     <use x="91.259766" xlink:href="#DejaVuSans-115"/>
     <use x="143.359375" xlink:href="#DejaVuSans-116"/>
     <use x="182.568359" xlink:href="#DejaVuSans-114"/>
     <use x="223.681641" xlink:href="#DejaVuSans-105"/>
     <use x="251.464844" xlink:href="#DejaVuSans-98"/>
     <use x="314.941406" xlink:href="#DejaVuSans-117"/>
     <use x="378.320312" xlink:href="#DejaVuSans-116"/>
     <use x="417.529297" xlink:href="#DejaVuSans-105"/>
     <use x="445.3125" xlink:href="#DejaVuSans-111"/>
     <use x="506.494141" xlink:href="#DejaVuSans-110"/>
    </g>
   </g>
   <g id="text_66">
    <!-- microservice -->
    <g transform="translate(720.065588 330.028079)scale(0.11 -0.11)">
     <use xlink:href="#DejaVuSans-109"/>
     <use x="97.412109" xlink:href="#DejaVuSans-105"/>
     <use x="125.195312" xlink:href="#DejaVuSans-99"/>
     <use x="180.175781" xlink:href="#DejaVuSans-114"/>
     <use x="219.039062" xlink:href="#DejaVuSans-111"/>
     <use x="280.220703" xlink:href="#DejaVuSans-115"/>
     <use x="332.320312" xlink:href="#DejaVuSans-101"/>
     <use x="393.84375" xlink:href="#DejaVuSans-114"/>
     <use x="434.957031" xlink:href="#DejaVuSans-118"/>
     <use x="494.136719" xlink:href="#DejaVuSans-105"/>
     <use x="521.919922" xlink:href="#DejaVuSans-99"/>
     <use x="576.900391" xlink:href="#DejaVuSans-101"/>
    </g>
   </g>
  </g>
 </g>
 <defs>
  <clipPath id="pdec905fb45">
   <rect height="543.6" width="1004.4" x="162" y="86.4"/>
  </clipPath>
 </defs>
</svg>
