<?xml version="1.0" encoding="utf-8" standalone="no"?>
<!DOCTYPE svg PUBLIC "-//W3C//DTD SVG 1.1//EN"
  "http://www.w3.org/Graphics/SVG/1.1/DTD/svg11.dtd">
<!-- Created with matplotlib (https://matplotlib.org/) -->
<svg height="720pt" version="1.1" viewBox="0 0 1296 720" width="1296pt" xmlns="http://www.w3.org/2000/svg" xmlns:xlink="http://www.w3.org/1999/xlink">
 <metadata>
  <rdf:RDF xmlns:cc="http://creativecommons.org/ns#" xmlns:dc="http://purl.org/dc/elements/1.1/" xmlns:rdf="http://www.w3.org/1999/02/22-rdf-syntax-ns#">
   <cc:Work>
    <dc:type rdf:resource="http://purl.org/dc/dcmitype/StillImage"/>
    <dc:date>2024-12-10T18:56:29.424162</dc:date>
    <dc:format>image/svg+xml</dc:format>
    <dc:creator>
     <cc:Agent>
      <dc:title>Matplotlib v3.3.3, https://matplotlib.org/</dc:title>
     </cc:Agent>
    </dc:creator>
   </cc:Work>
  </rdf:RDF>
 </metadata>
 <defs>
  <style type="text/css">*{stroke-linecap:butt;stroke-linejoin:round;}</style>
 </defs>
 <g id="figure_1">
  <g id="patch_1">
   <path d="M 0 720 
L 1296 720 
L 1296 0 
L 0 0 
z
" style="fill:none;"/>
  </g>
  <g id="axes_1">
   <g id="patch_2">
    <path d="M 162 630 
L 1166.4 630 
L 1166.4 86.4 
L 162 86.4 
z
" style="fill:#ffffff;"/>
   </g>
   <g id="PathCollection_1">
    <defs>
     <path d="M 0 0.790569 
C 0.209661 0.790569 0.410764 0.70727 0.559017 0.559017 
C 0.70727 0.410764 0.790569 0.209661 0.790569 0 
C 0.790569 -0.209661 0.70727 -0.410764 0.559017 -0.559017 
C 0.410764 -0.70727 0.209661 -0.790569 0 -0.790569 
C -0.209661 -0.790569 -0.410764 -0.70727 -0.559017 -0.559017 
C -0.70727 -0.410764 -0.790569 -0.209661 -0.790569 0 
C -0.790569 0.209661 -0.70727 0.410764 -0.559017 0.559017 
C -0.410764 0.70727 -0.209661 0.790569 0 0.790569 
z
" id="mfc63dc2a40" style="stroke:#87ceeb;"/>
    </defs>
    <g clip-path="url(#p5e495d9901)">
     <use style="fill:#87ceeb;stroke:#87ceeb;" x="627.572971" xlink:href="#mfc63dc2a40" y="419.303613"/>
     <use style="fill:#87ceeb;stroke:#87ceeb;" x="658.958128" xlink:href="#mfc63dc2a40" y="435.445055"/>
     <use style="fill:#87ceeb;stroke:#87ceeb;" x="492.522786" xlink:href="#mfc63dc2a40" y="487.907999"/>
     <use style="fill:#87ceeb;stroke:#87ceeb;" x="472.29386" xlink:href="#mfc63dc2a40" y="496.413228"/>
     <use style="fill:#87ceeb;stroke:#87ceeb;" x="408.9473" xlink:href="#mfc63dc2a40" y="422.84395"/>
     <use style="fill:#87ceeb;stroke:#87ceeb;" x="608.370123" xlink:href="#mfc63dc2a40" y="384.262455"/>
     <use style="fill:#87ceeb;stroke:#87ceeb;" x="883.481113" xlink:href="#mfc63dc2a40" y="335.022361"/>
     <use style="fill:#87ceeb;stroke:#87ceeb;" x="1120.745455" xlink:href="#mfc63dc2a40" y="111.109091"/>
     <use style="fill:#87ceeb;stroke:#87ceeb;" x="386.567862" xlink:href="#mfc63dc2a40" y="434.342873"/>
     <use style="fill:#87ceeb;stroke:#87ceeb;" x="209.916384" xlink:href="#mfc63dc2a40" y="605.290909"/>
     <use style="fill:#87ceeb;stroke:#87ceeb;" x="1064.387152" xlink:href="#mfc63dc2a40" y="222.203852"/>
     <use style="fill:#87ceeb;stroke:#87ceeb;" x="991.078487" xlink:href="#mfc63dc2a40" y="266.371805"/>
     <use style="fill:#87ceeb;stroke:#87ceeb;" x="1078.251132" xlink:href="#mfc63dc2a40" y="116.209422"/>
     <use style="fill:#87ceeb;stroke:#87ceeb;" x="873.302387" xlink:href="#mfc63dc2a40" y="288.194927"/>
     <use style="fill:#87ceeb;stroke:#87ceeb;" x="800.349728" xlink:href="#mfc63dc2a40" y="326.974944"/>
     <use style="fill:#87ceeb;stroke:#87ceeb;" x="416.103" xlink:href="#mfc63dc2a40" y="544.387511"/>
     <use style="fill:#87ceeb;stroke:#87ceeb;" x="430.146491" xlink:href="#mfc63dc2a40" y="499.683063"/>
     <use style="fill:#87ceeb;stroke:#87ceeb;" x="841.848141" xlink:href="#mfc63dc2a40" y="218.172062"/>
     <use style="fill:#87ceeb;stroke:#87ceeb;" x="677.230838" xlink:href="#mfc63dc2a40" y="324.969793"/>
     <use style="fill:#87ceeb;stroke:#87ceeb;" x="1061.135439" xlink:href="#mfc63dc2a40" y="118.388978"/>
     <use style="fill:#87ceeb;stroke:#87ceeb;" x="527.245641" xlink:href="#mfc63dc2a40" y="550.84098"/>
     <use style="fill:#87ceeb;stroke:#87ceeb;" x="871.460514" xlink:href="#mfc63dc2a40" y="366.8438"/>
     <use style="fill:#87ceeb;stroke:#87ceeb;" x="1099.159183" xlink:href="#mfc63dc2a40" y="335.10142"/>
     <use style="fill:#87ceeb;stroke:#87ceeb;" x="987.434867" xlink:href="#mfc63dc2a40" y="254.48091"/>
     <use style="fill:#87ceeb;stroke:#87ceeb;" x="426.237979" xlink:href="#mfc63dc2a40" y="548.278537"/>
     <use style="fill:#87ceeb;stroke:#87ceeb;" x="741.030851" xlink:href="#mfc63dc2a40" y="309.155861"/>
     <use style="fill:#87ceeb;stroke:#87ceeb;" x="928.609872" xlink:href="#mfc63dc2a40" y="282.592243"/>
     <use style="fill:#87ceeb;stroke:#87ceeb;" x="207.654545" xlink:href="#mfc63dc2a40" y="597.129227"/>
     <use style="fill:#87ceeb;stroke:#87ceeb;" x="345.385629" xlink:href="#mfc63dc2a40" y="502.049051"/>
     <use style="fill:#87ceeb;stroke:#87ceeb;" x="303.893551" xlink:href="#mfc63dc2a40" y="499.785426"/>
     <use style="fill:#87ceeb;stroke:#87ceeb;" x="1084.459497" xlink:href="#mfc63dc2a40" y="167.665844"/>
     <use style="fill:#87ceeb;stroke:#87ceeb;" x="765.484169" xlink:href="#mfc63dc2a40" y="442.557303"/>
     <use style="fill:#87ceeb;stroke:#87ceeb;" x="977.282088" xlink:href="#mfc63dc2a40" y="329.935061"/>
     <use style="fill:#87ceeb;stroke:#87ceeb;" x="507.995426" xlink:href="#mfc63dc2a40" y="457.139378"/>
     <use style="fill:#87ceeb;stroke:#87ceeb;" x="626.560167" xlink:href="#mfc63dc2a40" y="441.212182"/>
     <use style="fill:#87ceeb;stroke:#87ceeb;" x="727.108945" xlink:href="#mfc63dc2a40" y="398.720117"/>
     <use style="fill:#87ceeb;stroke:#87ceeb;" x="851.394203" xlink:href="#mfc63dc2a40" y="502.386083"/>
     <use style="fill:#87ceeb;stroke:#87ceeb;" x="592.719179" xlink:href="#mfc63dc2a40" y="388.877661"/>
     <use style="fill:#87ceeb;stroke:#87ceeb;" x="725.934732" xlink:href="#mfc63dc2a40" y="391.954297"/>
     <use style="fill:#87ceeb;stroke:#87ceeb;" x="878.084922" xlink:href="#mfc63dc2a40" y="415.516328"/>
     <use style="fill:#87ceeb;stroke:#87ceeb;" x="964.160287" xlink:href="#mfc63dc2a40" y="219.978064"/>
     <use style="fill:#87ceeb;stroke:#87ceeb;" x="701.70799" xlink:href="#mfc63dc2a40" y="455.838736"/>
     <use style="fill:#87ceeb;stroke:#87ceeb;" x="656.784688" xlink:href="#mfc63dc2a40" y="497.783281"/>
     <use style="fill:#87ceeb;stroke:#87ceeb;" x="800.420325" xlink:href="#mfc63dc2a40" y="415.391413"/>
     <use style="fill:#87ceeb;stroke:#87ceeb;" x="666.98423" xlink:href="#mfc63dc2a40" y="470.913328"/>
     <use style="fill:#87ceeb;stroke:#87ceeb;" x="341.840363" xlink:href="#mfc63dc2a40" y="561.23246"/>
     <use style="fill:#87ceeb;stroke:#87ceeb;" x="737.28405" xlink:href="#mfc63dc2a40" y="338.279667"/>
     <use style="fill:#87ceeb;stroke:#87ceeb;" x="1111.155646" xlink:href="#mfc63dc2a40" y="176.115068"/>
     <use style="fill:#87ceeb;stroke:#87ceeb;" x="376.362285" xlink:href="#mfc63dc2a40" y="596.010131"/>
     <use style="fill:#87ceeb;stroke:#87ceeb;" x="814.109923" xlink:href="#mfc63dc2a40" y="369.161176"/>
    </g>
   </g>
   <g id="PathCollection_2">
    <defs>
     <path d="M 0 -2.236068 
L -0.502029 -0.690983 
L -2.126627 -0.690983 
L -0.812299 0.263932 
L -1.314328 1.809017 
L -0 0.854102 
L 1.314328 1.809017 
L 0.812299 0.263932 
L 2.126627 -0.690983 
L 0.502029 -0.690983 
z
" id="m61b9cbf5d3" style="stroke:#ff0000;"/>
    </defs>
    <g clip-path="url(#p5e495d9901)">
     <use style="fill:#ff0000;stroke:#ff0000;" x="800.741333" xlink:href="#m61b9cbf5d3" y="415.599395"/>
    </g>
   </g>
   <g id="matplotlib.axis_1">
    <g id="xtick_1">
     <g id="line2d_1">
      <defs>
       <path d="M 0 0 
L 0 3.5 
" id="m4dd324bc9e" style="stroke:#000000;stroke-width:0.8;"/>
      </defs>
      <g>
       <use style="stroke:#000000;stroke-width:0.8;" x="188.595306" xlink:href="#m4dd324bc9e" y="630"/>
      </g>
     </g>
     <g id="text_1">
      <!-- 19 -->
      <g transform="translate(182.232806 644.598438)scale(0.1 -0.1)">
       <defs>
        <path d="M 12.40625 8.296875 
L 28.515625 8.296875 
L 28.515625 63.921875 
L 10.984375 60.40625 
L 10.984375 69.390625 
L 28.421875 72.90625 
L 38.28125 72.90625 
L 38.28125 8.296875 
L 54.390625 8.296875 
L 54.390625 0 
L 12.40625 0 
z
" id="DejaVuSans-49"/>
        <path d="M 10.984375 1.515625 
L 10.984375 10.5 
Q 14.703125 8.734375 18.5 7.8125 
Q 22.3125 6.890625 25.984375 6.890625 
Q 35.75 6.890625 40.890625 13.453125 
Q 46.046875 20.015625 46.78125 33.40625 
Q 43.953125 29.203125 39.59375 26.953125 
Q 35.25 24.703125 29.984375 24.703125 
Q 19.046875 24.703125 12.671875 31.3125 
Q 6.296875 37.9375 6.296875 49.421875 
Q 6.296875 60.640625 12.9375 67.421875 
Q 19.578125 74.21875 30.609375 74.21875 
Q 43.265625 74.21875 49.921875 64.515625 
Q 56.59375 54.828125 56.59375 36.375 
Q 56.59375 19.140625 48.40625 8.859375 
Q 40.234375 -1.421875 26.421875 -1.421875 
Q 22.703125 -1.421875 18.890625 -0.6875 
Q 15.09375 0.046875 10.984375 1.515625 
z
M 30.609375 32.421875 
Q 37.25 32.421875 41.125 36.953125 
Q 45.015625 41.5 45.015625 49.421875 
Q 45.015625 57.28125 41.125 61.84375 
Q 37.25 66.40625 30.609375 66.40625 
Q 23.96875 66.40625 20.09375 61.84375 
Q 16.21875 57.28125 16.21875 49.421875 
Q 16.21875 41.5 20.09375 36.953125 
Q 23.96875 32.421875 30.609375 32.421875 
z
" id="DejaVuSans-57"/>
       </defs>
       <use xlink:href="#DejaVuSans-49"/>
       <use x="63.623047" xlink:href="#DejaVuSans-57"/>
      </g>
     </g>
    </g>
    <g id="xtick_2">
     <g id="line2d_2">
      <g>
       <use style="stroke:#000000;stroke-width:0.8;" x="346.77254" xlink:href="#m4dd324bc9e" y="630"/>
      </g>
     </g>
     <g id="text_2">
      <!-- 20 -->
      <g transform="translate(340.41004 644.598438)scale(0.1 -0.1)">
       <defs>
        <path d="M 19.1875 8.296875 
L 53.609375 8.296875 
L 53.609375 0 
L 7.328125 0 
L 7.328125 8.296875 
Q 12.9375 14.109375 22.625 23.890625 
Q 32.328125 33.6875 34.8125 36.53125 
Q 39.546875 41.84375 41.421875 45.53125 
Q 43.3125 49.21875 43.3125 52.78125 
Q 43.3125 58.59375 39.234375 62.25 
Q 35.15625 65.921875 28.609375 65.921875 
Q 23.96875 65.921875 18.8125 64.3125 
Q 13.671875 62.703125 7.8125 59.421875 
L 7.8125 69.390625 
Q 13.765625 71.78125 18.9375 73 
Q 24.125 74.21875 28.421875 74.21875 
Q 39.75 74.21875 46.484375 68.546875 
Q 53.21875 62.890625 53.21875 53.421875 
Q 53.21875 48.921875 51.53125 44.890625 
Q 49.859375 40.875 45.40625 35.40625 
Q 44.1875 33.984375 37.640625 27.21875 
Q 31.109375 20.453125 19.1875 8.296875 
z
" id="DejaVuSans-50"/>
        <path d="M 31.78125 66.40625 
Q 24.171875 66.40625 20.328125 58.90625 
Q 16.5 51.421875 16.5 36.375 
Q 16.5 21.390625 20.328125 13.890625 
Q 24.171875 6.390625 31.78125 6.390625 
Q 39.453125 6.390625 43.28125 13.890625 
Q 47.125 21.390625 47.125 36.375 
Q 47.125 51.421875 43.28125 58.90625 
Q 39.453125 66.40625 31.78125 66.40625 
z
M 31.78125 74.21875 
Q 44.046875 74.21875 50.515625 64.515625 
Q 56.984375 54.828125 56.984375 36.375 
Q 56.984375 17.96875 50.515625 8.265625 
Q 44.046875 -1.421875 31.78125 -1.421875 
Q 19.53125 -1.421875 13.0625 8.265625 
Q 6.59375 17.96875 6.59375 36.375 
Q 6.59375 54.828125 13.0625 64.515625 
Q 19.53125 74.21875 31.78125 74.21875 
z
" id="DejaVuSans-48"/>
       </defs>
       <use xlink:href="#DejaVuSans-50"/>
       <use x="63.623047" xlink:href="#DejaVuSans-48"/>
      </g>
     </g>
    </g>
    <g id="xtick_3">
     <g id="line2d_3">
      <g>
       <use style="stroke:#000000;stroke-width:0.8;" x="504.949773" xlink:href="#m4dd324bc9e" y="630"/>
      </g>
     </g>
     <g id="text_3">
      <!-- 21 -->
      <g transform="translate(498.587273 644.598438)scale(0.1 -0.1)">
       <use xlink:href="#DejaVuSans-50"/>
       <use x="63.623047" xlink:href="#DejaVuSans-49"/>
      </g>
     </g>
    </g>
    <g id="xtick_4">
     <g id="line2d_4">
      <g>
       <use style="stroke:#000000;stroke-width:0.8;" x="663.127007" xlink:href="#m4dd324bc9e" y="630"/>
      </g>
     </g>
     <g id="text_4">
      <!-- 22 -->
      <g transform="translate(656.764507 644.598438)scale(0.1 -0.1)">
       <use xlink:href="#DejaVuSans-50"/>
       <use x="63.623047" xlink:href="#DejaVuSans-50"/>
      </g>
     </g>
    </g>
    <g id="xtick_5">
     <g id="line2d_5">
      <g>
       <use style="stroke:#000000;stroke-width:0.8;" x="821.304241" xlink:href="#m4dd324bc9e" y="630"/>
      </g>
     </g>
     <g id="text_5">
      <!-- 23 -->
      <g transform="translate(814.941741 644.598438)scale(0.1 -0.1)">
       <defs>
        <path d="M 40.578125 39.3125 
Q 47.65625 37.796875 51.625 33 
Q 55.609375 28.21875 55.609375 21.1875 
Q 55.609375 10.40625 48.1875 4.484375 
Q 40.765625 -1.421875 27.09375 -1.421875 
Q 22.515625 -1.421875 17.65625 -0.515625 
Q 12.796875 0.390625 7.625 2.203125 
L 7.625 11.71875 
Q 11.71875 9.328125 16.59375 8.109375 
Q 21.484375 6.890625 26.8125 6.890625 
Q 36.078125 6.890625 40.9375 10.546875 
Q 45.796875 14.203125 45.796875 21.1875 
Q 45.796875 27.640625 41.28125 31.265625 
Q 36.765625 34.90625 28.71875 34.90625 
L 20.21875 34.90625 
L 20.21875 43.015625 
L 29.109375 43.015625 
Q 36.375 43.015625 40.234375 45.921875 
Q 44.09375 48.828125 44.09375 54.296875 
Q 44.09375 59.90625 40.109375 62.90625 
Q 36.140625 65.921875 28.71875 65.921875 
Q 24.65625 65.921875 20.015625 65.03125 
Q 15.375 64.15625 9.8125 62.3125 
L 9.8125 71.09375 
Q 15.4375 72.65625 20.34375 73.4375 
Q 25.25 74.21875 29.59375 74.21875 
Q 40.828125 74.21875 47.359375 69.109375 
Q 53.90625 64.015625 53.90625 55.328125 
Q 53.90625 49.265625 50.4375 45.09375 
Q 46.96875 40.921875 40.578125 39.3125 
z
" id="DejaVuSans-51"/>
       </defs>
       <use xlink:href="#DejaVuSans-50"/>
       <use x="63.623047" xlink:href="#DejaVuSans-51"/>
      </g>
     </g>
    </g>
    <g id="xtick_6">
     <g id="line2d_6">
      <g>
       <use style="stroke:#000000;stroke-width:0.8;" x="979.481474" xlink:href="#m4dd324bc9e" y="630"/>
      </g>
     </g>
     <g id="text_6">
      <!-- 24 -->
      <g transform="translate(973.118974 644.598438)scale(0.1 -0.1)">
       <defs>
        <path d="M 37.796875 64.3125 
L 12.890625 25.390625 
L 37.796875 25.390625 
z
M 35.203125 72.90625 
L 47.609375 72.90625 
L 47.609375 25.390625 
L 58.015625 25.390625 
L 58.015625 17.1875 
L 47.609375 17.1875 
L 47.609375 0 
L 37.796875 0 
L 37.796875 17.1875 
L 4.890625 17.1875 
L 4.890625 26.703125 
z
" id="DejaVuSans-52"/>
       </defs>
       <use xlink:href="#DejaVuSans-50"/>
       <use x="63.623047" xlink:href="#DejaVuSans-52"/>
      </g>
     </g>
    </g>
    <g id="xtick_7">
     <g id="line2d_7">
      <g>
       <use style="stroke:#000000;stroke-width:0.8;" x="1137.658708" xlink:href="#m4dd324bc9e" y="630"/>
      </g>
     </g>
     <g id="text_7">
      <!-- 25 -->
      <g transform="translate(1131.296208 644.598438)scale(0.1 -0.1)">
       <defs>
        <path d="M 10.796875 72.90625 
L 49.515625 72.90625 
L 49.515625 64.59375 
L 19.828125 64.59375 
L 19.828125 46.734375 
Q 21.96875 47.46875 24.109375 47.828125 
Q 26.265625 48.1875 28.421875 48.1875 
Q 40.625 48.1875 47.75 41.5 
Q 54.890625 34.8125 54.890625 23.390625 
Q 54.890625 11.625 47.5625 5.09375 
Q 40.234375 -1.421875 26.90625 -1.421875 
Q 22.3125 -1.421875 17.546875 -0.640625 
Q 12.796875 0.140625 7.71875 1.703125 
L 7.71875 11.625 
Q 12.109375 9.234375 16.796875 8.0625 
Q 21.484375 6.890625 26.703125 6.890625 
Q 35.15625 6.890625 40.078125 11.328125 
Q 45.015625 15.765625 45.015625 23.390625 
Q 45.015625 31 40.078125 35.4375 
Q 35.15625 39.890625 26.703125 39.890625 
Q 22.75 39.890625 18.8125 39.015625 
Q 14.890625 38.140625 10.796875 36.28125 
z
" id="DejaVuSans-53"/>
       </defs>
       <use xlink:href="#DejaVuSans-50"/>
       <use x="63.623047" xlink:href="#DejaVuSans-53"/>
      </g>
     </g>
    </g>
    <g id="text_8">
     <!-- x -->
     <g transform="translate(661.240625 658.276562)scale(0.1 -0.1)">
      <defs>
       <path d="M 54.890625 54.6875 
L 35.109375 28.078125 
L 55.90625 0 
L 45.3125 0 
L 29.390625 21.484375 
L 13.484375 0 
L 2.875 0 
L 24.125 28.609375 
L 4.6875 54.6875 
L 15.28125 54.6875 
L 29.78125 35.203125 
L 44.28125 54.6875 
z
" id="DejaVuSans-120"/>
      </defs>
      <use xlink:href="#DejaVuSans-120"/>
     </g>
    </g>
   </g>
   <g id="matplotlib.axis_2">
    <g id="ytick_1">
     <g id="line2d_8">
      <defs>
       <path d="M 0 0 
L -3.5 0 
" id="mc8aaef5df7" style="stroke:#000000;stroke-width:0.8;"/>
      </defs>
      <g>
       <use style="stroke:#000000;stroke-width:0.8;" x="162" xlink:href="#mc8aaef5df7" y="629.086606"/>
      </g>
     </g>
     <g id="text_9">
      <!-- −21 -->
      <g transform="translate(133.895312 632.885825)scale(0.1 -0.1)">
       <defs>
        <path d="M 10.59375 35.5 
L 73.1875 35.5 
L 73.1875 27.203125 
L 10.59375 27.203125 
z
" id="DejaVuSans-8722"/>
       </defs>
       <use xlink:href="#DejaVuSans-8722"/>
       <use x="83.789062" xlink:href="#DejaVuSans-50"/>
       <use x="147.412109" xlink:href="#DejaVuSans-49"/>
      </g>
     </g>
    </g>
    <g id="ytick_2">
     <g id="line2d_9">
      <g>
       <use style="stroke:#000000;stroke-width:0.8;" x="162" xlink:href="#mc8aaef5df7" y="563.398234"/>
      </g>
     </g>
     <g id="text_10">
      <!-- −20 -->
      <g transform="translate(133.895312 567.197452)scale(0.1 -0.1)">
       <use xlink:href="#DejaVuSans-8722"/>
       <use x="83.789062" xlink:href="#DejaVuSans-50"/>
       <use x="147.412109" xlink:href="#DejaVuSans-48"/>
      </g>
     </g>
    </g>
    <g id="ytick_3">
     <g id="line2d_10">
      <g>
       <use style="stroke:#000000;stroke-width:0.8;" x="162" xlink:href="#mc8aaef5df7" y="497.709861"/>
      </g>
     </g>
     <g id="text_11">
      <!-- −19 -->
      <g transform="translate(133.895312 501.50908)scale(0.1 -0.1)">
       <use xlink:href="#DejaVuSans-8722"/>
       <use x="83.789062" xlink:href="#DejaVuSans-49"/>
       <use x="147.412109" xlink:href="#DejaVuSans-57"/>
      </g>
     </g>
    </g>
    <g id="ytick_4">
     <g id="line2d_11">
      <g>
       <use style="stroke:#000000;stroke-width:0.8;" x="162" xlink:href="#mc8aaef5df7" y="432.021488"/>
      </g>
     </g>
     <g id="text_12">
      <!-- −18 -->
      <g transform="translate(133.895312 435.820707)scale(0.1 -0.1)">
       <defs>
        <path d="M 31.78125 34.625 
Q 24.75 34.625 20.71875 30.859375 
Q 16.703125 27.09375 16.703125 20.515625 
Q 16.703125 13.921875 20.71875 10.15625 
Q 24.75 6.390625 31.78125 6.390625 
Q 38.8125 6.390625 42.859375 10.171875 
Q 46.921875 13.96875 46.921875 20.515625 
Q 46.921875 27.09375 42.890625 30.859375 
Q 38.875 34.625 31.78125 34.625 
z
M 21.921875 38.8125 
Q 15.578125 40.375 12.03125 44.71875 
Q 8.5 49.078125 8.5 55.328125 
Q 8.5 64.0625 14.71875 69.140625 
Q 20.953125 74.21875 31.78125 74.21875 
Q 42.671875 74.21875 48.875 69.140625 
Q 55.078125 64.0625 55.078125 55.328125 
Q 55.078125 49.078125 51.53125 44.71875 
Q 48 40.375 41.703125 38.8125 
Q 48.828125 37.15625 52.796875 32.3125 
Q 56.78125 27.484375 56.78125 20.515625 
Q 56.78125 9.90625 50.3125 4.234375 
Q 43.84375 -1.421875 31.78125 -1.421875 
Q 19.734375 -1.421875 13.25 4.234375 
Q 6.78125 9.90625 6.78125 20.515625 
Q 6.78125 27.484375 10.78125 32.3125 
Q 14.796875 37.15625 21.921875 38.8125 
z
M 18.3125 54.390625 
Q 18.3125 48.734375 21.84375 45.5625 
Q 25.390625 42.390625 31.78125 42.390625 
Q 38.140625 42.390625 41.71875 45.5625 
Q 45.3125 48.734375 45.3125 54.390625 
Q 45.3125 60.0625 41.71875 63.234375 
Q 38.140625 66.40625 31.78125 66.40625 
Q 25.390625 66.40625 21.84375 63.234375 
Q 18.3125 60.0625 18.3125 54.390625 
z
" id="DejaVuSans-56"/>
       </defs>
       <use xlink:href="#DejaVuSans-8722"/>
       <use x="83.789062" xlink:href="#DejaVuSans-49"/>
       <use x="147.412109" xlink:href="#DejaVuSans-56"/>
      </g>
     </g>
    </g>
    <g id="ytick_5">
     <g id="line2d_12">
      <g>
       <use style="stroke:#000000;stroke-width:0.8;" x="162" xlink:href="#mc8aaef5df7" y="366.333116"/>
      </g>
     </g>
     <g id="text_13">
      <!-- −17 -->
      <g transform="translate(133.895312 370.132335)scale(0.1 -0.1)">
       <defs>
        <path d="M 8.203125 72.90625 
L 55.078125 72.90625 
L 55.078125 68.703125 
L 28.609375 0 
L 18.3125 0 
L 43.21875 64.59375 
L 8.203125 64.59375 
z
" id="DejaVuSans-55"/>
       </defs>
       <use xlink:href="#DejaVuSans-8722"/>
       <use x="83.789062" xlink:href="#DejaVuSans-49"/>
       <use x="147.412109" xlink:href="#DejaVuSans-55"/>
      </g>
     </g>
    </g>
    <g id="ytick_6">
     <g id="line2d_13">
      <g>
       <use style="stroke:#000000;stroke-width:0.8;" x="162" xlink:href="#mc8aaef5df7" y="300.644743"/>
      </g>
     </g>
     <g id="text_14">
      <!-- −16 -->
      <g transform="translate(133.895312 304.443962)scale(0.1 -0.1)">
       <defs>
        <path d="M 33.015625 40.375 
Q 26.375 40.375 22.484375 35.828125 
Q 18.609375 31.296875 18.609375 23.390625 
Q 18.609375 15.53125 22.484375 10.953125 
Q 26.375 6.390625 33.015625 6.390625 
Q 39.65625 6.390625 43.53125 10.953125 
Q 47.40625 15.53125 47.40625 23.390625 
Q 47.40625 31.296875 43.53125 35.828125 
Q 39.65625 40.375 33.015625 40.375 
z
M 52.59375 71.296875 
L 52.59375 62.3125 
Q 48.875 64.0625 45.09375 64.984375 
Q 41.3125 65.921875 37.59375 65.921875 
Q 27.828125 65.921875 22.671875 59.328125 
Q 17.53125 52.734375 16.796875 39.40625 
Q 19.671875 43.65625 24.015625 45.921875 
Q 28.375 48.1875 33.59375 48.1875 
Q 44.578125 48.1875 50.953125 41.515625 
Q 57.328125 34.859375 57.328125 23.390625 
Q 57.328125 12.15625 50.6875 5.359375 
Q 44.046875 -1.421875 33.015625 -1.421875 
Q 20.359375 -1.421875 13.671875 8.265625 
Q 6.984375 17.96875 6.984375 36.375 
Q 6.984375 53.65625 15.1875 63.9375 
Q 23.390625 74.21875 37.203125 74.21875 
Q 40.921875 74.21875 44.703125 73.484375 
Q 48.484375 72.75 52.59375 71.296875 
z
" id="DejaVuSans-54"/>
       </defs>
       <use xlink:href="#DejaVuSans-8722"/>
       <use x="83.789062" xlink:href="#DejaVuSans-49"/>
       <use x="147.412109" xlink:href="#DejaVuSans-54"/>
      </g>
     </g>
    </g>
    <g id="ytick_7">
     <g id="line2d_14">
      <g>
       <use style="stroke:#000000;stroke-width:0.8;" x="162" xlink:href="#mc8aaef5df7" y="234.956371"/>
      </g>
     </g>
     <g id="text_15">
      <!-- −15 -->
      <g transform="translate(133.895312 238.755589)scale(0.1 -0.1)">
       <use xlink:href="#DejaVuSans-8722"/>
       <use x="83.789062" xlink:href="#DejaVuSans-49"/>
       <use x="147.412109" xlink:href="#DejaVuSans-53"/>
      </g>
     </g>
    </g>
    <g id="ytick_8">
     <g id="line2d_15">
      <g>
       <use style="stroke:#000000;stroke-width:0.8;" x="162" xlink:href="#mc8aaef5df7" y="169.267998"/>
      </g>
     </g>
     <g id="text_16">
      <!-- −14 -->
      <g transform="translate(133.895312 173.067217)scale(0.1 -0.1)">
       <use xlink:href="#DejaVuSans-8722"/>
       <use x="83.789062" xlink:href="#DejaVuSans-49"/>
       <use x="147.412109" xlink:href="#DejaVuSans-52"/>
      </g>
     </g>
    </g>
    <g id="ytick_9">
     <g id="line2d_16">
      <g>
       <use style="stroke:#000000;stroke-width:0.8;" x="162" xlink:href="#mc8aaef5df7" y="103.579625"/>
      </g>
     </g>
     <g id="text_17">
      <!-- −13 -->
      <g transform="translate(133.895312 107.378844)scale(0.1 -0.1)">
       <use xlink:href="#DejaVuSans-8722"/>
       <use x="83.789062" xlink:href="#DejaVuSans-49"/>
       <use x="147.412109" xlink:href="#DejaVuSans-51"/>
      </g>
     </g>
    </g>
    <g id="text_18">
     <!-- y -->
     <g transform="translate(127.815625 361.159375)rotate(-90)scale(0.1 -0.1)">
      <defs>
       <path d="M 32.171875 -5.078125 
Q 28.375 -14.84375 24.75 -17.8125 
Q 21.140625 -20.796875 15.09375 -20.796875 
L 7.90625 -20.796875 
L 7.90625 -13.28125 
L 13.1875 -13.28125 
Q 16.890625 -13.28125 18.9375 -11.515625 
Q 21 -9.765625 23.484375 -3.21875 
L 25.09375 0.875 
L 2.984375 54.6875 
L 12.5 54.6875 
L 29.59375 11.921875 
L 46.6875 54.6875 
L 56.203125 54.6875 
z
" id="DejaVuSans-121"/>
      </defs>
      <use xlink:href="#DejaVuSans-121"/>
     </g>
    </g>
   </g>
   <g id="patch_3">
    <path d="M 162 630 
L 162 86.4 
" style="fill:none;stroke:#000000;stroke-linecap:square;stroke-linejoin:miter;stroke-width:0.8;"/>
   </g>
   <g id="patch_4">
    <path d="M 1166.4 630 
L 1166.4 86.4 
" style="fill:none;stroke:#000000;stroke-linecap:square;stroke-linejoin:miter;stroke-width:0.8;"/>
   </g>
   <g id="patch_5">
    <path d="M 162 630 
L 1166.4 630 
" style="fill:none;stroke:#000000;stroke-linecap:square;stroke-linejoin:miter;stroke-width:0.8;"/>
   </g>
   <g id="patch_6">
    <path d="M 162 86.4 
L 1166.4 86.4 
" style="fill:none;stroke:#000000;stroke-linecap:square;stroke-linejoin:miter;stroke-width:0.8;"/>
   </g>
   <g id="text_19">
    <!-- achieved -->
    <g transform="translate(628.363858 418.975171)scale(0.11 -0.11)">
     <defs>
      <path d="M 34.28125 27.484375 
Q 23.390625 27.484375 19.1875 25 
Q 14.984375 22.515625 14.984375 16.5 
Q 14.984375 11.71875 18.140625 8.90625 
Q 21.296875 6.109375 26.703125 6.109375 
Q 34.1875 6.109375 38.703125 11.40625 
Q 43.21875 16.703125 43.21875 25.484375 
L 43.21875 27.484375 
z
M 52.203125 31.203125 
L 52.203125 0 
L 43.21875 0 
L 43.21875 8.296875 
Q 40.140625 3.328125 35.546875 0.953125 
Q 30.953125 -1.421875 24.3125 -1.421875 
Q 15.921875 -1.421875 10.953125 3.296875 
Q 6 8.015625 6 15.921875 
Q 6 25.140625 12.171875 29.828125 
Q 18.359375 34.515625 30.609375 34.515625 
L 43.21875 34.515625 
L 43.21875 35.40625 
Q 43.21875 41.609375 39.140625 45 
Q 35.0625 48.390625 27.6875 48.390625 
Q 23 48.390625 18.546875 47.265625 
Q 14.109375 46.140625 10.015625 43.890625 
L 10.015625 52.203125 
Q 14.9375 54.109375 19.578125 55.046875 
Q 24.21875 56 28.609375 56 
Q 40.484375 56 46.34375 49.84375 
Q 52.203125 43.703125 52.203125 31.203125 
z
" id="DejaVuSans-97"/>
      <path d="M 48.78125 52.59375 
L 48.78125 44.1875 
Q 44.96875 46.296875 41.140625 47.34375 
Q 37.3125 48.390625 33.40625 48.390625 
Q 24.65625 48.390625 19.8125 42.84375 
Q 14.984375 37.3125 14.984375 27.296875 
Q 14.984375 17.28125 19.8125 11.734375 
Q 24.65625 6.203125 33.40625 6.203125 
Q 37.3125 6.203125 41.140625 7.25 
Q 44.96875 8.296875 48.78125 10.40625 
L 48.78125 2.09375 
Q 45.015625 0.34375 40.984375 -0.53125 
Q 36.96875 -1.421875 32.421875 -1.421875 
Q 20.0625 -1.421875 12.78125 6.34375 
Q 5.515625 14.109375 5.515625 27.296875 
Q 5.515625 40.671875 12.859375 48.328125 
Q 20.21875 56 33.015625 56 
Q 37.15625 56 41.109375 55.140625 
Q 45.0625 54.296875 48.78125 52.59375 
z
" id="DejaVuSans-99"/>
      <path d="M 54.890625 33.015625 
L 54.890625 0 
L 45.90625 0 
L 45.90625 32.71875 
Q 45.90625 40.484375 42.875 44.328125 
Q 39.84375 48.1875 33.796875 48.1875 
Q 26.515625 48.1875 22.3125 43.546875 
Q 18.109375 38.921875 18.109375 30.90625 
L 18.109375 0 
L 9.078125 0 
L 9.078125 75.984375 
L 18.109375 75.984375 
L 18.109375 46.1875 
Q 21.34375 51.125 25.703125 53.5625 
Q 30.078125 56 35.796875 56 
Q 45.21875 56 50.046875 50.171875 
Q 54.890625 44.34375 54.890625 33.015625 
z
" id="DejaVuSans-104"/>
      <path d="M 9.421875 54.6875 
L 18.40625 54.6875 
L 18.40625 0 
L 9.421875 0 
z
M 9.421875 75.984375 
L 18.40625 75.984375 
L 18.40625 64.59375 
L 9.421875 64.59375 
z
" id="DejaVuSans-105"/>
      <path d="M 56.203125 29.59375 
L 56.203125 25.203125 
L 14.890625 25.203125 
Q 15.484375 15.921875 20.484375 11.0625 
Q 25.484375 6.203125 34.421875 6.203125 
Q 39.59375 6.203125 44.453125 7.46875 
Q 49.3125 8.734375 54.109375 11.28125 
L 54.109375 2.78125 
Q 49.265625 0.734375 44.1875 -0.34375 
Q 39.109375 -1.421875 33.890625 -1.421875 
Q 20.796875 -1.421875 13.15625 6.1875 
Q 5.515625 13.8125 5.515625 26.8125 
Q 5.515625 40.234375 12.765625 48.109375 
Q 20.015625 56 32.328125 56 
Q 43.359375 56 49.78125 48.890625 
Q 56.203125 41.796875 56.203125 29.59375 
z
M 47.21875 32.234375 
Q 47.125 39.59375 43.09375 43.984375 
Q 39.0625 48.390625 32.421875 48.390625 
Q 24.90625 48.390625 20.390625 44.140625 
Q 15.875 39.890625 15.1875 32.171875 
z
" id="DejaVuSans-101"/>
      <path d="M 2.984375 54.6875 
L 12.5 54.6875 
L 29.59375 8.796875 
L 46.6875 54.6875 
L 56.203125 54.6875 
L 35.6875 0 
L 23.484375 0 
z
" id="DejaVuSans-118"/>
      <path d="M 45.40625 46.390625 
L 45.40625 75.984375 
L 54.390625 75.984375 
L 54.390625 0 
L 45.40625 0 
L 45.40625 8.203125 
Q 42.578125 3.328125 38.25 0.953125 
Q 33.9375 -1.421875 27.875 -1.421875 
Q 17.96875 -1.421875 11.734375 6.484375 
Q 5.515625 14.40625 5.515625 27.296875 
Q 5.515625 40.1875 11.734375 48.09375 
Q 17.96875 56 27.875 56 
Q 33.9375 56 38.25 53.625 
Q 42.578125 51.265625 45.40625 46.390625 
z
M 14.796875 27.296875 
Q 14.796875 17.390625 18.875 11.75 
Q 22.953125 6.109375 30.078125 6.109375 
Q 37.203125 6.109375 41.296875 11.75 
Q 45.40625 17.390625 45.40625 27.296875 
Q 45.40625 37.203125 41.296875 42.84375 
Q 37.203125 48.484375 30.078125 48.484375 
Q 22.953125 48.484375 18.875 42.84375 
Q 14.796875 37.203125 14.796875 27.296875 
z
" id="DejaVuSans-100"/>
     </defs>
     <use xlink:href="#DejaVuSans-97"/>
     <use x="61.279297" xlink:href="#DejaVuSans-99"/>
     <use x="116.259766" xlink:href="#DejaVuSans-104"/>
     <use x="179.638672" xlink:href="#DejaVuSans-105"/>
     <use x="207.421875" xlink:href="#DejaVuSans-101"/>
     <use x="268.945312" xlink:href="#DejaVuSans-118"/>
     <use x="328.125" xlink:href="#DejaVuSans-101"/>
     <use x="389.648438" xlink:href="#DejaVuSans-100"/>
    </g>
   </g>
   <g id="text_20">
    <!-- known -->
    <g transform="translate(659.749015 435.116613)scale(0.11 -0.11)">
     <defs>
      <path d="M 9.078125 75.984375 
L 18.109375 75.984375 
L 18.109375 31.109375 
L 44.921875 54.6875 
L 56.390625 54.6875 
L 27.390625 29.109375 
L 57.625 0 
L 45.90625 0 
L 18.109375 26.703125 
L 18.109375 0 
L 9.078125 0 
z
" id="DejaVuSans-107"/>
      <path d="M 54.890625 33.015625 
L 54.890625 0 
L 45.90625 0 
L 45.90625 32.71875 
Q 45.90625 40.484375 42.875 44.328125 
Q 39.84375 48.1875 33.796875 48.1875 
Q 26.515625 48.1875 22.3125 43.546875 
Q 18.109375 38.921875 18.109375 30.90625 
L 18.109375 0 
L 9.078125 0 
L 9.078125 54.6875 
L 18.109375 54.6875 
L 18.109375 46.1875 
Q 21.34375 51.125 25.703125 53.5625 
Q 30.078125 56 35.796875 56 
Q 45.21875 56 50.046875 50.171875 
Q 54.890625 44.34375 54.890625 33.015625 
z
" id="DejaVuSans-110"/>
      <path d="M 30.609375 48.390625 
Q 23.390625 48.390625 19.1875 42.75 
Q 14.984375 37.109375 14.984375 27.296875 
Q 14.984375 17.484375 19.15625 11.84375 
Q 23.34375 6.203125 30.609375 6.203125 
Q 37.796875 6.203125 41.984375 11.859375 
Q 46.1875 17.53125 46.1875 27.296875 
Q 46.1875 37.015625 41.984375 42.703125 
Q 37.796875 48.390625 30.609375 48.390625 
z
M 30.609375 56 
Q 42.328125 56 49.015625 48.375 
Q 55.71875 40.765625 55.71875 27.296875 
Q 55.71875 13.875 49.015625 6.21875 
Q 42.328125 -1.421875 30.609375 -1.421875 
Q 18.84375 -1.421875 12.171875 6.21875 
Q 5.515625 13.875 5.515625 27.296875 
Q 5.515625 40.765625 12.171875 48.375 
Q 18.84375 56 30.609375 56 
z
" id="DejaVuSans-111"/>
      <path d="M 4.203125 54.6875 
L 13.1875 54.6875 
L 24.421875 12.015625 
L 35.59375 54.6875 
L 46.1875 54.6875 
L 57.421875 12.015625 
L 68.609375 54.6875 
L 77.59375 54.6875 
L 63.28125 0 
L 52.6875 0 
L 40.921875 44.828125 
L 29.109375 0 
L 18.5 0 
z
" id="DejaVuSans-119"/>
     </defs>
     <use xlink:href="#DejaVuSans-107"/>
     <use x="57.910156" xlink:href="#DejaVuSans-110"/>
     <use x="121.289062" xlink:href="#DejaVuSans-111"/>
     <use x="182.470703" xlink:href="#DejaVuSans-119"/>
     <use x="264.257812" xlink:href="#DejaVuSans-110"/>
    </g>
   </g>
   <g id="text_21">
    <!-- means -->
    <g transform="translate(493.313672 487.579557)scale(0.11 -0.11)">
     <defs>
      <path d="M 52 44.1875 
Q 55.375 50.25 60.0625 53.125 
Q 64.75 56 71.09375 56 
Q 79.640625 56 84.28125 50.015625 
Q 88.921875 44.046875 88.921875 33.015625 
L 88.921875 0 
L 79.890625 0 
L 79.890625 32.71875 
Q 79.890625 40.578125 77.09375 44.375 
Q 74.3125 48.1875 68.609375 48.1875 
Q 61.625 48.1875 57.5625 43.546875 
Q 53.515625 38.921875 53.515625 30.90625 
L 53.515625 0 
L 44.484375 0 
L 44.484375 32.71875 
Q 44.484375 40.625 41.703125 44.40625 
Q 38.921875 48.1875 33.109375 48.1875 
Q 26.21875 48.1875 22.15625 43.53125 
Q 18.109375 38.875 18.109375 30.90625 
L 18.109375 0 
L 9.078125 0 
L 9.078125 54.6875 
L 18.109375 54.6875 
L 18.109375 46.1875 
Q 21.1875 51.21875 25.484375 53.609375 
Q 29.78125 56 35.6875 56 
Q 41.65625 56 45.828125 52.96875 
Q 50 49.953125 52 44.1875 
z
" id="DejaVuSans-109"/>
      <path d="M 44.28125 53.078125 
L 44.28125 44.578125 
Q 40.484375 46.53125 36.375 47.5 
Q 32.28125 48.484375 27.875 48.484375 
Q 21.1875 48.484375 17.84375 46.4375 
Q 14.5 44.390625 14.5 40.28125 
Q 14.5 37.15625 16.890625 35.375 
Q 19.28125 33.59375 26.515625 31.984375 
L 29.59375 31.296875 
Q 39.15625 29.25 43.1875 25.515625 
Q 47.21875 21.78125 47.21875 15.09375 
Q 47.21875 7.46875 41.1875 3.015625 
Q 35.15625 -1.421875 24.609375 -1.421875 
Q 20.21875 -1.421875 15.453125 -0.5625 
Q 10.6875 0.296875 5.421875 2 
L 5.421875 11.28125 
Q 10.40625 8.6875 15.234375 7.390625 
Q 20.0625 6.109375 24.8125 6.109375 
Q 31.15625 6.109375 34.5625 8.28125 
Q 37.984375 10.453125 37.984375 14.40625 
Q 37.984375 18.0625 35.515625 20.015625 
Q 33.0625 21.96875 24.703125 23.78125 
L 21.578125 24.515625 
Q 13.234375 26.265625 9.515625 29.90625 
Q 5.8125 33.546875 5.8125 39.890625 
Q 5.8125 47.609375 11.28125 51.796875 
Q 16.75 56 26.8125 56 
Q 31.78125 56 36.171875 55.265625 
Q 40.578125 54.546875 44.28125 53.078125 
z
" id="DejaVuSans-115"/>
     </defs>
     <use xlink:href="#DejaVuSans-109"/>
     <use x="97.412109" xlink:href="#DejaVuSans-101"/>
     <use x="158.935547" xlink:href="#DejaVuSans-97"/>
     <use x="220.214844" xlink:href="#DejaVuSans-110"/>
     <use x="283.59375" xlink:href="#DejaVuSans-115"/>
    </g>
   </g>
   <g id="text_22">
    <!-- response -->
    <g transform="translate(473.084746 496.084786)scale(0.11 -0.11)">
     <defs>
      <path d="M 41.109375 46.296875 
Q 39.59375 47.171875 37.8125 47.578125 
Q 36.03125 48 33.890625 48 
Q 26.265625 48 22.1875 43.046875 
Q 18.109375 38.09375 18.109375 28.8125 
L 18.109375 0 
L 9.078125 0 
L 9.078125 54.6875 
L 18.109375 54.6875 
L 18.109375 46.1875 
Q 20.953125 51.171875 25.484375 53.578125 
Q 30.03125 56 36.53125 56 
Q 37.453125 56 38.578125 55.875 
Q 39.703125 55.765625 41.0625 55.515625 
z
" id="DejaVuSans-114"/>
      <path d="M 18.109375 8.203125 
L 18.109375 -20.796875 
L 9.078125 -20.796875 
L 9.078125 54.6875 
L 18.109375 54.6875 
L 18.109375 46.390625 
Q 20.953125 51.265625 25.265625 53.625 
Q 29.59375 56 35.59375 56 
Q 45.5625 56 51.78125 48.09375 
Q 58.015625 40.1875 58.015625 27.296875 
Q 58.015625 14.40625 51.78125 6.484375 
Q 45.5625 -1.421875 35.59375 -1.421875 
Q 29.59375 -1.421875 25.265625 0.953125 
Q 20.953125 3.328125 18.109375 8.203125 
z
M 48.6875 27.296875 
Q 48.6875 37.203125 44.609375 42.84375 
Q 40.53125 48.484375 33.40625 48.484375 
Q 26.265625 48.484375 22.1875 42.84375 
Q 18.109375 37.203125 18.109375 27.296875 
Q 18.109375 17.390625 22.1875 11.75 
Q 26.265625 6.109375 33.40625 6.109375 
Q 40.53125 6.109375 44.609375 11.75 
Q 48.6875 17.390625 48.6875 27.296875 
z
" id="DejaVuSans-112"/>
     </defs>
     <use xlink:href="#DejaVuSans-114"/>
     <use x="38.863281" xlink:href="#DejaVuSans-101"/>
     <use x="100.386719" xlink:href="#DejaVuSans-115"/>
     <use x="152.486328" xlink:href="#DejaVuSans-112"/>
     <use x="215.962891" xlink:href="#DejaVuSans-111"/>
     <use x="277.144531" xlink:href="#DejaVuSans-110"/>
     <use x="340.523438" xlink:href="#DejaVuSans-115"/>
     <use x="392.623047" xlink:href="#DejaVuSans-101"/>
    </g>
   </g>
   <g id="text_23">
    <!-- primitives -->
    <g transform="translate(409.738186 422.515508)scale(0.11 -0.11)">
     <defs>
      <path d="M 18.3125 70.21875 
L 18.3125 54.6875 
L 36.8125 54.6875 
L 36.8125 47.703125 
L 18.3125 47.703125 
L 18.3125 18.015625 
Q 18.3125 11.328125 20.140625 9.421875 
Q 21.96875 7.515625 27.59375 7.515625 
L 36.8125 7.515625 
L 36.8125 0 
L 27.59375 0 
Q 17.1875 0 13.234375 3.875 
Q 9.28125 7.765625 9.28125 18.015625 
L 9.28125 47.703125 
L 2.6875 47.703125 
L 2.6875 54.6875 
L 9.28125 54.6875 
L 9.28125 70.21875 
z
" id="DejaVuSans-116"/>
     </defs>
     <use xlink:href="#DejaVuSans-112"/>
     <use x="63.476562" xlink:href="#DejaVuSans-114"/>
     <use x="104.589844" xlink:href="#DejaVuSans-105"/>
     <use x="132.373047" xlink:href="#DejaVuSans-109"/>
     <use x="229.785156" xlink:href="#DejaVuSans-105"/>
     <use x="257.568359" xlink:href="#DejaVuSans-116"/>
     <use x="296.777344" xlink:href="#DejaVuSans-105"/>
     <use x="324.560547" xlink:href="#DejaVuSans-118"/>
     <use x="383.740234" xlink:href="#DejaVuSans-101"/>
     <use x="445.263672" xlink:href="#DejaVuSans-115"/>
    </g>
   </g>
   <g id="text_24">
    <!-- modeling -->
    <g transform="translate(609.16101 383.934013)scale(0.11 -0.11)">
     <defs>
      <path d="M 9.421875 75.984375 
L 18.40625 75.984375 
L 18.40625 0 
L 9.421875 0 
z
" id="DejaVuSans-108"/>
      <path d="M 45.40625 27.984375 
Q 45.40625 37.75 41.375 43.109375 
Q 37.359375 48.484375 30.078125 48.484375 
Q 22.859375 48.484375 18.828125 43.109375 
Q 14.796875 37.75 14.796875 27.984375 
Q 14.796875 18.265625 18.828125 12.890625 
Q 22.859375 7.515625 30.078125 7.515625 
Q 37.359375 7.515625 41.375 12.890625 
Q 45.40625 18.265625 45.40625 27.984375 
z
M 54.390625 6.78125 
Q 54.390625 -7.171875 48.1875 -13.984375 
Q 42 -20.796875 29.203125 -20.796875 
Q 24.46875 -20.796875 20.265625 -20.09375 
Q 16.0625 -19.390625 12.109375 -17.921875 
L 12.109375 -9.1875 
Q 16.0625 -11.328125 19.921875 -12.34375 
Q 23.78125 -13.375 27.78125 -13.375 
Q 36.625 -13.375 41.015625 -8.765625 
Q 45.40625 -4.15625 45.40625 5.171875 
L 45.40625 9.625 
Q 42.625 4.78125 38.28125 2.390625 
Q 33.9375 0 27.875 0 
Q 17.828125 0 11.671875 7.65625 
Q 5.515625 15.328125 5.515625 27.984375 
Q 5.515625 40.671875 11.671875 48.328125 
Q 17.828125 56 27.875 56 
Q 33.9375 56 38.28125 53.609375 
Q 42.625 51.21875 45.40625 46.390625 
L 45.40625 54.6875 
L 54.390625 54.6875 
z
" id="DejaVuSans-103"/>
     </defs>
     <use xlink:href="#DejaVuSans-109"/>
     <use x="97.412109" xlink:href="#DejaVuSans-111"/>
     <use x="158.59375" xlink:href="#DejaVuSans-100"/>
     <use x="222.070312" xlink:href="#DejaVuSans-101"/>
     <use x="283.59375" xlink:href="#DejaVuSans-108"/>
     <use x="311.376953" xlink:href="#DejaVuSans-105"/>
     <use x="339.160156" xlink:href="#DejaVuSans-110"/>
     <use x="402.539062" xlink:href="#DejaVuSans-103"/>
    </g>
   </g>
   <g id="text_25">
    <!-- nervous -->
    <g transform="translate(884.271999 334.69392)scale(0.11 -0.11)">
     <defs>
      <path d="M 8.5 21.578125 
L 8.5 54.6875 
L 17.484375 54.6875 
L 17.484375 21.921875 
Q 17.484375 14.15625 20.5 10.265625 
Q 23.53125 6.390625 29.59375 6.390625 
Q 36.859375 6.390625 41.078125 11.03125 
Q 45.3125 15.671875 45.3125 23.6875 
L 45.3125 54.6875 
L 54.296875 54.6875 
L 54.296875 0 
L 45.3125 0 
L 45.3125 8.40625 
Q 42.046875 3.421875 37.71875 1 
Q 33.40625 -1.421875 27.6875 -1.421875 
Q 18.265625 -1.421875 13.375 4.4375 
Q 8.5 10.296875 8.5 21.578125 
z
M 31.109375 56 
z
" id="DejaVuSans-117"/>
     </defs>
     <use xlink:href="#DejaVuSans-110"/>
     <use x="63.378906" xlink:href="#DejaVuSans-101"/>
     <use x="124.902344" xlink:href="#DejaVuSans-114"/>
     <use x="166.015625" xlink:href="#DejaVuSans-118"/>
     <use x="225.195312" xlink:href="#DejaVuSans-111"/>
     <use x="286.376953" xlink:href="#DejaVuSans-117"/>
     <use x="349.755859" xlink:href="#DejaVuSans-115"/>
    </g>
   </g>
   <g id="text_26">
    <!-- providing -->
    <g transform="translate(1121.536341 110.780649)scale(0.11 -0.11)">
     <use xlink:href="#DejaVuSans-112"/>
     <use x="63.476562" xlink:href="#DejaVuSans-114"/>
     <use x="102.339844" xlink:href="#DejaVuSans-111"/>
     <use x="163.521484" xlink:href="#DejaVuSans-118"/>
     <use x="222.701172" xlink:href="#DejaVuSans-105"/>
     <use x="250.484375" xlink:href="#DejaVuSans-100"/>
     <use x="313.960938" xlink:href="#DejaVuSans-105"/>
     <use x="341.744141" xlink:href="#DejaVuSans-110"/>
     <use x="405.123047" xlink:href="#DejaVuSans-103"/>
    </g>
   </g>
   <g id="text_27">
    <!-- combining -->
    <g transform="translate(387.358748 434.014431)scale(0.11 -0.11)">
     <defs>
      <path d="M 48.6875 27.296875 
Q 48.6875 37.203125 44.609375 42.84375 
Q 40.53125 48.484375 33.40625 48.484375 
Q 26.265625 48.484375 22.1875 42.84375 
Q 18.109375 37.203125 18.109375 27.296875 
Q 18.109375 17.390625 22.1875 11.75 
Q 26.265625 6.109375 33.40625 6.109375 
Q 40.53125 6.109375 44.609375 11.75 
Q 48.6875 17.390625 48.6875 27.296875 
z
M 18.109375 46.390625 
Q 20.953125 51.265625 25.265625 53.625 
Q 29.59375 56 35.59375 56 
Q 45.5625 56 51.78125 48.09375 
Q 58.015625 40.1875 58.015625 27.296875 
Q 58.015625 14.40625 51.78125 6.484375 
Q 45.5625 -1.421875 35.59375 -1.421875 
Q 29.59375 -1.421875 25.265625 0.953125 
Q 20.953125 3.328125 18.109375 8.203125 
L 18.109375 0 
L 9.078125 0 
L 9.078125 75.984375 
L 18.109375 75.984375 
z
" id="DejaVuSans-98"/>
     </defs>
     <use xlink:href="#DejaVuSans-99"/>
     <use x="54.980469" xlink:href="#DejaVuSans-111"/>
     <use x="116.162109" xlink:href="#DejaVuSans-109"/>
     <use x="213.574219" xlink:href="#DejaVuSans-98"/>
     <use x="277.050781" xlink:href="#DejaVuSans-105"/>
     <use x="304.833984" xlink:href="#DejaVuSans-110"/>
     <use x="368.212891" xlink:href="#DejaVuSans-105"/>
     <use x="395.996094" xlink:href="#DejaVuSans-110"/>
     <use x="459.375" xlink:href="#DejaVuSans-103"/>
    </g>
   </g>
   <g id="text_28">
    <!-- living -->
    <g transform="translate(210.70727 604.962467)scale(0.11 -0.11)">
     <use xlink:href="#DejaVuSans-108"/>
     <use x="27.783203" xlink:href="#DejaVuSans-105"/>
     <use x="55.566406" xlink:href="#DejaVuSans-118"/>
     <use x="114.746094" xlink:href="#DejaVuSans-105"/>
     <use x="142.529297" xlink:href="#DejaVuSans-110"/>
     <use x="205.908203" xlink:href="#DejaVuSans-103"/>
    </g>
   </g>
   <g id="text_29">
    <!-- suggests -->
    <g transform="translate(1065.178038 221.87541)scale(0.11 -0.11)">
     <use xlink:href="#DejaVuSans-115"/>
     <use x="52.099609" xlink:href="#DejaVuSans-117"/>
     <use x="115.478516" xlink:href="#DejaVuSans-103"/>
     <use x="178.955078" xlink:href="#DejaVuSans-103"/>
     <use x="242.431641" xlink:href="#DejaVuSans-101"/>
     <use x="303.955078" xlink:href="#DejaVuSans-115"/>
     <use x="356.054688" xlink:href="#DejaVuSans-116"/>
     <use x="395.263672" xlink:href="#DejaVuSans-115"/>
    </g>
   </g>
   <g id="text_30">
    <!-- effects -->
    <g transform="translate(991.869373 266.043363)scale(0.11 -0.11)">
     <defs>
      <path d="M 37.109375 75.984375 
L 37.109375 68.5 
L 28.515625 68.5 
Q 23.6875 68.5 21.796875 66.546875 
Q 19.921875 64.59375 19.921875 59.515625 
L 19.921875 54.6875 
L 34.71875 54.6875 
L 34.71875 47.703125 
L 19.921875 47.703125 
L 19.921875 0 
L 10.890625 0 
L 10.890625 47.703125 
L 2.296875 47.703125 
L 2.296875 54.6875 
L 10.890625 54.6875 
L 10.890625 58.5 
Q 10.890625 67.625 15.140625 71.796875 
Q 19.390625 75.984375 28.609375 75.984375 
z
" id="DejaVuSans-102"/>
     </defs>
     <use xlink:href="#DejaVuSans-101"/>
     <use x="61.523438" xlink:href="#DejaVuSans-102"/>
     <use x="96.728516" xlink:href="#DejaVuSans-102"/>
     <use x="131.933594" xlink:href="#DejaVuSans-101"/>
     <use x="193.457031" xlink:href="#DejaVuSans-99"/>
     <use x="248.4375" xlink:href="#DejaVuSans-116"/>
     <use x="287.646484" xlink:href="#DejaVuSans-115"/>
    </g>
   </g>
   <g id="text_31">
    <!-- showed -->
    <g transform="translate(1079.042018 115.88098)scale(0.11 -0.11)">
     <use xlink:href="#DejaVuSans-115"/>
     <use x="52.099609" xlink:href="#DejaVuSans-104"/>
     <use x="115.478516" xlink:href="#DejaVuSans-111"/>
     <use x="176.660156" xlink:href="#DejaVuSans-119"/>
     <use x="258.447266" xlink:href="#DejaVuSans-101"/>
     <use x="319.970703" xlink:href="#DejaVuSans-100"/>
    </g>
   </g>
   <g id="text_32">
    <!-- principles -->
    <g transform="translate(874.093274 287.866485)scale(0.11 -0.11)">
     <use xlink:href="#DejaVuSans-112"/>
     <use x="63.476562" xlink:href="#DejaVuSans-114"/>
     <use x="104.589844" xlink:href="#DejaVuSans-105"/>
     <use x="132.373047" xlink:href="#DejaVuSans-110"/>
     <use x="195.751953" xlink:href="#DejaVuSans-99"/>
     <use x="250.732422" xlink:href="#DejaVuSans-105"/>
     <use x="278.515625" xlink:href="#DejaVuSans-112"/>
     <use x="341.992188" xlink:href="#DejaVuSans-108"/>
     <use x="369.775391" xlink:href="#DejaVuSans-101"/>
     <use x="431.298828" xlink:href="#DejaVuSans-115"/>
    </g>
   </g>
   <g id="text_33">
    <!-- vision -->
    <g transform="translate(801.140614 326.646503)scale(0.11 -0.11)">
     <use xlink:href="#DejaVuSans-118"/>
     <use x="59.179688" xlink:href="#DejaVuSans-105"/>
     <use x="86.962891" xlink:href="#DejaVuSans-115"/>
     <use x="139.0625" xlink:href="#DejaVuSans-105"/>
     <use x="166.845703" xlink:href="#DejaVuSans-111"/>
     <use x="228.027344" xlink:href="#DejaVuSans-110"/>
    </g>
   </g>
   <g id="text_34">
    <!-- decentralized -->
    <g transform="translate(416.893886 544.059069)scale(0.11 -0.11)">
     <defs>
      <path d="M 5.515625 54.6875 
L 48.1875 54.6875 
L 48.1875 46.484375 
L 14.40625 7.171875 
L 48.1875 7.171875 
L 48.1875 0 
L 4.296875 0 
L 4.296875 8.203125 
L 38.09375 47.515625 
L 5.515625 47.515625 
z
" id="DejaVuSans-122"/>
     </defs>
     <use xlink:href="#DejaVuSans-100"/>
     <use x="63.476562" xlink:href="#DejaVuSans-101"/>
     <use x="125" xlink:href="#DejaVuSans-99"/>
     <use x="179.980469" xlink:href="#DejaVuSans-101"/>
     <use x="241.503906" xlink:href="#DejaVuSans-110"/>
     <use x="304.882812" xlink:href="#DejaVuSans-116"/>
     <use x="344.091797" xlink:href="#DejaVuSans-114"/>
     <use x="385.205078" xlink:href="#DejaVuSans-97"/>
     <use x="446.484375" xlink:href="#DejaVuSans-108"/>
     <use x="474.267578" xlink:href="#DejaVuSans-105"/>
     <use x="502.050781" xlink:href="#DejaVuSans-122"/>
     <use x="554.541016" xlink:href="#DejaVuSans-101"/>
     <use x="616.064453" xlink:href="#DejaVuSans-100"/>
    </g>
   </g>
   <g id="text_35">
    <!-- flow -->
    <g transform="translate(430.937377 499.354621)scale(0.11 -0.11)">
     <use xlink:href="#DejaVuSans-102"/>
     <use x="35.205078" xlink:href="#DejaVuSans-108"/>
     <use x="62.988281" xlink:href="#DejaVuSans-111"/>
     <use x="124.169922" xlink:href="#DejaVuSans-119"/>
    </g>
   </g>
   <g id="text_36">
    <!-- alternative -->
    <g transform="translate(842.639027 217.84362)scale(0.11 -0.11)">
     <use xlink:href="#DejaVuSans-97"/>
     <use x="61.279297" xlink:href="#DejaVuSans-108"/>
     <use x="89.0625" xlink:href="#DejaVuSans-116"/>
     <use x="128.271484" xlink:href="#DejaVuSans-101"/>
     <use x="189.794922" xlink:href="#DejaVuSans-114"/>
     <use x="229.158203" xlink:href="#DejaVuSans-110"/>
     <use x="292.537109" xlink:href="#DejaVuSans-97"/>
     <use x="353.816406" xlink:href="#DejaVuSans-116"/>
     <use x="393.025391" xlink:href="#DejaVuSans-105"/>
     <use x="420.808594" xlink:href="#DejaVuSans-118"/>
     <use x="479.988281" xlink:href="#DejaVuSans-101"/>
    </g>
   </g>
   <g id="text_37">
    <!-- phenomenon -->
    <g transform="translate(678.021724 324.641351)scale(0.11 -0.11)">
     <use xlink:href="#DejaVuSans-112"/>
     <use x="63.476562" xlink:href="#DejaVuSans-104"/>
     <use x="126.855469" xlink:href="#DejaVuSans-101"/>
     <use x="188.378906" xlink:href="#DejaVuSans-110"/>
     <use x="251.757812" xlink:href="#DejaVuSans-111"/>
     <use x="312.939453" xlink:href="#DejaVuSans-109"/>
     <use x="410.351562" xlink:href="#DejaVuSans-101"/>
     <use x="471.875" xlink:href="#DejaVuSans-110"/>
     <use x="535.253906" xlink:href="#DejaVuSans-111"/>
     <use x="596.435547" xlink:href="#DejaVuSans-110"/>
    </g>
   </g>
   <g id="text_38">
    <!-- introduced -->
    <g transform="translate(1061.926325 118.060536)scale(0.11 -0.11)">
     <use xlink:href="#DejaVuSans-105"/>
     <use x="27.783203" xlink:href="#DejaVuSans-110"/>
     <use x="91.162109" xlink:href="#DejaVuSans-116"/>
     <use x="130.371094" xlink:href="#DejaVuSans-114"/>
     <use x="169.234375" xlink:href="#DejaVuSans-111"/>
     <use x="230.416016" xlink:href="#DejaVuSans-100"/>
     <use x="293.892578" xlink:href="#DejaVuSans-117"/>
     <use x="357.271484" xlink:href="#DejaVuSans-99"/>
     <use x="412.251953" xlink:href="#DejaVuSans-101"/>
     <use x="473.775391" xlink:href="#DejaVuSans-100"/>
    </g>
   </g>
   <g id="text_39">
    <!-- require -->
    <g transform="translate(528.036527 550.512539)scale(0.11 -0.11)">
     <defs>
      <path d="M 14.796875 27.296875 
Q 14.796875 17.390625 18.875 11.75 
Q 22.953125 6.109375 30.078125 6.109375 
Q 37.203125 6.109375 41.296875 11.75 
Q 45.40625 17.390625 45.40625 27.296875 
Q 45.40625 37.203125 41.296875 42.84375 
Q 37.203125 48.484375 30.078125 48.484375 
Q 22.953125 48.484375 18.875 42.84375 
Q 14.796875 37.203125 14.796875 27.296875 
z
M 45.40625 8.203125 
Q 42.578125 3.328125 38.25 0.953125 
Q 33.9375 -1.421875 27.875 -1.421875 
Q 17.96875 -1.421875 11.734375 6.484375 
Q 5.515625 14.40625 5.515625 27.296875 
Q 5.515625 40.1875 11.734375 48.09375 
Q 17.96875 56 27.875 56 
Q 33.9375 56 38.25 53.625 
Q 42.578125 51.265625 45.40625 46.390625 
L 45.40625 54.6875 
L 54.390625 54.6875 
L 54.390625 -20.796875 
L 45.40625 -20.796875 
z
" id="DejaVuSans-113"/>
     </defs>
     <use xlink:href="#DejaVuSans-114"/>
     <use x="38.863281" xlink:href="#DejaVuSans-101"/>
     <use x="100.386719" xlink:href="#DejaVuSans-113"/>
     <use x="163.863281" xlink:href="#DejaVuSans-117"/>
     <use x="227.242188" xlink:href="#DejaVuSans-105"/>
     <use x="255.025391" xlink:href="#DejaVuSans-114"/>
     <use x="293.888672" xlink:href="#DejaVuSans-101"/>
    </g>
   </g>
   <g id="text_40">
    <!-- acquired -->
    <g transform="translate(872.2514 366.515359)scale(0.11 -0.11)">
     <use xlink:href="#DejaVuSans-97"/>
     <use x="61.279297" xlink:href="#DejaVuSans-99"/>
     <use x="116.259766" xlink:href="#DejaVuSans-113"/>
     <use x="179.736328" xlink:href="#DejaVuSans-117"/>
     <use x="243.115234" xlink:href="#DejaVuSans-105"/>
     <use x="270.898438" xlink:href="#DejaVuSans-114"/>
     <use x="309.761719" xlink:href="#DejaVuSans-101"/>
     <use x="371.285156" xlink:href="#DejaVuSans-100"/>
    </g>
   </g>
   <g id="text_41">
    <!-- gates -->
    <g transform="translate(1099.95007 334.772978)scale(0.11 -0.11)">
     <use xlink:href="#DejaVuSans-103"/>
     <use x="63.476562" xlink:href="#DejaVuSans-97"/>
     <use x="124.755859" xlink:href="#DejaVuSans-116"/>
     <use x="163.964844" xlink:href="#DejaVuSans-101"/>
     <use x="225.488281" xlink:href="#DejaVuSans-115"/>
    </g>
   </g>
   <g id="text_42">
    <!-- basis -->
    <g transform="translate(988.225753 254.152468)scale(0.11 -0.11)">
     <use xlink:href="#DejaVuSans-98"/>
     <use x="63.476562" xlink:href="#DejaVuSans-97"/>
     <use x="124.755859" xlink:href="#DejaVuSans-115"/>
     <use x="176.855469" xlink:href="#DejaVuSans-105"/>
     <use x="204.638672" xlink:href="#DejaVuSans-115"/>
    </g>
   </g>
   <g id="text_43">
    <!-- switching -->
    <g transform="translate(427.028865 547.950095)scale(0.11 -0.11)">
     <use xlink:href="#DejaVuSans-115"/>
     <use x="52.099609" xlink:href="#DejaVuSans-119"/>
     <use x="133.886719" xlink:href="#DejaVuSans-105"/>
     <use x="161.669922" xlink:href="#DejaVuSans-116"/>
     <use x="200.878906" xlink:href="#DejaVuSans-99"/>
     <use x="255.859375" xlink:href="#DejaVuSans-104"/>
     <use x="319.238281" xlink:href="#DejaVuSans-105"/>
     <use x="347.021484" xlink:href="#DejaVuSans-110"/>
     <use x="410.400391" xlink:href="#DejaVuSans-103"/>
    </g>
   </g>
   <g id="text_44">
    <!-- cell -->
    <g transform="translate(741.821738 308.827419)scale(0.11 -0.11)">
     <use xlink:href="#DejaVuSans-99"/>
     <use x="54.980469" xlink:href="#DejaVuSans-101"/>
     <use x="116.503906" xlink:href="#DejaVuSans-108"/>
     <use x="144.287109" xlink:href="#DejaVuSans-108"/>
    </g>
   </g>
   <g id="text_45">
    <!-- engineering -->
    <g transform="translate(929.400758 282.263801)scale(0.11 -0.11)">
     <use xlink:href="#DejaVuSans-101"/>
     <use x="61.523438" xlink:href="#DejaVuSans-110"/>
     <use x="124.902344" xlink:href="#DejaVuSans-103"/>
     <use x="188.378906" xlink:href="#DejaVuSans-105"/>
     <use x="216.162109" xlink:href="#DejaVuSans-110"/>
     <use x="279.541016" xlink:href="#DejaVuSans-101"/>
     <use x="341.064453" xlink:href="#DejaVuSans-101"/>
     <use x="402.587891" xlink:href="#DejaVuSans-114"/>
     <use x="443.701172" xlink:href="#DejaVuSans-105"/>
     <use x="471.484375" xlink:href="#DejaVuSans-110"/>
     <use x="534.863281" xlink:href="#DejaVuSans-103"/>
    </g>
   </g>
   <g id="text_46">
    <!-- comprehensive -->
    <g transform="translate(208.445432 596.800785)scale(0.11 -0.11)">
     <use xlink:href="#DejaVuSans-99"/>
     <use x="54.980469" xlink:href="#DejaVuSans-111"/>
     <use x="116.162109" xlink:href="#DejaVuSans-109"/>
     <use x="213.574219" xlink:href="#DejaVuSans-112"/>
     <use x="277.050781" xlink:href="#DejaVuSans-114"/>
     <use x="315.914062" xlink:href="#DejaVuSans-101"/>
     <use x="377.4375" xlink:href="#DejaVuSans-104"/>
     <use x="440.816406" xlink:href="#DejaVuSans-101"/>
     <use x="502.339844" xlink:href="#DejaVuSans-110"/>
     <use x="565.71875" xlink:href="#DejaVuSans-115"/>
     <use x="617.818359" xlink:href="#DejaVuSans-105"/>
     <use x="645.601562" xlink:href="#DejaVuSans-118"/>
     <use x="704.78125" xlink:href="#DejaVuSans-101"/>
    </g>
   </g>
   <g id="text_47">
    <!-- gain -->
    <g transform="translate(346.176515 501.720609)scale(0.11 -0.11)">
     <use xlink:href="#DejaVuSans-103"/>
     <use x="63.476562" xlink:href="#DejaVuSans-97"/>
     <use x="124.755859" xlink:href="#DejaVuSans-105"/>
     <use x="152.539062" xlink:href="#DejaVuSans-110"/>
    </g>
   </g>
   <g id="text_48">
    <!-- affected -->
    <g transform="translate(304.684437 499.456984)scale(0.11 -0.11)">
     <use xlink:href="#DejaVuSans-97"/>
     <use x="61.279297" xlink:href="#DejaVuSans-102"/>
     <use x="96.484375" xlink:href="#DejaVuSans-102"/>
     <use x="131.689453" xlink:href="#DejaVuSans-101"/>
     <use x="193.212891" xlink:href="#DejaVuSans-99"/>
     <use x="248.193359" xlink:href="#DejaVuSans-116"/>
     <use x="287.402344" xlink:href="#DejaVuSans-101"/>
     <use x="348.925781" xlink:href="#DejaVuSans-100"/>
    </g>
   </g>
   <g id="text_49">
    <!-- embodied -->
    <g transform="translate(1085.250383 167.337402)scale(0.11 -0.11)">
     <use xlink:href="#DejaVuSans-101"/>
     <use x="61.523438" xlink:href="#DejaVuSans-109"/>
     <use x="158.935547" xlink:href="#DejaVuSans-98"/>
     <use x="222.412109" xlink:href="#DejaVuSans-111"/>
     <use x="283.59375" xlink:href="#DejaVuSans-100"/>
     <use x="347.070312" xlink:href="#DejaVuSans-105"/>
     <use x="374.853516" xlink:href="#DejaVuSans-101"/>
     <use x="436.376953" xlink:href="#DejaVuSans-100"/>
    </g>
   </g>
   <g id="text_50">
    <!-- walking -->
    <g transform="translate(766.275055 442.228861)scale(0.11 -0.11)">
     <use xlink:href="#DejaVuSans-119"/>
     <use x="81.787109" xlink:href="#DejaVuSans-97"/>
     <use x="143.066406" xlink:href="#DejaVuSans-108"/>
     <use x="170.849609" xlink:href="#DejaVuSans-107"/>
     <use x="228.759766" xlink:href="#DejaVuSans-105"/>
     <use x="256.542969" xlink:href="#DejaVuSans-110"/>
     <use x="319.921875" xlink:href="#DejaVuSans-103"/>
    </g>
   </g>
   <g id="text_51">
    <!-- understand -->
    <g transform="translate(978.072974 329.606619)scale(0.11 -0.11)">
     <use xlink:href="#DejaVuSans-117"/>
     <use x="63.378906" xlink:href="#DejaVuSans-110"/>
     <use x="126.757812" xlink:href="#DejaVuSans-100"/>
     <use x="190.234375" xlink:href="#DejaVuSans-101"/>
     <use x="251.757812" xlink:href="#DejaVuSans-114"/>
     <use x="292.871094" xlink:href="#DejaVuSans-115"/>
     <use x="344.970703" xlink:href="#DejaVuSans-116"/>
     <use x="384.179688" xlink:href="#DejaVuSans-97"/>
     <use x="445.458984" xlink:href="#DejaVuSans-110"/>
     <use x="508.837891" xlink:href="#DejaVuSans-100"/>
    </g>
   </g>
   <g id="text_52">
    <!-- highlights -->
    <g transform="translate(508.786312 456.810936)scale(0.11 -0.11)">
     <use xlink:href="#DejaVuSans-104"/>
     <use x="63.378906" xlink:href="#DejaVuSans-105"/>
     <use x="91.162109" xlink:href="#DejaVuSans-103"/>
     <use x="154.638672" xlink:href="#DejaVuSans-104"/>
     <use x="218.017578" xlink:href="#DejaVuSans-108"/>
     <use x="245.800781" xlink:href="#DejaVuSans-105"/>
     <use x="273.583984" xlink:href="#DejaVuSans-103"/>
     <use x="337.060547" xlink:href="#DejaVuSans-104"/>
     <use x="400.439453" xlink:href="#DejaVuSans-116"/>
     <use x="439.648438" xlink:href="#DejaVuSans-115"/>
    </g>
   </g>
   <g id="text_53">
    <!-- overcome -->
    <g transform="translate(627.351054 440.883741)scale(0.11 -0.11)">
     <use xlink:href="#DejaVuSans-111"/>
     <use x="61.181641" xlink:href="#DejaVuSans-118"/>
     <use x="120.361328" xlink:href="#DejaVuSans-101"/>
     <use x="181.884766" xlink:href="#DejaVuSans-114"/>
     <use x="220.748047" xlink:href="#DejaVuSans-99"/>
     <use x="275.728516" xlink:href="#DejaVuSans-111"/>
     <use x="336.910156" xlink:href="#DejaVuSans-109"/>
     <use x="434.322266" xlink:href="#DejaVuSans-101"/>
    </g>
   </g>
   <g id="text_54">
    <!-- bio -->
    <g transform="translate(727.899831 398.391675)scale(0.11 -0.11)">
     <use xlink:href="#DejaVuSans-98"/>
     <use x="63.476562" xlink:href="#DejaVuSans-105"/>
     <use x="91.259766" xlink:href="#DejaVuSans-111"/>
    </g>
   </g>
   <g id="text_55">
    <!-- includes -->
    <g transform="translate(852.18509 502.057641)scale(0.11 -0.11)">
     <use xlink:href="#DejaVuSans-105"/>
     <use x="27.783203" xlink:href="#DejaVuSans-110"/>
     <use x="91.162109" xlink:href="#DejaVuSans-99"/>
     <use x="146.142578" xlink:href="#DejaVuSans-108"/>
     <use x="173.925781" xlink:href="#DejaVuSans-117"/>
     <use x="237.304688" xlink:href="#DejaVuSans-100"/>
     <use x="300.78125" xlink:href="#DejaVuSans-101"/>
     <use x="362.304688" xlink:href="#DejaVuSans-115"/>
    </g>
   </g>
   <g id="text_56">
    <!-- torques -->
    <g transform="translate(593.510065 388.549219)scale(0.11 -0.11)">
     <use xlink:href="#DejaVuSans-116"/>
     <use x="39.208984" xlink:href="#DejaVuSans-111"/>
     <use x="100.390625" xlink:href="#DejaVuSans-114"/>
     <use x="139.753906" xlink:href="#DejaVuSans-113"/>
     <use x="203.230469" xlink:href="#DejaVuSans-117"/>
     <use x="266.609375" xlink:href="#DejaVuSans-101"/>
     <use x="328.132812" xlink:href="#DejaVuSans-115"/>
    </g>
   </g>
   <g id="text_57">
    <!-- machine -->
    <g transform="translate(726.725618 391.625856)scale(0.11 -0.11)">
     <use xlink:href="#DejaVuSans-109"/>
     <use x="97.412109" xlink:href="#DejaVuSans-97"/>
     <use x="158.691406" xlink:href="#DejaVuSans-99"/>
     <use x="213.671875" xlink:href="#DejaVuSans-104"/>
     <use x="277.050781" xlink:href="#DejaVuSans-105"/>
     <use x="304.833984" xlink:href="#DejaVuSans-110"/>
     <use x="368.212891" xlink:href="#DejaVuSans-101"/>
    </g>
   </g>
   <g id="text_58">
    <!-- operating -->
    <g transform="translate(878.875808 415.187886)scale(0.11 -0.11)">
     <use xlink:href="#DejaVuSans-111"/>
     <use x="61.181641" xlink:href="#DejaVuSans-112"/>
     <use x="124.658203" xlink:href="#DejaVuSans-101"/>
     <use x="186.181641" xlink:href="#DejaVuSans-114"/>
     <use x="227.294922" xlink:href="#DejaVuSans-97"/>
     <use x="288.574219" xlink:href="#DejaVuSans-116"/>
     <use x="327.783203" xlink:href="#DejaVuSans-105"/>
     <use x="355.566406" xlink:href="#DejaVuSans-110"/>
     <use x="418.945312" xlink:href="#DejaVuSans-103"/>
    </g>
   </g>
   <g id="text_59">
    <!-- run -->
    <g transform="translate(964.951173 219.649622)scale(0.11 -0.11)">
     <use xlink:href="#DejaVuSans-114"/>
     <use x="41.113281" xlink:href="#DejaVuSans-117"/>
     <use x="104.492188" xlink:href="#DejaVuSans-110"/>
    </g>
   </g>
   <g id="text_60">
    <!-- snn -->
    <g transform="translate(702.498876 455.510294)scale(0.11 -0.11)">
     <use xlink:href="#DejaVuSans-115"/>
     <use x="52.099609" xlink:href="#DejaVuSans-110"/>
     <use x="115.478516" xlink:href="#DejaVuSans-110"/>
    </g>
   </g>
   <g id="text_61">
    <!-- robustness -->
    <g transform="translate(657.575574 497.454839)scale(0.11 -0.11)">
     <use xlink:href="#DejaVuSans-114"/>
     <use x="38.863281" xlink:href="#DejaVuSans-111"/>
     <use x="100.044922" xlink:href="#DejaVuSans-98"/>
     <use x="163.521484" xlink:href="#DejaVuSans-117"/>
     <use x="226.900391" xlink:href="#DejaVuSans-115"/>
     <use x="279" xlink:href="#DejaVuSans-116"/>
     <use x="318.208984" xlink:href="#DejaVuSans-110"/>
     <use x="381.587891" xlink:href="#DejaVuSans-101"/>
     <use x="443.111328" xlink:href="#DejaVuSans-115"/>
     <use x="495.210938" xlink:href="#DejaVuSans-115"/>
    </g>
   </g>
   <g id="text_62">
    <!-- compliant -->
    <g transform="translate(801.211211 415.062971)scale(0.11 -0.11)">
     <use xlink:href="#DejaVuSans-99"/>
     <use x="54.980469" xlink:href="#DejaVuSans-111"/>
     <use x="116.162109" xlink:href="#DejaVuSans-109"/>
     <use x="213.574219" xlink:href="#DejaVuSans-112"/>
     <use x="277.050781" xlink:href="#DejaVuSans-108"/>
     <use x="304.833984" xlink:href="#DejaVuSans-105"/>
     <use x="332.617188" xlink:href="#DejaVuSans-97"/>
     <use x="393.896484" xlink:href="#DejaVuSans-110"/>
     <use x="457.275391" xlink:href="#DejaVuSans-116"/>
    </g>
   </g>
   <g id="text_63">
    <!-- elsevier -->
    <g transform="translate(667.775117 470.584886)scale(0.11 -0.11)">
     <use xlink:href="#DejaVuSans-101"/>
     <use x="61.523438" xlink:href="#DejaVuSans-108"/>
     <use x="89.306641" xlink:href="#DejaVuSans-115"/>
     <use x="141.40625" xlink:href="#DejaVuSans-101"/>
     <use x="202.929688" xlink:href="#DejaVuSans-118"/>
     <use x="262.109375" xlink:href="#DejaVuSans-105"/>
     <use x="289.892578" xlink:href="#DejaVuSans-101"/>
     <use x="351.416016" xlink:href="#DejaVuSans-114"/>
    </g>
   </g>
   <g id="text_64">
    <!-- reserved -->
    <g transform="translate(342.631249 560.904018)scale(0.11 -0.11)">
     <use xlink:href="#DejaVuSans-114"/>
     <use x="38.863281" xlink:href="#DejaVuSans-101"/>
     <use x="100.386719" xlink:href="#DejaVuSans-115"/>
     <use x="152.486328" xlink:href="#DejaVuSans-101"/>
     <use x="214.009766" xlink:href="#DejaVuSans-114"/>
     <use x="255.123047" xlink:href="#DejaVuSans-118"/>
     <use x="314.302734" xlink:href="#DejaVuSans-101"/>
     <use x="375.826172" xlink:href="#DejaVuSans-100"/>
    </g>
   </g>
   <g id="text_65">
    <!-- abstraction -->
    <g transform="translate(738.074936 337.951225)scale(0.11 -0.11)">
     <use xlink:href="#DejaVuSans-97"/>
     <use x="61.279297" xlink:href="#DejaVuSans-98"/>
     <use x="124.755859" xlink:href="#DejaVuSans-115"/>
     <use x="176.855469" xlink:href="#DejaVuSans-116"/>
     <use x="216.064453" xlink:href="#DejaVuSans-114"/>
     <use x="257.177734" xlink:href="#DejaVuSans-97"/>
     <use x="318.457031" xlink:href="#DejaVuSans-99"/>
     <use x="373.4375" xlink:href="#DejaVuSans-116"/>
     <use x="412.646484" xlink:href="#DejaVuSans-105"/>
     <use x="440.429688" xlink:href="#DejaVuSans-111"/>
     <use x="501.611328" xlink:href="#DejaVuSans-110"/>
    </g>
   </g>
   <g id="text_66">
    <!-- aspects -->
    <g transform="translate(1111.946532 175.786626)scale(0.11 -0.11)">
     <use xlink:href="#DejaVuSans-97"/>
     <use x="61.279297" xlink:href="#DejaVuSans-115"/>
     <use x="113.378906" xlink:href="#DejaVuSans-112"/>
     <use x="176.855469" xlink:href="#DejaVuSans-101"/>
     <use x="238.378906" xlink:href="#DejaVuSans-99"/>
     <use x="293.359375" xlink:href="#DejaVuSans-116"/>
     <use x="332.568359" xlink:href="#DejaVuSans-115"/>
    </g>
   </g>
   <g id="text_67">
    <!-- monomer -->
    <g transform="translate(377.153172 595.681689)scale(0.11 -0.11)">
     <use xlink:href="#DejaVuSans-109"/>
     <use x="97.412109" xlink:href="#DejaVuSans-111"/>
     <use x="158.59375" xlink:href="#DejaVuSans-110"/>
     <use x="221.972656" xlink:href="#DejaVuSans-111"/>
     <use x="283.154297" xlink:href="#DejaVuSans-109"/>
     <use x="380.566406" xlink:href="#DejaVuSans-101"/>
     <use x="442.089844" xlink:href="#DejaVuSans-114"/>
    </g>
   </g>
   <g id="text_68">
    <!-- treatment -->
    <g transform="translate(814.900809 368.832734)scale(0.11 -0.11)">
     <use xlink:href="#DejaVuSans-116"/>
     <use x="39.208984" xlink:href="#DejaVuSans-114"/>
     <use x="78.072266" xlink:href="#DejaVuSans-101"/>
     <use x="139.595703" xlink:href="#DejaVuSans-97"/>
     <use x="200.875" xlink:href="#DejaVuSans-116"/>
     <use x="240.083984" xlink:href="#DejaVuSans-109"/>
     <use x="337.496094" xlink:href="#DejaVuSans-101"/>
     <use x="399.019531" xlink:href="#DejaVuSans-110"/>
     <use x="462.398438" xlink:href="#DejaVuSans-116"/>
    </g>
   </g>
   <g id="text_69">
    <!-- compliant -->
    <g transform="translate(800.741333 415.599395)scale(0.11 -0.11)">
     <use xlink:href="#DejaVuSans-99"/>
     <use x="54.980469" xlink:href="#DejaVuSans-111"/>
     <use x="116.162109" xlink:href="#DejaVuSans-109"/>
     <use x="213.574219" xlink:href="#DejaVuSans-112"/>
     <use x="277.050781" xlink:href="#DejaVuSans-108"/>
     <use x="304.833984" xlink:href="#DejaVuSans-105"/>
     <use x="332.617188" xlink:href="#DejaVuSans-97"/>
     <use x="393.896484" xlink:href="#DejaVuSans-110"/>
     <use x="457.275391" xlink:href="#DejaVuSans-116"/>
    </g>
   </g>
  </g>
 </g>
 <defs>
  <clipPath id="p5e495d9901">
   <rect height="543.6" width="1004.4" x="162" y="86.4"/>
  </clipPath>
 </defs>
</svg>
