<?xml version="1.0" encoding="utf-8" standalone="no"?>
<!DOCTYPE svg PUBLIC "-//W3C//DTD SVG 1.1//EN"
  "http://www.w3.org/Graphics/SVG/1.1/DTD/svg11.dtd">
<!-- Created with matplotlib (https://matplotlib.org/) -->
<svg height="720pt" version="1.1" viewBox="0 0 1296 720" width="1296pt" xmlns="http://www.w3.org/2000/svg" xmlns:xlink="http://www.w3.org/1999/xlink">
 <metadata>
  <rdf:RDF xmlns:cc="http://creativecommons.org/ns#" xmlns:dc="http://purl.org/dc/elements/1.1/" xmlns:rdf="http://www.w3.org/1999/02/22-rdf-syntax-ns#">
   <cc:Work>
    <dc:type rdf:resource="http://purl.org/dc/dcmitype/StillImage"/>
    <dc:date>2024-12-10T18:56:27.203723</dc:date>
    <dc:format>image/svg+xml</dc:format>
    <dc:creator>
     <cc:Agent>
      <dc:title>Matplotlib v3.3.3, https://matplotlib.org/</dc:title>
     </cc:Agent>
    </dc:creator>
   </cc:Work>
  </rdf:RDF>
 </metadata>
 <defs>
  <style type="text/css">*{stroke-linecap:butt;stroke-linejoin:round;}</style>
 </defs>
 <g id="figure_1">
  <g id="patch_1">
   <path d="M 0 720 
L 1296 720 
L 1296 0 
L 0 0 
z
" style="fill:none;"/>
  </g>
  <g id="axes_1">
   <g id="patch_2">
    <path d="M 162 630 
L 1166.4 630 
L 1166.4 86.4 
L 162 86.4 
z
" style="fill:#ffffff;"/>
   </g>
   <g id="PathCollection_1">
    <defs>
     <path d="M 0 0.790569 
C 0.209661 0.790569 0.410764 0.70727 0.559017 0.559017 
C 0.70727 0.410764 0.790569 0.209661 0.790569 0 
C 0.790569 -0.209661 0.70727 -0.410764 0.559017 -0.559017 
C 0.410764 -0.70727 0.209661 -0.790569 0 -0.790569 
C -0.209661 -0.790569 -0.410764 -0.70727 -0.559017 -0.559017 
C -0.70727 -0.410764 -0.790569 -0.209661 -0.790569 0 
C -0.790569 0.209661 -0.70727 0.410764 -0.559017 0.559017 
C -0.410764 0.70727 -0.209661 0.790569 0 0.790569 
z
" id="mfd826477d2" style="stroke:#87ceeb;"/>
    </defs>
    <g clip-path="url(#pdf26d18104)">
     <use style="fill:#87ceeb;stroke:#87ceeb;" x="989.416885" xlink:href="#mfd826477d2" y="470.608381"/>
     <use style="fill:#87ceeb;stroke:#87ceeb;" x="589.667148" xlink:href="#mfd826477d2" y="183.257699"/>
     <use style="fill:#87ceeb;stroke:#87ceeb;" x="1046.204538" xlink:href="#mfd826477d2" y="285.477122"/>
     <use style="fill:#87ceeb;stroke:#87ceeb;" x="747.957088" xlink:href="#mfd826477d2" y="501.870366"/>
     <use style="fill:#87ceeb;stroke:#87ceeb;" x="207.654545" xlink:href="#mfd826477d2" y="321.352255"/>
     <use style="fill:#87ceeb;stroke:#87ceeb;" x="419.070312" xlink:href="#mfd826477d2" y="196.309682"/>
     <use style="fill:#87ceeb;stroke:#87ceeb;" x="624.40469" xlink:href="#mfd826477d2" y="403.015273"/>
     <use style="fill:#87ceeb;stroke:#87ceeb;" x="1062.460304" xlink:href="#mfd826477d2" y="213.670597"/>
     <use style="fill:#87ceeb;stroke:#87ceeb;" x="443.004728" xlink:href="#mfd826477d2" y="182.564247"/>
     <use style="fill:#87ceeb;stroke:#87ceeb;" x="497.702277" xlink:href="#mfd826477d2" y="288.264621"/>
     <use style="fill:#87ceeb;stroke:#87ceeb;" x="1105.125755" xlink:href="#mfd826477d2" y="404.056899"/>
     <use style="fill:#87ceeb;stroke:#87ceeb;" x="1110.322713" xlink:href="#mfd826477d2" y="111.109091"/>
     <use style="fill:#87ceeb;stroke:#87ceeb;" x="1058.086842" xlink:href="#mfd826477d2" y="563.192613"/>
     <use style="fill:#87ceeb;stroke:#87ceeb;" x="981.350532" xlink:href="#mfd826477d2" y="234.763915"/>
     <use style="fill:#87ceeb;stroke:#87ceeb;" x="1120.745455" xlink:href="#mfd826477d2" y="310.124837"/>
     <use style="fill:#87ceeb;stroke:#87ceeb;" x="931.707913" xlink:href="#mfd826477d2" y="158.079705"/>
     <use style="fill:#87ceeb;stroke:#87ceeb;" x="1073.328098" xlink:href="#mfd826477d2" y="469.42318"/>
     <use style="fill:#87ceeb;stroke:#87ceeb;" x="863.886094" xlink:href="#mfd826477d2" y="605.290909"/>
     <use style="fill:#87ceeb;stroke:#87ceeb;" x="721.942126" xlink:href="#mfd826477d2" y="184.728301"/>
     <use style="fill:#87ceeb;stroke:#87ceeb;" x="975.326045" xlink:href="#mfd826477d2" y="347.148387"/>
     <use style="fill:#87ceeb;stroke:#87ceeb;" x="813.731366" xlink:href="#mfd826477d2" y="357.464609"/>
     <use style="fill:#87ceeb;stroke:#87ceeb;" x="833.848038" xlink:href="#mfd826477d2" y="429.981591"/>
     <use style="fill:#87ceeb;stroke:#87ceeb;" x="573.881674" xlink:href="#mfd826477d2" y="136.154787"/>
     <use style="fill:#87ceeb;stroke:#87ceeb;" x="311.66869" xlink:href="#mfd826477d2" y="247.45482"/>
     <use style="fill:#87ceeb;stroke:#87ceeb;" x="804.120921" xlink:href="#mfd826477d2" y="118.020943"/>
     <use style="fill:#87ceeb;stroke:#87ceeb;" x="259.409521" xlink:href="#mfd826477d2" y="154.888376"/>
     <use style="fill:#87ceeb;stroke:#87ceeb;" x="779.850924" xlink:href="#mfd826477d2" y="186.472183"/>
     <use style="fill:#87ceeb;stroke:#87ceeb;" x="566.790703" xlink:href="#mfd826477d2" y="132.811381"/>
     <use style="fill:#87ceeb;stroke:#87ceeb;" x="947.769977" xlink:href="#mfd826477d2" y="235.243724"/>
     <use style="fill:#87ceeb;stroke:#87ceeb;" x="850.210886" xlink:href="#mfd826477d2" y="322.43784"/>
     <use style="fill:#87ceeb;stroke:#87ceeb;" x="454.258881" xlink:href="#mfd826477d2" y="119.091151"/>
     <use style="fill:#87ceeb;stroke:#87ceeb;" x="1039.086685" xlink:href="#mfd826477d2" y="215.354782"/>
     <use style="fill:#87ceeb;stroke:#87ceeb;" x="634.983648" xlink:href="#mfd826477d2" y="221.71332"/>
     <use style="fill:#87ceeb;stroke:#87ceeb;" x="1102.387039" xlink:href="#mfd826477d2" y="289.063116"/>
     <use style="fill:#87ceeb;stroke:#87ceeb;" x="965.021437" xlink:href="#mfd826477d2" y="360.3191"/>
     <use style="fill:#87ceeb;stroke:#87ceeb;" x="583.393999" xlink:href="#mfd826477d2" y="241.540514"/>
     <use style="fill:#87ceeb;stroke:#87ceeb;" x="331.769382" xlink:href="#mfd826477d2" y="143.339437"/>
    </g>
   </g>
   <g id="PathCollection_2">
    <defs>
     <path d="M 0 -2.236068 
L -0.502029 -0.690983 
L -2.126627 -0.690983 
L -0.812299 0.263932 
L -1.314328 1.809017 
L -0 0.854102 
L 1.314328 1.809017 
L 0.812299 0.263932 
L 2.126627 -0.690983 
L 0.502029 -0.690983 
z
" id="m0b90bfeb41" style="stroke:#ff0000;"/>
    </defs>
    <g clip-path="url(#pdf26d18104)">
     <use style="fill:#ff0000;stroke:#ff0000;" x="988.698379" xlink:href="#m0b90bfeb41" y="470.327141"/>
     <use style="fill:#ff0000;stroke:#ff0000;" x="863.417445" xlink:href="#m0b90bfeb41" y="605.005689"/>
     <use style="fill:#ff0000;stroke:#ff0000;" x="813.305131" xlink:href="#m0b90bfeb41" y="357.778833"/>
    </g>
   </g>
   <g id="matplotlib.axis_1">
    <g id="xtick_1">
     <g id="line2d_1">
      <defs>
       <path d="M 0 0 
L 0 3.5 
" id="mbb8142bc88" style="stroke:#000000;stroke-width:0.8;"/>
      </defs>
      <g>
       <use style="stroke:#000000;stroke-width:0.8;" x="205.69273" xlink:href="#mbb8142bc88" y="630"/>
      </g>
     </g>
     <g id="text_1">
      <!-- 10 -->
      <g transform="translate(199.33023 644.598438)scale(0.1 -0.1)">
       <defs>
        <path d="M 12.40625 8.296875 
L 28.515625 8.296875 
L 28.515625 63.921875 
L 10.984375 60.40625 
L 10.984375 69.390625 
L 28.421875 72.90625 
L 38.28125 72.90625 
L 38.28125 8.296875 
L 54.390625 8.296875 
L 54.390625 0 
L 12.40625 0 
z
" id="DejaVuSans-49"/>
        <path d="M 31.78125 66.40625 
Q 24.171875 66.40625 20.328125 58.90625 
Q 16.5 51.421875 16.5 36.375 
Q 16.5 21.390625 20.328125 13.890625 
Q 24.171875 6.390625 31.78125 6.390625 
Q 39.453125 6.390625 43.28125 13.890625 
Q 47.125 21.390625 47.125 36.375 
Q 47.125 51.421875 43.28125 58.90625 
Q 39.453125 66.40625 31.78125 66.40625 
z
M 31.78125 74.21875 
Q 44.046875 74.21875 50.515625 64.515625 
Q 56.984375 54.828125 56.984375 36.375 
Q 56.984375 17.96875 50.515625 8.265625 
Q 44.046875 -1.421875 31.78125 -1.421875 
Q 19.53125 -1.421875 13.0625 8.265625 
Q 6.59375 17.96875 6.59375 36.375 
Q 6.59375 54.828125 13.0625 64.515625 
Q 19.53125 74.21875 31.78125 74.21875 
z
" id="DejaVuSans-48"/>
       </defs>
       <use xlink:href="#DejaVuSans-49"/>
       <use x="63.623047" xlink:href="#DejaVuSans-48"/>
      </g>
     </g>
    </g>
    <g id="xtick_2">
     <g id="line2d_2">
      <g>
       <use style="stroke:#000000;stroke-width:0.8;" x="362.29386" xlink:href="#mbb8142bc88" y="630"/>
      </g>
     </g>
     <g id="text_2">
      <!-- 11 -->
      <g transform="translate(355.93136 644.598438)scale(0.1 -0.1)">
       <use xlink:href="#DejaVuSans-49"/>
       <use x="63.623047" xlink:href="#DejaVuSans-49"/>
      </g>
     </g>
    </g>
    <g id="xtick_3">
     <g id="line2d_3">
      <g>
       <use style="stroke:#000000;stroke-width:0.8;" x="518.89499" xlink:href="#mbb8142bc88" y="630"/>
      </g>
     </g>
     <g id="text_3">
      <!-- 12 -->
      <g transform="translate(512.53249 644.598438)scale(0.1 -0.1)">
       <defs>
        <path d="M 19.1875 8.296875 
L 53.609375 8.296875 
L 53.609375 0 
L 7.328125 0 
L 7.328125 8.296875 
Q 12.9375 14.109375 22.625 23.890625 
Q 32.328125 33.6875 34.8125 36.53125 
Q 39.546875 41.84375 41.421875 45.53125 
Q 43.3125 49.21875 43.3125 52.78125 
Q 43.3125 58.59375 39.234375 62.25 
Q 35.15625 65.921875 28.609375 65.921875 
Q 23.96875 65.921875 18.8125 64.3125 
Q 13.671875 62.703125 7.8125 59.421875 
L 7.8125 69.390625 
Q 13.765625 71.78125 18.9375 73 
Q 24.125 74.21875 28.421875 74.21875 
Q 39.75 74.21875 46.484375 68.546875 
Q 53.21875 62.890625 53.21875 53.421875 
Q 53.21875 48.921875 51.53125 44.890625 
Q 49.859375 40.875 45.40625 35.40625 
Q 44.1875 33.984375 37.640625 27.21875 
Q 31.109375 20.453125 19.1875 8.296875 
z
" id="DejaVuSans-50"/>
       </defs>
       <use xlink:href="#DejaVuSans-49"/>
       <use x="63.623047" xlink:href="#DejaVuSans-50"/>
      </g>
     </g>
    </g>
    <g id="xtick_4">
     <g id="line2d_4">
      <g>
       <use style="stroke:#000000;stroke-width:0.8;" x="675.496119" xlink:href="#mbb8142bc88" y="630"/>
      </g>
     </g>
     <g id="text_4">
      <!-- 13 -->
      <g transform="translate(669.133619 644.598438)scale(0.1 -0.1)">
       <defs>
        <path d="M 40.578125 39.3125 
Q 47.65625 37.796875 51.625 33 
Q 55.609375 28.21875 55.609375 21.1875 
Q 55.609375 10.40625 48.1875 4.484375 
Q 40.765625 -1.421875 27.09375 -1.421875 
Q 22.515625 -1.421875 17.65625 -0.515625 
Q 12.796875 0.390625 7.625 2.203125 
L 7.625 11.71875 
Q 11.71875 9.328125 16.59375 8.109375 
Q 21.484375 6.890625 26.8125 6.890625 
Q 36.078125 6.890625 40.9375 10.546875 
Q 45.796875 14.203125 45.796875 21.1875 
Q 45.796875 27.640625 41.28125 31.265625 
Q 36.765625 34.90625 28.71875 34.90625 
L 20.21875 34.90625 
L 20.21875 43.015625 
L 29.109375 43.015625 
Q 36.375 43.015625 40.234375 45.921875 
Q 44.09375 48.828125 44.09375 54.296875 
Q 44.09375 59.90625 40.109375 62.90625 
Q 36.140625 65.921875 28.71875 65.921875 
Q 24.65625 65.921875 20.015625 65.03125 
Q 15.375 64.15625 9.8125 62.3125 
L 9.8125 71.09375 
Q 15.4375 72.65625 20.34375 73.4375 
Q 25.25 74.21875 29.59375 74.21875 
Q 40.828125 74.21875 47.359375 69.109375 
Q 53.90625 64.015625 53.90625 55.328125 
Q 53.90625 49.265625 50.4375 45.09375 
Q 46.96875 40.921875 40.578125 39.3125 
z
" id="DejaVuSans-51"/>
       </defs>
       <use xlink:href="#DejaVuSans-49"/>
       <use x="63.623047" xlink:href="#DejaVuSans-51"/>
      </g>
     </g>
    </g>
    <g id="xtick_5">
     <g id="line2d_5">
      <g>
       <use style="stroke:#000000;stroke-width:0.8;" x="832.097249" xlink:href="#mbb8142bc88" y="630"/>
      </g>
     </g>
     <g id="text_5">
      <!-- 14 -->
      <g transform="translate(825.734749 644.598438)scale(0.1 -0.1)">
       <defs>
        <path d="M 37.796875 64.3125 
L 12.890625 25.390625 
L 37.796875 25.390625 
z
M 35.203125 72.90625 
L 47.609375 72.90625 
L 47.609375 25.390625 
L 58.015625 25.390625 
L 58.015625 17.1875 
L 47.609375 17.1875 
L 47.609375 0 
L 37.796875 0 
L 37.796875 17.1875 
L 4.890625 17.1875 
L 4.890625 26.703125 
z
" id="DejaVuSans-52"/>
       </defs>
       <use xlink:href="#DejaVuSans-49"/>
       <use x="63.623047" xlink:href="#DejaVuSans-52"/>
      </g>
     </g>
    </g>
    <g id="xtick_6">
     <g id="line2d_6">
      <g>
       <use style="stroke:#000000;stroke-width:0.8;" x="988.698379" xlink:href="#mbb8142bc88" y="630"/>
      </g>
     </g>
     <g id="text_6">
      <!-- 15 -->
      <g transform="translate(982.335879 644.598438)scale(0.1 -0.1)">
       <defs>
        <path d="M 10.796875 72.90625 
L 49.515625 72.90625 
L 49.515625 64.59375 
L 19.828125 64.59375 
L 19.828125 46.734375 
Q 21.96875 47.46875 24.109375 47.828125 
Q 26.265625 48.1875 28.421875 48.1875 
Q 40.625 48.1875 47.75 41.5 
Q 54.890625 34.8125 54.890625 23.390625 
Q 54.890625 11.625 47.5625 5.09375 
Q 40.234375 -1.421875 26.90625 -1.421875 
Q 22.3125 -1.421875 17.546875 -0.640625 
Q 12.796875 0.140625 7.71875 1.703125 
L 7.71875 11.625 
Q 12.109375 9.234375 16.796875 8.0625 
Q 21.484375 6.890625 26.703125 6.890625 
Q 35.15625 6.890625 40.078125 11.328125 
Q 45.015625 15.765625 45.015625 23.390625 
Q 45.015625 31 40.078125 35.4375 
Q 35.15625 39.890625 26.703125 39.890625 
Q 22.75 39.890625 18.8125 39.015625 
Q 14.890625 38.140625 10.796875 36.28125 
z
" id="DejaVuSans-53"/>
       </defs>
       <use xlink:href="#DejaVuSans-49"/>
       <use x="63.623047" xlink:href="#DejaVuSans-53"/>
      </g>
     </g>
    </g>
    <g id="xtick_7">
     <g id="line2d_7">
      <g>
       <use style="stroke:#000000;stroke-width:0.8;" x="1145.299509" xlink:href="#mbb8142bc88" y="630"/>
      </g>
     </g>
     <g id="text_7">
      <!-- 16 -->
      <g transform="translate(1138.937009 644.598438)scale(0.1 -0.1)">
       <defs>
        <path d="M 33.015625 40.375 
Q 26.375 40.375 22.484375 35.828125 
Q 18.609375 31.296875 18.609375 23.390625 
Q 18.609375 15.53125 22.484375 10.953125 
Q 26.375 6.390625 33.015625 6.390625 
Q 39.65625 6.390625 43.53125 10.953125 
Q 47.40625 15.53125 47.40625 23.390625 
Q 47.40625 31.296875 43.53125 35.828125 
Q 39.65625 40.375 33.015625 40.375 
z
M 52.59375 71.296875 
L 52.59375 62.3125 
Q 48.875 64.0625 45.09375 64.984375 
Q 41.3125 65.921875 37.59375 65.921875 
Q 27.828125 65.921875 22.671875 59.328125 
Q 17.53125 52.734375 16.796875 39.40625 
Q 19.671875 43.65625 24.015625 45.921875 
Q 28.375 48.1875 33.59375 48.1875 
Q 44.578125 48.1875 50.953125 41.515625 
Q 57.328125 34.859375 57.328125 23.390625 
Q 57.328125 12.15625 50.6875 5.359375 
Q 44.046875 -1.421875 33.015625 -1.421875 
Q 20.359375 -1.421875 13.671875 8.265625 
Q 6.984375 17.96875 6.984375 36.375 
Q 6.984375 53.65625 15.1875 63.9375 
Q 23.390625 74.21875 37.203125 74.21875 
Q 40.921875 74.21875 44.703125 73.484375 
Q 48.484375 72.75 52.59375 71.296875 
z
" id="DejaVuSans-54"/>
       </defs>
       <use xlink:href="#DejaVuSans-49"/>
       <use x="63.623047" xlink:href="#DejaVuSans-54"/>
      </g>
     </g>
    </g>
    <g id="text_8">
     <!-- x -->
     <g transform="translate(661.240625 658.276562)scale(0.1 -0.1)">
      <defs>
       <path d="M 54.890625 54.6875 
L 35.109375 28.078125 
L 55.90625 0 
L 45.3125 0 
L 29.390625 21.484375 
L 13.484375 0 
L 2.875 0 
L 24.125 28.609375 
L 4.6875 54.6875 
L 15.28125 54.6875 
L 29.78125 35.203125 
L 44.28125 54.6875 
z
" id="DejaVuSans-120"/>
      </defs>
      <use xlink:href="#DejaVuSans-120"/>
     </g>
    </g>
   </g>
   <g id="matplotlib.axis_2">
    <g id="ytick_1">
     <g id="line2d_8">
      <defs>
       <path d="M 0 0 
L -3.5 0 
" id="m667898c336" style="stroke:#000000;stroke-width:0.8;"/>
      </defs>
      <g>
       <use style="stroke:#000000;stroke-width:0.8;" x="162" xlink:href="#m667898c336" y="611.960897"/>
      </g>
     </g>
     <g id="text_9">
      <!-- 10 -->
      <g transform="translate(142.275 615.760116)scale(0.1 -0.1)">
       <use xlink:href="#DejaVuSans-49"/>
       <use x="63.623047" xlink:href="#DejaVuSans-48"/>
      </g>
     </g>
    </g>
    <g id="ytick_2">
     <g id="line2d_9">
      <g>
       <use style="stroke:#000000;stroke-width:0.8;" x="162" xlink:href="#m667898c336" y="548.731535"/>
      </g>
     </g>
     <g id="text_10">
      <!-- 11 -->
      <g transform="translate(142.275 552.530754)scale(0.1 -0.1)">
       <use xlink:href="#DejaVuSans-49"/>
       <use x="63.623047" xlink:href="#DejaVuSans-49"/>
      </g>
     </g>
    </g>
    <g id="ytick_3">
     <g id="line2d_10">
      <g>
       <use style="stroke:#000000;stroke-width:0.8;" x="162" xlink:href="#m667898c336" y="485.502173"/>
      </g>
     </g>
     <g id="text_11">
      <!-- 12 -->
      <g transform="translate(142.275 489.301392)scale(0.1 -0.1)">
       <use xlink:href="#DejaVuSans-49"/>
       <use x="63.623047" xlink:href="#DejaVuSans-50"/>
      </g>
     </g>
    </g>
    <g id="ytick_4">
     <g id="line2d_11">
      <g>
       <use style="stroke:#000000;stroke-width:0.8;" x="162" xlink:href="#m667898c336" y="422.272811"/>
      </g>
     </g>
     <g id="text_12">
      <!-- 13 -->
      <g transform="translate(142.275 426.07203)scale(0.1 -0.1)">
       <use xlink:href="#DejaVuSans-49"/>
       <use x="63.623047" xlink:href="#DejaVuSans-51"/>
      </g>
     </g>
    </g>
    <g id="ytick_5">
     <g id="line2d_12">
      <g>
       <use style="stroke:#000000;stroke-width:0.8;" x="162" xlink:href="#m667898c336" y="359.043449"/>
      </g>
     </g>
     <g id="text_13">
      <!-- 14 -->
      <g transform="translate(142.275 362.842668)scale(0.1 -0.1)">
       <use xlink:href="#DejaVuSans-49"/>
       <use x="63.623047" xlink:href="#DejaVuSans-52"/>
      </g>
     </g>
    </g>
    <g id="ytick_6">
     <g id="line2d_13">
      <g>
       <use style="stroke:#000000;stroke-width:0.8;" x="162" xlink:href="#m667898c336" y="295.814087"/>
      </g>
     </g>
     <g id="text_14">
      <!-- 15 -->
      <g transform="translate(142.275 299.613306)scale(0.1 -0.1)">
       <use xlink:href="#DejaVuSans-49"/>
       <use x="63.623047" xlink:href="#DejaVuSans-53"/>
      </g>
     </g>
    </g>
    <g id="ytick_7">
     <g id="line2d_14">
      <g>
       <use style="stroke:#000000;stroke-width:0.8;" x="162" xlink:href="#m667898c336" y="232.584725"/>
      </g>
     </g>
     <g id="text_15">
      <!-- 16 -->
      <g transform="translate(142.275 236.383944)scale(0.1 -0.1)">
       <use xlink:href="#DejaVuSans-49"/>
       <use x="63.623047" xlink:href="#DejaVuSans-54"/>
      </g>
     </g>
    </g>
    <g id="ytick_8">
     <g id="line2d_15">
      <g>
       <use style="stroke:#000000;stroke-width:0.8;" x="162" xlink:href="#m667898c336" y="169.355363"/>
      </g>
     </g>
     <g id="text_16">
      <!-- 17 -->
      <g transform="translate(142.275 173.154582)scale(0.1 -0.1)">
       <defs>
        <path d="M 8.203125 72.90625 
L 55.078125 72.90625 
L 55.078125 68.703125 
L 28.609375 0 
L 18.3125 0 
L 43.21875 64.59375 
L 8.203125 64.59375 
z
" id="DejaVuSans-55"/>
       </defs>
       <use xlink:href="#DejaVuSans-49"/>
       <use x="63.623047" xlink:href="#DejaVuSans-55"/>
      </g>
     </g>
    </g>
    <g id="ytick_9">
     <g id="line2d_16">
      <g>
       <use style="stroke:#000000;stroke-width:0.8;" x="162" xlink:href="#m667898c336" y="106.126001"/>
      </g>
     </g>
     <g id="text_17">
      <!-- 18 -->
      <g transform="translate(142.275 109.92522)scale(0.1 -0.1)">
       <defs>
        <path d="M 31.78125 34.625 
Q 24.75 34.625 20.71875 30.859375 
Q 16.703125 27.09375 16.703125 20.515625 
Q 16.703125 13.921875 20.71875 10.15625 
Q 24.75 6.390625 31.78125 6.390625 
Q 38.8125 6.390625 42.859375 10.171875 
Q 46.921875 13.96875 46.921875 20.515625 
Q 46.921875 27.09375 42.890625 30.859375 
Q 38.875 34.625 31.78125 34.625 
z
M 21.921875 38.8125 
Q 15.578125 40.375 12.03125 44.71875 
Q 8.5 49.078125 8.5 55.328125 
Q 8.5 64.0625 14.71875 69.140625 
Q 20.953125 74.21875 31.78125 74.21875 
Q 42.671875 74.21875 48.875 69.140625 
Q 55.078125 64.0625 55.078125 55.328125 
Q 55.078125 49.078125 51.53125 44.71875 
Q 48 40.375 41.703125 38.8125 
Q 48.828125 37.15625 52.796875 32.3125 
Q 56.78125 27.484375 56.78125 20.515625 
Q 56.78125 9.90625 50.3125 4.234375 
Q 43.84375 -1.421875 31.78125 -1.421875 
Q 19.734375 -1.421875 13.25 4.234375 
Q 6.78125 9.90625 6.78125 20.515625 
Q 6.78125 27.484375 10.78125 32.3125 
Q 14.796875 37.15625 21.921875 38.8125 
z
M 18.3125 54.390625 
Q 18.3125 48.734375 21.84375 45.5625 
Q 25.390625 42.390625 31.78125 42.390625 
Q 38.140625 42.390625 41.71875 45.5625 
Q 45.3125 48.734375 45.3125 54.390625 
Q 45.3125 60.0625 41.71875 63.234375 
Q 38.140625 66.40625 31.78125 66.40625 
Q 25.390625 66.40625 21.84375 63.234375 
Q 18.3125 60.0625 18.3125 54.390625 
z
" id="DejaVuSans-56"/>
       </defs>
       <use xlink:href="#DejaVuSans-49"/>
       <use x="63.623047" xlink:href="#DejaVuSans-56"/>
      </g>
     </g>
    </g>
    <g id="text_18">
     <!-- y -->
     <g transform="translate(136.195312 361.159375)rotate(-90)scale(0.1 -0.1)">
      <defs>
       <path d="M 32.171875 -5.078125 
Q 28.375 -14.84375 24.75 -17.8125 
Q 21.140625 -20.796875 15.09375 -20.796875 
L 7.90625 -20.796875 
L 7.90625 -13.28125 
L 13.1875 -13.28125 
Q 16.890625 -13.28125 18.9375 -11.515625 
Q 21 -9.765625 23.484375 -3.21875 
L 25.09375 0.875 
L 2.984375 54.6875 
L 12.5 54.6875 
L 29.59375 11.921875 
L 46.6875 54.6875 
L 56.203125 54.6875 
z
" id="DejaVuSans-121"/>
      </defs>
      <use xlink:href="#DejaVuSans-121"/>
     </g>
    </g>
   </g>
   <g id="patch_3">
    <path d="M 162 630 
L 162 86.4 
" style="fill:none;stroke:#000000;stroke-linecap:square;stroke-linejoin:miter;stroke-width:0.8;"/>
   </g>
   <g id="patch_4">
    <path d="M 1166.4 630 
L 1166.4 86.4 
" style="fill:none;stroke:#000000;stroke-linecap:square;stroke-linejoin:miter;stroke-width:0.8;"/>
   </g>
   <g id="patch_5">
    <path d="M 162 630 
L 1166.4 630 
" style="fill:none;stroke:#000000;stroke-linecap:square;stroke-linejoin:miter;stroke-width:0.8;"/>
   </g>
   <g id="patch_6">
    <path d="M 162 86.4 
L 1166.4 86.4 
" style="fill:none;stroke:#000000;stroke-linecap:square;stroke-linejoin:miter;stroke-width:0.8;"/>
   </g>
   <g id="text_19">
    <!-- dynamic -->
    <g transform="translate(990.19989 470.292234)scale(0.11 -0.11)">
     <defs>
      <path d="M 45.40625 46.390625 
L 45.40625 75.984375 
L 54.390625 75.984375 
L 54.390625 0 
L 45.40625 0 
L 45.40625 8.203125 
Q 42.578125 3.328125 38.25 0.953125 
Q 33.9375 -1.421875 27.875 -1.421875 
Q 17.96875 -1.421875 11.734375 6.484375 
Q 5.515625 14.40625 5.515625 27.296875 
Q 5.515625 40.1875 11.734375 48.09375 
Q 17.96875 56 27.875 56 
Q 33.9375 56 38.25 53.625 
Q 42.578125 51.265625 45.40625 46.390625 
z
M 14.796875 27.296875 
Q 14.796875 17.390625 18.875 11.75 
Q 22.953125 6.109375 30.078125 6.109375 
Q 37.203125 6.109375 41.296875 11.75 
Q 45.40625 17.390625 45.40625 27.296875 
Q 45.40625 37.203125 41.296875 42.84375 
Q 37.203125 48.484375 30.078125 48.484375 
Q 22.953125 48.484375 18.875 42.84375 
Q 14.796875 37.203125 14.796875 27.296875 
z
" id="DejaVuSans-100"/>
      <path d="M 54.890625 33.015625 
L 54.890625 0 
L 45.90625 0 
L 45.90625 32.71875 
Q 45.90625 40.484375 42.875 44.328125 
Q 39.84375 48.1875 33.796875 48.1875 
Q 26.515625 48.1875 22.3125 43.546875 
Q 18.109375 38.921875 18.109375 30.90625 
L 18.109375 0 
L 9.078125 0 
L 9.078125 54.6875 
L 18.109375 54.6875 
L 18.109375 46.1875 
Q 21.34375 51.125 25.703125 53.5625 
Q 30.078125 56 35.796875 56 
Q 45.21875 56 50.046875 50.171875 
Q 54.890625 44.34375 54.890625 33.015625 
z
" id="DejaVuSans-110"/>
      <path d="M 34.28125 27.484375 
Q 23.390625 27.484375 19.1875 25 
Q 14.984375 22.515625 14.984375 16.5 
Q 14.984375 11.71875 18.140625 8.90625 
Q 21.296875 6.109375 26.703125 6.109375 
Q 34.1875 6.109375 38.703125 11.40625 
Q 43.21875 16.703125 43.21875 25.484375 
L 43.21875 27.484375 
z
M 52.203125 31.203125 
L 52.203125 0 
L 43.21875 0 
L 43.21875 8.296875 
Q 40.140625 3.328125 35.546875 0.953125 
Q 30.953125 -1.421875 24.3125 -1.421875 
Q 15.921875 -1.421875 10.953125 3.296875 
Q 6 8.015625 6 15.921875 
Q 6 25.140625 12.171875 29.828125 
Q 18.359375 34.515625 30.609375 34.515625 
L 43.21875 34.515625 
L 43.21875 35.40625 
Q 43.21875 41.609375 39.140625 45 
Q 35.0625 48.390625 27.6875 48.390625 
Q 23 48.390625 18.546875 47.265625 
Q 14.109375 46.140625 10.015625 43.890625 
L 10.015625 52.203125 
Q 14.9375 54.109375 19.578125 55.046875 
Q 24.21875 56 28.609375 56 
Q 40.484375 56 46.34375 49.84375 
Q 52.203125 43.703125 52.203125 31.203125 
z
" id="DejaVuSans-97"/>
      <path d="M 52 44.1875 
Q 55.375 50.25 60.0625 53.125 
Q 64.75 56 71.09375 56 
Q 79.640625 56 84.28125 50.015625 
Q 88.921875 44.046875 88.921875 33.015625 
L 88.921875 0 
L 79.890625 0 
L 79.890625 32.71875 
Q 79.890625 40.578125 77.09375 44.375 
Q 74.3125 48.1875 68.609375 48.1875 
Q 61.625 48.1875 57.5625 43.546875 
Q 53.515625 38.921875 53.515625 30.90625 
L 53.515625 0 
L 44.484375 0 
L 44.484375 32.71875 
Q 44.484375 40.625 41.703125 44.40625 
Q 38.921875 48.1875 33.109375 48.1875 
Q 26.21875 48.1875 22.15625 43.53125 
Q 18.109375 38.875 18.109375 30.90625 
L 18.109375 0 
L 9.078125 0 
L 9.078125 54.6875 
L 18.109375 54.6875 
L 18.109375 46.1875 
Q 21.1875 51.21875 25.484375 53.609375 
Q 29.78125 56 35.6875 56 
Q 41.65625 56 45.828125 52.96875 
Q 50 49.953125 52 44.1875 
z
" id="DejaVuSans-109"/>
      <path d="M 9.421875 54.6875 
L 18.40625 54.6875 
L 18.40625 0 
L 9.421875 0 
z
M 9.421875 75.984375 
L 18.40625 75.984375 
L 18.40625 64.59375 
L 9.421875 64.59375 
z
" id="DejaVuSans-105"/>
      <path d="M 48.78125 52.59375 
L 48.78125 44.1875 
Q 44.96875 46.296875 41.140625 47.34375 
Q 37.3125 48.390625 33.40625 48.390625 
Q 24.65625 48.390625 19.8125 42.84375 
Q 14.984375 37.3125 14.984375 27.296875 
Q 14.984375 17.28125 19.8125 11.734375 
Q 24.65625 6.203125 33.40625 6.203125 
Q 37.3125 6.203125 41.140625 7.25 
Q 44.96875 8.296875 48.78125 10.40625 
L 48.78125 2.09375 
Q 45.015625 0.34375 40.984375 -0.53125 
Q 36.96875 -1.421875 32.421875 -1.421875 
Q 20.0625 -1.421875 12.78125 6.34375 
Q 5.515625 14.109375 5.515625 27.296875 
Q 5.515625 40.671875 12.859375 48.328125 
Q 20.21875 56 33.015625 56 
Q 37.15625 56 41.109375 55.140625 
Q 45.0625 54.296875 48.78125 52.59375 
z
" id="DejaVuSans-99"/>
     </defs>
     <use xlink:href="#DejaVuSans-100"/>
     <use x="63.476562" xlink:href="#DejaVuSans-121"/>
     <use x="122.65625" xlink:href="#DejaVuSans-110"/>
     <use x="186.035156" xlink:href="#DejaVuSans-97"/>
     <use x="247.314453" xlink:href="#DejaVuSans-109"/>
     <use x="344.726562" xlink:href="#DejaVuSans-105"/>
     <use x="372.509766" xlink:href="#DejaVuSans-99"/>
    </g>
   </g>
   <g id="text_20">
    <!-- stability -->
    <g transform="translate(590.450154 182.941553)scale(0.11 -0.11)">
     <defs>
      <path d="M 44.28125 53.078125 
L 44.28125 44.578125 
Q 40.484375 46.53125 36.375 47.5 
Q 32.28125 48.484375 27.875 48.484375 
Q 21.1875 48.484375 17.84375 46.4375 
Q 14.5 44.390625 14.5 40.28125 
Q 14.5 37.15625 16.890625 35.375 
Q 19.28125 33.59375 26.515625 31.984375 
L 29.59375 31.296875 
Q 39.15625 29.25 43.1875 25.515625 
Q 47.21875 21.78125 47.21875 15.09375 
Q 47.21875 7.46875 41.1875 3.015625 
Q 35.15625 -1.421875 24.609375 -1.421875 
Q 20.21875 -1.421875 15.453125 -0.5625 
Q 10.6875 0.296875 5.421875 2 
L 5.421875 11.28125 
Q 10.40625 8.6875 15.234375 7.390625 
Q 20.0625 6.109375 24.8125 6.109375 
Q 31.15625 6.109375 34.5625 8.28125 
Q 37.984375 10.453125 37.984375 14.40625 
Q 37.984375 18.0625 35.515625 20.015625 
Q 33.0625 21.96875 24.703125 23.78125 
L 21.578125 24.515625 
Q 13.234375 26.265625 9.515625 29.90625 
Q 5.8125 33.546875 5.8125 39.890625 
Q 5.8125 47.609375 11.28125 51.796875 
Q 16.75 56 26.8125 56 
Q 31.78125 56 36.171875 55.265625 
Q 40.578125 54.546875 44.28125 53.078125 
z
" id="DejaVuSans-115"/>
      <path d="M 18.3125 70.21875 
L 18.3125 54.6875 
L 36.8125 54.6875 
L 36.8125 47.703125 
L 18.3125 47.703125 
L 18.3125 18.015625 
Q 18.3125 11.328125 20.140625 9.421875 
Q 21.96875 7.515625 27.59375 7.515625 
L 36.8125 7.515625 
L 36.8125 0 
L 27.59375 0 
Q 17.1875 0 13.234375 3.875 
Q 9.28125 7.765625 9.28125 18.015625 
L 9.28125 47.703125 
L 2.6875 47.703125 
L 2.6875 54.6875 
L 9.28125 54.6875 
L 9.28125 70.21875 
z
" id="DejaVuSans-116"/>
      <path d="M 48.6875 27.296875 
Q 48.6875 37.203125 44.609375 42.84375 
Q 40.53125 48.484375 33.40625 48.484375 
Q 26.265625 48.484375 22.1875 42.84375 
Q 18.109375 37.203125 18.109375 27.296875 
Q 18.109375 17.390625 22.1875 11.75 
Q 26.265625 6.109375 33.40625 6.109375 
Q 40.53125 6.109375 44.609375 11.75 
Q 48.6875 17.390625 48.6875 27.296875 
z
M 18.109375 46.390625 
Q 20.953125 51.265625 25.265625 53.625 
Q 29.59375 56 35.59375 56 
Q 45.5625 56 51.78125 48.09375 
Q 58.015625 40.1875 58.015625 27.296875 
Q 58.015625 14.40625 51.78125 6.484375 
Q 45.5625 -1.421875 35.59375 -1.421875 
Q 29.59375 -1.421875 25.265625 0.953125 
Q 20.953125 3.328125 18.109375 8.203125 
L 18.109375 0 
L 9.078125 0 
L 9.078125 75.984375 
L 18.109375 75.984375 
z
" id="DejaVuSans-98"/>
      <path d="M 9.421875 75.984375 
L 18.40625 75.984375 
L 18.40625 0 
L 9.421875 0 
z
" id="DejaVuSans-108"/>
     </defs>
     <use xlink:href="#DejaVuSans-115"/>
     <use x="52.099609" xlink:href="#DejaVuSans-116"/>
     <use x="91.308594" xlink:href="#DejaVuSans-97"/>
     <use x="152.587891" xlink:href="#DejaVuSans-98"/>
     <use x="216.064453" xlink:href="#DejaVuSans-105"/>
     <use x="243.847656" xlink:href="#DejaVuSans-108"/>
     <use x="271.630859" xlink:href="#DejaVuSans-105"/>
     <use x="299.414062" xlink:href="#DejaVuSans-116"/>
     <use x="338.623047" xlink:href="#DejaVuSans-121"/>
    </g>
   </g>
   <g id="text_21">
    <!-- potential -->
    <g transform="translate(1046.987543 285.160976)scale(0.11 -0.11)">
     <defs>
      <path d="M 18.109375 8.203125 
L 18.109375 -20.796875 
L 9.078125 -20.796875 
L 9.078125 54.6875 
L 18.109375 54.6875 
L 18.109375 46.390625 
Q 20.953125 51.265625 25.265625 53.625 
Q 29.59375 56 35.59375 56 
Q 45.5625 56 51.78125 48.09375 
Q 58.015625 40.1875 58.015625 27.296875 
Q 58.015625 14.40625 51.78125 6.484375 
Q 45.5625 -1.421875 35.59375 -1.421875 
Q 29.59375 -1.421875 25.265625 0.953125 
Q 20.953125 3.328125 18.109375 8.203125 
z
M 48.6875 27.296875 
Q 48.6875 37.203125 44.609375 42.84375 
Q 40.53125 48.484375 33.40625 48.484375 
Q 26.265625 48.484375 22.1875 42.84375 
Q 18.109375 37.203125 18.109375 27.296875 
Q 18.109375 17.390625 22.1875 11.75 
Q 26.265625 6.109375 33.40625 6.109375 
Q 40.53125 6.109375 44.609375 11.75 
Q 48.6875 17.390625 48.6875 27.296875 
z
" id="DejaVuSans-112"/>
      <path d="M 30.609375 48.390625 
Q 23.390625 48.390625 19.1875 42.75 
Q 14.984375 37.109375 14.984375 27.296875 
Q 14.984375 17.484375 19.15625 11.84375 
Q 23.34375 6.203125 30.609375 6.203125 
Q 37.796875 6.203125 41.984375 11.859375 
Q 46.1875 17.53125 46.1875 27.296875 
Q 46.1875 37.015625 41.984375 42.703125 
Q 37.796875 48.390625 30.609375 48.390625 
z
M 30.609375 56 
Q 42.328125 56 49.015625 48.375 
Q 55.71875 40.765625 55.71875 27.296875 
Q 55.71875 13.875 49.015625 6.21875 
Q 42.328125 -1.421875 30.609375 -1.421875 
Q 18.84375 -1.421875 12.171875 6.21875 
Q 5.515625 13.875 5.515625 27.296875 
Q 5.515625 40.765625 12.171875 48.375 
Q 18.84375 56 30.609375 56 
z
" id="DejaVuSans-111"/>
      <path d="M 56.203125 29.59375 
L 56.203125 25.203125 
L 14.890625 25.203125 
Q 15.484375 15.921875 20.484375 11.0625 
Q 25.484375 6.203125 34.421875 6.203125 
Q 39.59375 6.203125 44.453125 7.46875 
Q 49.3125 8.734375 54.109375 11.28125 
L 54.109375 2.78125 
Q 49.265625 0.734375 44.1875 -0.34375 
Q 39.109375 -1.421875 33.890625 -1.421875 
Q 20.796875 -1.421875 13.15625 6.1875 
Q 5.515625 13.8125 5.515625 26.8125 
Q 5.515625 40.234375 12.765625 48.109375 
Q 20.015625 56 32.328125 56 
Q 43.359375 56 49.78125 48.890625 
Q 56.203125 41.796875 56.203125 29.59375 
z
M 47.21875 32.234375 
Q 47.125 39.59375 43.09375 43.984375 
Q 39.0625 48.390625 32.421875 48.390625 
Q 24.90625 48.390625 20.390625 44.140625 
Q 15.875 39.890625 15.1875 32.171875 
z
" id="DejaVuSans-101"/>
     </defs>
     <use xlink:href="#DejaVuSans-112"/>
     <use x="63.476562" xlink:href="#DejaVuSans-111"/>
     <use x="124.658203" xlink:href="#DejaVuSans-116"/>
     <use x="163.867188" xlink:href="#DejaVuSans-101"/>
     <use x="225.390625" xlink:href="#DejaVuSans-110"/>
     <use x="288.769531" xlink:href="#DejaVuSans-116"/>
     <use x="327.978516" xlink:href="#DejaVuSans-105"/>
     <use x="355.761719" xlink:href="#DejaVuSans-97"/>
     <use x="417.041016" xlink:href="#DejaVuSans-108"/>
    </g>
   </g>
   <g id="text_22">
    <!-- sensory -->
    <g transform="translate(748.740093 501.554219)scale(0.11 -0.11)">
     <defs>
      <path d="M 41.109375 46.296875 
Q 39.59375 47.171875 37.8125 47.578125 
Q 36.03125 48 33.890625 48 
Q 26.265625 48 22.1875 43.046875 
Q 18.109375 38.09375 18.109375 28.8125 
L 18.109375 0 
L 9.078125 0 
L 9.078125 54.6875 
L 18.109375 54.6875 
L 18.109375 46.1875 
Q 20.953125 51.171875 25.484375 53.578125 
Q 30.03125 56 36.53125 56 
Q 37.453125 56 38.578125 55.875 
Q 39.703125 55.765625 41.0625 55.515625 
z
" id="DejaVuSans-114"/>
     </defs>
     <use xlink:href="#DejaVuSans-115"/>
     <use x="52.099609" xlink:href="#DejaVuSans-101"/>
     <use x="113.623047" xlink:href="#DejaVuSans-110"/>
     <use x="177.001953" xlink:href="#DejaVuSans-115"/>
     <use x="229.101562" xlink:href="#DejaVuSans-111"/>
     <use x="290.283203" xlink:href="#DejaVuSans-114"/>
     <use x="331.396484" xlink:href="#DejaVuSans-121"/>
    </g>
   </g>
   <g id="text_23">
    <!-- systems -->
    <g transform="translate(208.437551 321.036108)scale(0.11 -0.11)">
     <use xlink:href="#DejaVuSans-115"/>
     <use x="52.099609" xlink:href="#DejaVuSans-121"/>
     <use x="111.279297" xlink:href="#DejaVuSans-115"/>
     <use x="163.378906" xlink:href="#DejaVuSans-116"/>
     <use x="202.587891" xlink:href="#DejaVuSans-101"/>
     <use x="264.111328" xlink:href="#DejaVuSans-109"/>
     <use x="361.523438" xlink:href="#DejaVuSans-115"/>
    </g>
   </g>
   <g id="text_24">
    <!-- different -->
    <g transform="translate(419.853318 195.993535)scale(0.11 -0.11)">
     <defs>
      <path d="M 37.109375 75.984375 
L 37.109375 68.5 
L 28.515625 68.5 
Q 23.6875 68.5 21.796875 66.546875 
Q 19.921875 64.59375 19.921875 59.515625 
L 19.921875 54.6875 
L 34.71875 54.6875 
L 34.71875 47.703125 
L 19.921875 47.703125 
L 19.921875 0 
L 10.890625 0 
L 10.890625 47.703125 
L 2.296875 47.703125 
L 2.296875 54.6875 
L 10.890625 54.6875 
L 10.890625 58.5 
Q 10.890625 67.625 15.140625 71.796875 
Q 19.390625 75.984375 28.609375 75.984375 
z
" id="DejaVuSans-102"/>
     </defs>
     <use xlink:href="#DejaVuSans-100"/>
     <use x="63.476562" xlink:href="#DejaVuSans-105"/>
     <use x="91.259766" xlink:href="#DejaVuSans-102"/>
     <use x="126.464844" xlink:href="#DejaVuSans-102"/>
     <use x="161.669922" xlink:href="#DejaVuSans-101"/>
     <use x="223.193359" xlink:href="#DejaVuSans-114"/>
     <use x="262.056641" xlink:href="#DejaVuSans-101"/>
     <use x="323.580078" xlink:href="#DejaVuSans-110"/>
     <use x="386.958984" xlink:href="#DejaVuSans-116"/>
    </g>
   </g>
   <g id="text_25">
    <!-- used -->
    <g transform="translate(625.187696 402.699126)scale(0.11 -0.11)">
     <defs>
      <path d="M 8.5 21.578125 
L 8.5 54.6875 
L 17.484375 54.6875 
L 17.484375 21.921875 
Q 17.484375 14.15625 20.5 10.265625 
Q 23.53125 6.390625 29.59375 6.390625 
Q 36.859375 6.390625 41.078125 11.03125 
Q 45.3125 15.671875 45.3125 23.6875 
L 45.3125 54.6875 
L 54.296875 54.6875 
L 54.296875 0 
L 45.3125 0 
L 45.3125 8.40625 
Q 42.046875 3.421875 37.71875 1 
Q 33.40625 -1.421875 27.6875 -1.421875 
Q 18.265625 -1.421875 13.375 4.4375 
Q 8.5 10.296875 8.5 21.578125 
z
M 31.109375 56 
z
" id="DejaVuSans-117"/>
     </defs>
     <use xlink:href="#DejaVuSans-117"/>
     <use x="63.378906" xlink:href="#DejaVuSans-115"/>
     <use x="115.478516" xlink:href="#DejaVuSans-101"/>
     <use x="177.001953" xlink:href="#DejaVuSans-100"/>
    </g>
   </g>
   <g id="text_26">
    <!-- adapt -->
    <g transform="translate(1063.24331 213.35445)scale(0.11 -0.11)">
     <use xlink:href="#DejaVuSans-97"/>
     <use x="61.279297" xlink:href="#DejaVuSans-100"/>
     <use x="124.755859" xlink:href="#DejaVuSans-97"/>
     <use x="186.035156" xlink:href="#DejaVuSans-112"/>
     <use x="249.511719" xlink:href="#DejaVuSans-116"/>
    </g>
   </g>
   <g id="text_27">
    <!-- states -->
    <g transform="translate(443.787733 182.2481)scale(0.11 -0.11)">
     <use xlink:href="#DejaVuSans-115"/>
     <use x="52.099609" xlink:href="#DejaVuSans-116"/>
     <use x="91.308594" xlink:href="#DejaVuSans-97"/>
     <use x="152.587891" xlink:href="#DejaVuSans-116"/>
     <use x="191.796875" xlink:href="#DejaVuSans-101"/>
     <use x="253.320312" xlink:href="#DejaVuSans-115"/>
    </g>
   </g>
   <g id="text_28">
    <!-- motion -->
    <g transform="translate(498.485282 287.948474)scale(0.11 -0.11)">
     <use xlink:href="#DejaVuSans-109"/>
     <use x="97.412109" xlink:href="#DejaVuSans-111"/>
     <use x="158.59375" xlink:href="#DejaVuSans-116"/>
     <use x="197.802734" xlink:href="#DejaVuSans-105"/>
     <use x="225.585938" xlink:href="#DejaVuSans-111"/>
     <use x="286.767578" xlink:href="#DejaVuSans-110"/>
    </g>
   </g>
   <g id="text_29">
    <!-- help -->
    <g transform="translate(1105.90876 403.740752)scale(0.11 -0.11)">
     <defs>
      <path d="M 54.890625 33.015625 
L 54.890625 0 
L 45.90625 0 
L 45.90625 32.71875 
Q 45.90625 40.484375 42.875 44.328125 
Q 39.84375 48.1875 33.796875 48.1875 
Q 26.515625 48.1875 22.3125 43.546875 
Q 18.109375 38.921875 18.109375 30.90625 
L 18.109375 0 
L 9.078125 0 
L 9.078125 75.984375 
L 18.109375 75.984375 
L 18.109375 46.1875 
Q 21.34375 51.125 25.703125 53.5625 
Q 30.078125 56 35.796875 56 
Q 45.21875 56 50.046875 50.171875 
Q 54.890625 44.34375 54.890625 33.015625 
z
" id="DejaVuSans-104"/>
     </defs>
     <use xlink:href="#DejaVuSans-104"/>
     <use x="63.378906" xlink:href="#DejaVuSans-101"/>
     <use x="124.902344" xlink:href="#DejaVuSans-108"/>
     <use x="152.685547" xlink:href="#DejaVuSans-112"/>
    </g>
   </g>
   <g id="text_30">
    <!-- movements -->
    <g transform="translate(1111.105719 110.792944)scale(0.11 -0.11)">
     <defs>
      <path d="M 2.984375 54.6875 
L 12.5 54.6875 
L 29.59375 8.796875 
L 46.6875 54.6875 
L 56.203125 54.6875 
L 35.6875 0 
L 23.484375 0 
z
" id="DejaVuSans-118"/>
     </defs>
     <use xlink:href="#DejaVuSans-109"/>
     <use x="97.412109" xlink:href="#DejaVuSans-111"/>
     <use x="158.59375" xlink:href="#DejaVuSans-118"/>
     <use x="217.773438" xlink:href="#DejaVuSans-101"/>
     <use x="279.296875" xlink:href="#DejaVuSans-109"/>
     <use x="376.708984" xlink:href="#DejaVuSans-101"/>
     <use x="438.232422" xlink:href="#DejaVuSans-110"/>
     <use x="501.611328" xlink:href="#DejaVuSans-116"/>
     <use x="540.820312" xlink:href="#DejaVuSans-115"/>
    </g>
   </g>
   <g id="text_31">
    <!-- order -->
    <g transform="translate(1058.869848 562.876466)scale(0.11 -0.11)">
     <use xlink:href="#DejaVuSans-111"/>
     <use x="61.181641" xlink:href="#DejaVuSans-114"/>
     <use x="100.544922" xlink:href="#DejaVuSans-100"/>
     <use x="164.021484" xlink:href="#DejaVuSans-101"/>
     <use x="225.544922" xlink:href="#DejaVuSans-114"/>
    </g>
   </g>
   <g id="text_32">
    <!-- changes -->
    <g transform="translate(982.133538 234.447768)scale(0.11 -0.11)">
     <defs>
      <path d="M 45.40625 27.984375 
Q 45.40625 37.75 41.375 43.109375 
Q 37.359375 48.484375 30.078125 48.484375 
Q 22.859375 48.484375 18.828125 43.109375 
Q 14.796875 37.75 14.796875 27.984375 
Q 14.796875 18.265625 18.828125 12.890625 
Q 22.859375 7.515625 30.078125 7.515625 
Q 37.359375 7.515625 41.375 12.890625 
Q 45.40625 18.265625 45.40625 27.984375 
z
M 54.390625 6.78125 
Q 54.390625 -7.171875 48.1875 -13.984375 
Q 42 -20.796875 29.203125 -20.796875 
Q 24.46875 -20.796875 20.265625 -20.09375 
Q 16.0625 -19.390625 12.109375 -17.921875 
L 12.109375 -9.1875 
Q 16.0625 -11.328125 19.921875 -12.34375 
Q 23.78125 -13.375 27.78125 -13.375 
Q 36.625 -13.375 41.015625 -8.765625 
Q 45.40625 -4.15625 45.40625 5.171875 
L 45.40625 9.625 
Q 42.625 4.78125 38.28125 2.390625 
Q 33.9375 0 27.875 0 
Q 17.828125 0 11.671875 7.65625 
Q 5.515625 15.328125 5.515625 27.984375 
Q 5.515625 40.671875 11.671875 48.328125 
Q 17.828125 56 27.875 56 
Q 33.9375 56 38.28125 53.609375 
Q 42.625 51.21875 45.40625 46.390625 
L 45.40625 54.6875 
L 54.390625 54.6875 
z
" id="DejaVuSans-103"/>
     </defs>
     <use xlink:href="#DejaVuSans-99"/>
     <use x="54.980469" xlink:href="#DejaVuSans-104"/>
     <use x="118.359375" xlink:href="#DejaVuSans-97"/>
     <use x="179.638672" xlink:href="#DejaVuSans-110"/>
     <use x="243.017578" xlink:href="#DejaVuSans-103"/>
     <use x="306.494141" xlink:href="#DejaVuSans-101"/>
     <use x="368.017578" xlink:href="#DejaVuSans-115"/>
    </g>
   </g>
   <g id="text_33">
    <!-- understanding -->
    <g transform="translate(1121.52846 309.80869)scale(0.11 -0.11)">
     <use xlink:href="#DejaVuSans-117"/>
     <use x="63.378906" xlink:href="#DejaVuSans-110"/>
     <use x="126.757812" xlink:href="#DejaVuSans-100"/>
     <use x="190.234375" xlink:href="#DejaVuSans-101"/>
     <use x="251.757812" xlink:href="#DejaVuSans-114"/>
     <use x="292.871094" xlink:href="#DejaVuSans-115"/>
     <use x="344.970703" xlink:href="#DejaVuSans-116"/>
     <use x="384.179688" xlink:href="#DejaVuSans-97"/>
     <use x="445.458984" xlink:href="#DejaVuSans-110"/>
     <use x="508.837891" xlink:href="#DejaVuSans-100"/>
     <use x="572.314453" xlink:href="#DejaVuSans-105"/>
     <use x="600.097656" xlink:href="#DejaVuSans-110"/>
     <use x="663.476562" xlink:href="#DejaVuSans-103"/>
    </g>
   </g>
   <g id="text_34">
    <!-- development -->
    <g transform="translate(932.490919 157.763558)scale(0.11 -0.11)">
     <use xlink:href="#DejaVuSans-100"/>
     <use x="63.476562" xlink:href="#DejaVuSans-101"/>
     <use x="125" xlink:href="#DejaVuSans-118"/>
     <use x="184.179688" xlink:href="#DejaVuSans-101"/>
     <use x="245.703125" xlink:href="#DejaVuSans-108"/>
     <use x="273.486328" xlink:href="#DejaVuSans-111"/>
     <use x="334.667969" xlink:href="#DejaVuSans-112"/>
     <use x="398.144531" xlink:href="#DejaVuSans-109"/>
     <use x="495.556641" xlink:href="#DejaVuSans-101"/>
     <use x="557.080078" xlink:href="#DejaVuSans-110"/>
     <use x="620.458984" xlink:href="#DejaVuSans-116"/>
    </g>
   </g>
   <g id="text_35">
    <!-- interaction -->
    <g transform="translate(1074.111104 469.107033)scale(0.11 -0.11)">
     <use xlink:href="#DejaVuSans-105"/>
     <use x="27.783203" xlink:href="#DejaVuSans-110"/>
     <use x="91.162109" xlink:href="#DejaVuSans-116"/>
     <use x="130.371094" xlink:href="#DejaVuSans-101"/>
     <use x="191.894531" xlink:href="#DejaVuSans-114"/>
     <use x="233.007812" xlink:href="#DejaVuSans-97"/>
     <use x="294.287109" xlink:href="#DejaVuSans-99"/>
     <use x="349.267578" xlink:href="#DejaVuSans-116"/>
     <use x="388.476562" xlink:href="#DejaVuSans-105"/>
     <use x="416.259766" xlink:href="#DejaVuSans-111"/>
     <use x="477.441406" xlink:href="#DejaVuSans-110"/>
    </g>
   </g>
   <g id="text_36">
    <!-- robotics -->
    <g transform="translate(864.6691 604.974762)scale(0.11 -0.11)">
     <use xlink:href="#DejaVuSans-114"/>
     <use x="38.863281" xlink:href="#DejaVuSans-111"/>
     <use x="100.044922" xlink:href="#DejaVuSans-98"/>
     <use x="163.521484" xlink:href="#DejaVuSans-111"/>
     <use x="224.703125" xlink:href="#DejaVuSans-116"/>
     <use x="263.912109" xlink:href="#DejaVuSans-105"/>
     <use x="291.695312" xlink:href="#DejaVuSans-99"/>
     <use x="346.675781" xlink:href="#DejaVuSans-115"/>
    </g>
   </g>
   <g id="text_37">
    <!-- approach -->
    <g transform="translate(722.725132 184.412154)scale(0.11 -0.11)">
     <use xlink:href="#DejaVuSans-97"/>
     <use x="61.279297" xlink:href="#DejaVuSans-112"/>
     <use x="124.755859" xlink:href="#DejaVuSans-112"/>
     <use x="188.232422" xlink:href="#DejaVuSans-114"/>
     <use x="227.095703" xlink:href="#DejaVuSans-111"/>
     <use x="288.277344" xlink:href="#DejaVuSans-97"/>
     <use x="349.556641" xlink:href="#DejaVuSans-99"/>
     <use x="404.537109" xlink:href="#DejaVuSans-104"/>
    </g>
   </g>
   <g id="text_38">
    <!-- need -->
    <g transform="translate(976.10905 346.83224)scale(0.11 -0.11)">
     <use xlink:href="#DejaVuSans-110"/>
     <use x="63.378906" xlink:href="#DejaVuSans-101"/>
     <use x="124.902344" xlink:href="#DejaVuSans-101"/>
     <use x="186.425781" xlink:href="#DejaVuSans-100"/>
    </g>
   </g>
   <g id="text_39">
    <!-- autonomous -->
    <g transform="translate(814.514372 357.148462)scale(0.11 -0.11)">
     <use xlink:href="#DejaVuSans-97"/>
     <use x="61.279297" xlink:href="#DejaVuSans-117"/>
     <use x="124.658203" xlink:href="#DejaVuSans-116"/>
     <use x="163.867188" xlink:href="#DejaVuSans-111"/>
     <use x="225.048828" xlink:href="#DejaVuSans-110"/>
     <use x="288.427734" xlink:href="#DejaVuSans-111"/>
     <use x="349.609375" xlink:href="#DejaVuSans-109"/>
     <use x="447.021484" xlink:href="#DejaVuSans-111"/>
     <use x="508.203125" xlink:href="#DejaVuSans-117"/>
     <use x="571.582031" xlink:href="#DejaVuSans-115"/>
    </g>
   </g>
   <g id="text_40">
    <!-- multiple -->
    <g transform="translate(834.631043 429.665444)scale(0.11 -0.11)">
     <use xlink:href="#DejaVuSans-109"/>
     <use x="97.412109" xlink:href="#DejaVuSans-117"/>
     <use x="160.791016" xlink:href="#DejaVuSans-108"/>
     <use x="188.574219" xlink:href="#DejaVuSans-116"/>
     <use x="227.783203" xlink:href="#DejaVuSans-105"/>
     <use x="255.566406" xlink:href="#DejaVuSans-112"/>
     <use x="319.042969" xlink:href="#DejaVuSans-108"/>
     <use x="346.826172" xlink:href="#DejaVuSans-101"/>
    </g>
   </g>
   <g id="text_41">
    <!-- recent -->
    <g transform="translate(574.664679 135.83864)scale(0.11 -0.11)">
     <use xlink:href="#DejaVuSans-114"/>
     <use x="38.863281" xlink:href="#DejaVuSans-101"/>
     <use x="100.386719" xlink:href="#DejaVuSans-99"/>
     <use x="155.367188" xlink:href="#DejaVuSans-101"/>
     <use x="216.890625" xlink:href="#DejaVuSans-110"/>
     <use x="280.269531" xlink:href="#DejaVuSans-116"/>
    </g>
   </g>
   <g id="text_42">
    <!-- processes -->
    <g transform="translate(312.451696 247.138673)scale(0.11 -0.11)">
     <use xlink:href="#DejaVuSans-112"/>
     <use x="63.476562" xlink:href="#DejaVuSans-114"/>
     <use x="102.339844" xlink:href="#DejaVuSans-111"/>
     <use x="163.521484" xlink:href="#DejaVuSans-99"/>
     <use x="218.501953" xlink:href="#DejaVuSans-101"/>
     <use x="280.025391" xlink:href="#DejaVuSans-115"/>
     <use x="332.125" xlink:href="#DejaVuSans-115"/>
     <use x="384.224609" xlink:href="#DejaVuSans-101"/>
     <use x="445.748047" xlink:href="#DejaVuSans-115"/>
    </g>
   </g>
   <g id="text_43">
    <!-- temporal -->
    <g transform="translate(804.903926 117.704796)scale(0.11 -0.11)">
     <use xlink:href="#DejaVuSans-116"/>
     <use x="39.208984" xlink:href="#DejaVuSans-101"/>
     <use x="100.732422" xlink:href="#DejaVuSans-109"/>
     <use x="198.144531" xlink:href="#DejaVuSans-112"/>
     <use x="261.621094" xlink:href="#DejaVuSans-111"/>
     <use x="322.802734" xlink:href="#DejaVuSans-114"/>
     <use x="363.916016" xlink:href="#DejaVuSans-97"/>
     <use x="425.195312" xlink:href="#DejaVuSans-108"/>
    </g>
   </g>
   <g id="text_44">
    <!-- data -->
    <g transform="translate(260.192527 154.572229)scale(0.11 -0.11)">
     <use xlink:href="#DejaVuSans-100"/>
     <use x="63.476562" xlink:href="#DejaVuSans-97"/>
     <use x="124.755859" xlink:href="#DejaVuSans-116"/>
     <use x="163.964844" xlink:href="#DejaVuSans-97"/>
    </g>
   </g>
   <g id="text_45">
    <!-- generate -->
    <g transform="translate(780.633929 186.156037)scale(0.11 -0.11)">
     <use xlink:href="#DejaVuSans-103"/>
     <use x="63.476562" xlink:href="#DejaVuSans-101"/>
     <use x="125" xlink:href="#DejaVuSans-110"/>
     <use x="188.378906" xlink:href="#DejaVuSans-101"/>
     <use x="249.902344" xlink:href="#DejaVuSans-114"/>
     <use x="291.015625" xlink:href="#DejaVuSans-97"/>
     <use x="352.294922" xlink:href="#DejaVuSans-116"/>
     <use x="391.503906" xlink:href="#DejaVuSans-101"/>
    </g>
   </g>
   <g id="text_46">
    <!-- open -->
    <g transform="translate(567.573709 132.495234)scale(0.11 -0.11)">
     <use xlink:href="#DejaVuSans-111"/>
     <use x="61.181641" xlink:href="#DejaVuSans-112"/>
     <use x="124.658203" xlink:href="#DejaVuSans-101"/>
     <use x="186.181641" xlink:href="#DejaVuSans-110"/>
    </g>
   </g>
   <g id="text_47">
    <!-- sequence -->
    <g transform="translate(948.552983 234.927577)scale(0.11 -0.11)">
     <defs>
      <path d="M 14.796875 27.296875 
Q 14.796875 17.390625 18.875 11.75 
Q 22.953125 6.109375 30.078125 6.109375 
Q 37.203125 6.109375 41.296875 11.75 
Q 45.40625 17.390625 45.40625 27.296875 
Q 45.40625 37.203125 41.296875 42.84375 
Q 37.203125 48.484375 30.078125 48.484375 
Q 22.953125 48.484375 18.875 42.84375 
Q 14.796875 37.203125 14.796875 27.296875 
z
M 45.40625 8.203125 
Q 42.578125 3.328125 38.25 0.953125 
Q 33.9375 -1.421875 27.875 -1.421875 
Q 17.96875 -1.421875 11.734375 6.484375 
Q 5.515625 14.40625 5.515625 27.296875 
Q 5.515625 40.1875 11.734375 48.09375 
Q 17.96875 56 27.875 56 
Q 33.9375 56 38.25 53.625 
Q 42.578125 51.265625 45.40625 46.390625 
L 45.40625 54.6875 
L 54.390625 54.6875 
L 54.390625 -20.796875 
L 45.40625 -20.796875 
z
" id="DejaVuSans-113"/>
     </defs>
     <use xlink:href="#DejaVuSans-115"/>
     <use x="52.099609" xlink:href="#DejaVuSans-101"/>
     <use x="113.623047" xlink:href="#DejaVuSans-113"/>
     <use x="177.099609" xlink:href="#DejaVuSans-117"/>
     <use x="240.478516" xlink:href="#DejaVuSans-101"/>
     <use x="302.001953" xlink:href="#DejaVuSans-110"/>
     <use x="365.380859" xlink:href="#DejaVuSans-99"/>
     <use x="420.361328" xlink:href="#DejaVuSans-101"/>
    </g>
   </g>
   <g id="text_48">
    <!-- objects -->
    <g transform="translate(850.993891 322.121693)scale(0.11 -0.11)">
     <defs>
      <path d="M 9.421875 54.6875 
L 18.40625 54.6875 
L 18.40625 -0.984375 
Q 18.40625 -11.421875 14.421875 -16.109375 
Q 10.453125 -20.796875 1.609375 -20.796875 
L -1.8125 -20.796875 
L -1.8125 -13.1875 
L 0.59375 -13.1875 
Q 5.71875 -13.1875 7.5625 -10.8125 
Q 9.421875 -8.453125 9.421875 -0.984375 
z
M 9.421875 75.984375 
L 18.40625 75.984375 
L 18.40625 64.59375 
L 9.421875 64.59375 
z
" id="DejaVuSans-106"/>
     </defs>
     <use xlink:href="#DejaVuSans-111"/>
     <use x="61.181641" xlink:href="#DejaVuSans-98"/>
     <use x="124.658203" xlink:href="#DejaVuSans-106"/>
     <use x="152.441406" xlink:href="#DejaVuSans-101"/>
     <use x="213.964844" xlink:href="#DejaVuSans-99"/>
     <use x="268.945312" xlink:href="#DejaVuSans-116"/>
     <use x="308.154297" xlink:href="#DejaVuSans-115"/>
    </g>
   </g>
   <g id="text_49">
    <!-- point -->
    <g transform="translate(455.041886 118.775005)scale(0.11 -0.11)">
     <use xlink:href="#DejaVuSans-112"/>
     <use x="63.476562" xlink:href="#DejaVuSans-111"/>
     <use x="124.658203" xlink:href="#DejaVuSans-105"/>
     <use x="152.441406" xlink:href="#DejaVuSans-110"/>
     <use x="215.820312" xlink:href="#DejaVuSans-116"/>
    </g>
   </g>
   <g id="text_50">
    <!-- underlying -->
    <g transform="translate(1039.86969 215.038635)scale(0.11 -0.11)">
     <use xlink:href="#DejaVuSans-117"/>
     <use x="63.378906" xlink:href="#DejaVuSans-110"/>
     <use x="126.757812" xlink:href="#DejaVuSans-100"/>
     <use x="190.234375" xlink:href="#DejaVuSans-101"/>
     <use x="251.757812" xlink:href="#DejaVuSans-114"/>
     <use x="292.871094" xlink:href="#DejaVuSans-108"/>
     <use x="320.654297" xlink:href="#DejaVuSans-121"/>
     <use x="379.833984" xlink:href="#DejaVuSans-105"/>
     <use x="407.617188" xlink:href="#DejaVuSans-110"/>
     <use x="470.996094" xlink:href="#DejaVuSans-103"/>
    </g>
   </g>
   <g id="text_51">
    <!-- review -->
    <g transform="translate(635.766653 221.397173)scale(0.11 -0.11)">
     <defs>
      <path d="M 4.203125 54.6875 
L 13.1875 54.6875 
L 24.421875 12.015625 
L 35.59375 54.6875 
L 46.1875 54.6875 
L 57.421875 12.015625 
L 68.609375 54.6875 
L 77.59375 54.6875 
L 63.28125 0 
L 52.6875 0 
L 40.921875 44.828125 
L 29.109375 0 
L 18.5 0 
z
" id="DejaVuSans-119"/>
     </defs>
     <use xlink:href="#DejaVuSans-114"/>
     <use x="38.863281" xlink:href="#DejaVuSans-101"/>
     <use x="100.386719" xlink:href="#DejaVuSans-118"/>
     <use x="159.566406" xlink:href="#DejaVuSans-105"/>
     <use x="187.349609" xlink:href="#DejaVuSans-101"/>
     <use x="248.873047" xlink:href="#DejaVuSans-119"/>
    </g>
   </g>
   <g id="text_52">
    <!-- reaching -->
    <g transform="translate(1103.170045 288.746969)scale(0.11 -0.11)">
     <use xlink:href="#DejaVuSans-114"/>
     <use x="38.863281" xlink:href="#DejaVuSans-101"/>
     <use x="100.386719" xlink:href="#DejaVuSans-97"/>
     <use x="161.666016" xlink:href="#DejaVuSans-99"/>
     <use x="216.646484" xlink:href="#DejaVuSans-104"/>
     <use x="280.025391" xlink:href="#DejaVuSans-105"/>
     <use x="307.808594" xlink:href="#DejaVuSans-110"/>
     <use x="371.1875" xlink:href="#DejaVuSans-103"/>
    </g>
   </g>
   <g id="text_53">
    <!-- lwpr -->
    <g transform="translate(965.804442 360.002954)scale(0.11 -0.11)">
     <use xlink:href="#DejaVuSans-108"/>
     <use x="27.783203" xlink:href="#DejaVuSans-119"/>
     <use x="109.570312" xlink:href="#DejaVuSans-112"/>
     <use x="173.046875" xlink:href="#DejaVuSans-114"/>
    </g>
   </g>
   <g id="text_54">
    <!-- dealing -->
    <g transform="translate(584.177004 241.224367)scale(0.11 -0.11)">
     <use xlink:href="#DejaVuSans-100"/>
     <use x="63.476562" xlink:href="#DejaVuSans-101"/>
     <use x="125" xlink:href="#DejaVuSans-97"/>
     <use x="186.279297" xlink:href="#DejaVuSans-108"/>
     <use x="214.0625" xlink:href="#DejaVuSans-105"/>
     <use x="241.845703" xlink:href="#DejaVuSans-110"/>
     <use x="305.224609" xlink:href="#DejaVuSans-103"/>
    </g>
   </g>
   <g id="text_55">
    <!-- easy -->
    <g transform="translate(332.552387 143.02329)scale(0.11 -0.11)">
     <use xlink:href="#DejaVuSans-101"/>
     <use x="61.523438" xlink:href="#DejaVuSans-97"/>
     <use x="122.802734" xlink:href="#DejaVuSans-115"/>
     <use x="174.902344" xlink:href="#DejaVuSans-121"/>
    </g>
   </g>
   <g id="text_56">
    <!-- dynamic -->
    <g transform="translate(988.698379 470.327141)scale(0.11 -0.11)">
     <use xlink:href="#DejaVuSans-100"/>
     <use x="63.476562" xlink:href="#DejaVuSans-121"/>
     <use x="122.65625" xlink:href="#DejaVuSans-110"/>
     <use x="186.035156" xlink:href="#DejaVuSans-97"/>
     <use x="247.314453" xlink:href="#DejaVuSans-109"/>
     <use x="344.726562" xlink:href="#DejaVuSans-105"/>
     <use x="372.509766" xlink:href="#DejaVuSans-99"/>
    </g>
   </g>
   <g id="text_57">
    <!-- robotics -->
    <g transform="translate(863.417445 605.005689)scale(0.11 -0.11)">
     <use xlink:href="#DejaVuSans-114"/>
     <use x="38.863281" xlink:href="#DejaVuSans-111"/>
     <use x="100.044922" xlink:href="#DejaVuSans-98"/>
     <use x="163.521484" xlink:href="#DejaVuSans-111"/>
     <use x="224.703125" xlink:href="#DejaVuSans-116"/>
     <use x="263.912109" xlink:href="#DejaVuSans-105"/>
     <use x="291.695312" xlink:href="#DejaVuSans-99"/>
     <use x="346.675781" xlink:href="#DejaVuSans-115"/>
    </g>
   </g>
   <g id="text_58">
    <!-- autonomous -->
    <g transform="translate(813.305131 357.778833)scale(0.11 -0.11)">
     <use xlink:href="#DejaVuSans-97"/>
     <use x="61.279297" xlink:href="#DejaVuSans-117"/>
     <use x="124.658203" xlink:href="#DejaVuSans-116"/>
     <use x="163.867188" xlink:href="#DejaVuSans-111"/>
     <use x="225.048828" xlink:href="#DejaVuSans-110"/>
     <use x="288.427734" xlink:href="#DejaVuSans-111"/>
     <use x="349.609375" xlink:href="#DejaVuSans-109"/>
     <use x="447.021484" xlink:href="#DejaVuSans-111"/>
     <use x="508.203125" xlink:href="#DejaVuSans-117"/>
     <use x="571.582031" xlink:href="#DejaVuSans-115"/>
    </g>
   </g>
  </g>
 </g>
 <defs>
  <clipPath id="pdf26d18104">
   <rect height="543.6" width="1004.4" x="162" y="86.4"/>
  </clipPath>
 </defs>
</svg>
