<?xml version="1.0" encoding="utf-8" standalone="no"?>
<!DOCTYPE svg PUBLIC "-//W3C//DTD SVG 1.1//EN"
  "http://www.w3.org/Graphics/SVG/1.1/DTD/svg11.dtd">
<!-- Created with matplotlib (https://matplotlib.org/) -->
<svg height="720pt" version="1.1" viewBox="0 0 1296 720" width="1296pt" xmlns="http://www.w3.org/2000/svg" xmlns:xlink="http://www.w3.org/1999/xlink">
 <metadata>
  <rdf:RDF xmlns:cc="http://creativecommons.org/ns#" xmlns:dc="http://purl.org/dc/elements/1.1/" xmlns:rdf="http://www.w3.org/1999/02/22-rdf-syntax-ns#">
   <cc:Work>
    <dc:type rdf:resource="http://purl.org/dc/dcmitype/StillImage"/>
    <dc:date>2024-12-10T18:56:28.558404</dc:date>
    <dc:format>image/svg+xml</dc:format>
    <dc:creator>
     <cc:Agent>
      <dc:title>Matplotlib v3.3.3, https://matplotlib.org/</dc:title>
     </cc:Agent>
    </dc:creator>
   </cc:Work>
  </rdf:RDF>
 </metadata>
 <defs>
  <style type="text/css">*{stroke-linecap:butt;stroke-linejoin:round;}</style>
 </defs>
 <g id="figure_1">
  <g id="patch_1">
   <path d="M 0 720 
L 1296 720 
L 1296 0 
L 0 0 
z
" style="fill:none;"/>
  </g>
  <g id="axes_1">
   <g id="patch_2">
    <path d="M 162 630 
L 1166.4 630 
L 1166.4 86.4 
L 162 86.4 
z
" style="fill:#ffffff;"/>
   </g>
   <g id="PathCollection_1">
    <defs>
     <path d="M 0 0.790569 
C 0.209661 0.790569 0.410764 0.70727 0.559017 0.559017 
C 0.70727 0.410764 0.790569 0.209661 0.790569 0 
C 0.790569 -0.209661 0.70727 -0.410764 0.559017 -0.559017 
C 0.410764 -0.70727 0.209661 -0.790569 0 -0.790569 
C -0.209661 -0.790569 -0.410764 -0.70727 -0.559017 -0.559017 
C -0.70727 -0.410764 -0.790569 -0.209661 -0.790569 0 
C -0.790569 0.209661 -0.70727 0.410764 -0.559017 0.559017 
C -0.410764 0.70727 -0.209661 0.790569 0 0.790569 
z
" id="m41e7bc1b39" style="stroke:#87ceeb;"/>
    </defs>
    <g clip-path="url(#p7c7f613a25)">
     <use style="fill:#87ceeb;stroke:#87ceeb;" x="825.240629" xlink:href="#m41e7bc1b39" y="156.81041"/>
     <use style="fill:#87ceeb;stroke:#87ceeb;" x="768.100557" xlink:href="#m41e7bc1b39" y="111.109091"/>
     <use style="fill:#87ceeb;stroke:#87ceeb;" x="526.693654" xlink:href="#m41e7bc1b39" y="272.331676"/>
     <use style="fill:#87ceeb;stroke:#87ceeb;" x="933.482865" xlink:href="#m41e7bc1b39" y="242.233446"/>
     <use style="fill:#87ceeb;stroke:#87ceeb;" x="751.800226" xlink:href="#m41e7bc1b39" y="550.420396"/>
     <use style="fill:#87ceeb;stroke:#87ceeb;" x="1035.864428" xlink:href="#m41e7bc1b39" y="208.381238"/>
     <use style="fill:#87ceeb;stroke:#87ceeb;" x="794.248768" xlink:href="#m41e7bc1b39" y="237.921539"/>
     <use style="fill:#87ceeb;stroke:#87ceeb;" x="1023.308648" xlink:href="#m41e7bc1b39" y="507.027547"/>
     <use style="fill:#87ceeb;stroke:#87ceeb;" x="833.477925" xlink:href="#m41e7bc1b39" y="215.410893"/>
     <use style="fill:#87ceeb;stroke:#87ceeb;" x="635.34151" xlink:href="#m41e7bc1b39" y="374.750957"/>
     <use style="fill:#87ceeb;stroke:#87ceeb;" x="207.654545" xlink:href="#m41e7bc1b39" y="600.965392"/>
     <use style="fill:#87ceeb;stroke:#87ceeb;" x="1067.207192" xlink:href="#m41e7bc1b39" y="370.0586"/>
     <use style="fill:#87ceeb;stroke:#87ceeb;" x="583.588094" xlink:href="#m41e7bc1b39" y="465.156561"/>
     <use style="fill:#87ceeb;stroke:#87ceeb;" x="1107.672836" xlink:href="#m41e7bc1b39" y="219.234558"/>
     <use style="fill:#87ceeb;stroke:#87ceeb;" x="1041.783387" xlink:href="#m41e7bc1b39" y="251.445047"/>
     <use style="fill:#87ceeb;stroke:#87ceeb;" x="651.607345" xlink:href="#m41e7bc1b39" y="334.574859"/>
     <use style="fill:#87ceeb;stroke:#87ceeb;" x="730.427862" xlink:href="#m41e7bc1b39" y="431.14285"/>
     <use style="fill:#87ceeb;stroke:#87ceeb;" x="1064.228086" xlink:href="#m41e7bc1b39" y="331.522644"/>
     <use style="fill:#87ceeb;stroke:#87ceeb;" x="832.651222" xlink:href="#m41e7bc1b39" y="471.796368"/>
     <use style="fill:#87ceeb;stroke:#87ceeb;" x="492.681649" xlink:href="#m41e7bc1b39" y="507.465803"/>
     <use style="fill:#87ceeb;stroke:#87ceeb;" x="420.587167" xlink:href="#m41e7bc1b39" y="336.792968"/>
     <use style="fill:#87ceeb;stroke:#87ceeb;" x="908.721612" xlink:href="#m41e7bc1b39" y="341.080352"/>
     <use style="fill:#87ceeb;stroke:#87ceeb;" x="856.486448" xlink:href="#m41e7bc1b39" y="377.356974"/>
     <use style="fill:#87ceeb;stroke:#87ceeb;" x="708.689726" xlink:href="#m41e7bc1b39" y="287.24725"/>
     <use style="fill:#87ceeb;stroke:#87ceeb;" x="654.145146" xlink:href="#m41e7bc1b39" y="605.290909"/>
     <use style="fill:#87ceeb;stroke:#87ceeb;" x="746.78291" xlink:href="#m41e7bc1b39" y="428.353807"/>
     <use style="fill:#87ceeb;stroke:#87ceeb;" x="1120.745455" xlink:href="#m41e7bc1b39" y="173.534512"/>
     <use style="fill:#87ceeb;stroke:#87ceeb;" x="763.237281" xlink:href="#m41e7bc1b39" y="434.327226"/>
     <use style="fill:#87ceeb;stroke:#87ceeb;" x="995.1252" xlink:href="#m41e7bc1b39" y="383.477954"/>
     <use style="fill:#87ceeb;stroke:#87ceeb;" x="398.139494" xlink:href="#m41e7bc1b39" y="371.356576"/>
     <use style="fill:#87ceeb;stroke:#87ceeb;" x="579.824512" xlink:href="#m41e7bc1b39" y="529.515458"/>
     <use style="fill:#87ceeb;stroke:#87ceeb;" x="782.773055" xlink:href="#m41e7bc1b39" y="508.415915"/>
     <use style="fill:#87ceeb;stroke:#87ceeb;" x="983.3194" xlink:href="#m41e7bc1b39" y="325.749377"/>
     <use style="fill:#87ceeb;stroke:#87ceeb;" x="1044.057713" xlink:href="#m41e7bc1b39" y="398.969888"/>
     <use style="fill:#87ceeb;stroke:#87ceeb;" x="546.264518" xlink:href="#m41e7bc1b39" y="394.722516"/>
     <use style="fill:#87ceeb;stroke:#87ceeb;" x="652.635074" xlink:href="#m41e7bc1b39" y="147.007233"/>
     <use style="fill:#87ceeb;stroke:#87ceeb;" x="622.895758" xlink:href="#m41e7bc1b39" y="356.442427"/>
     <use style="fill:#87ceeb;stroke:#87ceeb;" x="693.03589" xlink:href="#m41e7bc1b39" y="297.851978"/>
     <use style="fill:#87ceeb;stroke:#87ceeb;" x="445.629142" xlink:href="#m41e7bc1b39" y="527.068339"/>
     <use style="fill:#87ceeb;stroke:#87ceeb;" x="1052.664944" xlink:href="#m41e7bc1b39" y="434.812103"/>
     <use style="fill:#87ceeb;stroke:#87ceeb;" x="959.809502" xlink:href="#m41e7bc1b39" y="455.590578"/>
     <use style="fill:#87ceeb;stroke:#87ceeb;" x="475.944772" xlink:href="#m41e7bc1b39" y="178.372369"/>
     <use style="fill:#87ceeb;stroke:#87ceeb;" x="722.176886" xlink:href="#m41e7bc1b39" y="245.538648"/>
     <use style="fill:#87ceeb;stroke:#87ceeb;" x="406.450539" xlink:href="#m41e7bc1b39" y="598.41994"/>
    </g>
   </g>
   <g id="PathCollection_2">
    <defs>
     <path d="M 0 -2.236068 
L -0.502029 -0.690983 
L -2.126627 -0.690983 
L -0.812299 0.263932 
L -1.314328 1.809017 
L -0 0.854102 
L 1.314328 1.809017 
L 0.812299 0.263932 
L 2.126627 -0.690983 
L 0.502029 -0.690983 
z
" id="mf59de00d2a" style="stroke:#ff0000;"/>
    </defs>
    <g clip-path="url(#p7c7f613a25)">
     <use style="fill:#ff0000;stroke:#ff0000;" x="546.148542" xlink:href="#mf59de00d2a" y="394.964652"/>
    </g>
   </g>
   <g id="matplotlib.axis_1">
    <g id="xtick_1">
     <g id="line2d_1">
      <defs>
       <path d="M 0 0 
L 0 3.5 
" id="md65b4e49cb" style="stroke:#000000;stroke-width:0.8;"/>
      </defs>
      <g>
       <use style="stroke:#000000;stroke-width:0.8;" x="271.746658" xlink:href="#md65b4e49cb" y="630"/>
      </g>
     </g>
     <g id="text_1">
      <!-- 25.0 -->
      <g transform="translate(260.613845 644.598438)scale(0.1 -0.1)">
       <defs>
        <path d="M 19.1875 8.296875 
L 53.609375 8.296875 
L 53.609375 0 
L 7.328125 0 
L 7.328125 8.296875 
Q 12.9375 14.109375 22.625 23.890625 
Q 32.328125 33.6875 34.8125 36.53125 
Q 39.546875 41.84375 41.421875 45.53125 
Q 43.3125 49.21875 43.3125 52.78125 
Q 43.3125 58.59375 39.234375 62.25 
Q 35.15625 65.921875 28.609375 65.921875 
Q 23.96875 65.921875 18.8125 64.3125 
Q 13.671875 62.703125 7.8125 59.421875 
L 7.8125 69.390625 
Q 13.765625 71.78125 18.9375 73 
Q 24.125 74.21875 28.421875 74.21875 
Q 39.75 74.21875 46.484375 68.546875 
Q 53.21875 62.890625 53.21875 53.421875 
Q 53.21875 48.921875 51.53125 44.890625 
Q 49.859375 40.875 45.40625 35.40625 
Q 44.1875 33.984375 37.640625 27.21875 
Q 31.109375 20.453125 19.1875 8.296875 
z
" id="DejaVuSans-50"/>
        <path d="M 10.796875 72.90625 
L 49.515625 72.90625 
L 49.515625 64.59375 
L 19.828125 64.59375 
L 19.828125 46.734375 
Q 21.96875 47.46875 24.109375 47.828125 
Q 26.265625 48.1875 28.421875 48.1875 
Q 40.625 48.1875 47.75 41.5 
Q 54.890625 34.8125 54.890625 23.390625 
Q 54.890625 11.625 47.5625 5.09375 
Q 40.234375 -1.421875 26.90625 -1.421875 
Q 22.3125 -1.421875 17.546875 -0.640625 
Q 12.796875 0.140625 7.71875 1.703125 
L 7.71875 11.625 
Q 12.109375 9.234375 16.796875 8.0625 
Q 21.484375 6.890625 26.703125 6.890625 
Q 35.15625 6.890625 40.078125 11.328125 
Q 45.015625 15.765625 45.015625 23.390625 
Q 45.015625 31 40.078125 35.4375 
Q 35.15625 39.890625 26.703125 39.890625 
Q 22.75 39.890625 18.8125 39.015625 
Q 14.890625 38.140625 10.796875 36.28125 
z
" id="DejaVuSans-53"/>
        <path d="M 10.6875 12.40625 
L 21 12.40625 
L 21 0 
L 10.6875 0 
z
" id="DejaVuSans-46"/>
        <path d="M 31.78125 66.40625 
Q 24.171875 66.40625 20.328125 58.90625 
Q 16.5 51.421875 16.5 36.375 
Q 16.5 21.390625 20.328125 13.890625 
Q 24.171875 6.390625 31.78125 6.390625 
Q 39.453125 6.390625 43.28125 13.890625 
Q 47.125 21.390625 47.125 36.375 
Q 47.125 51.421875 43.28125 58.90625 
Q 39.453125 66.40625 31.78125 66.40625 
z
M 31.78125 74.21875 
Q 44.046875 74.21875 50.515625 64.515625 
Q 56.984375 54.828125 56.984375 36.375 
Q 56.984375 17.96875 50.515625 8.265625 
Q 44.046875 -1.421875 31.78125 -1.421875 
Q 19.53125 -1.421875 13.0625 8.265625 
Q 6.59375 17.96875 6.59375 36.375 
Q 6.59375 54.828125 13.0625 64.515625 
Q 19.53125 74.21875 31.78125 74.21875 
z
" id="DejaVuSans-48"/>
       </defs>
       <use xlink:href="#DejaVuSans-50"/>
       <use x="63.623047" xlink:href="#DejaVuSans-53"/>
       <use x="127.246094" xlink:href="#DejaVuSans-46"/>
       <use x="159.033203" xlink:href="#DejaVuSans-48"/>
      </g>
     </g>
    </g>
    <g id="xtick_2">
     <g id="line2d_2">
      <g>
       <use style="stroke:#000000;stroke-width:0.8;" x="427.656968" xlink:href="#md65b4e49cb" y="630"/>
      </g>
     </g>
     <g id="text_2">
      <!-- 25.5 -->
      <g transform="translate(416.524155 644.598438)scale(0.1 -0.1)">
       <use xlink:href="#DejaVuSans-50"/>
       <use x="63.623047" xlink:href="#DejaVuSans-53"/>
       <use x="127.246094" xlink:href="#DejaVuSans-46"/>
       <use x="159.033203" xlink:href="#DejaVuSans-53"/>
      </g>
     </g>
    </g>
    <g id="xtick_3">
     <g id="line2d_3">
      <g>
       <use style="stroke:#000000;stroke-width:0.8;" x="583.567278" xlink:href="#md65b4e49cb" y="630"/>
      </g>
     </g>
     <g id="text_3">
      <!-- 26.0 -->
      <g transform="translate(572.434465 644.598438)scale(0.1 -0.1)">
       <defs>
        <path d="M 33.015625 40.375 
Q 26.375 40.375 22.484375 35.828125 
Q 18.609375 31.296875 18.609375 23.390625 
Q 18.609375 15.53125 22.484375 10.953125 
Q 26.375 6.390625 33.015625 6.390625 
Q 39.65625 6.390625 43.53125 10.953125 
Q 47.40625 15.53125 47.40625 23.390625 
Q 47.40625 31.296875 43.53125 35.828125 
Q 39.65625 40.375 33.015625 40.375 
z
M 52.59375 71.296875 
L 52.59375 62.3125 
Q 48.875 64.0625 45.09375 64.984375 
Q 41.3125 65.921875 37.59375 65.921875 
Q 27.828125 65.921875 22.671875 59.328125 
Q 17.53125 52.734375 16.796875 39.40625 
Q 19.671875 43.65625 24.015625 45.921875 
Q 28.375 48.1875 33.59375 48.1875 
Q 44.578125 48.1875 50.953125 41.515625 
Q 57.328125 34.859375 57.328125 23.390625 
Q 57.328125 12.15625 50.6875 5.359375 
Q 44.046875 -1.421875 33.015625 -1.421875 
Q 20.359375 -1.421875 13.671875 8.265625 
Q 6.984375 17.96875 6.984375 36.375 
Q 6.984375 53.65625 15.1875 63.9375 
Q 23.390625 74.21875 37.203125 74.21875 
Q 40.921875 74.21875 44.703125 73.484375 
Q 48.484375 72.75 52.59375 71.296875 
z
" id="DejaVuSans-54"/>
       </defs>
       <use xlink:href="#DejaVuSans-50"/>
       <use x="63.623047" xlink:href="#DejaVuSans-54"/>
       <use x="127.246094" xlink:href="#DejaVuSans-46"/>
       <use x="159.033203" xlink:href="#DejaVuSans-48"/>
      </g>
     </g>
    </g>
    <g id="xtick_4">
     <g id="line2d_4">
      <g>
       <use style="stroke:#000000;stroke-width:0.8;" x="739.477588" xlink:href="#md65b4e49cb" y="630"/>
      </g>
     </g>
     <g id="text_4">
      <!-- 26.5 -->
      <g transform="translate(728.344775 644.598438)scale(0.1 -0.1)">
       <use xlink:href="#DejaVuSans-50"/>
       <use x="63.623047" xlink:href="#DejaVuSans-54"/>
       <use x="127.246094" xlink:href="#DejaVuSans-46"/>
       <use x="159.033203" xlink:href="#DejaVuSans-53"/>
      </g>
     </g>
    </g>
    <g id="xtick_5">
     <g id="line2d_5">
      <g>
       <use style="stroke:#000000;stroke-width:0.8;" x="895.387897" xlink:href="#md65b4e49cb" y="630"/>
      </g>
     </g>
     <g id="text_5">
      <!-- 27.0 -->
      <g transform="translate(884.255085 644.598438)scale(0.1 -0.1)">
       <defs>
        <path d="M 8.203125 72.90625 
L 55.078125 72.90625 
L 55.078125 68.703125 
L 28.609375 0 
L 18.3125 0 
L 43.21875 64.59375 
L 8.203125 64.59375 
z
" id="DejaVuSans-55"/>
       </defs>
       <use xlink:href="#DejaVuSans-50"/>
       <use x="63.623047" xlink:href="#DejaVuSans-55"/>
       <use x="127.246094" xlink:href="#DejaVuSans-46"/>
       <use x="159.033203" xlink:href="#DejaVuSans-48"/>
      </g>
     </g>
    </g>
    <g id="xtick_6">
     <g id="line2d_6">
      <g>
       <use style="stroke:#000000;stroke-width:0.8;" x="1051.298207" xlink:href="#md65b4e49cb" y="630"/>
      </g>
     </g>
     <g id="text_6">
      <!-- 27.5 -->
      <g transform="translate(1040.165395 644.598438)scale(0.1 -0.1)">
       <use xlink:href="#DejaVuSans-50"/>
       <use x="63.623047" xlink:href="#DejaVuSans-55"/>
       <use x="127.246094" xlink:href="#DejaVuSans-46"/>
       <use x="159.033203" xlink:href="#DejaVuSans-53"/>
      </g>
     </g>
    </g>
    <g id="text_7">
     <!-- x -->
     <g transform="translate(661.240625 658.276562)scale(0.1 -0.1)">
      <defs>
       <path d="M 54.890625 54.6875 
L 35.109375 28.078125 
L 55.90625 0 
L 45.3125 0 
L 29.390625 21.484375 
L 13.484375 0 
L 2.875 0 
L 24.125 28.609375 
L 4.6875 54.6875 
L 15.28125 54.6875 
L 29.78125 35.203125 
L 44.28125 54.6875 
z
" id="DejaVuSans-120"/>
      </defs>
      <use xlink:href="#DejaVuSans-120"/>
     </g>
    </g>
   </g>
   <g id="matplotlib.axis_2">
    <g id="ytick_1">
     <g id="line2d_7">
      <defs>
       <path d="M 0 0 
L -3.5 0 
" id="m65b41f7a7e" style="stroke:#000000;stroke-width:0.8;"/>
      </defs>
      <g>
       <use style="stroke:#000000;stroke-width:0.8;" x="162" xlink:href="#m65b41f7a7e" y="619.365617"/>
      </g>
     </g>
     <g id="text_8">
      <!-- −12 -->
      <g transform="translate(133.895312 623.164836)scale(0.1 -0.1)">
       <defs>
        <path d="M 10.59375 35.5 
L 73.1875 35.5 
L 73.1875 27.203125 
L 10.59375 27.203125 
z
" id="DejaVuSans-8722"/>
        <path d="M 12.40625 8.296875 
L 28.515625 8.296875 
L 28.515625 63.921875 
L 10.984375 60.40625 
L 10.984375 69.390625 
L 28.421875 72.90625 
L 38.28125 72.90625 
L 38.28125 8.296875 
L 54.390625 8.296875 
L 54.390625 0 
L 12.40625 0 
z
" id="DejaVuSans-49"/>
       </defs>
       <use xlink:href="#DejaVuSans-8722"/>
       <use x="83.789062" xlink:href="#DejaVuSans-49"/>
       <use x="147.412109" xlink:href="#DejaVuSans-50"/>
      </g>
     </g>
    </g>
    <g id="ytick_2">
     <g id="line2d_8">
      <g>
       <use style="stroke:#000000;stroke-width:0.8;" x="162" xlink:href="#m65b41f7a7e" y="555.795934"/>
      </g>
     </g>
     <g id="text_9">
      <!-- −11 -->
      <g transform="translate(133.895312 559.595153)scale(0.1 -0.1)">
       <use xlink:href="#DejaVuSans-8722"/>
       <use x="83.789062" xlink:href="#DejaVuSans-49"/>
       <use x="147.412109" xlink:href="#DejaVuSans-49"/>
      </g>
     </g>
    </g>
    <g id="ytick_3">
     <g id="line2d_9">
      <g>
       <use style="stroke:#000000;stroke-width:0.8;" x="162" xlink:href="#m65b41f7a7e" y="492.22625"/>
      </g>
     </g>
     <g id="text_10">
      <!-- −10 -->
      <g transform="translate(133.895312 496.025469)scale(0.1 -0.1)">
       <use xlink:href="#DejaVuSans-8722"/>
       <use x="83.789062" xlink:href="#DejaVuSans-49"/>
       <use x="147.412109" xlink:href="#DejaVuSans-48"/>
      </g>
     </g>
    </g>
    <g id="ytick_4">
     <g id="line2d_10">
      <g>
       <use style="stroke:#000000;stroke-width:0.8;" x="162" xlink:href="#m65b41f7a7e" y="428.656567"/>
      </g>
     </g>
     <g id="text_11">
      <!-- −9 -->
      <g transform="translate(140.257812 432.455786)scale(0.1 -0.1)">
       <defs>
        <path d="M 10.984375 1.515625 
L 10.984375 10.5 
Q 14.703125 8.734375 18.5 7.8125 
Q 22.3125 6.890625 25.984375 6.890625 
Q 35.75 6.890625 40.890625 13.453125 
Q 46.046875 20.015625 46.78125 33.40625 
Q 43.953125 29.203125 39.59375 26.953125 
Q 35.25 24.703125 29.984375 24.703125 
Q 19.046875 24.703125 12.671875 31.3125 
Q 6.296875 37.9375 6.296875 49.421875 
Q 6.296875 60.640625 12.9375 67.421875 
Q 19.578125 74.21875 30.609375 74.21875 
Q 43.265625 74.21875 49.921875 64.515625 
Q 56.59375 54.828125 56.59375 36.375 
Q 56.59375 19.140625 48.40625 8.859375 
Q 40.234375 -1.421875 26.421875 -1.421875 
Q 22.703125 -1.421875 18.890625 -0.6875 
Q 15.09375 0.046875 10.984375 1.515625 
z
M 30.609375 32.421875 
Q 37.25 32.421875 41.125 36.953125 
Q 45.015625 41.5 45.015625 49.421875 
Q 45.015625 57.28125 41.125 61.84375 
Q 37.25 66.40625 30.609375 66.40625 
Q 23.96875 66.40625 20.09375 61.84375 
Q 16.21875 57.28125 16.21875 49.421875 
Q 16.21875 41.5 20.09375 36.953125 
Q 23.96875 32.421875 30.609375 32.421875 
z
" id="DejaVuSans-57"/>
       </defs>
       <use xlink:href="#DejaVuSans-8722"/>
       <use x="83.789062" xlink:href="#DejaVuSans-57"/>
      </g>
     </g>
    </g>
    <g id="ytick_5">
     <g id="line2d_11">
      <g>
       <use style="stroke:#000000;stroke-width:0.8;" x="162" xlink:href="#m65b41f7a7e" y="365.086883"/>
      </g>
     </g>
     <g id="text_12">
      <!-- −8 -->
      <g transform="translate(140.257812 368.886102)scale(0.1 -0.1)">
       <defs>
        <path d="M 31.78125 34.625 
Q 24.75 34.625 20.71875 30.859375 
Q 16.703125 27.09375 16.703125 20.515625 
Q 16.703125 13.921875 20.71875 10.15625 
Q 24.75 6.390625 31.78125 6.390625 
Q 38.8125 6.390625 42.859375 10.171875 
Q 46.921875 13.96875 46.921875 20.515625 
Q 46.921875 27.09375 42.890625 30.859375 
Q 38.875 34.625 31.78125 34.625 
z
M 21.921875 38.8125 
Q 15.578125 40.375 12.03125 44.71875 
Q 8.5 49.078125 8.5 55.328125 
Q 8.5 64.0625 14.71875 69.140625 
Q 20.953125 74.21875 31.78125 74.21875 
Q 42.671875 74.21875 48.875 69.140625 
Q 55.078125 64.0625 55.078125 55.328125 
Q 55.078125 49.078125 51.53125 44.71875 
Q 48 40.375 41.703125 38.8125 
Q 48.828125 37.15625 52.796875 32.3125 
Q 56.78125 27.484375 56.78125 20.515625 
Q 56.78125 9.90625 50.3125 4.234375 
Q 43.84375 -1.421875 31.78125 -1.421875 
Q 19.734375 -1.421875 13.25 4.234375 
Q 6.78125 9.90625 6.78125 20.515625 
Q 6.78125 27.484375 10.78125 32.3125 
Q 14.796875 37.15625 21.921875 38.8125 
z
M 18.3125 54.390625 
Q 18.3125 48.734375 21.84375 45.5625 
Q 25.390625 42.390625 31.78125 42.390625 
Q 38.140625 42.390625 41.71875 45.5625 
Q 45.3125 48.734375 45.3125 54.390625 
Q 45.3125 60.0625 41.71875 63.234375 
Q 38.140625 66.40625 31.78125 66.40625 
Q 25.390625 66.40625 21.84375 63.234375 
Q 18.3125 60.0625 18.3125 54.390625 
z
" id="DejaVuSans-56"/>
       </defs>
       <use xlink:href="#DejaVuSans-8722"/>
       <use x="83.789062" xlink:href="#DejaVuSans-56"/>
      </g>
     </g>
    </g>
    <g id="ytick_6">
     <g id="line2d_12">
      <g>
       <use style="stroke:#000000;stroke-width:0.8;" x="162" xlink:href="#m65b41f7a7e" y="301.5172"/>
      </g>
     </g>
     <g id="text_13">
      <!-- −7 -->
      <g transform="translate(140.257812 305.316419)scale(0.1 -0.1)">
       <use xlink:href="#DejaVuSans-8722"/>
       <use x="83.789062" xlink:href="#DejaVuSans-55"/>
      </g>
     </g>
    </g>
    <g id="ytick_7">
     <g id="line2d_13">
      <g>
       <use style="stroke:#000000;stroke-width:0.8;" x="162" xlink:href="#m65b41f7a7e" y="237.947516"/>
      </g>
     </g>
     <g id="text_14">
      <!-- −6 -->
      <g transform="translate(140.257812 241.746735)scale(0.1 -0.1)">
       <use xlink:href="#DejaVuSans-8722"/>
       <use x="83.789062" xlink:href="#DejaVuSans-54"/>
      </g>
     </g>
    </g>
    <g id="ytick_8">
     <g id="line2d_14">
      <g>
       <use style="stroke:#000000;stroke-width:0.8;" x="162" xlink:href="#m65b41f7a7e" y="174.377833"/>
      </g>
     </g>
     <g id="text_15">
      <!-- −5 -->
      <g transform="translate(140.257812 178.177052)scale(0.1 -0.1)">
       <use xlink:href="#DejaVuSans-8722"/>
       <use x="83.789062" xlink:href="#DejaVuSans-53"/>
      </g>
     </g>
    </g>
    <g id="ytick_9">
     <g id="line2d_15">
      <g>
       <use style="stroke:#000000;stroke-width:0.8;" x="162" xlink:href="#m65b41f7a7e" y="110.80815"/>
      </g>
     </g>
     <g id="text_16">
      <!-- −4 -->
      <g transform="translate(140.257812 114.607368)scale(0.1 -0.1)">
       <defs>
        <path d="M 37.796875 64.3125 
L 12.890625 25.390625 
L 37.796875 25.390625 
z
M 35.203125 72.90625 
L 47.609375 72.90625 
L 47.609375 25.390625 
L 58.015625 25.390625 
L 58.015625 17.1875 
L 47.609375 17.1875 
L 47.609375 0 
L 37.796875 0 
L 37.796875 17.1875 
L 4.890625 17.1875 
L 4.890625 26.703125 
z
" id="DejaVuSans-52"/>
       </defs>
       <use xlink:href="#DejaVuSans-8722"/>
       <use x="83.789062" xlink:href="#DejaVuSans-52"/>
      </g>
     </g>
    </g>
    <g id="text_17">
     <!-- y -->
     <g transform="translate(127.815625 361.159375)rotate(-90)scale(0.1 -0.1)">
      <defs>
       <path d="M 32.171875 -5.078125 
Q 28.375 -14.84375 24.75 -17.8125 
Q 21.140625 -20.796875 15.09375 -20.796875 
L 7.90625 -20.796875 
L 7.90625 -13.28125 
L 13.1875 -13.28125 
Q 16.890625 -13.28125 18.9375 -11.515625 
Q 21 -9.765625 23.484375 -3.21875 
L 25.09375 0.875 
L 2.984375 54.6875 
L 12.5 54.6875 
L 29.59375 11.921875 
L 46.6875 54.6875 
L 56.203125 54.6875 
z
" id="DejaVuSans-121"/>
      </defs>
      <use xlink:href="#DejaVuSans-121"/>
     </g>
    </g>
   </g>
   <g id="patch_3">
    <path d="M 162 630 
L 162 86.4 
" style="fill:none;stroke:#000000;stroke-linecap:square;stroke-linejoin:miter;stroke-width:0.8;"/>
   </g>
   <g id="patch_4">
    <path d="M 1166.4 630 
L 1166.4 86.4 
" style="fill:none;stroke:#000000;stroke-linecap:square;stroke-linejoin:miter;stroke-width:0.8;"/>
   </g>
   <g id="patch_5">
    <path d="M 162 630 
L 1166.4 630 
" style="fill:none;stroke:#000000;stroke-linecap:square;stroke-linejoin:miter;stroke-width:0.8;"/>
   </g>
   <g id="patch_6">
    <path d="M 162 86.4 
L 1166.4 86.4 
" style="fill:none;stroke:#000000;stroke-linecap:square;stroke-linejoin:miter;stroke-width:0.8;"/>
   </g>
   <g id="text_18">
    <!-- degree -->
    <g transform="translate(826.799732 156.492562)scale(0.11 -0.11)">
     <defs>
      <path d="M 45.40625 46.390625 
L 45.40625 75.984375 
L 54.390625 75.984375 
L 54.390625 0 
L 45.40625 0 
L 45.40625 8.203125 
Q 42.578125 3.328125 38.25 0.953125 
Q 33.9375 -1.421875 27.875 -1.421875 
Q 17.96875 -1.421875 11.734375 6.484375 
Q 5.515625 14.40625 5.515625 27.296875 
Q 5.515625 40.1875 11.734375 48.09375 
Q 17.96875 56 27.875 56 
Q 33.9375 56 38.25 53.625 
Q 42.578125 51.265625 45.40625 46.390625 
z
M 14.796875 27.296875 
Q 14.796875 17.390625 18.875 11.75 
Q 22.953125 6.109375 30.078125 6.109375 
Q 37.203125 6.109375 41.296875 11.75 
Q 45.40625 17.390625 45.40625 27.296875 
Q 45.40625 37.203125 41.296875 42.84375 
Q 37.203125 48.484375 30.078125 48.484375 
Q 22.953125 48.484375 18.875 42.84375 
Q 14.796875 37.203125 14.796875 27.296875 
z
" id="DejaVuSans-100"/>
      <path d="M 56.203125 29.59375 
L 56.203125 25.203125 
L 14.890625 25.203125 
Q 15.484375 15.921875 20.484375 11.0625 
Q 25.484375 6.203125 34.421875 6.203125 
Q 39.59375 6.203125 44.453125 7.46875 
Q 49.3125 8.734375 54.109375 11.28125 
L 54.109375 2.78125 
Q 49.265625 0.734375 44.1875 -0.34375 
Q 39.109375 -1.421875 33.890625 -1.421875 
Q 20.796875 -1.421875 13.15625 6.1875 
Q 5.515625 13.8125 5.515625 26.8125 
Q 5.515625 40.234375 12.765625 48.109375 
Q 20.015625 56 32.328125 56 
Q 43.359375 56 49.78125 48.890625 
Q 56.203125 41.796875 56.203125 29.59375 
z
M 47.21875 32.234375 
Q 47.125 39.59375 43.09375 43.984375 
Q 39.0625 48.390625 32.421875 48.390625 
Q 24.90625 48.390625 20.390625 44.140625 
Q 15.875 39.890625 15.1875 32.171875 
z
" id="DejaVuSans-101"/>
      <path d="M 45.40625 27.984375 
Q 45.40625 37.75 41.375 43.109375 
Q 37.359375 48.484375 30.078125 48.484375 
Q 22.859375 48.484375 18.828125 43.109375 
Q 14.796875 37.75 14.796875 27.984375 
Q 14.796875 18.265625 18.828125 12.890625 
Q 22.859375 7.515625 30.078125 7.515625 
Q 37.359375 7.515625 41.375 12.890625 
Q 45.40625 18.265625 45.40625 27.984375 
z
M 54.390625 6.78125 
Q 54.390625 -7.171875 48.1875 -13.984375 
Q 42 -20.796875 29.203125 -20.796875 
Q 24.46875 -20.796875 20.265625 -20.09375 
Q 16.0625 -19.390625 12.109375 -17.921875 
L 12.109375 -9.1875 
Q 16.0625 -11.328125 19.921875 -12.34375 
Q 23.78125 -13.375 27.78125 -13.375 
Q 36.625 -13.375 41.015625 -8.765625 
Q 45.40625 -4.15625 45.40625 5.171875 
L 45.40625 9.625 
Q 42.625 4.78125 38.28125 2.390625 
Q 33.9375 0 27.875 0 
Q 17.828125 0 11.671875 7.65625 
Q 5.515625 15.328125 5.515625 27.984375 
Q 5.515625 40.671875 11.671875 48.328125 
Q 17.828125 56 27.875 56 
Q 33.9375 56 38.28125 53.609375 
Q 42.625 51.21875 45.40625 46.390625 
L 45.40625 54.6875 
L 54.390625 54.6875 
z
" id="DejaVuSans-103"/>
      <path d="M 41.109375 46.296875 
Q 39.59375 47.171875 37.8125 47.578125 
Q 36.03125 48 33.890625 48 
Q 26.265625 48 22.1875 43.046875 
Q 18.109375 38.09375 18.109375 28.8125 
L 18.109375 0 
L 9.078125 0 
L 9.078125 54.6875 
L 18.109375 54.6875 
L 18.109375 46.1875 
Q 20.953125 51.171875 25.484375 53.578125 
Q 30.03125 56 36.53125 56 
Q 37.453125 56 38.578125 55.875 
Q 39.703125 55.765625 41.0625 55.515625 
z
" id="DejaVuSans-114"/>
     </defs>
     <use xlink:href="#DejaVuSans-100"/>
     <use x="63.476562" xlink:href="#DejaVuSans-101"/>
     <use x="125" xlink:href="#DejaVuSans-103"/>
     <use x="188.476562" xlink:href="#DejaVuSans-114"/>
     <use x="227.339844" xlink:href="#DejaVuSans-101"/>
     <use x="288.863281" xlink:href="#DejaVuSans-101"/>
    </g>
   </g>
   <g id="text_19">
    <!-- elements -->
    <g transform="translate(769.65966 110.791242)scale(0.11 -0.11)">
     <defs>
      <path d="M 9.421875 75.984375 
L 18.40625 75.984375 
L 18.40625 0 
L 9.421875 0 
z
" id="DejaVuSans-108"/>
      <path d="M 52 44.1875 
Q 55.375 50.25 60.0625 53.125 
Q 64.75 56 71.09375 56 
Q 79.640625 56 84.28125 50.015625 
Q 88.921875 44.046875 88.921875 33.015625 
L 88.921875 0 
L 79.890625 0 
L 79.890625 32.71875 
Q 79.890625 40.578125 77.09375 44.375 
Q 74.3125 48.1875 68.609375 48.1875 
Q 61.625 48.1875 57.5625 43.546875 
Q 53.515625 38.921875 53.515625 30.90625 
L 53.515625 0 
L 44.484375 0 
L 44.484375 32.71875 
Q 44.484375 40.625 41.703125 44.40625 
Q 38.921875 48.1875 33.109375 48.1875 
Q 26.21875 48.1875 22.15625 43.53125 
Q 18.109375 38.875 18.109375 30.90625 
L 18.109375 0 
L 9.078125 0 
L 9.078125 54.6875 
L 18.109375 54.6875 
L 18.109375 46.1875 
Q 21.1875 51.21875 25.484375 53.609375 
Q 29.78125 56 35.6875 56 
Q 41.65625 56 45.828125 52.96875 
Q 50 49.953125 52 44.1875 
z
" id="DejaVuSans-109"/>
      <path d="M 54.890625 33.015625 
L 54.890625 0 
L 45.90625 0 
L 45.90625 32.71875 
Q 45.90625 40.484375 42.875 44.328125 
Q 39.84375 48.1875 33.796875 48.1875 
Q 26.515625 48.1875 22.3125 43.546875 
Q 18.109375 38.921875 18.109375 30.90625 
L 18.109375 0 
L 9.078125 0 
L 9.078125 54.6875 
L 18.109375 54.6875 
L 18.109375 46.1875 
Q 21.34375 51.125 25.703125 53.5625 
Q 30.078125 56 35.796875 56 
Q 45.21875 56 50.046875 50.171875 
Q 54.890625 44.34375 54.890625 33.015625 
z
" id="DejaVuSans-110"/>
      <path d="M 18.3125 70.21875 
L 18.3125 54.6875 
L 36.8125 54.6875 
L 36.8125 47.703125 
L 18.3125 47.703125 
L 18.3125 18.015625 
Q 18.3125 11.328125 20.140625 9.421875 
Q 21.96875 7.515625 27.59375 7.515625 
L 36.8125 7.515625 
L 36.8125 0 
L 27.59375 0 
Q 17.1875 0 13.234375 3.875 
Q 9.28125 7.765625 9.28125 18.015625 
L 9.28125 47.703125 
L 2.6875 47.703125 
L 2.6875 54.6875 
L 9.28125 54.6875 
L 9.28125 70.21875 
z
" id="DejaVuSans-116"/>
      <path d="M 44.28125 53.078125 
L 44.28125 44.578125 
Q 40.484375 46.53125 36.375 47.5 
Q 32.28125 48.484375 27.875 48.484375 
Q 21.1875 48.484375 17.84375 46.4375 
Q 14.5 44.390625 14.5 40.28125 
Q 14.5 37.15625 16.890625 35.375 
Q 19.28125 33.59375 26.515625 31.984375 
L 29.59375 31.296875 
Q 39.15625 29.25 43.1875 25.515625 
Q 47.21875 21.78125 47.21875 15.09375 
Q 47.21875 7.46875 41.1875 3.015625 
Q 35.15625 -1.421875 24.609375 -1.421875 
Q 20.21875 -1.421875 15.453125 -0.5625 
Q 10.6875 0.296875 5.421875 2 
L 5.421875 11.28125 
Q 10.40625 8.6875 15.234375 7.390625 
Q 20.0625 6.109375 24.8125 6.109375 
Q 31.15625 6.109375 34.5625 8.28125 
Q 37.984375 10.453125 37.984375 14.40625 
Q 37.984375 18.0625 35.515625 20.015625 
Q 33.0625 21.96875 24.703125 23.78125 
L 21.578125 24.515625 
Q 13.234375 26.265625 9.515625 29.90625 
Q 5.8125 33.546875 5.8125 39.890625 
Q 5.8125 47.609375 11.28125 51.796875 
Q 16.75 56 26.8125 56 
Q 31.78125 56 36.171875 55.265625 
Q 40.578125 54.546875 44.28125 53.078125 
z
" id="DejaVuSans-115"/>
     </defs>
     <use xlink:href="#DejaVuSans-101"/>
     <use x="61.523438" xlink:href="#DejaVuSans-108"/>
     <use x="89.306641" xlink:href="#DejaVuSans-101"/>
     <use x="150.830078" xlink:href="#DejaVuSans-109"/>
     <use x="248.242188" xlink:href="#DejaVuSans-101"/>
     <use x="309.765625" xlink:href="#DejaVuSans-110"/>
     <use x="373.144531" xlink:href="#DejaVuSans-116"/>
     <use x="412.353516" xlink:href="#DejaVuSans-115"/>
    </g>
   </g>
   <g id="text_20">
    <!-- reinforcement -->
    <g transform="translate(528.252757 272.013827)scale(0.11 -0.11)">
     <defs>
      <path d="M 9.421875 54.6875 
L 18.40625 54.6875 
L 18.40625 0 
L 9.421875 0 
z
M 9.421875 75.984375 
L 18.40625 75.984375 
L 18.40625 64.59375 
L 9.421875 64.59375 
z
" id="DejaVuSans-105"/>
      <path d="M 37.109375 75.984375 
L 37.109375 68.5 
L 28.515625 68.5 
Q 23.6875 68.5 21.796875 66.546875 
Q 19.921875 64.59375 19.921875 59.515625 
L 19.921875 54.6875 
L 34.71875 54.6875 
L 34.71875 47.703125 
L 19.921875 47.703125 
L 19.921875 0 
L 10.890625 0 
L 10.890625 47.703125 
L 2.296875 47.703125 
L 2.296875 54.6875 
L 10.890625 54.6875 
L 10.890625 58.5 
Q 10.890625 67.625 15.140625 71.796875 
Q 19.390625 75.984375 28.609375 75.984375 
z
" id="DejaVuSans-102"/>
      <path d="M 30.609375 48.390625 
Q 23.390625 48.390625 19.1875 42.75 
Q 14.984375 37.109375 14.984375 27.296875 
Q 14.984375 17.484375 19.15625 11.84375 
Q 23.34375 6.203125 30.609375 6.203125 
Q 37.796875 6.203125 41.984375 11.859375 
Q 46.1875 17.53125 46.1875 27.296875 
Q 46.1875 37.015625 41.984375 42.703125 
Q 37.796875 48.390625 30.609375 48.390625 
z
M 30.609375 56 
Q 42.328125 56 49.015625 48.375 
Q 55.71875 40.765625 55.71875 27.296875 
Q 55.71875 13.875 49.015625 6.21875 
Q 42.328125 -1.421875 30.609375 -1.421875 
Q 18.84375 -1.421875 12.171875 6.21875 
Q 5.515625 13.875 5.515625 27.296875 
Q 5.515625 40.765625 12.171875 48.375 
Q 18.84375 56 30.609375 56 
z
" id="DejaVuSans-111"/>
      <path d="M 48.78125 52.59375 
L 48.78125 44.1875 
Q 44.96875 46.296875 41.140625 47.34375 
Q 37.3125 48.390625 33.40625 48.390625 
Q 24.65625 48.390625 19.8125 42.84375 
Q 14.984375 37.3125 14.984375 27.296875 
Q 14.984375 17.28125 19.8125 11.734375 
Q 24.65625 6.203125 33.40625 6.203125 
Q 37.3125 6.203125 41.140625 7.25 
Q 44.96875 8.296875 48.78125 10.40625 
L 48.78125 2.09375 
Q 45.015625 0.34375 40.984375 -0.53125 
Q 36.96875 -1.421875 32.421875 -1.421875 
Q 20.0625 -1.421875 12.78125 6.34375 
Q 5.515625 14.109375 5.515625 27.296875 
Q 5.515625 40.671875 12.859375 48.328125 
Q 20.21875 56 33.015625 56 
Q 37.15625 56 41.109375 55.140625 
Q 45.0625 54.296875 48.78125 52.59375 
z
" id="DejaVuSans-99"/>
     </defs>
     <use xlink:href="#DejaVuSans-114"/>
     <use x="38.863281" xlink:href="#DejaVuSans-101"/>
     <use x="100.386719" xlink:href="#DejaVuSans-105"/>
     <use x="128.169922" xlink:href="#DejaVuSans-110"/>
     <use x="191.548828" xlink:href="#DejaVuSans-102"/>
     <use x="226.753906" xlink:href="#DejaVuSans-111"/>
     <use x="287.935547" xlink:href="#DejaVuSans-114"/>
     <use x="326.798828" xlink:href="#DejaVuSans-99"/>
     <use x="381.779297" xlink:href="#DejaVuSans-101"/>
     <use x="443.302734" xlink:href="#DejaVuSans-109"/>
     <use x="540.714844" xlink:href="#DejaVuSans-101"/>
     <use x="602.238281" xlink:href="#DejaVuSans-110"/>
     <use x="665.617188" xlink:href="#DejaVuSans-116"/>
    </g>
   </g>
   <g id="text_21">
    <!-- muscles -->
    <g transform="translate(935.041968 241.915597)scale(0.11 -0.11)">
     <defs>
      <path d="M 8.5 21.578125 
L 8.5 54.6875 
L 17.484375 54.6875 
L 17.484375 21.921875 
Q 17.484375 14.15625 20.5 10.265625 
Q 23.53125 6.390625 29.59375 6.390625 
Q 36.859375 6.390625 41.078125 11.03125 
Q 45.3125 15.671875 45.3125 23.6875 
L 45.3125 54.6875 
L 54.296875 54.6875 
L 54.296875 0 
L 45.3125 0 
L 45.3125 8.40625 
Q 42.046875 3.421875 37.71875 1 
Q 33.40625 -1.421875 27.6875 -1.421875 
Q 18.265625 -1.421875 13.375 4.4375 
Q 8.5 10.296875 8.5 21.578125 
z
M 31.109375 56 
z
" id="DejaVuSans-117"/>
     </defs>
     <use xlink:href="#DejaVuSans-109"/>
     <use x="97.412109" xlink:href="#DejaVuSans-117"/>
     <use x="160.791016" xlink:href="#DejaVuSans-115"/>
     <use x="212.890625" xlink:href="#DejaVuSans-99"/>
     <use x="267.871094" xlink:href="#DejaVuSans-108"/>
     <use x="295.654297" xlink:href="#DejaVuSans-101"/>
     <use x="357.177734" xlink:href="#DejaVuSans-115"/>
    </g>
   </g>
   <g id="text_22">
    <!-- position -->
    <g transform="translate(753.359329 550.102547)scale(0.11 -0.11)">
     <defs>
      <path d="M 18.109375 8.203125 
L 18.109375 -20.796875 
L 9.078125 -20.796875 
L 9.078125 54.6875 
L 18.109375 54.6875 
L 18.109375 46.390625 
Q 20.953125 51.265625 25.265625 53.625 
Q 29.59375 56 35.59375 56 
Q 45.5625 56 51.78125 48.09375 
Q 58.015625 40.1875 58.015625 27.296875 
Q 58.015625 14.40625 51.78125 6.484375 
Q 45.5625 -1.421875 35.59375 -1.421875 
Q 29.59375 -1.421875 25.265625 0.953125 
Q 20.953125 3.328125 18.109375 8.203125 
z
M 48.6875 27.296875 
Q 48.6875 37.203125 44.609375 42.84375 
Q 40.53125 48.484375 33.40625 48.484375 
Q 26.265625 48.484375 22.1875 42.84375 
Q 18.109375 37.203125 18.109375 27.296875 
Q 18.109375 17.390625 22.1875 11.75 
Q 26.265625 6.109375 33.40625 6.109375 
Q 40.53125 6.109375 44.609375 11.75 
Q 48.6875 17.390625 48.6875 27.296875 
z
" id="DejaVuSans-112"/>
     </defs>
     <use xlink:href="#DejaVuSans-112"/>
     <use x="63.476562" xlink:href="#DejaVuSans-111"/>
     <use x="124.658203" xlink:href="#DejaVuSans-115"/>
     <use x="176.757812" xlink:href="#DejaVuSans-105"/>
     <use x="204.541016" xlink:href="#DejaVuSans-116"/>
     <use x="243.75" xlink:href="#DejaVuSans-105"/>
     <use x="271.533203" xlink:href="#DejaVuSans-111"/>
     <use x="332.714844" xlink:href="#DejaVuSans-110"/>
    </g>
   </g>
   <g id="text_23">
    <!-- responses -->
    <g transform="translate(1037.423532 208.06339)scale(0.11 -0.11)">
     <use xlink:href="#DejaVuSans-114"/>
     <use x="38.863281" xlink:href="#DejaVuSans-101"/>
     <use x="100.386719" xlink:href="#DejaVuSans-115"/>
     <use x="152.486328" xlink:href="#DejaVuSans-112"/>
     <use x="215.962891" xlink:href="#DejaVuSans-111"/>
     <use x="277.144531" xlink:href="#DejaVuSans-110"/>
     <use x="340.523438" xlink:href="#DejaVuSans-115"/>
     <use x="392.623047" xlink:href="#DejaVuSans-101"/>
     <use x="454.146484" xlink:href="#DejaVuSans-115"/>
    </g>
   </g>
   <g id="text_24">
    <!-- interact -->
    <g transform="translate(795.807871 237.60369)scale(0.11 -0.11)">
     <defs>
      <path d="M 34.28125 27.484375 
Q 23.390625 27.484375 19.1875 25 
Q 14.984375 22.515625 14.984375 16.5 
Q 14.984375 11.71875 18.140625 8.90625 
Q 21.296875 6.109375 26.703125 6.109375 
Q 34.1875 6.109375 38.703125 11.40625 
Q 43.21875 16.703125 43.21875 25.484375 
L 43.21875 27.484375 
z
M 52.203125 31.203125 
L 52.203125 0 
L 43.21875 0 
L 43.21875 8.296875 
Q 40.140625 3.328125 35.546875 0.953125 
Q 30.953125 -1.421875 24.3125 -1.421875 
Q 15.921875 -1.421875 10.953125 3.296875 
Q 6 8.015625 6 15.921875 
Q 6 25.140625 12.171875 29.828125 
Q 18.359375 34.515625 30.609375 34.515625 
L 43.21875 34.515625 
L 43.21875 35.40625 
Q 43.21875 41.609375 39.140625 45 
Q 35.0625 48.390625 27.6875 48.390625 
Q 23 48.390625 18.546875 47.265625 
Q 14.109375 46.140625 10.015625 43.890625 
L 10.015625 52.203125 
Q 14.9375 54.109375 19.578125 55.046875 
Q 24.21875 56 28.609375 56 
Q 40.484375 56 46.34375 49.84375 
Q 52.203125 43.703125 52.203125 31.203125 
z
" id="DejaVuSans-97"/>
     </defs>
     <use xlink:href="#DejaVuSans-105"/>
     <use x="27.783203" xlink:href="#DejaVuSans-110"/>
     <use x="91.162109" xlink:href="#DejaVuSans-116"/>
     <use x="130.371094" xlink:href="#DejaVuSans-101"/>
     <use x="191.894531" xlink:href="#DejaVuSans-114"/>
     <use x="233.007812" xlink:href="#DejaVuSans-97"/>
     <use x="294.287109" xlink:href="#DejaVuSans-99"/>
     <use x="349.267578" xlink:href="#DejaVuSans-116"/>
    </g>
   </g>
   <g id="text_25">
    <!-- categorization -->
    <g transform="translate(1024.867751 506.709698)scale(0.11 -0.11)">
     <defs>
      <path d="M 5.515625 54.6875 
L 48.1875 54.6875 
L 48.1875 46.484375 
L 14.40625 7.171875 
L 48.1875 7.171875 
L 48.1875 0 
L 4.296875 0 
L 4.296875 8.203125 
L 38.09375 47.515625 
L 5.515625 47.515625 
z
" id="DejaVuSans-122"/>
     </defs>
     <use xlink:href="#DejaVuSans-99"/>
     <use x="54.980469" xlink:href="#DejaVuSans-97"/>
     <use x="116.259766" xlink:href="#DejaVuSans-116"/>
     <use x="155.46875" xlink:href="#DejaVuSans-101"/>
     <use x="216.992188" xlink:href="#DejaVuSans-103"/>
     <use x="280.46875" xlink:href="#DejaVuSans-111"/>
     <use x="341.650391" xlink:href="#DejaVuSans-114"/>
     <use x="382.763672" xlink:href="#DejaVuSans-105"/>
     <use x="410.546875" xlink:href="#DejaVuSans-122"/>
     <use x="463.037109" xlink:href="#DejaVuSans-97"/>
     <use x="524.316406" xlink:href="#DejaVuSans-116"/>
     <use x="563.525391" xlink:href="#DejaVuSans-105"/>
     <use x="591.308594" xlink:href="#DejaVuSans-111"/>
     <use x="652.490234" xlink:href="#DejaVuSans-110"/>
    </g>
   </g>
   <g id="text_26">
    <!-- idea -->
    <g transform="translate(835.037028 215.093045)scale(0.11 -0.11)">
     <use xlink:href="#DejaVuSans-105"/>
     <use x="27.783203" xlink:href="#DejaVuSans-100"/>
     <use x="91.259766" xlink:href="#DejaVuSans-101"/>
     <use x="152.783203" xlink:href="#DejaVuSans-97"/>
    </g>
   </g>
   <g id="text_27">
    <!-- end -->
    <g transform="translate(636.900613 374.433109)scale(0.11 -0.11)">
     <use xlink:href="#DejaVuSans-101"/>
     <use x="61.523438" xlink:href="#DejaVuSans-110"/>
     <use x="124.902344" xlink:href="#DejaVuSans-100"/>
    </g>
   </g>
   <g id="text_28">
    <!-- subsystems -->
    <g transform="translate(209.213649 600.647544)scale(0.11 -0.11)">
     <defs>
      <path d="M 48.6875 27.296875 
Q 48.6875 37.203125 44.609375 42.84375 
Q 40.53125 48.484375 33.40625 48.484375 
Q 26.265625 48.484375 22.1875 42.84375 
Q 18.109375 37.203125 18.109375 27.296875 
Q 18.109375 17.390625 22.1875 11.75 
Q 26.265625 6.109375 33.40625 6.109375 
Q 40.53125 6.109375 44.609375 11.75 
Q 48.6875 17.390625 48.6875 27.296875 
z
M 18.109375 46.390625 
Q 20.953125 51.265625 25.265625 53.625 
Q 29.59375 56 35.59375 56 
Q 45.5625 56 51.78125 48.09375 
Q 58.015625 40.1875 58.015625 27.296875 
Q 58.015625 14.40625 51.78125 6.484375 
Q 45.5625 -1.421875 35.59375 -1.421875 
Q 29.59375 -1.421875 25.265625 0.953125 
Q 20.953125 3.328125 18.109375 8.203125 
L 18.109375 0 
L 9.078125 0 
L 9.078125 75.984375 
L 18.109375 75.984375 
z
" id="DejaVuSans-98"/>
     </defs>
     <use xlink:href="#DejaVuSans-115"/>
     <use x="52.099609" xlink:href="#DejaVuSans-117"/>
     <use x="115.478516" xlink:href="#DejaVuSans-98"/>
     <use x="178.955078" xlink:href="#DejaVuSans-115"/>
     <use x="231.054688" xlink:href="#DejaVuSans-121"/>
     <use x="290.234375" xlink:href="#DejaVuSans-115"/>
     <use x="342.333984" xlink:href="#DejaVuSans-116"/>
     <use x="381.542969" xlink:href="#DejaVuSans-101"/>
     <use x="443.066406" xlink:href="#DejaVuSans-109"/>
     <use x="540.478516" xlink:href="#DejaVuSans-115"/>
    </g>
   </g>
   <g id="text_29">
    <!-- agents -->
    <g transform="translate(1068.766295 369.740752)scale(0.11 -0.11)">
     <use xlink:href="#DejaVuSans-97"/>
     <use x="61.279297" xlink:href="#DejaVuSans-103"/>
     <use x="124.755859" xlink:href="#DejaVuSans-101"/>
     <use x="186.279297" xlink:href="#DejaVuSans-110"/>
     <use x="249.658203" xlink:href="#DejaVuSans-116"/>
     <use x="288.867188" xlink:href="#DejaVuSans-115"/>
    </g>
   </g>
   <g id="text_30">
    <!-- controlling -->
    <g transform="translate(585.147197 464.838713)scale(0.11 -0.11)">
     <use xlink:href="#DejaVuSans-99"/>
     <use x="54.980469" xlink:href="#DejaVuSans-111"/>
     <use x="116.162109" xlink:href="#DejaVuSans-110"/>
     <use x="179.541016" xlink:href="#DejaVuSans-116"/>
     <use x="218.75" xlink:href="#DejaVuSans-114"/>
     <use x="257.613281" xlink:href="#DejaVuSans-111"/>
     <use x="318.794922" xlink:href="#DejaVuSans-108"/>
     <use x="346.578125" xlink:href="#DejaVuSans-108"/>
     <use x="374.361328" xlink:href="#DejaVuSans-105"/>
     <use x="402.144531" xlink:href="#DejaVuSans-110"/>
     <use x="465.523438" xlink:href="#DejaVuSans-103"/>
    </g>
   </g>
   <g id="text_31">
    <!-- trajectory -->
    <g transform="translate(1109.231939 218.91671)scale(0.11 -0.11)">
     <defs>
      <path d="M 9.421875 54.6875 
L 18.40625 54.6875 
L 18.40625 -0.984375 
Q 18.40625 -11.421875 14.421875 -16.109375 
Q 10.453125 -20.796875 1.609375 -20.796875 
L -1.8125 -20.796875 
L -1.8125 -13.1875 
L 0.59375 -13.1875 
Q 5.71875 -13.1875 7.5625 -10.8125 
Q 9.421875 -8.453125 9.421875 -0.984375 
z
M 9.421875 75.984375 
L 18.40625 75.984375 
L 18.40625 64.59375 
L 9.421875 64.59375 
z
" id="DejaVuSans-106"/>
     </defs>
     <use xlink:href="#DejaVuSans-116"/>
     <use x="39.208984" xlink:href="#DejaVuSans-114"/>
     <use x="80.322266" xlink:href="#DejaVuSans-97"/>
     <use x="141.601562" xlink:href="#DejaVuSans-106"/>
     <use x="169.384766" xlink:href="#DejaVuSans-101"/>
     <use x="230.908203" xlink:href="#DejaVuSans-99"/>
     <use x="285.888672" xlink:href="#DejaVuSans-116"/>
     <use x="325.097656" xlink:href="#DejaVuSans-111"/>
     <use x="386.279297" xlink:href="#DejaVuSans-114"/>
     <use x="427.392578" xlink:href="#DejaVuSans-121"/>
    </g>
   </g>
   <g id="text_32">
    <!-- initial -->
    <g transform="translate(1043.34249 251.127198)scale(0.11 -0.11)">
     <use xlink:href="#DejaVuSans-105"/>
     <use x="27.783203" xlink:href="#DejaVuSans-110"/>
     <use x="91.162109" xlink:href="#DejaVuSans-105"/>
     <use x="118.945312" xlink:href="#DejaVuSans-116"/>
     <use x="158.154297" xlink:href="#DejaVuSans-105"/>
     <use x="185.9375" xlink:href="#DejaVuSans-97"/>
     <use x="247.216797" xlink:href="#DejaVuSans-108"/>
    </g>
   </g>
   <g id="text_33">
    <!-- efficiency -->
    <g transform="translate(653.166448 334.25701)scale(0.11 -0.11)">
     <use xlink:href="#DejaVuSans-101"/>
     <use x="61.523438" xlink:href="#DejaVuSans-102"/>
     <use x="96.728516" xlink:href="#DejaVuSans-102"/>
     <use x="131.933594" xlink:href="#DejaVuSans-105"/>
     <use x="159.716797" xlink:href="#DejaVuSans-99"/>
     <use x="214.697266" xlink:href="#DejaVuSans-105"/>
     <use x="242.480469" xlink:href="#DejaVuSans-101"/>
     <use x="304.003906" xlink:href="#DejaVuSans-110"/>
     <use x="367.382812" xlink:href="#DejaVuSans-99"/>
     <use x="422.363281" xlink:href="#DejaVuSans-121"/>
    </g>
   </g>
   <g id="text_34">
    <!-- provided -->
    <g transform="translate(731.986965 430.825001)scale(0.11 -0.11)">
     <defs>
      <path d="M 2.984375 54.6875 
L 12.5 54.6875 
L 29.59375 8.796875 
L 46.6875 54.6875 
L 56.203125 54.6875 
L 35.6875 0 
L 23.484375 0 
z
" id="DejaVuSans-118"/>
     </defs>
     <use xlink:href="#DejaVuSans-112"/>
     <use x="63.476562" xlink:href="#DejaVuSans-114"/>
     <use x="102.339844" xlink:href="#DejaVuSans-111"/>
     <use x="163.521484" xlink:href="#DejaVuSans-118"/>
     <use x="222.701172" xlink:href="#DejaVuSans-105"/>
     <use x="250.484375" xlink:href="#DejaVuSans-100"/>
     <use x="313.960938" xlink:href="#DejaVuSans-101"/>
     <use x="375.484375" xlink:href="#DejaVuSans-100"/>
    </g>
   </g>
   <g id="text_35">
    <!-- moreover -->
    <g transform="translate(1065.787189 331.204796)scale(0.11 -0.11)">
     <use xlink:href="#DejaVuSans-109"/>
     <use x="97.412109" xlink:href="#DejaVuSans-111"/>
     <use x="158.59375" xlink:href="#DejaVuSans-114"/>
     <use x="197.457031" xlink:href="#DejaVuSans-101"/>
     <use x="258.980469" xlink:href="#DejaVuSans-111"/>
     <use x="320.162109" xlink:href="#DejaVuSans-118"/>
     <use x="379.341797" xlink:href="#DejaVuSans-101"/>
     <use x="440.865234" xlink:href="#DejaVuSans-114"/>
    </g>
   </g>
   <g id="text_36">
    <!-- communication -->
    <g transform="translate(834.210325 471.47852)scale(0.11 -0.11)">
     <use xlink:href="#DejaVuSans-99"/>
     <use x="54.980469" xlink:href="#DejaVuSans-111"/>
     <use x="116.162109" xlink:href="#DejaVuSans-109"/>
     <use x="213.574219" xlink:href="#DejaVuSans-109"/>
     <use x="310.986328" xlink:href="#DejaVuSans-117"/>
     <use x="374.365234" xlink:href="#DejaVuSans-110"/>
     <use x="437.744141" xlink:href="#DejaVuSans-105"/>
     <use x="465.527344" xlink:href="#DejaVuSans-99"/>
     <use x="520.507812" xlink:href="#DejaVuSans-97"/>
     <use x="581.787109" xlink:href="#DejaVuSans-116"/>
     <use x="620.996094" xlink:href="#DejaVuSans-105"/>
     <use x="648.779297" xlink:href="#DejaVuSans-111"/>
     <use x="709.960938" xlink:href="#DejaVuSans-110"/>
    </g>
   </g>
   <g id="text_37">
    <!-- unexpected -->
    <g transform="translate(494.240752 507.147955)scale(0.11 -0.11)">
     <use xlink:href="#DejaVuSans-117"/>
     <use x="63.378906" xlink:href="#DejaVuSans-110"/>
     <use x="126.757812" xlink:href="#DejaVuSans-101"/>
     <use x="186.53125" xlink:href="#DejaVuSans-120"/>
     <use x="245.710938" xlink:href="#DejaVuSans-112"/>
     <use x="309.1875" xlink:href="#DejaVuSans-101"/>
     <use x="370.710938" xlink:href="#DejaVuSans-99"/>
     <use x="425.691406" xlink:href="#DejaVuSans-116"/>
     <use x="464.900391" xlink:href="#DejaVuSans-101"/>
     <use x="526.423828" xlink:href="#DejaVuSans-100"/>
    </g>
   </g>
   <g id="text_38">
    <!-- environmental -->
    <g transform="translate(422.14627 336.475119)scale(0.11 -0.11)">
     <use xlink:href="#DejaVuSans-101"/>
     <use x="61.523438" xlink:href="#DejaVuSans-110"/>
     <use x="124.902344" xlink:href="#DejaVuSans-118"/>
     <use x="184.082031" xlink:href="#DejaVuSans-105"/>
     <use x="211.865234" xlink:href="#DejaVuSans-114"/>
     <use x="250.728516" xlink:href="#DejaVuSans-111"/>
     <use x="311.910156" xlink:href="#DejaVuSans-110"/>
     <use x="375.289062" xlink:href="#DejaVuSans-109"/>
     <use x="472.701172" xlink:href="#DejaVuSans-101"/>
     <use x="534.224609" xlink:href="#DejaVuSans-110"/>
     <use x="597.603516" xlink:href="#DejaVuSans-116"/>
     <use x="636.8125" xlink:href="#DejaVuSans-97"/>
     <use x="698.091797" xlink:href="#DejaVuSans-108"/>
    </g>
   </g>
   <g id="text_39">
    <!-- integrate -->
    <g transform="translate(910.280715 340.762503)scale(0.11 -0.11)">
     <use xlink:href="#DejaVuSans-105"/>
     <use x="27.783203" xlink:href="#DejaVuSans-110"/>
     <use x="91.162109" xlink:href="#DejaVuSans-116"/>
     <use x="130.371094" xlink:href="#DejaVuSans-101"/>
     <use x="191.894531" xlink:href="#DejaVuSans-103"/>
     <use x="255.371094" xlink:href="#DejaVuSans-114"/>
     <use x="296.484375" xlink:href="#DejaVuSans-97"/>
     <use x="357.763672" xlink:href="#DejaVuSans-116"/>
     <use x="396.972656" xlink:href="#DejaVuSans-101"/>
    </g>
   </g>
   <g id="text_40">
    <!-- effective -->
    <g transform="translate(858.045551 377.039126)scale(0.11 -0.11)">
     <use xlink:href="#DejaVuSans-101"/>
     <use x="61.523438" xlink:href="#DejaVuSans-102"/>
     <use x="96.728516" xlink:href="#DejaVuSans-102"/>
     <use x="131.933594" xlink:href="#DejaVuSans-101"/>
     <use x="193.457031" xlink:href="#DejaVuSans-99"/>
     <use x="248.4375" xlink:href="#DejaVuSans-116"/>
     <use x="287.646484" xlink:href="#DejaVuSans-105"/>
     <use x="315.429688" xlink:href="#DejaVuSans-118"/>
     <use x="374.609375" xlink:href="#DejaVuSans-101"/>
    </g>
   </g>
   <g id="text_41">
    <!-- findings -->
    <g transform="translate(710.248829 286.929401)scale(0.11 -0.11)">
     <use xlink:href="#DejaVuSans-102"/>
     <use x="35.205078" xlink:href="#DejaVuSans-105"/>
     <use x="62.988281" xlink:href="#DejaVuSans-110"/>
     <use x="126.367188" xlink:href="#DejaVuSans-100"/>
     <use x="189.84375" xlink:href="#DejaVuSans-105"/>
     <use x="217.626953" xlink:href="#DejaVuSans-110"/>
     <use x="281.005859" xlink:href="#DejaVuSans-103"/>
     <use x="344.482422" xlink:href="#DejaVuSans-115"/>
    </g>
   </g>
   <g id="text_42">
    <!-- adaptable -->
    <g transform="translate(655.704249 604.973061)scale(0.11 -0.11)">
     <use xlink:href="#DejaVuSans-97"/>
     <use x="61.279297" xlink:href="#DejaVuSans-100"/>
     <use x="124.755859" xlink:href="#DejaVuSans-97"/>
     <use x="186.035156" xlink:href="#DejaVuSans-112"/>
     <use x="249.511719" xlink:href="#DejaVuSans-116"/>
     <use x="288.720703" xlink:href="#DejaVuSans-97"/>
     <use x="350" xlink:href="#DejaVuSans-98"/>
     <use x="413.476562" xlink:href="#DejaVuSans-108"/>
     <use x="441.259766" xlink:href="#DejaVuSans-101"/>
    </g>
   </g>
   <g id="text_43">
    <!-- coupled -->
    <g transform="translate(748.342013 428.035958)scale(0.11 -0.11)">
     <use xlink:href="#DejaVuSans-99"/>
     <use x="54.980469" xlink:href="#DejaVuSans-111"/>
     <use x="116.162109" xlink:href="#DejaVuSans-117"/>
     <use x="179.541016" xlink:href="#DejaVuSans-112"/>
     <use x="243.017578" xlink:href="#DejaVuSans-108"/>
     <use x="270.800781" xlink:href="#DejaVuSans-101"/>
     <use x="332.324219" xlink:href="#DejaVuSans-100"/>
    </g>
   </g>
   <g id="text_44">
    <!-- interpretation -->
    <g transform="translate(1122.304558 173.216664)scale(0.11 -0.11)">
     <use xlink:href="#DejaVuSans-105"/>
     <use x="27.783203" xlink:href="#DejaVuSans-110"/>
     <use x="91.162109" xlink:href="#DejaVuSans-116"/>
     <use x="130.371094" xlink:href="#DejaVuSans-101"/>
     <use x="191.894531" xlink:href="#DejaVuSans-114"/>
     <use x="233.007812" xlink:href="#DejaVuSans-112"/>
     <use x="296.484375" xlink:href="#DejaVuSans-114"/>
     <use x="335.347656" xlink:href="#DejaVuSans-101"/>
     <use x="396.871094" xlink:href="#DejaVuSans-116"/>
     <use x="436.080078" xlink:href="#DejaVuSans-97"/>
     <use x="497.359375" xlink:href="#DejaVuSans-116"/>
     <use x="536.568359" xlink:href="#DejaVuSans-105"/>
     <use x="564.351562" xlink:href="#DejaVuSans-111"/>
     <use x="625.533203" xlink:href="#DejaVuSans-110"/>
    </g>
   </g>
   <g id="text_45">
    <!-- relevant -->
    <g transform="translate(764.796384 434.009378)scale(0.11 -0.11)">
     <use xlink:href="#DejaVuSans-114"/>
     <use x="38.863281" xlink:href="#DejaVuSans-101"/>
     <use x="100.386719" xlink:href="#DejaVuSans-108"/>
     <use x="128.169922" xlink:href="#DejaVuSans-101"/>
     <use x="189.693359" xlink:href="#DejaVuSans-118"/>
     <use x="248.873047" xlink:href="#DejaVuSans-97"/>
     <use x="310.152344" xlink:href="#DejaVuSans-110"/>
     <use x="373.53125" xlink:href="#DejaVuSans-116"/>
    </g>
   </g>
   <g id="text_46">
    <!-- demonstrated -->
    <g transform="translate(996.684303 383.160106)scale(0.11 -0.11)">
     <use xlink:href="#DejaVuSans-100"/>
     <use x="63.476562" xlink:href="#DejaVuSans-101"/>
     <use x="125" xlink:href="#DejaVuSans-109"/>
     <use x="222.412109" xlink:href="#DejaVuSans-111"/>
     <use x="283.59375" xlink:href="#DejaVuSans-110"/>
     <use x="346.972656" xlink:href="#DejaVuSans-115"/>
     <use x="399.072266" xlink:href="#DejaVuSans-116"/>
     <use x="438.28125" xlink:href="#DejaVuSans-114"/>
     <use x="479.394531" xlink:href="#DejaVuSans-97"/>
     <use x="540.673828" xlink:href="#DejaVuSans-116"/>
     <use x="579.882812" xlink:href="#DejaVuSans-101"/>
     <use x="641.40625" xlink:href="#DejaVuSans-100"/>
    </g>
   </g>
   <g id="text_47">
    <!-- speed -->
    <g transform="translate(399.698597 371.038728)scale(0.11 -0.11)">
     <use xlink:href="#DejaVuSans-115"/>
     <use x="52.099609" xlink:href="#DejaVuSans-112"/>
     <use x="115.576172" xlink:href="#DejaVuSans-101"/>
     <use x="177.099609" xlink:href="#DejaVuSans-101"/>
     <use x="238.623047" xlink:href="#DejaVuSans-100"/>
    </g>
   </g>
   <g id="text_48">
    <!-- variety -->
    <g transform="translate(581.383615 529.197609)scale(0.11 -0.11)">
     <use xlink:href="#DejaVuSans-118"/>
     <use x="59.179688" xlink:href="#DejaVuSans-97"/>
     <use x="120.458984" xlink:href="#DejaVuSans-114"/>
     <use x="161.572266" xlink:href="#DejaVuSans-105"/>
     <use x="189.355469" xlink:href="#DejaVuSans-101"/>
     <use x="250.878906" xlink:href="#DejaVuSans-116"/>
     <use x="290.087891" xlink:href="#DejaVuSans-121"/>
    </g>
   </g>
   <g id="text_49">
    <!-- avoidance -->
    <g transform="translate(784.332158 508.098066)scale(0.11 -0.11)">
     <use xlink:href="#DejaVuSans-97"/>
     <use x="61.279297" xlink:href="#DejaVuSans-118"/>
     <use x="120.458984" xlink:href="#DejaVuSans-111"/>
     <use x="181.640625" xlink:href="#DejaVuSans-105"/>
     <use x="209.423828" xlink:href="#DejaVuSans-100"/>
     <use x="272.900391" xlink:href="#DejaVuSans-97"/>
     <use x="334.179688" xlink:href="#DejaVuSans-110"/>
     <use x="397.558594" xlink:href="#DejaVuSans-99"/>
     <use x="452.539062" xlink:href="#DejaVuSans-101"/>
    </g>
   </g>
   <g id="text_50">
    <!-- derived -->
    <g transform="translate(984.878503 325.431529)scale(0.11 -0.11)">
     <use xlink:href="#DejaVuSans-100"/>
     <use x="63.476562" xlink:href="#DejaVuSans-101"/>
     <use x="125" xlink:href="#DejaVuSans-114"/>
     <use x="166.113281" xlink:href="#DejaVuSans-105"/>
     <use x="193.896484" xlink:href="#DejaVuSans-118"/>
     <use x="253.076172" xlink:href="#DejaVuSans-101"/>
     <use x="314.599609" xlink:href="#DejaVuSans-100"/>
    </g>
   </g>
   <g id="text_51">
    <!-- addressed -->
    <g transform="translate(1045.616816 398.65204)scale(0.11 -0.11)">
     <use xlink:href="#DejaVuSans-97"/>
     <use x="61.279297" xlink:href="#DejaVuSans-100"/>
     <use x="124.755859" xlink:href="#DejaVuSans-100"/>
     <use x="188.232422" xlink:href="#DejaVuSans-114"/>
     <use x="227.095703" xlink:href="#DejaVuSans-101"/>
     <use x="288.619141" xlink:href="#DejaVuSans-115"/>
     <use x="340.71875" xlink:href="#DejaVuSans-115"/>
     <use x="392.818359" xlink:href="#DejaVuSans-101"/>
     <use x="454.341797" xlink:href="#DejaVuSans-100"/>
    </g>
   </g>
   <g id="text_52">
    <!-- autonomously -->
    <g transform="translate(547.823621 394.404668)scale(0.11 -0.11)">
     <use xlink:href="#DejaVuSans-97"/>
     <use x="61.279297" xlink:href="#DejaVuSans-117"/>
     <use x="124.658203" xlink:href="#DejaVuSans-116"/>
     <use x="163.867188" xlink:href="#DejaVuSans-111"/>
     <use x="225.048828" xlink:href="#DejaVuSans-110"/>
     <use x="288.427734" xlink:href="#DejaVuSans-111"/>
     <use x="349.609375" xlink:href="#DejaVuSans-109"/>
     <use x="447.021484" xlink:href="#DejaVuSans-111"/>
     <use x="508.203125" xlink:href="#DejaVuSans-117"/>
     <use x="571.582031" xlink:href="#DejaVuSans-115"/>
     <use x="623.681641" xlink:href="#DejaVuSans-108"/>
     <use x="651.464844" xlink:href="#DejaVuSans-121"/>
    </g>
   </g>
   <g id="text_53">
    <!-- abilities -->
    <g transform="translate(654.194177 146.689384)scale(0.11 -0.11)">
     <use xlink:href="#DejaVuSans-97"/>
     <use x="61.279297" xlink:href="#DejaVuSans-98"/>
     <use x="124.755859" xlink:href="#DejaVuSans-105"/>
     <use x="152.539062" xlink:href="#DejaVuSans-108"/>
     <use x="180.322266" xlink:href="#DejaVuSans-105"/>
     <use x="208.105469" xlink:href="#DejaVuSans-116"/>
     <use x="247.314453" xlink:href="#DejaVuSans-105"/>
     <use x="275.097656" xlink:href="#DejaVuSans-101"/>
     <use x="336.621094" xlink:href="#DejaVuSans-115"/>
    </g>
   </g>
   <g id="text_54">
    <!-- route -->
    <g transform="translate(624.454861 356.124579)scale(0.11 -0.11)">
     <use xlink:href="#DejaVuSans-114"/>
     <use x="38.863281" xlink:href="#DejaVuSans-111"/>
     <use x="100.044922" xlink:href="#DejaVuSans-117"/>
     <use x="163.423828" xlink:href="#DejaVuSans-116"/>
     <use x="202.632812" xlink:href="#DejaVuSans-101"/>
    </g>
   </g>
   <g id="text_55">
    <!-- cope -->
    <g transform="translate(694.594993 297.534129)scale(0.11 -0.11)">
     <use xlink:href="#DejaVuSans-99"/>
     <use x="54.980469" xlink:href="#DejaVuSans-111"/>
     <use x="116.162109" xlink:href="#DejaVuSans-112"/>
     <use x="179.638672" xlink:href="#DejaVuSans-101"/>
    </g>
   </g>
   <g id="text_56">
    <!-- deal -->
    <g transform="translate(447.188246 526.75049)scale(0.11 -0.11)">
     <use xlink:href="#DejaVuSans-100"/>
     <use x="63.476562" xlink:href="#DejaVuSans-101"/>
     <use x="125" xlink:href="#DejaVuSans-97"/>
     <use x="186.279297" xlink:href="#DejaVuSans-108"/>
    </g>
   </g>
   <g id="text_57">
    <!-- identifying -->
    <g transform="translate(1054.224047 434.494255)scale(0.11 -0.11)">
     <use xlink:href="#DejaVuSans-105"/>
     <use x="27.783203" xlink:href="#DejaVuSans-100"/>
     <use x="91.259766" xlink:href="#DejaVuSans-101"/>
     <use x="152.783203" xlink:href="#DejaVuSans-110"/>
     <use x="216.162109" xlink:href="#DejaVuSans-116"/>
     <use x="255.371094" xlink:href="#DejaVuSans-105"/>
     <use x="283.154297" xlink:href="#DejaVuSans-102"/>
     <use x="316.609375" xlink:href="#DejaVuSans-121"/>
     <use x="375.789062" xlink:href="#DejaVuSans-105"/>
     <use x="403.572266" xlink:href="#DejaVuSans-110"/>
     <use x="466.951172" xlink:href="#DejaVuSans-103"/>
    </g>
   </g>
   <g id="text_58">
    <!-- full -->
    <g transform="translate(961.368605 455.27273)scale(0.11 -0.11)">
     <use xlink:href="#DejaVuSans-102"/>
     <use x="35.205078" xlink:href="#DejaVuSans-117"/>
     <use x="98.583984" xlink:href="#DejaVuSans-108"/>
     <use x="126.367188" xlink:href="#DejaVuSans-108"/>
    </g>
   </g>
   <g id="text_59">
    <!-- detailing -->
    <g transform="translate(477.503875 178.054521)scale(0.11 -0.11)">
     <use xlink:href="#DejaVuSans-100"/>
     <use x="63.476562" xlink:href="#DejaVuSans-101"/>
     <use x="125" xlink:href="#DejaVuSans-116"/>
     <use x="164.208984" xlink:href="#DejaVuSans-97"/>
     <use x="225.488281" xlink:href="#DejaVuSans-105"/>
     <use x="253.271484" xlink:href="#DejaVuSans-108"/>
     <use x="281.054688" xlink:href="#DejaVuSans-105"/>
     <use x="308.837891" xlink:href="#DejaVuSans-110"/>
     <use x="372.216797" xlink:href="#DejaVuSans-103"/>
    </g>
   </g>
   <g id="text_60">
    <!-- robocog -->
    <g transform="translate(723.73599 245.220799)scale(0.11 -0.11)">
     <use xlink:href="#DejaVuSans-114"/>
     <use x="38.863281" xlink:href="#DejaVuSans-111"/>
     <use x="100.044922" xlink:href="#DejaVuSans-98"/>
     <use x="163.521484" xlink:href="#DejaVuSans-111"/>
     <use x="224.703125" xlink:href="#DejaVuSans-99"/>
     <use x="279.683594" xlink:href="#DejaVuSans-111"/>
     <use x="340.865234" xlink:href="#DejaVuSans-103"/>
    </g>
   </g>
   <g id="text_61">
    <!-- rostral -->
    <g transform="translate(408.009642 598.102091)scale(0.11 -0.11)">
     <use xlink:href="#DejaVuSans-114"/>
     <use x="38.863281" xlink:href="#DejaVuSans-111"/>
     <use x="100.044922" xlink:href="#DejaVuSans-115"/>
     <use x="152.144531" xlink:href="#DejaVuSans-116"/>
     <use x="191.353516" xlink:href="#DejaVuSans-114"/>
     <use x="232.466797" xlink:href="#DejaVuSans-97"/>
     <use x="293.746094" xlink:href="#DejaVuSans-108"/>
    </g>
   </g>
   <g id="text_62">
    <!-- autonomously -->
    <g transform="translate(546.148542 394.964652)scale(0.11 -0.11)">
     <use xlink:href="#DejaVuSans-97"/>
     <use x="61.279297" xlink:href="#DejaVuSans-117"/>
     <use x="124.658203" xlink:href="#DejaVuSans-116"/>
     <use x="163.867188" xlink:href="#DejaVuSans-111"/>
     <use x="225.048828" xlink:href="#DejaVuSans-110"/>
     <use x="288.427734" xlink:href="#DejaVuSans-111"/>
     <use x="349.609375" xlink:href="#DejaVuSans-109"/>
     <use x="447.021484" xlink:href="#DejaVuSans-111"/>
     <use x="508.203125" xlink:href="#DejaVuSans-117"/>
     <use x="571.582031" xlink:href="#DejaVuSans-115"/>
     <use x="623.681641" xlink:href="#DejaVuSans-108"/>
     <use x="651.464844" xlink:href="#DejaVuSans-121"/>
    </g>
   </g>
  </g>
 </g>
 <defs>
  <clipPath id="p7c7f613a25">
   <rect height="543.6" width="1004.4" x="162" y="86.4"/>
  </clipPath>
 </defs>
</svg>
