<?xml version="1.0" encoding="utf-8" standalone="no"?>
<!DOCTYPE svg PUBLIC "-//W3C//DTD SVG 1.1//EN"
  "http://www.w3.org/Graphics/SVG/1.1/DTD/svg11.dtd">
<!-- Created with matplotlib (https://matplotlib.org/) -->
<svg height="720pt" version="1.1" viewBox="0 0 1296 720" width="1296pt" xmlns="http://www.w3.org/2000/svg" xmlns:xlink="http://www.w3.org/1999/xlink">
 <metadata>
  <rdf:RDF xmlns:cc="http://creativecommons.org/ns#" xmlns:dc="http://purl.org/dc/elements/1.1/" xmlns:rdf="http://www.w3.org/1999/02/22-rdf-syntax-ns#">
   <cc:Work>
    <dc:type rdf:resource="http://purl.org/dc/dcmitype/StillImage"/>
    <dc:date>2024-12-10T19:09:30.713396</dc:date>
    <dc:format>image/svg+xml</dc:format>
    <dc:creator>
     <cc:Agent>
      <dc:title>Matplotlib v3.3.3, https://matplotlib.org/</dc:title>
     </cc:Agent>
    </dc:creator>
   </cc:Work>
  </rdf:RDF>
 </metadata>
 <defs>
  <style type="text/css">*{stroke-linecap:butt;stroke-linejoin:round;}</style>
 </defs>
 <g id="figure_1">
  <g id="patch_1">
   <path d="M 0 720 
L 1296 720 
L 1296 0 
L 0 0 
z
" style="fill:none;"/>
  </g>
  <g id="axes_1">
   <g id="patch_2">
    <path d="M 162 630 
L 1166.4 630 
L 1166.4 86.4 
L 162 86.4 
z
" style="fill:#ffffff;"/>
   </g>
   <g id="PathCollection_1">
    <defs>
     <path d="M 0 0.790569 
C 0.209661 0.790569 0.410764 0.70727 0.559017 0.559017 
C 0.70727 0.410764 0.790569 0.209661 0.790569 0 
C 0.790569 -0.209661 0.70727 -0.410764 0.559017 -0.559017 
C 0.410764 -0.70727 0.209661 -0.790569 0 -0.790569 
C -0.209661 -0.790569 -0.410764 -0.70727 -0.559017 -0.559017 
C -0.70727 -0.410764 -0.790569 -0.209661 -0.790569 0 
C -0.790569 0.209661 -0.70727 0.410764 -0.559017 0.559017 
C -0.410764 0.70727 -0.209661 0.790569 0 0.790569 
z
" id="m9d5df6e0c0" style="stroke:#87ceeb;"/>
    </defs>
    <g clip-path="url(#p7bc69e98d5)">
     <use style="fill:#87ceeb;stroke:#87ceeb;" x="207.957343" xlink:href="#m9d5df6e0c0" y="574.393255"/>
     <use style="fill:#87ceeb;stroke:#87ceeb;" x="937.08311" xlink:href="#m9d5df6e0c0" y="291.403098"/>
     <use style="fill:#87ceeb;stroke:#87ceeb;" x="663.214801" xlink:href="#m9d5df6e0c0" y="311.903116"/>
     <use style="fill:#87ceeb;stroke:#87ceeb;" x="1120.745455" xlink:href="#m9d5df6e0c0" y="142.273292"/>
     <use style="fill:#87ceeb;stroke:#87ceeb;" x="344.317707" xlink:href="#m9d5df6e0c0" y="348.906126"/>
     <use style="fill:#87ceeb;stroke:#87ceeb;" x="307.916214" xlink:href="#m9d5df6e0c0" y="411.941505"/>
     <use style="fill:#87ceeb;stroke:#87ceeb;" x="374.792674" xlink:href="#m9d5df6e0c0" y="285.144631"/>
     <use style="fill:#87ceeb;stroke:#87ceeb;" x="998.292144" xlink:href="#m9d5df6e0c0" y="275.896037"/>
     <use style="fill:#87ceeb;stroke:#87ceeb;" x="447.142095" xlink:href="#m9d5df6e0c0" y="383.555734"/>
     <use style="fill:#87ceeb;stroke:#87ceeb;" x="456.708676" xlink:href="#m9d5df6e0c0" y="362.970991"/>
     <use style="fill:#87ceeb;stroke:#87ceeb;" x="940.177701" xlink:href="#m9d5df6e0c0" y="111.109091"/>
     <use style="fill:#87ceeb;stroke:#87ceeb;" x="629.2575" xlink:href="#m9d5df6e0c0" y="323.534988"/>
     <use style="fill:#87ceeb;stroke:#87ceeb;" x="417.337519" xlink:href="#m9d5df6e0c0" y="605.290909"/>
     <use style="fill:#87ceeb;stroke:#87ceeb;" x="320.630882" xlink:href="#m9d5df6e0c0" y="396.533874"/>
     <use style="fill:#87ceeb;stroke:#87ceeb;" x="733.830325" xlink:href="#m9d5df6e0c0" y="281.159508"/>
     <use style="fill:#87ceeb;stroke:#87ceeb;" x="1050.055021" xlink:href="#m9d5df6e0c0" y="160.211478"/>
     <use style="fill:#87ceeb;stroke:#87ceeb;" x="521.35935" xlink:href="#m9d5df6e0c0" y="454.594035"/>
     <use style="fill:#87ceeb;stroke:#87ceeb;" x="342.186111" xlink:href="#m9d5df6e0c0" y="523.436714"/>
     <use style="fill:#87ceeb;stroke:#87ceeb;" x="568.580021" xlink:href="#m9d5df6e0c0" y="337.882036"/>
     <use style="fill:#87ceeb;stroke:#87ceeb;" x="881.805343" xlink:href="#m9d5df6e0c0" y="200.514106"/>
     <use style="fill:#87ceeb;stroke:#87ceeb;" x="406.111397" xlink:href="#m9d5df6e0c0" y="426.459638"/>
     <use style="fill:#87ceeb;stroke:#87ceeb;" x="386.677966" xlink:href="#m9d5df6e0c0" y="382.079227"/>
     <use style="fill:#87ceeb;stroke:#87ceeb;" x="264.881297" xlink:href="#m9d5df6e0c0" y="439.425174"/>
     <use style="fill:#87ceeb;stroke:#87ceeb;" x="443.471224" xlink:href="#m9d5df6e0c0" y="363.295187"/>
     <use style="fill:#87ceeb;stroke:#87ceeb;" x="280.705649" xlink:href="#m9d5df6e0c0" y="438.827196"/>
     <use style="fill:#87ceeb;stroke:#87ceeb;" x="779.657746" xlink:href="#m9d5df6e0c0" y="156.097517"/>
     <use style="fill:#87ceeb;stroke:#87ceeb;" x="782.778967" xlink:href="#m9d5df6e0c0" y="244.715498"/>
     <use style="fill:#87ceeb;stroke:#87ceeb;" x="732.295237" xlink:href="#m9d5df6e0c0" y="255.353306"/>
     <use style="fill:#87ceeb;stroke:#87ceeb;" x="793.817974" xlink:href="#m9d5df6e0c0" y="250.50716"/>
     <use style="fill:#87ceeb;stroke:#87ceeb;" x="1072.040979" xlink:href="#m9d5df6e0c0" y="126.993098"/>
     <use style="fill:#87ceeb;stroke:#87ceeb;" x="383.971275" xlink:href="#m9d5df6e0c0" y="445.549435"/>
     <use style="fill:#87ceeb;stroke:#87ceeb;" x="792.934629" xlink:href="#m9d5df6e0c0" y="240.850578"/>
     <use style="fill:#87ceeb;stroke:#87ceeb;" x="637.683847" xlink:href="#m9d5df6e0c0" y="290.062432"/>
     <use style="fill:#87ceeb;stroke:#87ceeb;" x="842.122222" xlink:href="#m9d5df6e0c0" y="199.596133"/>
    </g>
   </g>
   <g id="PathCollection_2">
    <defs>
     <path d="M 0 -2.236068 
L -0.502029 -0.690983 
L -2.126627 -0.690983 
L -0.812299 0.263932 
L -1.314328 1.809017 
L -0 0.854102 
L 1.314328 1.809017 
L 0.812299 0.263932 
L 2.126627 -0.690983 
L 0.502029 -0.690983 
z
" id="m704d4c47a8" style="stroke:#ff0000;"/>
    </defs>
    <g clip-path="url(#p7bc69e98d5)">
     <use style="fill:#ff0000;stroke:#ff0000;" x="207.654545" xlink:href="#m704d4c47a8" y="574.235941"/>
     <use style="fill:#ff0000;stroke:#ff0000;" x="520.852685" xlink:href="#m704d4c47a8" y="454.313018"/>
    </g>
   </g>
   <g id="matplotlib.axis_1">
    <g id="xtick_1">
     <g id="line2d_1">
      <defs>
       <path d="M 0 0 
L 0 3.5 
" id="m0670200fdd" style="stroke:#000000;stroke-width:0.8;"/>
      </defs>
      <g>
       <use style="stroke:#000000;stroke-width:0.8;" x="181.140447" xlink:href="#m0670200fdd" y="630"/>
      </g>
     </g>
     <g id="text_1">
      <!-- −11 -->
      <g transform="translate(170.588104 644.598438)scale(0.1 -0.1)">
       <defs>
        <path d="M 10.59375 35.5 
L 73.1875 35.5 
L 73.1875 27.203125 
L 10.59375 27.203125 
z
" id="DejaVuSans-8722"/>
        <path d="M 12.40625 8.296875 
L 28.515625 8.296875 
L 28.515625 63.921875 
L 10.984375 60.40625 
L 10.984375 69.390625 
L 28.421875 72.90625 
L 38.28125 72.90625 
L 38.28125 8.296875 
L 54.390625 8.296875 
L 54.390625 0 
L 12.40625 0 
z
" id="DejaVuSans-49"/>
       </defs>
       <use xlink:href="#DejaVuSans-8722"/>
       <use x="83.789062" xlink:href="#DejaVuSans-49"/>
       <use x="147.412109" xlink:href="#DejaVuSans-49"/>
      </g>
     </g>
    </g>
    <g id="xtick_2">
     <g id="line2d_2">
      <g>
       <use style="stroke:#000000;stroke-width:0.8;" x="346.853719" xlink:href="#m0670200fdd" y="630"/>
      </g>
     </g>
     <g id="text_2">
      <!-- −10 -->
      <g transform="translate(336.301375 644.598438)scale(0.1 -0.1)">
       <defs>
        <path d="M 31.78125 66.40625 
Q 24.171875 66.40625 20.328125 58.90625 
Q 16.5 51.421875 16.5 36.375 
Q 16.5 21.390625 20.328125 13.890625 
Q 24.171875 6.390625 31.78125 6.390625 
Q 39.453125 6.390625 43.28125 13.890625 
Q 47.125 21.390625 47.125 36.375 
Q 47.125 51.421875 43.28125 58.90625 
Q 39.453125 66.40625 31.78125 66.40625 
z
M 31.78125 74.21875 
Q 44.046875 74.21875 50.515625 64.515625 
Q 56.984375 54.828125 56.984375 36.375 
Q 56.984375 17.96875 50.515625 8.265625 
Q 44.046875 -1.421875 31.78125 -1.421875 
Q 19.53125 -1.421875 13.0625 8.265625 
Q 6.59375 17.96875 6.59375 36.375 
Q 6.59375 54.828125 13.0625 64.515625 
Q 19.53125 74.21875 31.78125 74.21875 
z
" id="DejaVuSans-48"/>
       </defs>
       <use xlink:href="#DejaVuSans-8722"/>
       <use x="83.789062" xlink:href="#DejaVuSans-49"/>
       <use x="147.412109" xlink:href="#DejaVuSans-48"/>
      </g>
     </g>
    </g>
    <g id="xtick_3">
     <g id="line2d_3">
      <g>
       <use style="stroke:#000000;stroke-width:0.8;" x="512.56699" xlink:href="#m0670200fdd" y="630"/>
      </g>
     </g>
     <g id="text_3">
      <!-- −9 -->
      <g transform="translate(505.195896 644.598438)scale(0.1 -0.1)">
       <defs>
        <path d="M 10.984375 1.515625 
L 10.984375 10.5 
Q 14.703125 8.734375 18.5 7.8125 
Q 22.3125 6.890625 25.984375 6.890625 
Q 35.75 6.890625 40.890625 13.453125 
Q 46.046875 20.015625 46.78125 33.40625 
Q 43.953125 29.203125 39.59375 26.953125 
Q 35.25 24.703125 29.984375 24.703125 
Q 19.046875 24.703125 12.671875 31.3125 
Q 6.296875 37.9375 6.296875 49.421875 
Q 6.296875 60.640625 12.9375 67.421875 
Q 19.578125 74.21875 30.609375 74.21875 
Q 43.265625 74.21875 49.921875 64.515625 
Q 56.59375 54.828125 56.59375 36.375 
Q 56.59375 19.140625 48.40625 8.859375 
Q 40.234375 -1.421875 26.421875 -1.421875 
Q 22.703125 -1.421875 18.890625 -0.6875 
Q 15.09375 0.046875 10.984375 1.515625 
z
M 30.609375 32.421875 
Q 37.25 32.421875 41.125 36.953125 
Q 45.015625 41.5 45.015625 49.421875 
Q 45.015625 57.28125 41.125 61.84375 
Q 37.25 66.40625 30.609375 66.40625 
Q 23.96875 66.40625 20.09375 61.84375 
Q 16.21875 57.28125 16.21875 49.421875 
Q 16.21875 41.5 20.09375 36.953125 
Q 23.96875 32.421875 30.609375 32.421875 
z
" id="DejaVuSans-57"/>
       </defs>
       <use xlink:href="#DejaVuSans-8722"/>
       <use x="83.789062" xlink:href="#DejaVuSans-57"/>
      </g>
     </g>
    </g>
    <g id="xtick_4">
     <g id="line2d_4">
      <g>
       <use style="stroke:#000000;stroke-width:0.8;" x="678.280261" xlink:href="#m0670200fdd" y="630"/>
      </g>
     </g>
     <g id="text_4">
      <!-- −8 -->
      <g transform="translate(670.909167 644.598438)scale(0.1 -0.1)">
       <defs>
        <path d="M 31.78125 34.625 
Q 24.75 34.625 20.71875 30.859375 
Q 16.703125 27.09375 16.703125 20.515625 
Q 16.703125 13.921875 20.71875 10.15625 
Q 24.75 6.390625 31.78125 6.390625 
Q 38.8125 6.390625 42.859375 10.171875 
Q 46.921875 13.96875 46.921875 20.515625 
Q 46.921875 27.09375 42.890625 30.859375 
Q 38.875 34.625 31.78125 34.625 
z
M 21.921875 38.8125 
Q 15.578125 40.375 12.03125 44.71875 
Q 8.5 49.078125 8.5 55.328125 
Q 8.5 64.0625 14.71875 69.140625 
Q 20.953125 74.21875 31.78125 74.21875 
Q 42.671875 74.21875 48.875 69.140625 
Q 55.078125 64.0625 55.078125 55.328125 
Q 55.078125 49.078125 51.53125 44.71875 
Q 48 40.375 41.703125 38.8125 
Q 48.828125 37.15625 52.796875 32.3125 
Q 56.78125 27.484375 56.78125 20.515625 
Q 56.78125 9.90625 50.3125 4.234375 
Q 43.84375 -1.421875 31.78125 -1.421875 
Q 19.734375 -1.421875 13.25 4.234375 
Q 6.78125 9.90625 6.78125 20.515625 
Q 6.78125 27.484375 10.78125 32.3125 
Q 14.796875 37.15625 21.921875 38.8125 
z
M 18.3125 54.390625 
Q 18.3125 48.734375 21.84375 45.5625 
Q 25.390625 42.390625 31.78125 42.390625 
Q 38.140625 42.390625 41.71875 45.5625 
Q 45.3125 48.734375 45.3125 54.390625 
Q 45.3125 60.0625 41.71875 63.234375 
Q 38.140625 66.40625 31.78125 66.40625 
Q 25.390625 66.40625 21.84375 63.234375 
Q 18.3125 60.0625 18.3125 54.390625 
z
" id="DejaVuSans-56"/>
       </defs>
       <use xlink:href="#DejaVuSans-8722"/>
       <use x="83.789062" xlink:href="#DejaVuSans-56"/>
      </g>
     </g>
    </g>
    <g id="xtick_5">
     <g id="line2d_5">
      <g>
       <use style="stroke:#000000;stroke-width:0.8;" x="843.993532" xlink:href="#m0670200fdd" y="630"/>
      </g>
     </g>
     <g id="text_5">
      <!-- −7 -->
      <g transform="translate(836.622439 644.598438)scale(0.1 -0.1)">
       <defs>
        <path d="M 8.203125 72.90625 
L 55.078125 72.90625 
L 55.078125 68.703125 
L 28.609375 0 
L 18.3125 0 
L 43.21875 64.59375 
L 8.203125 64.59375 
z
" id="DejaVuSans-55"/>
       </defs>
       <use xlink:href="#DejaVuSans-8722"/>
       <use x="83.789062" xlink:href="#DejaVuSans-55"/>
      </g>
     </g>
    </g>
    <g id="xtick_6">
     <g id="line2d_6">
      <g>
       <use style="stroke:#000000;stroke-width:0.8;" x="1009.706804" xlink:href="#m0670200fdd" y="630"/>
      </g>
     </g>
     <g id="text_6">
      <!-- −6 -->
      <g transform="translate(1002.33571 644.598438)scale(0.1 -0.1)">
       <defs>
        <path d="M 33.015625 40.375 
Q 26.375 40.375 22.484375 35.828125 
Q 18.609375 31.296875 18.609375 23.390625 
Q 18.609375 15.53125 22.484375 10.953125 
Q 26.375 6.390625 33.015625 6.390625 
Q 39.65625 6.390625 43.53125 10.953125 
Q 47.40625 15.53125 47.40625 23.390625 
Q 47.40625 31.296875 43.53125 35.828125 
Q 39.65625 40.375 33.015625 40.375 
z
M 52.59375 71.296875 
L 52.59375 62.3125 
Q 48.875 64.0625 45.09375 64.984375 
Q 41.3125 65.921875 37.59375 65.921875 
Q 27.828125 65.921875 22.671875 59.328125 
Q 17.53125 52.734375 16.796875 39.40625 
Q 19.671875 43.65625 24.015625 45.921875 
Q 28.375 48.1875 33.59375 48.1875 
Q 44.578125 48.1875 50.953125 41.515625 
Q 57.328125 34.859375 57.328125 23.390625 
Q 57.328125 12.15625 50.6875 5.359375 
Q 44.046875 -1.421875 33.015625 -1.421875 
Q 20.359375 -1.421875 13.671875 8.265625 
Q 6.984375 17.96875 6.984375 36.375 
Q 6.984375 53.65625 15.1875 63.9375 
Q 23.390625 74.21875 37.203125 74.21875 
Q 40.921875 74.21875 44.703125 73.484375 
Q 48.484375 72.75 52.59375 71.296875 
z
" id="DejaVuSans-54"/>
       </defs>
       <use xlink:href="#DejaVuSans-8722"/>
       <use x="83.789062" xlink:href="#DejaVuSans-54"/>
      </g>
     </g>
    </g>
    <g id="text_7">
     <!-- x -->
     <g transform="translate(661.240625 658.276562)scale(0.1 -0.1)">
      <defs>
       <path d="M 54.890625 54.6875 
L 35.109375 28.078125 
L 55.90625 0 
L 45.3125 0 
L 29.390625 21.484375 
L 13.484375 0 
L 2.875 0 
L 24.125 28.609375 
L 4.6875 54.6875 
L 15.28125 54.6875 
L 29.78125 35.203125 
L 44.28125 54.6875 
z
" id="DejaVuSans-120"/>
      </defs>
      <use xlink:href="#DejaVuSans-120"/>
     </g>
    </g>
   </g>
   <g id="matplotlib.axis_2">
    <g id="ytick_1">
     <g id="line2d_7">
      <defs>
       <path d="M 0 0 
L -3.5 0 
" id="m95a6b99752" style="stroke:#000000;stroke-width:0.8;"/>
      </defs>
      <g>
       <use style="stroke:#000000;stroke-width:0.8;" x="162" xlink:href="#m95a6b99752" y="579.130868"/>
      </g>
     </g>
     <g id="text_8">
      <!-- 25.0 -->
      <g transform="translate(132.734375 582.930087)scale(0.1 -0.1)">
       <defs>
        <path d="M 19.1875 8.296875 
L 53.609375 8.296875 
L 53.609375 0 
L 7.328125 0 
L 7.328125 8.296875 
Q 12.9375 14.109375 22.625 23.890625 
Q 32.328125 33.6875 34.8125 36.53125 
Q 39.546875 41.84375 41.421875 45.53125 
Q 43.3125 49.21875 43.3125 52.78125 
Q 43.3125 58.59375 39.234375 62.25 
Q 35.15625 65.921875 28.609375 65.921875 
Q 23.96875 65.921875 18.8125 64.3125 
Q 13.671875 62.703125 7.8125 59.421875 
L 7.8125 69.390625 
Q 13.765625 71.78125 18.9375 73 
Q 24.125 74.21875 28.421875 74.21875 
Q 39.75 74.21875 46.484375 68.546875 
Q 53.21875 62.890625 53.21875 53.421875 
Q 53.21875 48.921875 51.53125 44.890625 
Q 49.859375 40.875 45.40625 35.40625 
Q 44.1875 33.984375 37.640625 27.21875 
Q 31.109375 20.453125 19.1875 8.296875 
z
" id="DejaVuSans-50"/>
        <path d="M 10.796875 72.90625 
L 49.515625 72.90625 
L 49.515625 64.59375 
L 19.828125 64.59375 
L 19.828125 46.734375 
Q 21.96875 47.46875 24.109375 47.828125 
Q 26.265625 48.1875 28.421875 48.1875 
Q 40.625 48.1875 47.75 41.5 
Q 54.890625 34.8125 54.890625 23.390625 
Q 54.890625 11.625 47.5625 5.09375 
Q 40.234375 -1.421875 26.90625 -1.421875 
Q 22.3125 -1.421875 17.546875 -0.640625 
Q 12.796875 0.140625 7.71875 1.703125 
L 7.71875 11.625 
Q 12.109375 9.234375 16.796875 8.0625 
Q 21.484375 6.890625 26.703125 6.890625 
Q 35.15625 6.890625 40.078125 11.328125 
Q 45.015625 15.765625 45.015625 23.390625 
Q 45.015625 31 40.078125 35.4375 
Q 35.15625 39.890625 26.703125 39.890625 
Q 22.75 39.890625 18.8125 39.015625 
Q 14.890625 38.140625 10.796875 36.28125 
z
" id="DejaVuSans-53"/>
        <path d="M 10.6875 12.40625 
L 21 12.40625 
L 21 0 
L 10.6875 0 
z
" id="DejaVuSans-46"/>
       </defs>
       <use xlink:href="#DejaVuSans-50"/>
       <use x="63.623047" xlink:href="#DejaVuSans-53"/>
       <use x="127.246094" xlink:href="#DejaVuSans-46"/>
       <use x="159.033203" xlink:href="#DejaVuSans-48"/>
      </g>
     </g>
    </g>
    <g id="ytick_2">
     <g id="line2d_8">
      <g>
       <use style="stroke:#000000;stroke-width:0.8;" x="162" xlink:href="#m95a6b99752" y="517.945675"/>
      </g>
     </g>
     <g id="text_9">
      <!-- 25.5 -->
      <g transform="translate(132.734375 521.744894)scale(0.1 -0.1)">
       <use xlink:href="#DejaVuSans-50"/>
       <use x="63.623047" xlink:href="#DejaVuSans-53"/>
       <use x="127.246094" xlink:href="#DejaVuSans-46"/>
       <use x="159.033203" xlink:href="#DejaVuSans-53"/>
      </g>
     </g>
    </g>
    <g id="ytick_3">
     <g id="line2d_9">
      <g>
       <use style="stroke:#000000;stroke-width:0.8;" x="162" xlink:href="#m95a6b99752" y="456.760481"/>
      </g>
     </g>
     <g id="text_10">
      <!-- 26.0 -->
      <g transform="translate(132.734375 460.5597)scale(0.1 -0.1)">
       <use xlink:href="#DejaVuSans-50"/>
       <use x="63.623047" xlink:href="#DejaVuSans-54"/>
       <use x="127.246094" xlink:href="#DejaVuSans-46"/>
       <use x="159.033203" xlink:href="#DejaVuSans-48"/>
      </g>
     </g>
    </g>
    <g id="ytick_4">
     <g id="line2d_10">
      <g>
       <use style="stroke:#000000;stroke-width:0.8;" x="162" xlink:href="#m95a6b99752" y="395.575288"/>
      </g>
     </g>
     <g id="text_11">
      <!-- 26.5 -->
      <g transform="translate(132.734375 399.374506)scale(0.1 -0.1)">
       <use xlink:href="#DejaVuSans-50"/>
       <use x="63.623047" xlink:href="#DejaVuSans-54"/>
       <use x="127.246094" xlink:href="#DejaVuSans-46"/>
       <use x="159.033203" xlink:href="#DejaVuSans-53"/>
      </g>
     </g>
    </g>
    <g id="ytick_5">
     <g id="line2d_11">
      <g>
       <use style="stroke:#000000;stroke-width:0.8;" x="162" xlink:href="#m95a6b99752" y="334.390094"/>
      </g>
     </g>
     <g id="text_12">
      <!-- 27.0 -->
      <g transform="translate(132.734375 338.189313)scale(0.1 -0.1)">
       <use xlink:href="#DejaVuSans-50"/>
       <use x="63.623047" xlink:href="#DejaVuSans-55"/>
       <use x="127.246094" xlink:href="#DejaVuSans-46"/>
       <use x="159.033203" xlink:href="#DejaVuSans-48"/>
      </g>
     </g>
    </g>
    <g id="ytick_6">
     <g id="line2d_12">
      <g>
       <use style="stroke:#000000;stroke-width:0.8;" x="162" xlink:href="#m95a6b99752" y="273.204901"/>
      </g>
     </g>
     <g id="text_13">
      <!-- 27.5 -->
      <g transform="translate(132.734375 277.004119)scale(0.1 -0.1)">
       <use xlink:href="#DejaVuSans-50"/>
       <use x="63.623047" xlink:href="#DejaVuSans-55"/>
       <use x="127.246094" xlink:href="#DejaVuSans-46"/>
       <use x="159.033203" xlink:href="#DejaVuSans-53"/>
      </g>
     </g>
    </g>
    <g id="ytick_7">
     <g id="line2d_13">
      <g>
       <use style="stroke:#000000;stroke-width:0.8;" x="162" xlink:href="#m95a6b99752" y="212.019707"/>
      </g>
     </g>
     <g id="text_14">
      <!-- 28.0 -->
      <g transform="translate(132.734375 215.818926)scale(0.1 -0.1)">
       <use xlink:href="#DejaVuSans-50"/>
       <use x="63.623047" xlink:href="#DejaVuSans-56"/>
       <use x="127.246094" xlink:href="#DejaVuSans-46"/>
       <use x="159.033203" xlink:href="#DejaVuSans-48"/>
      </g>
     </g>
    </g>
    <g id="ytick_8">
     <g id="line2d_14">
      <g>
       <use style="stroke:#000000;stroke-width:0.8;" x="162" xlink:href="#m95a6b99752" y="150.834513"/>
      </g>
     </g>
     <g id="text_15">
      <!-- 28.5 -->
      <g transform="translate(132.734375 154.633732)scale(0.1 -0.1)">
       <use xlink:href="#DejaVuSans-50"/>
       <use x="63.623047" xlink:href="#DejaVuSans-56"/>
       <use x="127.246094" xlink:href="#DejaVuSans-46"/>
       <use x="159.033203" xlink:href="#DejaVuSans-53"/>
      </g>
     </g>
    </g>
    <g id="ytick_9">
     <g id="line2d_15">
      <g>
       <use style="stroke:#000000;stroke-width:0.8;" x="162" xlink:href="#m95a6b99752" y="89.64932"/>
      </g>
     </g>
     <g id="text_16">
      <!-- 29.0 -->
      <g transform="translate(132.734375 93.448538)scale(0.1 -0.1)">
       <use xlink:href="#DejaVuSans-50"/>
       <use x="63.623047" xlink:href="#DejaVuSans-57"/>
       <use x="127.246094" xlink:href="#DejaVuSans-46"/>
       <use x="159.033203" xlink:href="#DejaVuSans-48"/>
      </g>
     </g>
    </g>
    <g id="text_17">
     <!-- y -->
     <g transform="translate(126.654687 361.159375)rotate(-90)scale(0.1 -0.1)">
      <defs>
       <path d="M 32.171875 -5.078125 
Q 28.375 -14.84375 24.75 -17.8125 
Q 21.140625 -20.796875 15.09375 -20.796875 
L 7.90625 -20.796875 
L 7.90625 -13.28125 
L 13.1875 -13.28125 
Q 16.890625 -13.28125 18.9375 -11.515625 
Q 21 -9.765625 23.484375 -3.21875 
L 25.09375 0.875 
L 2.984375 54.6875 
L 12.5 54.6875 
L 29.59375 11.921875 
L 46.6875 54.6875 
L 56.203125 54.6875 
z
" id="DejaVuSans-121"/>
      </defs>
      <use xlink:href="#DejaVuSans-121"/>
     </g>
    </g>
   </g>
   <g id="patch_3">
    <path d="M 162 630 
L 162 86.4 
" style="fill:none;stroke:#000000;stroke-linecap:square;stroke-linejoin:miter;stroke-width:0.8;"/>
   </g>
   <g id="patch_4">
    <path d="M 1166.4 630 
L 1166.4 86.4 
" style="fill:none;stroke:#000000;stroke-linecap:square;stroke-linejoin:miter;stroke-width:0.8;"/>
   </g>
   <g id="patch_5">
    <path d="M 162 630 
L 1166.4 630 
" style="fill:none;stroke:#000000;stroke-linecap:square;stroke-linejoin:miter;stroke-width:0.8;"/>
   </g>
   <g id="patch_6">
    <path d="M 162 86.4 
L 1166.4 86.4 
" style="fill:none;stroke:#000000;stroke-linecap:square;stroke-linejoin:miter;stroke-width:0.8;"/>
   </g>
   <g id="text_18">
    <!-- controller -->
    <g transform="translate(208.78591 573.781403)scale(0.11 -0.11)">
     <defs>
      <path d="M 48.78125 52.59375 
L 48.78125 44.1875 
Q 44.96875 46.296875 41.140625 47.34375 
Q 37.3125 48.390625 33.40625 48.390625 
Q 24.65625 48.390625 19.8125 42.84375 
Q 14.984375 37.3125 14.984375 27.296875 
Q 14.984375 17.28125 19.8125 11.734375 
Q 24.65625 6.203125 33.40625 6.203125 
Q 37.3125 6.203125 41.140625 7.25 
Q 44.96875 8.296875 48.78125 10.40625 
L 48.78125 2.09375 
Q 45.015625 0.34375 40.984375 -0.53125 
Q 36.96875 -1.421875 32.421875 -1.421875 
Q 20.0625 -1.421875 12.78125 6.34375 
Q 5.515625 14.109375 5.515625 27.296875 
Q 5.515625 40.671875 12.859375 48.328125 
Q 20.21875 56 33.015625 56 
Q 37.15625 56 41.109375 55.140625 
Q 45.0625 54.296875 48.78125 52.59375 
z
" id="DejaVuSans-99"/>
      <path d="M 30.609375 48.390625 
Q 23.390625 48.390625 19.1875 42.75 
Q 14.984375 37.109375 14.984375 27.296875 
Q 14.984375 17.484375 19.15625 11.84375 
Q 23.34375 6.203125 30.609375 6.203125 
Q 37.796875 6.203125 41.984375 11.859375 
Q 46.1875 17.53125 46.1875 27.296875 
Q 46.1875 37.015625 41.984375 42.703125 
Q 37.796875 48.390625 30.609375 48.390625 
z
M 30.609375 56 
Q 42.328125 56 49.015625 48.375 
Q 55.71875 40.765625 55.71875 27.296875 
Q 55.71875 13.875 49.015625 6.21875 
Q 42.328125 -1.421875 30.609375 -1.421875 
Q 18.84375 -1.421875 12.171875 6.21875 
Q 5.515625 13.875 5.515625 27.296875 
Q 5.515625 40.765625 12.171875 48.375 
Q 18.84375 56 30.609375 56 
z
" id="DejaVuSans-111"/>
      <path d="M 54.890625 33.015625 
L 54.890625 0 
L 45.90625 0 
L 45.90625 32.71875 
Q 45.90625 40.484375 42.875 44.328125 
Q 39.84375 48.1875 33.796875 48.1875 
Q 26.515625 48.1875 22.3125 43.546875 
Q 18.109375 38.921875 18.109375 30.90625 
L 18.109375 0 
L 9.078125 0 
L 9.078125 54.6875 
L 18.109375 54.6875 
L 18.109375 46.1875 
Q 21.34375 51.125 25.703125 53.5625 
Q 30.078125 56 35.796875 56 
Q 45.21875 56 50.046875 50.171875 
Q 54.890625 44.34375 54.890625 33.015625 
z
" id="DejaVuSans-110"/>
      <path d="M 18.3125 70.21875 
L 18.3125 54.6875 
L 36.8125 54.6875 
L 36.8125 47.703125 
L 18.3125 47.703125 
L 18.3125 18.015625 
Q 18.3125 11.328125 20.140625 9.421875 
Q 21.96875 7.515625 27.59375 7.515625 
L 36.8125 7.515625 
L 36.8125 0 
L 27.59375 0 
Q 17.1875 0 13.234375 3.875 
Q 9.28125 7.765625 9.28125 18.015625 
L 9.28125 47.703125 
L 2.6875 47.703125 
L 2.6875 54.6875 
L 9.28125 54.6875 
L 9.28125 70.21875 
z
" id="DejaVuSans-116"/>
      <path d="M 41.109375 46.296875 
Q 39.59375 47.171875 37.8125 47.578125 
Q 36.03125 48 33.890625 48 
Q 26.265625 48 22.1875 43.046875 
Q 18.109375 38.09375 18.109375 28.8125 
L 18.109375 0 
L 9.078125 0 
L 9.078125 54.6875 
L 18.109375 54.6875 
L 18.109375 46.1875 
Q 20.953125 51.171875 25.484375 53.578125 
Q 30.03125 56 36.53125 56 
Q 37.453125 56 38.578125 55.875 
Q 39.703125 55.765625 41.0625 55.515625 
z
" id="DejaVuSans-114"/>
      <path d="M 9.421875 75.984375 
L 18.40625 75.984375 
L 18.40625 0 
L 9.421875 0 
z
" id="DejaVuSans-108"/>
      <path d="M 56.203125 29.59375 
L 56.203125 25.203125 
L 14.890625 25.203125 
Q 15.484375 15.921875 20.484375 11.0625 
Q 25.484375 6.203125 34.421875 6.203125 
Q 39.59375 6.203125 44.453125 7.46875 
Q 49.3125 8.734375 54.109375 11.28125 
L 54.109375 2.78125 
Q 49.265625 0.734375 44.1875 -0.34375 
Q 39.109375 -1.421875 33.890625 -1.421875 
Q 20.796875 -1.421875 13.15625 6.1875 
Q 5.515625 13.8125 5.515625 26.8125 
Q 5.515625 40.234375 12.765625 48.109375 
Q 20.015625 56 32.328125 56 
Q 43.359375 56 49.78125 48.890625 
Q 56.203125 41.796875 56.203125 29.59375 
z
M 47.21875 32.234375 
Q 47.125 39.59375 43.09375 43.984375 
Q 39.0625 48.390625 32.421875 48.390625 
Q 24.90625 48.390625 20.390625 44.140625 
Q 15.875 39.890625 15.1875 32.171875 
z
" id="DejaVuSans-101"/>
     </defs>
     <use xlink:href="#DejaVuSans-99"/>
     <use x="54.980469" xlink:href="#DejaVuSans-111"/>
     <use x="116.162109" xlink:href="#DejaVuSans-110"/>
     <use x="179.541016" xlink:href="#DejaVuSans-116"/>
     <use x="218.75" xlink:href="#DejaVuSans-114"/>
     <use x="257.613281" xlink:href="#DejaVuSans-111"/>
     <use x="318.794922" xlink:href="#DejaVuSans-108"/>
     <use x="346.578125" xlink:href="#DejaVuSans-108"/>
     <use x="374.361328" xlink:href="#DejaVuSans-101"/>
     <use x="435.884766" xlink:href="#DejaVuSans-114"/>
    </g>
   </g>
   <g id="text_19">
    <!-- networks -->
    <g transform="translate(937.911676 290.791246)scale(0.11 -0.11)">
     <defs>
      <path d="M 4.203125 54.6875 
L 13.1875 54.6875 
L 24.421875 12.015625 
L 35.59375 54.6875 
L 46.1875 54.6875 
L 57.421875 12.015625 
L 68.609375 54.6875 
L 77.59375 54.6875 
L 63.28125 0 
L 52.6875 0 
L 40.921875 44.828125 
L 29.109375 0 
L 18.5 0 
z
" id="DejaVuSans-119"/>
      <path d="M 9.078125 75.984375 
L 18.109375 75.984375 
L 18.109375 31.109375 
L 44.921875 54.6875 
L 56.390625 54.6875 
L 27.390625 29.109375 
L 57.625 0 
L 45.90625 0 
L 18.109375 26.703125 
L 18.109375 0 
L 9.078125 0 
z
" id="DejaVuSans-107"/>
      <path d="M 44.28125 53.078125 
L 44.28125 44.578125 
Q 40.484375 46.53125 36.375 47.5 
Q 32.28125 48.484375 27.875 48.484375 
Q 21.1875 48.484375 17.84375 46.4375 
Q 14.5 44.390625 14.5 40.28125 
Q 14.5 37.15625 16.890625 35.375 
Q 19.28125 33.59375 26.515625 31.984375 
L 29.59375 31.296875 
Q 39.15625 29.25 43.1875 25.515625 
Q 47.21875 21.78125 47.21875 15.09375 
Q 47.21875 7.46875 41.1875 3.015625 
Q 35.15625 -1.421875 24.609375 -1.421875 
Q 20.21875 -1.421875 15.453125 -0.5625 
Q 10.6875 0.296875 5.421875 2 
L 5.421875 11.28125 
Q 10.40625 8.6875 15.234375 7.390625 
Q 20.0625 6.109375 24.8125 6.109375 
Q 31.15625 6.109375 34.5625 8.28125 
Q 37.984375 10.453125 37.984375 14.40625 
Q 37.984375 18.0625 35.515625 20.015625 
Q 33.0625 21.96875 24.703125 23.78125 
L 21.578125 24.515625 
Q 13.234375 26.265625 9.515625 29.90625 
Q 5.8125 33.546875 5.8125 39.890625 
Q 5.8125 47.609375 11.28125 51.796875 
Q 16.75 56 26.8125 56 
Q 31.78125 56 36.171875 55.265625 
Q 40.578125 54.546875 44.28125 53.078125 
z
" id="DejaVuSans-115"/>
     </defs>
     <use xlink:href="#DejaVuSans-110"/>
     <use x="63.378906" xlink:href="#DejaVuSans-101"/>
     <use x="124.902344" xlink:href="#DejaVuSans-116"/>
     <use x="164.111328" xlink:href="#DejaVuSans-119"/>
     <use x="245.898438" xlink:href="#DejaVuSans-111"/>
     <use x="307.080078" xlink:href="#DejaVuSans-114"/>
     <use x="348.193359" xlink:href="#DejaVuSans-107"/>
     <use x="406.103516" xlink:href="#DejaVuSans-115"/>
    </g>
   </g>
   <g id="text_20">
    <!-- demonstrate -->
    <g transform="translate(664.043367 311.291264)scale(0.11 -0.11)">
     <defs>
      <path d="M 45.40625 46.390625 
L 45.40625 75.984375 
L 54.390625 75.984375 
L 54.390625 0 
L 45.40625 0 
L 45.40625 8.203125 
Q 42.578125 3.328125 38.25 0.953125 
Q 33.9375 -1.421875 27.875 -1.421875 
Q 17.96875 -1.421875 11.734375 6.484375 
Q 5.515625 14.40625 5.515625 27.296875 
Q 5.515625 40.1875 11.734375 48.09375 
Q 17.96875 56 27.875 56 
Q 33.9375 56 38.25 53.625 
Q 42.578125 51.265625 45.40625 46.390625 
z
M 14.796875 27.296875 
Q 14.796875 17.390625 18.875 11.75 
Q 22.953125 6.109375 30.078125 6.109375 
Q 37.203125 6.109375 41.296875 11.75 
Q 45.40625 17.390625 45.40625 27.296875 
Q 45.40625 37.203125 41.296875 42.84375 
Q 37.203125 48.484375 30.078125 48.484375 
Q 22.953125 48.484375 18.875 42.84375 
Q 14.796875 37.203125 14.796875 27.296875 
z
" id="DejaVuSans-100"/>
      <path d="M 52 44.1875 
Q 55.375 50.25 60.0625 53.125 
Q 64.75 56 71.09375 56 
Q 79.640625 56 84.28125 50.015625 
Q 88.921875 44.046875 88.921875 33.015625 
L 88.921875 0 
L 79.890625 0 
L 79.890625 32.71875 
Q 79.890625 40.578125 77.09375 44.375 
Q 74.3125 48.1875 68.609375 48.1875 
Q 61.625 48.1875 57.5625 43.546875 
Q 53.515625 38.921875 53.515625 30.90625 
L 53.515625 0 
L 44.484375 0 
L 44.484375 32.71875 
Q 44.484375 40.625 41.703125 44.40625 
Q 38.921875 48.1875 33.109375 48.1875 
Q 26.21875 48.1875 22.15625 43.53125 
Q 18.109375 38.875 18.109375 30.90625 
L 18.109375 0 
L 9.078125 0 
L 9.078125 54.6875 
L 18.109375 54.6875 
L 18.109375 46.1875 
Q 21.1875 51.21875 25.484375 53.609375 
Q 29.78125 56 35.6875 56 
Q 41.65625 56 45.828125 52.96875 
Q 50 49.953125 52 44.1875 
z
" id="DejaVuSans-109"/>
      <path d="M 34.28125 27.484375 
Q 23.390625 27.484375 19.1875 25 
Q 14.984375 22.515625 14.984375 16.5 
Q 14.984375 11.71875 18.140625 8.90625 
Q 21.296875 6.109375 26.703125 6.109375 
Q 34.1875 6.109375 38.703125 11.40625 
Q 43.21875 16.703125 43.21875 25.484375 
L 43.21875 27.484375 
z
M 52.203125 31.203125 
L 52.203125 0 
L 43.21875 0 
L 43.21875 8.296875 
Q 40.140625 3.328125 35.546875 0.953125 
Q 30.953125 -1.421875 24.3125 -1.421875 
Q 15.921875 -1.421875 10.953125 3.296875 
Q 6 8.015625 6 15.921875 
Q 6 25.140625 12.171875 29.828125 
Q 18.359375 34.515625 30.609375 34.515625 
L 43.21875 34.515625 
L 43.21875 35.40625 
Q 43.21875 41.609375 39.140625 45 
Q 35.0625 48.390625 27.6875 48.390625 
Q 23 48.390625 18.546875 47.265625 
Q 14.109375 46.140625 10.015625 43.890625 
L 10.015625 52.203125 
Q 14.9375 54.109375 19.578125 55.046875 
Q 24.21875 56 28.609375 56 
Q 40.484375 56 46.34375 49.84375 
Q 52.203125 43.703125 52.203125 31.203125 
z
" id="DejaVuSans-97"/>
     </defs>
     <use xlink:href="#DejaVuSans-100"/>
     <use x="63.476562" xlink:href="#DejaVuSans-101"/>
     <use x="125" xlink:href="#DejaVuSans-109"/>
     <use x="222.412109" xlink:href="#DejaVuSans-111"/>
     <use x="283.59375" xlink:href="#DejaVuSans-110"/>
     <use x="346.972656" xlink:href="#DejaVuSans-115"/>
     <use x="399.072266" xlink:href="#DejaVuSans-116"/>
     <use x="438.28125" xlink:href="#DejaVuSans-114"/>
     <use x="479.394531" xlink:href="#DejaVuSans-97"/>
     <use x="540.673828" xlink:href="#DejaVuSans-116"/>
     <use x="579.882812" xlink:href="#DejaVuSans-101"/>
    </g>
   </g>
   <g id="text_21">
    <!-- organizing -->
    <g transform="translate(1121.574021 141.66144)scale(0.11 -0.11)">
     <defs>
      <path d="M 45.40625 27.984375 
Q 45.40625 37.75 41.375 43.109375 
Q 37.359375 48.484375 30.078125 48.484375 
Q 22.859375 48.484375 18.828125 43.109375 
Q 14.796875 37.75 14.796875 27.984375 
Q 14.796875 18.265625 18.828125 12.890625 
Q 22.859375 7.515625 30.078125 7.515625 
Q 37.359375 7.515625 41.375 12.890625 
Q 45.40625 18.265625 45.40625 27.984375 
z
M 54.390625 6.78125 
Q 54.390625 -7.171875 48.1875 -13.984375 
Q 42 -20.796875 29.203125 -20.796875 
Q 24.46875 -20.796875 20.265625 -20.09375 
Q 16.0625 -19.390625 12.109375 -17.921875 
L 12.109375 -9.1875 
Q 16.0625 -11.328125 19.921875 -12.34375 
Q 23.78125 -13.375 27.78125 -13.375 
Q 36.625 -13.375 41.015625 -8.765625 
Q 45.40625 -4.15625 45.40625 5.171875 
L 45.40625 9.625 
Q 42.625 4.78125 38.28125 2.390625 
Q 33.9375 0 27.875 0 
Q 17.828125 0 11.671875 7.65625 
Q 5.515625 15.328125 5.515625 27.984375 
Q 5.515625 40.671875 11.671875 48.328125 
Q 17.828125 56 27.875 56 
Q 33.9375 56 38.28125 53.609375 
Q 42.625 51.21875 45.40625 46.390625 
L 45.40625 54.6875 
L 54.390625 54.6875 
z
" id="DejaVuSans-103"/>
      <path d="M 9.421875 54.6875 
L 18.40625 54.6875 
L 18.40625 0 
L 9.421875 0 
z
M 9.421875 75.984375 
L 18.40625 75.984375 
L 18.40625 64.59375 
L 9.421875 64.59375 
z
" id="DejaVuSans-105"/>
      <path d="M 5.515625 54.6875 
L 48.1875 54.6875 
L 48.1875 46.484375 
L 14.40625 7.171875 
L 48.1875 7.171875 
L 48.1875 0 
L 4.296875 0 
L 4.296875 8.203125 
L 38.09375 47.515625 
L 5.515625 47.515625 
z
" id="DejaVuSans-122"/>
     </defs>
     <use xlink:href="#DejaVuSans-111"/>
     <use x="61.181641" xlink:href="#DejaVuSans-114"/>
     <use x="100.544922" xlink:href="#DejaVuSans-103"/>
     <use x="164.021484" xlink:href="#DejaVuSans-97"/>
     <use x="225.300781" xlink:href="#DejaVuSans-110"/>
     <use x="288.679688" xlink:href="#DejaVuSans-105"/>
     <use x="316.462891" xlink:href="#DejaVuSans-122"/>
     <use x="368.953125" xlink:href="#DejaVuSans-105"/>
     <use x="396.736328" xlink:href="#DejaVuSans-110"/>
     <use x="460.115234" xlink:href="#DejaVuSans-103"/>
    </g>
   </g>
   <g id="text_22">
    <!-- patterns -->
    <g transform="translate(345.146273 348.294274)scale(0.11 -0.11)">
     <defs>
      <path d="M 18.109375 8.203125 
L 18.109375 -20.796875 
L 9.078125 -20.796875 
L 9.078125 54.6875 
L 18.109375 54.6875 
L 18.109375 46.390625 
Q 20.953125 51.265625 25.265625 53.625 
Q 29.59375 56 35.59375 56 
Q 45.5625 56 51.78125 48.09375 
Q 58.015625 40.1875 58.015625 27.296875 
Q 58.015625 14.40625 51.78125 6.484375 
Q 45.5625 -1.421875 35.59375 -1.421875 
Q 29.59375 -1.421875 25.265625 0.953125 
Q 20.953125 3.328125 18.109375 8.203125 
z
M 48.6875 27.296875 
Q 48.6875 37.203125 44.609375 42.84375 
Q 40.53125 48.484375 33.40625 48.484375 
Q 26.265625 48.484375 22.1875 42.84375 
Q 18.109375 37.203125 18.109375 27.296875 
Q 18.109375 17.390625 22.1875 11.75 
Q 26.265625 6.109375 33.40625 6.109375 
Q 40.53125 6.109375 44.609375 11.75 
Q 48.6875 17.390625 48.6875 27.296875 
z
" id="DejaVuSans-112"/>
     </defs>
     <use xlink:href="#DejaVuSans-112"/>
     <use x="63.476562" xlink:href="#DejaVuSans-97"/>
     <use x="124.755859" xlink:href="#DejaVuSans-116"/>
     <use x="163.964844" xlink:href="#DejaVuSans-116"/>
     <use x="203.173828" xlink:href="#DejaVuSans-101"/>
     <use x="264.697266" xlink:href="#DejaVuSans-114"/>
     <use x="304.060547" xlink:href="#DejaVuSans-110"/>
     <use x="367.439453" xlink:href="#DejaVuSans-115"/>
    </g>
   </g>
   <g id="text_23">
    <!-- determine -->
    <g transform="translate(308.74478 411.329653)scale(0.11 -0.11)">
     <use xlink:href="#DejaVuSans-100"/>
     <use x="63.476562" xlink:href="#DejaVuSans-101"/>
     <use x="125" xlink:href="#DejaVuSans-116"/>
     <use x="164.208984" xlink:href="#DejaVuSans-101"/>
     <use x="225.732422" xlink:href="#DejaVuSans-114"/>
     <use x="265.095703" xlink:href="#DejaVuSans-109"/>
     <use x="362.507812" xlink:href="#DejaVuSans-105"/>
     <use x="390.291016" xlink:href="#DejaVuSans-110"/>
     <use x="453.669922" xlink:href="#DejaVuSans-101"/>
    </g>
   </g>
   <g id="text_24">
    <!-- sensory -->
    <g transform="translate(375.62124 284.532779)scale(0.11 -0.11)">
     <use xlink:href="#DejaVuSans-115"/>
     <use x="52.099609" xlink:href="#DejaVuSans-101"/>
     <use x="113.623047" xlink:href="#DejaVuSans-110"/>
     <use x="177.001953" xlink:href="#DejaVuSans-115"/>
     <use x="229.101562" xlink:href="#DejaVuSans-111"/>
     <use x="290.283203" xlink:href="#DejaVuSans-114"/>
     <use x="331.396484" xlink:href="#DejaVuSans-121"/>
    </g>
   </g>
   <g id="text_25">
    <!-- behavior -->
    <g transform="translate(999.12071 275.284185)scale(0.11 -0.11)">
     <defs>
      <path d="M 48.6875 27.296875 
Q 48.6875 37.203125 44.609375 42.84375 
Q 40.53125 48.484375 33.40625 48.484375 
Q 26.265625 48.484375 22.1875 42.84375 
Q 18.109375 37.203125 18.109375 27.296875 
Q 18.109375 17.390625 22.1875 11.75 
Q 26.265625 6.109375 33.40625 6.109375 
Q 40.53125 6.109375 44.609375 11.75 
Q 48.6875 17.390625 48.6875 27.296875 
z
M 18.109375 46.390625 
Q 20.953125 51.265625 25.265625 53.625 
Q 29.59375 56 35.59375 56 
Q 45.5625 56 51.78125 48.09375 
Q 58.015625 40.1875 58.015625 27.296875 
Q 58.015625 14.40625 51.78125 6.484375 
Q 45.5625 -1.421875 35.59375 -1.421875 
Q 29.59375 -1.421875 25.265625 0.953125 
Q 20.953125 3.328125 18.109375 8.203125 
L 18.109375 0 
L 9.078125 0 
L 9.078125 75.984375 
L 18.109375 75.984375 
z
" id="DejaVuSans-98"/>
      <path d="M 54.890625 33.015625 
L 54.890625 0 
L 45.90625 0 
L 45.90625 32.71875 
Q 45.90625 40.484375 42.875 44.328125 
Q 39.84375 48.1875 33.796875 48.1875 
Q 26.515625 48.1875 22.3125 43.546875 
Q 18.109375 38.921875 18.109375 30.90625 
L 18.109375 0 
L 9.078125 0 
L 9.078125 75.984375 
L 18.109375 75.984375 
L 18.109375 46.1875 
Q 21.34375 51.125 25.703125 53.5625 
Q 30.078125 56 35.796875 56 
Q 45.21875 56 50.046875 50.171875 
Q 54.890625 44.34375 54.890625 33.015625 
z
" id="DejaVuSans-104"/>
      <path d="M 2.984375 54.6875 
L 12.5 54.6875 
L 29.59375 8.796875 
L 46.6875 54.6875 
L 56.203125 54.6875 
L 35.6875 0 
L 23.484375 0 
z
" id="DejaVuSans-118"/>
     </defs>
     <use xlink:href="#DejaVuSans-98"/>
     <use x="63.476562" xlink:href="#DejaVuSans-101"/>
     <use x="125" xlink:href="#DejaVuSans-104"/>
     <use x="188.378906" xlink:href="#DejaVuSans-97"/>
     <use x="249.658203" xlink:href="#DejaVuSans-118"/>
     <use x="308.837891" xlink:href="#DejaVuSans-105"/>
     <use x="336.621094" xlink:href="#DejaVuSans-111"/>
     <use x="397.802734" xlink:href="#DejaVuSans-114"/>
    </g>
   </g>
   <g id="text_26">
    <!-- example -->
    <g transform="translate(447.970662 382.943882)scale(0.11 -0.11)">
     <use xlink:href="#DejaVuSans-101"/>
     <use x="59.773438" xlink:href="#DejaVuSans-120"/>
     <use x="118.953125" xlink:href="#DejaVuSans-97"/>
     <use x="180.232422" xlink:href="#DejaVuSans-109"/>
     <use x="277.644531" xlink:href="#DejaVuSans-112"/>
     <use x="341.121094" xlink:href="#DejaVuSans-108"/>
     <use x="368.904297" xlink:href="#DejaVuSans-101"/>
    </g>
   </g>
   <g id="text_27">
    <!-- stable -->
    <g transform="translate(457.537243 362.359139)scale(0.11 -0.11)">
     <use xlink:href="#DejaVuSans-115"/>
     <use x="52.099609" xlink:href="#DejaVuSans-116"/>
     <use x="91.308594" xlink:href="#DejaVuSans-97"/>
     <use x="152.587891" xlink:href="#DejaVuSans-98"/>
     <use x="216.064453" xlink:href="#DejaVuSans-108"/>
     <use x="243.847656" xlink:href="#DejaVuSans-101"/>
    </g>
   </g>
   <g id="text_28">
    <!-- cerebellar -->
    <g transform="translate(941.006268 110.497239)scale(0.11 -0.11)">
     <use xlink:href="#DejaVuSans-99"/>
     <use x="54.980469" xlink:href="#DejaVuSans-101"/>
     <use x="116.503906" xlink:href="#DejaVuSans-114"/>
     <use x="155.367188" xlink:href="#DejaVuSans-101"/>
     <use x="216.890625" xlink:href="#DejaVuSans-98"/>
     <use x="280.367188" xlink:href="#DejaVuSans-101"/>
     <use x="341.890625" xlink:href="#DejaVuSans-108"/>
     <use x="369.673828" xlink:href="#DejaVuSans-108"/>
     <use x="397.457031" xlink:href="#DejaVuSans-97"/>
     <use x="458.736328" xlink:href="#DejaVuSans-114"/>
    </g>
   </g>
   <g id="text_29">
    <!-- joint -->
    <g transform="translate(630.086066 322.923136)scale(0.11 -0.11)">
     <defs>
      <path d="M 9.421875 54.6875 
L 18.40625 54.6875 
L 18.40625 -0.984375 
Q 18.40625 -11.421875 14.421875 -16.109375 
Q 10.453125 -20.796875 1.609375 -20.796875 
L -1.8125 -20.796875 
L -1.8125 -13.1875 
L 0.59375 -13.1875 
Q 5.71875 -13.1875 7.5625 -10.8125 
Q 9.421875 -8.453125 9.421875 -0.984375 
z
M 9.421875 75.984375 
L 18.40625 75.984375 
L 18.40625 64.59375 
L 9.421875 64.59375 
z
" id="DejaVuSans-106"/>
     </defs>
     <use xlink:href="#DejaVuSans-106"/>
     <use x="27.783203" xlink:href="#DejaVuSans-111"/>
     <use x="88.964844" xlink:href="#DejaVuSans-105"/>
     <use x="116.748047" xlink:href="#DejaVuSans-110"/>
     <use x="180.126953" xlink:href="#DejaVuSans-116"/>
    </g>
   </g>
   <g id="text_30">
    <!-- arm -->
    <g transform="translate(418.166086 604.679057)scale(0.11 -0.11)">
     <use xlink:href="#DejaVuSans-97"/>
     <use x="61.279297" xlink:href="#DejaVuSans-114"/>
     <use x="100.642578" xlink:href="#DejaVuSans-109"/>
    </g>
   </g>
   <g id="text_31">
    <!-- dependent -->
    <g transform="translate(321.459448 395.922022)scale(0.11 -0.11)">
     <use xlink:href="#DejaVuSans-100"/>
     <use x="63.476562" xlink:href="#DejaVuSans-101"/>
     <use x="125" xlink:href="#DejaVuSans-112"/>
     <use x="188.476562" xlink:href="#DejaVuSans-101"/>
     <use x="250" xlink:href="#DejaVuSans-110"/>
     <use x="313.378906" xlink:href="#DejaVuSans-100"/>
     <use x="376.855469" xlink:href="#DejaVuSans-101"/>
     <use x="438.378906" xlink:href="#DejaVuSans-110"/>
     <use x="501.757812" xlink:href="#DejaVuSans-116"/>
    </g>
   </g>
   <g id="text_32">
    <!-- changes -->
    <g transform="translate(734.658891 280.547656)scale(0.11 -0.11)">
     <use xlink:href="#DejaVuSans-99"/>
     <use x="54.980469" xlink:href="#DejaVuSans-104"/>
     <use x="118.359375" xlink:href="#DejaVuSans-97"/>
     <use x="179.638672" xlink:href="#DejaVuSans-110"/>
     <use x="243.017578" xlink:href="#DejaVuSans-103"/>
     <use x="306.494141" xlink:href="#DejaVuSans-101"/>
     <use x="368.017578" xlink:href="#DejaVuSans-115"/>
    </g>
   </g>
   <g id="text_33">
    <!-- obtained -->
    <g transform="translate(1050.883587 159.599627)scale(0.11 -0.11)">
     <use xlink:href="#DejaVuSans-111"/>
     <use x="61.181641" xlink:href="#DejaVuSans-98"/>
     <use x="124.658203" xlink:href="#DejaVuSans-116"/>
     <use x="163.867188" xlink:href="#DejaVuSans-97"/>
     <use x="225.146484" xlink:href="#DejaVuSans-105"/>
     <use x="252.929688" xlink:href="#DejaVuSans-110"/>
     <use x="316.308594" xlink:href="#DejaVuSans-101"/>
     <use x="377.832031" xlink:href="#DejaVuSans-100"/>
    </g>
   </g>
   <g id="text_34">
    <!-- autonomous -->
    <g transform="translate(522.187916 453.982183)scale(0.11 -0.11)">
     <defs>
      <path d="M 8.5 21.578125 
L 8.5 54.6875 
L 17.484375 54.6875 
L 17.484375 21.921875 
Q 17.484375 14.15625 20.5 10.265625 
Q 23.53125 6.390625 29.59375 6.390625 
Q 36.859375 6.390625 41.078125 11.03125 
Q 45.3125 15.671875 45.3125 23.6875 
L 45.3125 54.6875 
L 54.296875 54.6875 
L 54.296875 0 
L 45.3125 0 
L 45.3125 8.40625 
Q 42.046875 3.421875 37.71875 1 
Q 33.40625 -1.421875 27.6875 -1.421875 
Q 18.265625 -1.421875 13.375 4.4375 
Q 8.5 10.296875 8.5 21.578125 
z
M 31.109375 56 
z
" id="DejaVuSans-117"/>
     </defs>
     <use xlink:href="#DejaVuSans-97"/>
     <use x="61.279297" xlink:href="#DejaVuSans-117"/>
     <use x="124.658203" xlink:href="#DejaVuSans-116"/>
     <use x="163.867188" xlink:href="#DejaVuSans-111"/>
     <use x="225.048828" xlink:href="#DejaVuSans-110"/>
     <use x="288.427734" xlink:href="#DejaVuSans-111"/>
     <use x="349.609375" xlink:href="#DejaVuSans-109"/>
     <use x="447.021484" xlink:href="#DejaVuSans-111"/>
     <use x="508.203125" xlink:href="#DejaVuSans-117"/>
     <use x="571.582031" xlink:href="#DejaVuSans-115"/>
    </g>
   </g>
   <g id="text_35">
    <!-- multiple -->
    <g transform="translate(343.014677 522.824862)scale(0.11 -0.11)">
     <use xlink:href="#DejaVuSans-109"/>
     <use x="97.412109" xlink:href="#DejaVuSans-117"/>
     <use x="160.791016" xlink:href="#DejaVuSans-108"/>
     <use x="188.574219" xlink:href="#DejaVuSans-116"/>
     <use x="227.783203" xlink:href="#DejaVuSans-105"/>
     <use x="255.566406" xlink:href="#DejaVuSans-112"/>
     <use x="319.042969" xlink:href="#DejaVuSans-108"/>
     <use x="346.826172" xlink:href="#DejaVuSans-101"/>
    </g>
   </g>
   <g id="text_36">
    <!-- controlled -->
    <g transform="translate(569.408588 337.270184)scale(0.11 -0.11)">
     <use xlink:href="#DejaVuSans-99"/>
     <use x="54.980469" xlink:href="#DejaVuSans-111"/>
     <use x="116.162109" xlink:href="#DejaVuSans-110"/>
     <use x="179.541016" xlink:href="#DejaVuSans-116"/>
     <use x="218.75" xlink:href="#DejaVuSans-114"/>
     <use x="257.613281" xlink:href="#DejaVuSans-111"/>
     <use x="318.794922" xlink:href="#DejaVuSans-108"/>
     <use x="346.578125" xlink:href="#DejaVuSans-108"/>
     <use x="374.361328" xlink:href="#DejaVuSans-101"/>
     <use x="435.884766" xlink:href="#DejaVuSans-100"/>
    </g>
   </g>
   <g id="text_37">
    <!-- integrated -->
    <g transform="translate(882.63391 199.902255)scale(0.11 -0.11)">
     <use xlink:href="#DejaVuSans-105"/>
     <use x="27.783203" xlink:href="#DejaVuSans-110"/>
     <use x="91.162109" xlink:href="#DejaVuSans-116"/>
     <use x="130.371094" xlink:href="#DejaVuSans-101"/>
     <use x="191.894531" xlink:href="#DejaVuSans-103"/>
     <use x="255.371094" xlink:href="#DejaVuSans-114"/>
     <use x="296.484375" xlink:href="#DejaVuSans-97"/>
     <use x="357.763672" xlink:href="#DejaVuSans-116"/>
     <use x="396.972656" xlink:href="#DejaVuSans-101"/>
     <use x="458.496094" xlink:href="#DejaVuSans-100"/>
    </g>
   </g>
   <g id="text_38">
    <!-- achieve -->
    <g transform="translate(406.939964 425.847786)scale(0.11 -0.11)">
     <use xlink:href="#DejaVuSans-97"/>
     <use x="61.279297" xlink:href="#DejaVuSans-99"/>
     <use x="116.259766" xlink:href="#DejaVuSans-104"/>
     <use x="179.638672" xlink:href="#DejaVuSans-105"/>
     <use x="207.421875" xlink:href="#DejaVuSans-101"/>
     <use x="268.945312" xlink:href="#DejaVuSans-118"/>
     <use x="328.125" xlink:href="#DejaVuSans-101"/>
    </g>
   </g>
   <g id="text_39">
    <!-- allow -->
    <g transform="translate(387.506532 381.467375)scale(0.11 -0.11)">
     <use xlink:href="#DejaVuSans-97"/>
     <use x="61.279297" xlink:href="#DejaVuSans-108"/>
     <use x="89.0625" xlink:href="#DejaVuSans-108"/>
     <use x="116.845703" xlink:href="#DejaVuSans-111"/>
     <use x="178.027344" xlink:href="#DejaVuSans-119"/>
    </g>
   </g>
   <g id="text_40">
    <!-- algorithms -->
    <g transform="translate(265.709863 438.813322)scale(0.11 -0.11)">
     <use xlink:href="#DejaVuSans-97"/>
     <use x="61.279297" xlink:href="#DejaVuSans-108"/>
     <use x="89.0625" xlink:href="#DejaVuSans-103"/>
     <use x="152.539062" xlink:href="#DejaVuSans-111"/>
     <use x="213.720703" xlink:href="#DejaVuSans-114"/>
     <use x="254.833984" xlink:href="#DejaVuSans-105"/>
     <use x="282.617188" xlink:href="#DejaVuSans-116"/>
     <use x="321.826172" xlink:href="#DejaVuSans-104"/>
     <use x="385.205078" xlink:href="#DejaVuSans-109"/>
     <use x="482.617188" xlink:href="#DejaVuSans-115"/>
    </g>
   </g>
   <g id="text_41">
    <!-- areas -->
    <g transform="translate(444.29979 362.683335)scale(0.11 -0.11)">
     <use xlink:href="#DejaVuSans-97"/>
     <use x="61.279297" xlink:href="#DejaVuSans-114"/>
     <use x="100.142578" xlink:href="#DejaVuSans-101"/>
     <use x="161.666016" xlink:href="#DejaVuSans-97"/>
     <use x="222.945312" xlink:href="#DejaVuSans-115"/>
    </g>
   </g>
   <g id="text_42">
    <!-- challenging -->
    <g transform="translate(281.534215 438.215344)scale(0.11 -0.11)">
     <use xlink:href="#DejaVuSans-99"/>
     <use x="54.980469" xlink:href="#DejaVuSans-104"/>
     <use x="118.359375" xlink:href="#DejaVuSans-97"/>
     <use x="179.638672" xlink:href="#DejaVuSans-108"/>
     <use x="207.421875" xlink:href="#DejaVuSans-108"/>
     <use x="235.205078" xlink:href="#DejaVuSans-101"/>
     <use x="296.728516" xlink:href="#DejaVuSans-110"/>
     <use x="360.107422" xlink:href="#DejaVuSans-103"/>
     <use x="423.583984" xlink:href="#DejaVuSans-105"/>
     <use x="451.367188" xlink:href="#DejaVuSans-110"/>
     <use x="514.746094" xlink:href="#DejaVuSans-103"/>
    </g>
   </g>
   <g id="text_43">
    <!-- movement -->
    <g transform="translate(780.486313 155.485665)scale(0.11 -0.11)">
     <use xlink:href="#DejaVuSans-109"/>
     <use x="97.412109" xlink:href="#DejaVuSans-111"/>
     <use x="158.59375" xlink:href="#DejaVuSans-118"/>
     <use x="217.773438" xlink:href="#DejaVuSans-101"/>
     <use x="279.296875" xlink:href="#DejaVuSans-109"/>
     <use x="376.708984" xlink:href="#DejaVuSans-101"/>
     <use x="438.232422" xlink:href="#DejaVuSans-110"/>
     <use x="501.611328" xlink:href="#DejaVuSans-116"/>
    </g>
   </g>
   <g id="text_44">
    <!-- parallel -->
    <g transform="translate(783.607533 244.103646)scale(0.11 -0.11)">
     <use xlink:href="#DejaVuSans-112"/>
     <use x="63.476562" xlink:href="#DejaVuSans-97"/>
     <use x="124.755859" xlink:href="#DejaVuSans-114"/>
     <use x="165.869141" xlink:href="#DejaVuSans-97"/>
     <use x="227.148438" xlink:href="#DejaVuSans-108"/>
     <use x="254.931641" xlink:href="#DejaVuSans-108"/>
     <use x="282.714844" xlink:href="#DejaVuSans-101"/>
     <use x="344.238281" xlink:href="#DejaVuSans-108"/>
    </g>
   </g>
   <g id="text_45">
    <!-- shown -->
    <g transform="translate(733.123804 254.741454)scale(0.11 -0.11)">
     <use xlink:href="#DejaVuSans-115"/>
     <use x="52.099609" xlink:href="#DejaVuSans-104"/>
     <use x="115.478516" xlink:href="#DejaVuSans-111"/>
     <use x="176.660156" xlink:href="#DejaVuSans-119"/>
     <use x="258.447266" xlink:href="#DejaVuSans-110"/>
    </g>
   </g>
   <g id="text_46">
    <!-- fields -->
    <g transform="translate(794.64654 249.895308)scale(0.11 -0.11)">
     <defs>
      <path d="M 37.109375 75.984375 
L 37.109375 68.5 
L 28.515625 68.5 
Q 23.6875 68.5 21.796875 66.546875 
Q 19.921875 64.59375 19.921875 59.515625 
L 19.921875 54.6875 
L 34.71875 54.6875 
L 34.71875 47.703125 
L 19.921875 47.703125 
L 19.921875 0 
L 10.890625 0 
L 10.890625 47.703125 
L 2.296875 47.703125 
L 2.296875 54.6875 
L 10.890625 54.6875 
L 10.890625 58.5 
Q 10.890625 67.625 15.140625 71.796875 
Q 19.390625 75.984375 28.609375 75.984375 
z
" id="DejaVuSans-102"/>
     </defs>
     <use xlink:href="#DejaVuSans-102"/>
     <use x="35.205078" xlink:href="#DejaVuSans-105"/>
     <use x="62.988281" xlink:href="#DejaVuSans-101"/>
     <use x="124.511719" xlink:href="#DejaVuSans-108"/>
     <use x="152.294922" xlink:href="#DejaVuSans-100"/>
     <use x="215.771484" xlink:href="#DejaVuSans-115"/>
    </g>
   </g>
   <g id="text_47">
    <!-- plasticity -->
    <g transform="translate(1072.869545 126.381246)scale(0.11 -0.11)">
     <use xlink:href="#DejaVuSans-112"/>
     <use x="63.476562" xlink:href="#DejaVuSans-108"/>
     <use x="91.259766" xlink:href="#DejaVuSans-97"/>
     <use x="152.539062" xlink:href="#DejaVuSans-115"/>
     <use x="204.638672" xlink:href="#DejaVuSans-116"/>
     <use x="243.847656" xlink:href="#DejaVuSans-105"/>
     <use x="271.630859" xlink:href="#DejaVuSans-99"/>
     <use x="326.611328" xlink:href="#DejaVuSans-105"/>
     <use x="354.394531" xlink:href="#DejaVuSans-116"/>
     <use x="393.603516" xlink:href="#DejaVuSans-121"/>
    </g>
   </g>
   <g id="text_48">
    <!-- reaching -->
    <g transform="translate(384.799841 444.937584)scale(0.11 -0.11)">
     <use xlink:href="#DejaVuSans-114"/>
     <use x="38.863281" xlink:href="#DejaVuSans-101"/>
     <use x="100.386719" xlink:href="#DejaVuSans-97"/>
     <use x="161.666016" xlink:href="#DejaVuSans-99"/>
     <use x="216.646484" xlink:href="#DejaVuSans-104"/>
     <use x="280.025391" xlink:href="#DejaVuSans-105"/>
     <use x="307.808594" xlink:href="#DejaVuSans-110"/>
     <use x="371.1875" xlink:href="#DejaVuSans-103"/>
    </g>
   </g>
   <g id="text_49">
    <!-- hardware -->
    <g transform="translate(793.763195 240.238726)scale(0.11 -0.11)">
     <use xlink:href="#DejaVuSans-104"/>
     <use x="63.378906" xlink:href="#DejaVuSans-97"/>
     <use x="124.658203" xlink:href="#DejaVuSans-114"/>
     <use x="164.021484" xlink:href="#DejaVuSans-100"/>
     <use x="227.498047" xlink:href="#DejaVuSans-119"/>
     <use x="309.285156" xlink:href="#DejaVuSans-97"/>
     <use x="370.564453" xlink:href="#DejaVuSans-114"/>
     <use x="409.427734" xlink:href="#DejaVuSans-101"/>
    </g>
   </g>
   <g id="text_50">
    <!-- patients -->
    <g transform="translate(638.512414 289.45058)scale(0.11 -0.11)">
     <use xlink:href="#DejaVuSans-112"/>
     <use x="63.476562" xlink:href="#DejaVuSans-97"/>
     <use x="124.755859" xlink:href="#DejaVuSans-116"/>
     <use x="163.964844" xlink:href="#DejaVuSans-105"/>
     <use x="191.748047" xlink:href="#DejaVuSans-101"/>
     <use x="253.271484" xlink:href="#DejaVuSans-110"/>
     <use x="316.650391" xlink:href="#DejaVuSans-116"/>
     <use x="355.859375" xlink:href="#DejaVuSans-115"/>
    </g>
   </g>
   <g id="text_51">
    <!-- consensus -->
    <g transform="translate(842.950789 198.984281)scale(0.11 -0.11)">
     <use xlink:href="#DejaVuSans-99"/>
     <use x="54.980469" xlink:href="#DejaVuSans-111"/>
     <use x="116.162109" xlink:href="#DejaVuSans-110"/>
     <use x="179.541016" xlink:href="#DejaVuSans-115"/>
     <use x="231.640625" xlink:href="#DejaVuSans-101"/>
     <use x="293.164062" xlink:href="#DejaVuSans-110"/>
     <use x="356.542969" xlink:href="#DejaVuSans-115"/>
     <use x="408.642578" xlink:href="#DejaVuSans-117"/>
     <use x="472.021484" xlink:href="#DejaVuSans-115"/>
    </g>
   </g>
   <g id="text_52">
    <!-- controller -->
    <g transform="translate(207.654545 574.235941)scale(0.11 -0.11)">
     <use xlink:href="#DejaVuSans-99"/>
     <use x="54.980469" xlink:href="#DejaVuSans-111"/>
     <use x="116.162109" xlink:href="#DejaVuSans-110"/>
     <use x="179.541016" xlink:href="#DejaVuSans-116"/>
     <use x="218.75" xlink:href="#DejaVuSans-114"/>
     <use x="257.613281" xlink:href="#DejaVuSans-111"/>
     <use x="318.794922" xlink:href="#DejaVuSans-108"/>
     <use x="346.578125" xlink:href="#DejaVuSans-108"/>
     <use x="374.361328" xlink:href="#DejaVuSans-101"/>
     <use x="435.884766" xlink:href="#DejaVuSans-114"/>
    </g>
   </g>
   <g id="text_53">
    <!-- autonomous -->
    <g transform="translate(520.852685 454.313018)scale(0.11 -0.11)">
     <use xlink:href="#DejaVuSans-97"/>
     <use x="61.279297" xlink:href="#DejaVuSans-117"/>
     <use x="124.658203" xlink:href="#DejaVuSans-116"/>
     <use x="163.867188" xlink:href="#DejaVuSans-111"/>
     <use x="225.048828" xlink:href="#DejaVuSans-110"/>
     <use x="288.427734" xlink:href="#DejaVuSans-111"/>
     <use x="349.609375" xlink:href="#DejaVuSans-109"/>
     <use x="447.021484" xlink:href="#DejaVuSans-111"/>
     <use x="508.203125" xlink:href="#DejaVuSans-117"/>
     <use x="571.582031" xlink:href="#DejaVuSans-115"/>
    </g>
   </g>
  </g>
 </g>
 <defs>
  <clipPath id="p7bc69e98d5">
   <rect height="543.6" width="1004.4" x="162" y="86.4"/>
  </clipPath>
 </defs>
</svg>
